<svg xmlns="http://www.w3.org/2000/svg" width="192" height="192" fill="none"><path stroke="#000" stroke-linecap="round" stroke-linejoin="round" stroke-width="10" d="M119.596 119.908c6.187-2.375 9.518-8.689 7.44-14.103s-8.779-7.877-14.966-5.502-9.518 8.689-7.44 14.103 8.779 7.877 14.966 5.502m0 0c-7.219 2.771-11.386 9.406-9.307 14.82s9.614 7.556 16.833 4.785 11.385-9.406 9.307-14.82-9.615-7.556-16.833-4.785M69 100H34a6 6 0 0 0-6 6v50a6 6 0 0 0 6 6h56"/><path stroke="#000" stroke-linecap="round" stroke-linejoin="round" stroke-width="12" d="M70.425 102.677c-1.299-3.515.48-7.427 3.965-8.721l63.362-23.538c3.461-1.286 7.3.496 8.589 3.987l23.234 62.918c1.298 3.515-.48 7.427-3.965 8.721l-63.362 23.538c-3.461 1.286-7.3-.496-8.59-3.987z"/><path stroke="#000" stroke-linecap="round" stroke-linejoin="round" stroke-width="10" d="m31.206 98.5-10.11-55.89c-.582-3.216 1.536-6.307 4.72-6.892l57.91-10.622c3.163-.58 6.187 1.532 6.765 4.727L100 78.865M100 85V31a6 6 0 0 1 6-6h52a6 6 0 0 1 6 6v48a6 6 0 0 1-6 6h-8"/></svg>