<svg xmlns="http://www.w3.org/2000/svg" width="192" height="192" fill="none"><path stroke="#000" stroke-linecap="round" stroke-linejoin="round" stroke-width="12" d="M50 96c13.255 0 24-10.745 24-24 0-4.465 1.035-8.886 3.045-13.011s4.956-7.873 8.67-11.03c3.715-3.158 8.125-5.662 12.978-7.37C103.546 38.878 108.747 38 114 38s10.454.88 15.307 2.588 9.263 4.213 12.977 7.37 6.661 6.906 8.671 11.03C152.965 63.115 154 67.536 154 72c0-6.566-1.655-13.068-4.872-19.134s-7.93-11.578-13.873-16.221-12.998-8.326-20.763-10.839S98.405 22 90 22s-16.727 1.293-24.492 3.806-14.82 6.196-20.763 10.839S34.088 46.8 30.872 52.865C27.655 58.933 26 65.435 26 72c0 13.255 10.745 24 24 24m92 0c-13.255 0-24 10.745-24 24 0 4.465-1.035 8.886-3.045 13.011s-4.956 7.873-8.671 11.031c-3.714 3.157-8.124 5.661-12.977 7.37S83.253 154 78 154s-10.454-.879-15.307-2.588-9.263-4.213-12.977-7.37-6.661-6.906-8.671-11.031S38 124.465 38 120c0 6.566 1.655 13.068 4.872 19.134s7.93 11.578 13.873 16.221 12.998 8.326 20.763 10.839S93.595 170 102 170s16.727-1.293 24.492-3.806 14.82-6.196 20.763-10.839 10.657-10.155 13.873-16.221C164.345 133.068 166 126.566 166 120c0-13.255-10.745-24-24-24"/></svg>