<svg xmlns="http://www.w3.org/2000/svg" width="192" height="192" fill="none"><path stroke="#000" stroke-linecap="round" stroke-linejoin="round" stroke-width="10" d="M21 133a6 6 0 0 1 6-6h36c12 0 13 18 33 18s21-18 33-18h36a6 6 0 0 1 6 6v28a6 6 0 0 1-6 6H27a6 6 0 0 1-6-6z"/><path stroke="#000" stroke-linecap="round" stroke-linejoin="round" stroke-width="8" d="M96 23s7 7 7 10H89c0-3 7-10 7-10m74.479 43s-2.563 9.562-5.161 11.062l-7-12.124c2.598-1.5 12.161 1.062 12.161 1.062M21.521 66s9.563-2.562 12.16-1.062l-7 12.124C24.085 75.562 21.522 66 21.522 66ZM53 34.523s9.562 2.562 11.062 5.16l-12.124 7C50.438 44.085 53 34.523 53 34.523m86 0s2.562 9.562 1.062 12.16l-12.125-7c1.5-2.598 11.063-5.16 11.063-5.16"/><path stroke="#000" stroke-linecap="round" stroke-linejoin="round" stroke-width="10" d="M171 109c0-9.925-1.94-19.176-5.709-28.345a75.6 75.6 0 0 0-16.258-24.519 75 75 0 0 0-24.332-16.383A74.5 74.5 0 0 0 96 34a74.5 74.5 0 0 0-28.701 5.753 75 75 0 0 0-24.332 16.383 75.6 75.6 0 0 0-16.258 24.519C22.939 89.825 21 99.075 21 109z"/><path stroke="#000" stroke-linecap="round" stroke-linejoin="round" stroke-width="10" d="M151 108s-8.621-52.696-51.616-54.95C73.582 51.696 47 76.567 47 76.567"/><path stroke="#000" stroke-linecap="round" stroke-linejoin="round" stroke-width="10" d="M129 106.617s-4.29-34.933-29.962-35.565C73.367 70.419 39 108 39 108"/><path stroke="#000" stroke-linecap="round" stroke-linejoin="round" stroke-width="10" d="M110 108.238S109.159 90 96.17 90 65 109 65 109m53-24-14 7"/></svg>