<svg xmlns="http://www.w3.org/2000/svg" width="192" height="192" fill="none"><path stroke="#000" stroke-linecap="round" stroke-linejoin="round" stroke-width="12" d="M77.314 109.413 54.34 75.436c-2.159-3.248-6.523-3.248-8.682 0l-22.59 33.977C20.431 113.38 22.976 119 27.41 119H51m26.314-9.587C81.489 115.219 88.303 119 96 119s14.511-3.781 18.686-9.587l22.973-33.977c2.159-3.248 6.523-3.248 8.682 0l22.59 33.977c2.638 3.967.093 9.587-4.342 9.587H141m-63.686-9.587A22.9 22.9 0 0 1 73 96c0-12.703 10.297-23 23-23a22.9 22.9 0 0 1 14 4.75"/></svg>