<svg xmlns="http://www.w3.org/2000/svg" width="192" height="192" fill="none"><path stroke="#000" stroke-linecap="round" stroke-linejoin="round" stroke-width="12" d="M115 24.462A74 74 0 0 0 96 22c-40.87 0-74 33.13-74 74 0 16.48 5.387 31.701 14.496 44m119.008-88C164.613 64.299 170 79.52 170 96c0 40.869-33.131 74-74 74a74 74 0 0 1-19-2.462"/><path stroke="#000" stroke-linecap="round" stroke-linejoin="round" stroke-width="10" d="M111.839 93.723 145 24 90.93 80.82m20.909 12.903C110.734 85.965 104.063 80 96 80c-1.772 0-3.477.288-5.07.82m20.909 12.903q.16 1.117.161 2.277c0 7.064-4.578 13.059-10.929 15.18M90.929 80.82C84.58 82.94 80 88.936 80 96q.001 1.16.16 2.277m20.911 12.903L47 168l33.16-69.723m20.911 12.903c-1.593.532-3.299.82-5.071.82-8.063 0-14.734-5.965-15.84-13.723"/></svg>