<svg xmlns="http://www.w3.org/2000/svg" width="192" height="192" fill="none"><path stroke="#000" stroke-linecap="round" stroke-linejoin="round" stroke-width="12" d="M46 96s-1 4-1 18c0 36.776 30.668 45.184 38.297 46.706 1.109.222 2.167.674 3.042 1.389L96 170l9.661-7.905c.875-.715 1.933-1.167 3.042-1.389C116.332 159.184 147 150.776 147 114c0-14-1-18-1-18"/><path stroke="#000" stroke-linecap="round" stroke-linejoin="round" stroke-width="12" d="M96 101c29.834 0 49.805-5.547 57.011-7.932 1.889-.625 3.23-2.208 3.44-4.186 1.211-11.418 1.323-50.445-51.063-53.67C102.726 31.222 96.741 26.416 91 22c1.325 4.418-2.277 9.226-4.479 13.218C34.226 38.48 34.34 77.47 35.55 88.882c.21 1.978 1.55 3.561 3.44 4.186C46.195 95.453 66.167 101 96 101"/></svg>