<svg xmlns="http://www.w3.org/2000/svg" width="192" height="192" fill="none" viewBox="0 0 192 192"><path stroke="#000" stroke-linecap="round" stroke-linejoin="round" stroke-width="12" d="M69 116c6.636-5 18.468-7 27-7s20.364 2 27 7m-41.693-6c-1.422-3.667-3.318-2.9-3.318-22.5S89.996 53.667 96 49c6.004 4.667 18.011 18.9 18.011 38.5s-1.896 18.833-3.318 22.5"/><path stroke="#000" stroke-linecap="round" stroke-linejoin="round" stroke-width="10" d="M99.575 133.5c-.883-1.729-1.6-3.5-3.575-3.5s-2.692 1.771-3.575 3.5C90.45 137.366 96 144 96 144s5.55-6.634 3.575-10.5"/><rect width="96" height="148" x="48" y="22" stroke="#000" stroke-linejoin="round" stroke-width="12" rx="6"/></svg>