<svg xmlns="http://www.w3.org/2000/svg" width="192" height="192" fill="none"><path stroke="#000" stroke-linecap="round" stroke-linejoin="round" stroke-width="12" d="M89 127a32 32 0 0 0 22.627-9.373 31.996 31.996 0 0 0 0-45.254A32 32 0 0 0 89 63m53 0v64M53 63l-29.672 61.5M53 63l30 64"/><path stroke="#000" stroke-linecap="round" stroke-linejoin="round" stroke-width="12" d="M83 127h7m0-64h-8a6 6 0 0 0-6 6v46m13-52h78M30 115h46"/><path stroke="#000" stroke-linecap="round" stroke-linejoin="round" stroke-width="12" d="M22 66.485a6 6 0 0 1 1.757-4.242l38.486-38.486A6 6 0 0 1 66.485 22h59.03a6 6 0 0 1 4.242 1.757l38.486 38.486A6 6 0 0 1 170 66.485v59.03a6 6 0 0 1-1.757 4.242l-38.486 38.486a6 6 0 0 1-4.242 1.757h-59.03a6 6 0 0 1-4.242-1.757l-38.486-38.486A6 6 0 0 1 22 125.515z"/></svg>