<svg xmlns="http://www.w3.org/2000/svg" width="192" height="192" fill="none"><path stroke="#000" stroke-linecap="round" stroke-linejoin="round" stroke-width="12" d="M159.667 137.691a77.13 77.13 0 0 0-28.23-105.358C119.712 25.563 106.539 22 93 22v28.552m41.35 72.623 25.247 14.637M113.718 116h-6.253L93 76l-14.719 40H50m104.251 18.564a70.871 70.871 0 0 1-122.755 0 70.88 70.88 0 0 1 15.82-89.729C60.082 34.125 76.339 28.254 93 28.253m47.817 70.874c0 26.479-21.465 47.944-47.944 47.944-26.478 0-47.943-21.465-47.943-47.944 0-26.478 21.592-47.944 48.07-47.944s47.817 21.465 47.817 47.944"/></svg>