<svg xmlns="http://www.w3.org/2000/svg" width="192" height="192" fill="none"><path stroke="#000" stroke-linecap="round" stroke-linejoin="round" stroke-width="12" d="M136 42a20 20 0 0 0-20-20M98 150a20.005 20.005 0 0 1-12.346 18.478A20 20 0 0 1 78 170m42-108c4.243 0 8.313-2.107 11.314-5.858S136 47.304 136 42m-54 90c4.243 0 8.313 1.896 11.314 5.272S98 145.226 98 150m12.341-100.588a10 10 0 0 0 1.725 8.676A10 10 0 0 0 120 62m-47.66 82.588A10 10 0 0 1 82 132M40 84h120M32 108h118M40 84c28-32 50-62 76-62m-84 86c10 32 20 62 46 62"/></svg>