<svg xmlns="http://www.w3.org/2000/svg" width="192" height="192" fill="none"><path stroke="#000" stroke-linecap="round" stroke-linejoin="round" stroke-width="8" d="M48.672 98.328c1.225 1.225 3.709.728 5.547-1.11 1.837-1.837 2.334-4.32 1.109-5.546s-3.709-.728-5.547 1.11c-1.837 1.837-2.334 4.32-1.109 5.546m22 13c1.225 1.225 3.709.728 5.547-1.109 1.838-1.838 2.334-4.322 1.109-5.547s-3.709-.728-5.547 1.109c-1.838 1.838-2.334 4.322-1.109 5.547"/><path stroke="#000" stroke-linecap="round" stroke-linejoin="round" stroke-width="12" d="M60 55h72M25 45c0-11.046 8.954-20 20-20h102c11.046 0 20 8.954 20 20v102c0 11.046-8.954 20-20 20H45c-11.046 0-20-8.954-20-20z"/><path stroke="#000" stroke-linecap="round" stroke-linejoin="round" stroke-width="12" d="M25 102c0 19.16 24.414 48.966 59 31.934"/></svg>