<svg xmlns="http://www.w3.org/2000/svg" width="192" height="192" fill="none"><path stroke="#000" stroke-linecap="round" stroke-linejoin="round" stroke-width="12" d="M96 170c40.869 0 74-33.131 74-74 0-17.225-5.886-33.076-15.755-45.651L96 95.999l26.195-69.229A73.8 73.8 0 0 0 96 22c-40.87 0-74 33.13-74 74s33.13 74 74 74"/><path stroke="#000" stroke-linecap="round" stroke-linejoin="round" stroke-width="10" d="M133.681 69.615a46 46 0 1 1-22.705-17.109"/><path stroke="#000" stroke-linecap="round" stroke-linejoin="round" stroke-width="10" d="M113.321 86a20.002 20.002 0 0 1-29.496 25.867 20 20 0 0 1 17.351-35.186"/></svg>