<svg xmlns="http://www.w3.org/2000/svg" width="192" height="192" fill="none"><path stroke="#000" stroke-linecap="round" stroke-linejoin="round" stroke-width="10" d="M106 21c-14 18 44 54 44 93 0 11-1 33-22 33s-37-19-37-33 10-24 12-39-9-26 5-32"/><path stroke="#000" stroke-linecap="round" stroke-linejoin="round" stroke-width="10" d="M105 71c23 15 7 31 8 35l13-10c10 29-10.917 27-18 42s-4 33-14 33-24-19-24-49 24-55.24 8-71.24"/><path stroke="#000" stroke-linecap="round" stroke-linejoin="round" stroke-width="10" d="m99 118-6.793 6.793a6.4 6.4 0 0 0-1.632 2.845C88.717 134.428 80.743 160 66 160c-17 0-25-14-20-30m0 0c3 8 7 4 6-1s-5-9-6 1m0 0C31 95 66.348 91.65 79 82.178"/><circle cx="76" cy="53" r="4" stroke="#000" stroke-linecap="round" stroke-linejoin="round" stroke-width="8"/><circle cx="57" cy="69" r="4" stroke="#000" stroke-linecap="round" stroke-linejoin="round" stroke-width="8"/></svg>