<svg xmlns="http://www.w3.org/2000/svg" width="192" height="192" fill="none"><path stroke="#000" stroke-linecap="round" stroke-linejoin="round" stroke-width="12" d="M106 104h64c0 39-6 60-32 60s-32-21-32-60M74.599 60c1.93-2.844 3.218-5.763 4.05-8.113.978-2.765 3.52-4.924 6.442-4.66C118.382 50.224 132 82 132 82s-26-59-78-59c-22 0-26 16-26 24 0 4.134 1.068 10.405 5.137 15.5"/><path stroke="#000" stroke-linecap="round" stroke-linejoin="round" stroke-width="12" d="M54 58c0 71-32 54-32 91 0 13 14 20 32 20s32-7 32-20c0-37-32-20-32-91"/></svg>