<svg xmlns="http://www.w3.org/2000/svg" width="192" height="192" fill="none"><circle cx="96" cy="129" r="41" stroke="#000" stroke-linecap="round" stroke-linejoin="round" stroke-width="12"/><path stroke="#000" stroke-linecap="round" stroke-linejoin="round" stroke-width="12" d="M167 60V28a6 6 0 0 0-6-6H31a6 6 0 0 0-6 6v32"/><path stroke="#000" stroke-linecap="round" stroke-linejoin="round" stroke-width="10" d="m79 119 17-10m-17 10v20m0-20-17.32-10M96 109l17 10m-17-10V89m17 30v20m0-20 17.32-10M79 139l17 10m-17-10-17.32 10M96 149l17-10m-17 10v20m17-30 17.32 10"/></svg>