<svg xmlns="http://www.w3.org/2000/svg" width="192" height="192" fill="none"><circle cx="52" cy="132" r="30" stroke="#000" stroke-linecap="round" stroke-linejoin="round" stroke-width="12"/><path stroke="#000" stroke-linecap="round" stroke-linejoin="round" stroke-width="12" d="M140 162c16.569 0 30-13.431 30-30 0-14.158-9.808-26.026-23-29.179S124 88.158 124 74c0-2.41.621-4.668 1.158-6.913A30 30 0 0 0 126 60c0-16.569-13.431-30-30-30S66 43.431 66 60c0 14.104 9.733 25.935 22.85 29.142C102.04 92.296 112 103.843 112 118c0 2.319-.619 4.577-1.117 6.745A30 30 0 0 0 110 132c0 16.569 13.431 30 30 30"/></svg>