<svg xmlns="http://www.w3.org/2000/svg" width="192" height="192" fill="none"><path stroke="#000" stroke-linecap="round" stroke-linejoin="round" stroke-width="12" d="M129.745 115.581v-21.95a14.7 14.7 0 0 0-1.976-7.355 14.7 14.7 0 0 0-5.397-5.38L103.583 70.1a14.78 14.78 0 0 0-14.736.013l-59.48 34.331a14.75 14.75 0 0 0-5.39 5.388A14.7 14.7 0 0 0 22 117.186v20.974a14.7 14.7 0 0 0 1.979 7.352 14.7 14.7 0 0 0 5.398 5.377L48.8 162.034a14.82 14.82 0 0 0 14.753 0l58.815-33.728m7.377-12.725a14.69 14.69 0 0 1-7.377 12.725m7.377-12.725V47.508a14.7 14.7 0 0 0-1.975-7.357 14.76 14.76 0 0 0-5.389-5.39l-18.641-10.77a14.82 14.82 0 0 0-14.757-.047l-18.82 10.703a14.6 14.6 0 0 0-5.41 5.355 14.6 14.6 0 0 0-1.983 7.345v68.196m66.975.038a14.63 14.63 0 0 1-1.975 7.35 14.7 14.7 0 0 1-5.402 5.375m0 0-18.292 10.478a15.04 15.04 0 0 1-14.804.077l-19.078-10.674a14.5 14.5 0 0 1-5.432-5.315 14.47 14.47 0 0 1-1.992-7.329m0 0a14.64 14.64 0 0 0 1.983 7.345 14.67 14.67 0 0 0 5.402 5.363l59.02 33.69a14.82 14.82 0 0 0 14.753-.034l18.704-10.797A14.72 14.72 0 0 0 170 138.364v-21.59a14.68 14.68 0 0 0-7.372-12.733l-59.045-33.945a14.78 14.78 0 0 0-14.736.012L70.137 80.91a14.75 14.75 0 0 0-5.39 5.39 14.7 14.7 0 0 0-1.977 7.357z"/></svg>