<svg xmlns="http://www.w3.org/2000/svg" width="192" height="192" fill="none"><path stroke="#000" stroke-linecap="round" stroke-linejoin="round" stroke-width="12" d="M22 148.415v15.565a6.02 6.02 0 0 0 6.02 6.02h15.566a6.02 6.02 0 0 0 4.256-1.763l80.263-80.263a6.02 6.02 0 0 0 0-8.514L112.54 63.895a6.02 6.02 0 0 0-8.514 0l-80.263 80.263A6.02 6.02 0 0 0 22 148.415M168.237 39.329l-15.566-15.566a6.02 6.02 0 0 0-8.513 0l-13.559 13.56a6.02 6.02 0 0 0 0 8.513L146.164 61.4a6.02 6.02 0 0 0 8.514 0l13.559-13.559a6.02 6.02 0 0 0 0-8.513Z"/></svg>