<svg xmlns="http://www.w3.org/2000/svg" width="192" height="192" fill="none"><path stroke="#000" stroke-linecap="round" stroke-linejoin="round" stroke-width="12" d="M136.969 28.206 26.469 57.64c-3.212.855-5.12 4.137-4.264 7.332l25.354 94.576c.86 3.204 4.172 5.106 7.393 4.243l110.586-29.618c3.212-.86 5.116-4.144 4.255-7.338l-25.441-94.393c-.862-3.197-4.167-5.093-7.383-4.236"/><path stroke="#000" stroke-linecap="round" stroke-linejoin="round" stroke-width="8" d="M50.306 76.15c2.134-.572 3.632-1.9 3.346-2.967s-2.248-1.469-4.382-.897-3.632 1.9-3.346 2.967 2.248 1.469 4.382.897M56 97.4c2.134-.57 3.632-1.9 3.346-2.966s-2.248-1.469-4.382-.897-3.631 1.9-3.346 2.967c.286 1.067 2.248 1.469 4.382.897Zm5.694 21.251c2.134-.572 3.632-1.9 3.346-2.967s-2.248-1.469-4.382-.897-3.632 1.9-3.346 2.967 2.248 1.469 4.382.897m5.694 21.251c2.134-.572 3.632-1.9 3.346-2.967s-2.248-1.469-4.382-.897-3.632 1.9-3.346 2.967 2.248 1.469 4.382.897M75.42 69.42c2.133-.57 3.631-1.9 3.346-2.966-.286-1.067-2.248-1.469-4.382-.897s-3.632 1.9-3.346 2.967 2.248 1.469 4.382.897Zm5.694 21.25c2.133-.57 3.631-1.9 3.346-2.966-.286-1.067-2.248-1.469-4.382-.897s-3.632 1.9-3.346 2.967 2.248 1.469 4.382.897Zm5.694 21.252c2.134-.572 3.632-1.9 3.346-2.967s-2.248-1.469-4.382-.897-3.632 1.9-3.346 2.967 2.248 1.469 4.382.897m5.694 21.25c2.134-.572 3.632-1.9 3.346-2.967s-2.248-1.469-4.382-.897-3.631 1.9-3.346 2.967c.286 1.067 2.248 1.469 4.382.897m8.032-70.48c2.134-.572 3.632-1.9 3.346-2.967s-2.248-1.469-4.382-.897-3.632 1.9-3.346 2.967 2.248 1.469 4.382.897m5.694 21.25c2.134-.572 3.632-1.9 3.346-2.967s-2.248-1.469-4.382-.897-3.632 1.9-3.346 2.967 2.248 1.469 4.382.897m5.694 21.251c2.134-.572 3.632-1.9 3.346-2.967s-2.248-1.469-4.382-.897-3.632 1.9-3.346 2.967 2.248 1.469 4.382.897m5.694 21.25c2.134-.572 3.632-1.9 3.346-2.967s-2.248-1.469-4.382-.897-3.632 1.9-3.346 2.967 2.248 1.469 4.382.897m8.032-70.48c2.134-.572 3.632-1.9 3.346-2.967s-2.247-1.469-4.381-.897-3.632 1.9-3.346 2.967 2.247 1.469 4.381.897m5.694 21.25c2.134-.572 3.632-1.9 3.346-2.967s-2.247-1.469-4.381-.897-3.632 1.9-3.346 2.967 2.247 1.469 4.381.897m5.694 21.25c2.134-.572 3.632-1.9 3.346-2.967s-2.248-1.469-4.382-.897-3.632 1.9-3.346 2.967 2.248 1.469 4.382.897m5.694 21.251c2.134-.572 3.632-1.9 3.346-2.967s-2.248-1.469-4.382-.897-3.632 1.9-3.346 2.967 2.248 1.469 4.382.897"/></svg>