<svg xmlns="http://www.w3.org/2000/svg" width="192" height="192" fill="none"><path stroke="#000" stroke-linecap="round" stroke-linejoin="round" stroke-width="12" d="M96 24c-20.434 0-37 16.566-37 37 0 16.008 10.166 29.642 24.394 34.797C78.297 91.966 75 85.867 75 79c0-11.598 9.402-21 21-21s21 9.402 21 21c0 6.868-3.297 12.966-8.394 16.797C122.834 90.642 133 77.008 133 61c0-20.434-16.565-37-37-37M79.239 150.776a38.9 38.9 0 0 1-6.655 15.163c-2.102 2.896-6.318 2.64-8.572-.141l-40.631-50.126c-2.362-2.913-1.656-7.267 1.824-8.691a40.06 40.06 0 0 1 17.76-2.897 40 40 0 0 1 16.088 4.538 39.5 39.5 0 0 1 12.758 10.691 38.9 38.9 0 0 1 7.154 14.939 38.7 38.7 0 0 1 .274 16.524m33.522 0a38.9 38.9 0 0 0 6.655 15.163c2.102 2.896 6.318 2.64 8.572-.141l40.631-50.126c2.362-2.913 1.656-7.267-1.824-8.691a40.06 40.06 0 0 0-17.76-2.897 40 40 0 0 0-16.088 4.538 39.5 39.5 0 0 0-12.758 10.691 38.9 38.9 0 0 0-7.154 14.939 38.7 38.7 0 0 0-.274 16.524"/></svg>