<svg xmlns="http://www.w3.org/2000/svg" width="192" height="192" fill="none"><path stroke="#000" stroke-linecap="round" stroke-linejoin="round" stroke-width="12" d="M45 68V28a6 6 0 0 1 6-6h65.515a6 6 0 0 1 4.242 1.757l26.486 26.486A6 6 0 0 1 149 54.485V73M45 146v18a6 6 0 0 0 6 6h92a6 6 0 0 0 6-6v-11"/><path stroke="#000" stroke-linecap="round" stroke-linejoin="round" stroke-width="10" d="M101 117c3.713 0 7.274-1.475 9.899-4.101a13.996 13.996 0 0 0 0-19.799A14 14 0 0 0 101 89m33 0v48m29-48-26 24m26 24-22-24m-55 24V95a6 6 0 0 1 6-6h9m-15 28h15m-77 20 21-48 21 48m-6-12H30"/></svg>