<svg xmlns="http://www.w3.org/2000/svg" width="192" height="192" fill="none"><path stroke="#000" stroke-linecap="round" stroke-linejoin="round" stroke-width="12" d="m43.262 137.662 7.902-1.414a15.8 15.8 0 0 1 6.26.138 15.9 15.9 0 0 1 5.732 2.56 16.2 16.2 0 0 1 4.33 4.593 16.4 16.4 0 0 1 2.27 5.924 16.5 16.5 0 0 1-.136 6.356 16.4 16.4 0 0 1-2.522 5.819 16.2 16.2 0 0 1-4.524 4.396 15.9 15.9 0 0 1-5.836 2.304l-7.902 1.414a15.85 15.85 0 0 1-11.992-2.699c-3.487-2.478-5.861-6.261-6.6-10.517a16.5 16.5 0 0 1 2.658-12.174c2.442-3.539 6.168-5.95 10.36-6.7m80-16 7.902-1.414a15.8 15.8 0 0 1 6.261.138 15.9 15.9 0 0 1 5.731 2.56 16.2 16.2 0 0 1 4.331 4.593 16.4 16.4 0 0 1 2.269 5.924 16.5 16.5 0 0 1-.136 6.356 16.5 16.5 0 0 1-2.522 5.819 16.2 16.2 0 0 1-4.524 4.396 15.9 15.9 0 0 1-5.836 2.304l-7.902 1.414a15.85 15.85 0 0 1-11.992-2.699c-3.487-2.478-5.861-6.261-6.6-10.517a16.5 16.5 0 0 1 2.658-12.174c2.442-3.539 6.168-5.95 10.36-6.7"/><path stroke="#000" stroke-linecap="round" stroke-linejoin="round" stroke-width="12" d="M150 135.983V28.008c0-3.731-3.363-6.56-7.034-5.916l-68 11.912A6.005 6.005 0 0 0 70 39.921V152m0-91 80-14"/></svg>