<svg xmlns="http://www.w3.org/2000/svg" width="192" height="192" fill="none"><path stroke="#000" stroke-linecap="round" stroke-linejoin="round" stroke-width="12" d="M170 22s-61.246 23.663-92 33.83c-6.11 2.02-11.017 3.507-14 4.17-18 4-42 2-42 36 0 40 20 44 50 74"/><path stroke="#000" stroke-linecap="round" stroke-linejoin="round" stroke-width="12" d="M64.5 95s-.5-9 10-14.5c9.374-4.91 70.149-26.36 83.082-30.692-8.708 14.207-25.498 35.48-42.409 50.692M101.5 147.919C84.602 138.68 71.96 136.19 70 129c-3-11-3-11 13-10 5.465-.364 11.812-3.225 18.5-7.691"/><path stroke="#000" stroke-linecap="round" stroke-linejoin="round" stroke-width="6" d="M49.121 81.879c.39.39-.242 1.656-1.414 2.828s-2.438 1.805-2.828 1.414c-.39-.39.242-1.657 1.414-2.828 1.172-1.172 2.438-1.805 2.828-1.414"/><path stroke="#000" stroke-linecap="round" stroke-linejoin="round" stroke-width="12" d="m124 134 15 14 31-29"/><path stroke="#000" stroke-linecap="round" stroke-linejoin="round" stroke-width="12" d="M102 108a6 6 0 0 1 6-6h56a6 6 0 0 1 6 6v56a6 6 0 0 1-6 6h-56a6 6 0 0 1-6-6z"/></svg>