<svg xmlns="http://www.w3.org/2000/svg" width="192" height="192" fill="none"><path stroke="#000" stroke-linecap="round" stroke-linejoin="round" stroke-width="12" d="M122.33 26.707c4.877 18.884-9.091 35.879-27.494 34.99C78.539 60.92 65.458 46.035 69.56 27.04c13.635-6.775 38.801-6.553 52.77-.333m26.606 17.662c.222 0 .222.11.333.333C160.688 56.588 170 73.249 170 96.354c0 22.771-9.534 39.545-20.953 51.097-4.767-20.994-17.183-34.324-36.251-40.878V85.579c19.068-6.664 31.595-19.994 36.14-41.21m-69.399 41.21v20.994c-19.179 6.554-31.595 19.884-36.252 40.878C30.98 135.565 22.111 117.126 22 96.021c0-16.773 5.654-30.214 12.527-40.655 2.55-3.888 5.1-7.665 8.537-10.775 5.1 20.66 17.072 34.435 36.473 40.988m42.793 79.756c-14.08 6.22-38.47 6.22-52.438 0-5.1-19.884 10.089-36.435 28.38-34.99 15.854 1.332 28.714 16.55 24.058 34.99"/></svg>