<svg xmlns="http://www.w3.org/2000/svg" width="192" height="192" fill="none"><path stroke="#000" stroke-linecap="round" stroke-width="10" d="M96 45v16m-44.167 9.5 13.856 8m74.478-8-13.856 8M96 87v18m0 26v16m30.311-33.5 13.856 8m-74.477-8-13.857 8"/><path stroke="#000" stroke-linecap="round" stroke-width="12" d="m69.966 77.261 23-13.482a6 6 0 0 1 6.068 0l23 13.482A6 6 0 0 1 125 82.439v27.124c0 2.13-1.129 4.1-2.966 5.177l-23 13.482a6 6 0 0 1-6.068 0l-23-13.482A6 6 0 0 1 67 109.562V82.438a6 6 0 0 1 2.966-5.177Z"/><path stroke="#000" stroke-linecap="round" stroke-width="10" d="M96 45c6.627 0 12-5.373 12-12s-5.373-12-12-12-12 5.373-12 12 5.373 12 12 12ZM41.44 76.5c6.627 0 12-5.373 12-12s-5.373-12-12-12-12 5.373-12 12 5.372 12 12 12Zm109.12 0c6.627 0 12-5.373 12-12s-5.373-12-12-12-12 5.373-12 12 5.373 12 12 12ZM96 171c6.627 0 12-5.373 12-12s-5.373-12-12-12-12 5.373-12 12 5.373 12 12 12Zm54.56-31.5c6.627 0 12-5.373 12-12s-5.373-12-12-12-12 5.373-12 12 5.373 12 12 12Zm-109.12.001c6.628 0 12-5.373 12-12 0-6.628-5.372-12-12-12-6.627 0-12 5.372-12 12 0 6.627 5.373 12 12 12Z"/></svg>