<svg xmlns="http://www.w3.org/2000/svg" width="192" height="192" fill="none"><path stroke="#000" stroke-linecap="round" stroke-linejoin="round" stroke-width="12" d="M22 41c0-6.627 5.373-12 12-12h124c6.627 0 12 5.373 12 12v110c0 6.627-5.373 12-12 12H34c-6.627 0-12-5.373-12-12z"/><path stroke="#000" stroke-linecap="round" stroke-linejoin="round" stroke-width="12" d="M70 88a6 6 0 0 1 6-6h9v-6a6 6 0 0 1 6-6h10a6 6 0 0 1 6 6v6h9a6 6 0 0 1 6 6v24a6 6 0 0 1-6 6H76a6 6 0 0 1-6-6zm26 30v45m0-134v41m26 26h48M22 96h48"/></svg>