<svg xmlns="http://www.w3.org/2000/svg" width="192" height="192" fill="none" viewBox="0 0 192 192"><path stroke="#000" stroke-linecap="round" stroke-width="12" d="M29 44h15c5.523 0 10 4.477 10 10v29"/><path stroke="#000" stroke-width="12" d="M54 66c-.5 13.5-14.925 19-21 19s-11-4.925-11-11"/><path stroke="#000" stroke-width="10" d="M33 63h21M23 74c0-6.075 4.477-11 10-11"/><path stroke="#000" stroke-width="10" d="M21 74c0-6.075 5.373-11 12-11"/><path stroke="#000" stroke-linecap="round" stroke-width="12" d="M91 44h-7c-5.523 0-10 4.477-10 10v29m96 0V58.5c0-8.008-6.492-14.5-14.5-14.5S141 50.492 141 58.5V83m0 0V59c0-8.284-6.716-15-15-15s-15 6.716-15 15v24m0-39v39m-30 65v-24.5c0-8.008-6.492-14.5-14.5-14.5S52 115.492 52 123.5V148m0 0v-24c0-8.284-6.716-15-15-15s-15 6.716-15 15v24m0-39v39m112.289-5.711c-7.616 7.615-19.962 7.615-27.578 0s-7.615-19.962 0-27.578 19.962-7.615 27.578 0"/></svg>