<svg xmlns="http://www.w3.org/2000/svg" width="192" height="192" fill="none"><path stroke="#000" stroke-linecap="round" stroke-linejoin="round" stroke-width="12" d="M73 25.166c-17.725-5.386-33.286-4.067-42.594 5.24C17.218 43.594 20.07 69.337 35.305 96c6.6 11.55 15.522 23.273 26.472 34.223A176 176 0 0 0 76.007 143M51.47 73a178 178 0 0 1 10.306-11.223C72.727 50.827 84.45 41.904 96 35.305c26.663-15.235 52.406-18.087 65.594-4.899 8.69 8.69 10.415 22.83 6.223 39.094M25.167 119c-5.387 17.725-4.068 33.286 5.24 42.594 13.187 13.188 38.93 10.336 65.593-4.899 11.55-6.599 23.273-15.522 34.223-26.472a178 178 0 0 0 9.883-10.723M119.554 167c17.495 5.191 32.829 3.804 42.04-5.406 13.188-13.188 10.336-38.931-4.899-65.594-6.599-11.55-15.522-23.273-26.472-34.223A176 176 0 0 0 115.994 49"/><path stroke="#000" stroke-linecap="round" stroke-linejoin="round" stroke-width="12" d="M87 87c-7 7-20 9-20 9s13 2 20 9 9 20 9 20 2-13 9-20 20-9 20-9-13-2-20-9-9-20-9-20-2 13-9 20"/></svg>