<svg xmlns="http://www.w3.org/2000/svg" width="192" height="192" fill="none"><path stroke="#000" stroke-linecap="round" stroke-linejoin="round" stroke-width="12" d="M43.012 44.344a21 21 0 0 0 2.301 5.864c5.8 10.044 18.643 13.486 28.687 7.687s13.486-18.643 7.686-28.687a21 21 0 0 0-3.943-4.939m-34.73 20.075c9.363-9.604 21.316-16.671 34.73-20.075m-34.73 20.075c-8.506 8.723-14.875 19.539-18.263 31.602m52.993-51.677A74.2 74.2 0 0 1 96 22c6.301 0 12.417.787 18.257 2.27M24.749 75.945A74 74 0 0 0 22 96c0 6.95.958 13.676 2.75 20.054m0-40.108A21 21 0 0 1 31 75c11.598 0 21 9.402 21 21s-9.402 21-21 21c-2.177 0-4.276-.331-6.25-.946m0 0c3.388 12.063 9.757 22.879 18.262 31.602m0 0a21 21 0 0 1 2.301-5.864c5.8-10.045 18.643-13.486 28.687-7.687s13.486 18.642 7.686 28.687a21 21 0 0 1-3.943 4.939m-34.73-20.075c9.363 9.603 21.316 16.671 34.73 20.075m0 0A74 74 0 0 0 96 170c6.301 0 12.417-.787 18.257-2.269m34.731-123.387a21 21 0 0 1-2.301 5.864c-5.799 10.044-18.643 13.486-28.687 7.687s-13.486-18.643-7.687-28.687a21 21 0 0 1 3.944-4.939m34.731 20.075c-9.364-9.604-21.317-16.671-34.731-20.075m34.731 20.075c8.505 8.723 14.874 19.539 18.262 31.602m0 0A74 74 0 0 1 170 96c0 6.95-.958 13.676-2.75 20.054m0-40.108A21 21 0 0 0 161 75c-11.598 0-21 9.402-21 21s9.402 21 21 21c2.177 0 4.276-.331 6.25-.946m0 0c-3.388 12.063-9.757 22.879-18.262 31.602m0 0a21 21 0 0 0-2.301-5.864c-5.799-10.045-18.643-13.486-28.687-7.687s-13.486 18.642-7.687 28.687a21 21 0 0 0 3.944 4.939m34.731-20.075c-9.364 9.603-21.317 16.671-34.731 20.075"/></svg>