<svg xmlns="http://www.w3.org/2000/svg" width="192" height="192" fill="none"><path stroke="#000" stroke-linecap="round" stroke-linejoin="round" stroke-width="12" d="M96 144.392c23.679-12.32 40-38.316 40-68.392q0-1.424-.048-2.835M96 144.392c9.367 4.874 19.885 7.608 31 7.608a66.7 66.7 0 0 0 21.044-3.394M96 144.392C72.321 132.072 56 106.076 56 76q0-1.424.048-2.835m0 0C67.43 64.857 81.185 60 96 60s28.57 4.857 39.952 13.165m-79.904 0c-15.082 11.009-25.996 28.077-29.684 47.932m109.588-47.932c-.63-18.373-7.352-35.08-18.068-47.876m0 0A74 74 0 0 0 96 22c-40.87 0-74 33.13-74 74 0 8.81 1.54 17.261 4.364 25.097m91.52-95.808C148.07 34.621 170 62.75 170 96c0 20.577-8.399 39.193-21.956 52.606m0 0C134.676 161.833 116.292 170 96 170c-32.059 0-59.356-20.386-69.636-48.903"/></svg>