<svg xmlns="http://www.w3.org/2000/svg" width="192" height="192" fill="none"><path stroke="#000" stroke-linecap="round" stroke-linejoin="round" stroke-width="12" d="M161.801 79.819c-7.453-30.31-34.645-51.618-65.874-51.621-31.175.07-58.289 21.365-65.728 51.621m0 32.362c7.44 30.256 34.553 51.551 65.728 51.621 31.174-.07 58.288-21.365 65.728-51.621M170 66.37l-8.199 13.449M22 125.629l8.199-13.448"/><path stroke="#000" stroke-linecap="round" stroke-linejoin="round" stroke-width="12" d="M83.26 120.648V73.395a3.95 3.95 0 0 1 3.331-3.9l32.731-5.183a3.5 3.5 0 0 1 2.818.792 3.49 3.49 0 0 1 1.231 2.655l.137 45.84"/><path stroke="#000" stroke-linecap="round" stroke-linejoin="round" stroke-width="12" d="M117.028 109.173a10 10 0 0 0-1.947.151c-1.958.351-3.726 1.277-4.915 2.574s-1.702 2.86-1.425 4.344 1.32 2.767 2.9 3.569c1.58.801 3.568 1.054 5.526.704s3.726-1.276 4.915-2.574 1.702-2.859 1.426-4.343c-.23-1.232-.989-2.333-2.161-3.133s-2.69-1.254-4.319-1.292m-40.248 7.05a10 10 0 0 0-1.946.15c-.97.174-1.903.49-2.747.932s-1.581 1-2.17 1.642c-.589.643-1.018 1.357-1.262 2.103a4.5 4.5 0 0 0-.163 2.242c.277 1.484 1.32 2.768 2.9 3.569s3.569 1.055 5.527.704 3.726-1.276 4.915-2.574 1.702-2.859 1.426-4.343c-.23-1.232-.99-2.333-2.16-3.133-1.172-.8-2.69-1.254-4.32-1.292"/></svg>