<svg xmlns="http://www.w3.org/2000/svg" width="192" height="192" fill="none"><path stroke="#000" stroke-linecap="round" stroke-linejoin="round" stroke-width="12" d="M98.542 68.839c1.987 2.29 17.337 17.188 20.295 16.524l10.132-1.261a8.25 8.25 0 0 0 6.42-7.459l.59-8.272c.324-4.54-3.102-8.53-7.65-8.366-17.345.62-33.964 7.181-47.126 18.605-12.796 11.099-21.92 26.433-25.086 44.022-.807 4.48 2.658 8.438 7.198 8.76l8.27.587a8.25 8.25 0 0 0 8.294-5.301l2.681-9.853c1.075-2.835-11.758-19.915-13.743-22.205"/><path stroke="#000" stroke-linecap="round" stroke-linejoin="round" stroke-miterlimit="32" stroke-width="12" d="M96 170c40.869 0 74-33.131 74-74s-33.131-74-74-74-74 33.13-74 74 33.13 74 74 74"/></svg>