<svg xmlns="http://www.w3.org/2000/svg" width="192" height="192" fill="none"><path stroke="#000" stroke-linecap="round" stroke-linejoin="round" stroke-width="12" d="M50 22h88a6 6 0 0 1 6 6v90a6 6 0 0 1-6 6H50"/><path stroke="#000" stroke-linecap="round" stroke-linejoin="round" stroke-width="12" d="M38 131v33a6 6 0 0 0 6 6h116a6 6 0 0 0 6-6V53a6 6 0 0 0-6-6h-16"/><path stroke="#000" stroke-linecap="round" stroke-linejoin="round" stroke-width="12" d="M50 22 26 34v102l24-12zm25 79 22-58 22 58m-7-14H82"/></svg>