<svg xmlns="http://www.w3.org/2000/svg" width="192" height="192" fill="none"><path stroke="#000" stroke-linecap="round" stroke-linejoin="round" stroke-width="12" d="M53 88H32c-5.523 0-10 4.477-10 10v47l62 25V62c0-5.523-4.477-10-10-10H63c-5.523 0-10 4.477-10 10v94m86-68h21c5.523 0 10 4.477 10 10v47l-62 25V62c0-5.523 4.477-10 10-10h11c5.523 0 10 4.477 10 10zm0 0v68"/><path stroke="#000" stroke-linecap="round" stroke-linejoin="round" stroke-width="10" d="M96 21s-2 6-11 8c9 2 11 8 11 8s2-6 11-8c-9-2-11-8-11-8"/></svg>