<svg xmlns="http://www.w3.org/2000/svg" width="192" height="192" fill="none"><path stroke="#000" stroke-linecap="round" stroke-linejoin="round" stroke-width="12" d="M170 22s-61.246 23.663-92 33.83c-6.11 2.02-11.017 3.507-14 4.17-18 4-42 2-42 36 0 40 20 44 50 74"/><path stroke="#000" stroke-linecap="round" stroke-linejoin="round" stroke-width="12" d="M64.5 95s-.5-9 10-14.5c9.374-4.91 70.149-26.36 83.082-30.692C142.95 73.678 105.5 117.5 83 119c-16-1-16-1-13 10s31 11 61 41"/><path stroke="#000" stroke-linecap="round" stroke-linejoin="round" stroke-width="6" d="M49.121 81.879c.39.39-.242 1.656-1.414 2.828s-2.438 1.805-2.828 1.414c-.39-.39.242-1.657 1.414-2.828 1.172-1.172 2.438-1.805 2.828-1.414"/></svg>