<svg xmlns="http://www.w3.org/2000/svg" width="192" height="192" fill="none"><path stroke="#000" stroke-linecap="round" stroke-linejoin="round" stroke-width="12" d="M94 22H56c-6.627 0-12 5.373-12 12v124c0 6.627 5.373 12 12 12h38"/><path stroke="#000" stroke-linecap="round" stroke-linejoin="round" stroke-width="12" d="M132 96 74.934 64.008c-4-2.242-8.934.649-8.934 5.234v53.516c0 4.585 4.934 7.476 8.934 5.234zM94 22c24 0 52 12 52 47 0 21-14 27-14 27m-38 74c26 0 54-8 54-43 0-25-16-31-16-31"/></svg>