<svg xmlns="http://www.w3.org/2000/svg" width="192" height="192" fill="none"><path stroke="#000" stroke-linecap="round" stroke-linejoin="round" stroke-width="12" d="M61.082 67.809 96 22M61.082 67.809c-7.592 9.964-6.983 23.925 1.426 33.21l26.763 29.551A26 26 0 0 1 96 148.024V170c-37-23-54-39-54-60 0-16.063 11.5-32.24 19.082-42.191"/><path stroke="#000" stroke-linecap="round" stroke-linejoin="round" stroke-width="12" d="M130.918 67.809 96 22m34.918 45.809c7.592 9.964 6.983 23.925-1.426 33.21l-26.763 29.551A26 26 0 0 0 96 148.024V170c37-23 54-39 54-60 0-16.063-11.5-32.24-19.082-42.191"/></svg>