<svg xmlns="http://www.w3.org/2000/svg" width="192" height="192" fill="none"><path stroke="#000" stroke-linecap="round" stroke-linejoin="round" stroke-width="12" d="M114 170a48 48 0 0 0 0-96"/><path stroke="#000" stroke-linecap="round" stroke-linejoin="round" stroke-width="12" d="M88 170a26 26 0 1 0 0-52m0 52H42a6 6 0 0 1-6-6v-40a6 6 0 0 1 6-6h46m26 52V74M78 22a48 48 0 1 0 0 96"/><path stroke="#000" stroke-linecap="round" stroke-linejoin="round" stroke-width="12" d="M104 22a26 26 0 0 0 0 52m0-52h46a6 6 0 0 1 6 6v40a6 6 0 0 1-6 6h-46M78 22v96"/></svg>