<svg xmlns="http://www.w3.org/2000/svg" width="192" height="192" fill="none" viewBox="0 0 192 192"><path stroke="#000" stroke-linecap="round" stroke-linejoin="round" stroke-width="12" d="M122 168c28.419-12.987 48-40.338 48-71.979 0-31.225-19.071-58.315-46.887-71.503M70 24C41.582 36.987 22 64.338 22 95.979c0 31.226 19.072 58.315 46.887 71.503M160.4 22H128a5.99 5.99 0 0 0-4.887 2.518M122 59.011V28c0-1.298.412-2.5 1.113-3.482M70 132.99V164c0 1.298-.412 2.5-1.113 3.482A6 6 0 0 1 64 170H31.6"/></svg>