<svg xmlns="http://www.w3.org/2000/svg" width="192" height="192" fill="none"><path stroke="#000" stroke-linecap="round" stroke-linejoin="round" stroke-width="12" d="M79 56a57 57 0 0 1 52.661 35.187 57 57 0 0 1-12.356 62.118 57 57 0 0 1-62.118 12.356A57 57 0 0 1 22 113"/><path stroke="#000" stroke-linecap="round" stroke-linejoin="round" stroke-width="12" d="M79 88a25 25 0 1 1-25 25"/><path stroke="#000" stroke-linecap="round" stroke-linejoin="round" stroke-width="12" d="M54 113V94a6 6 0 0 1 6-6h19m0-.023V22a95.09 95.09 0 0 1 91 91h-65.977M22 113V28a6 6 0 0 1 6-6h20a6 6 0 0 1 6 6v22a6 6 0 0 0 6 6h19"/></svg>