<svg xmlns="http://www.w3.org/2000/svg" width="192" height="192" fill="none"><path stroke="#000" stroke-linecap="round" stroke-linejoin="round" stroke-width="12" d="M136 76a40.003 40.003 0 0 0-40-40 40 40 0 0 0-40 40m40 0a40 40 0 1 0 0 80"/><path stroke="#000" stroke-linecap="round" stroke-linejoin="round" stroke-width="10" d="M101 74a5 5 0 0 0-10 0"/><circle cx="96" cy="116" r="5" stroke="#000" stroke-linecap="round" stroke-linejoin="round" stroke-width="10"/><path stroke="#000" stroke-linecap="round" stroke-linejoin="round" stroke-width="12" d="M84 36a14 14 0 0 0-14-14m66 134a14 14 0 0 1-4.101 9.899 13.994 13.994 0 0 1-19.798 0 13.994 13.994 0 0 1 0-19.798 13.994 13.994 0 0 1 19.798 0A14 14 0 0 1 136 156M70 22h-8a6 6 0 0 0-6 6v88m40 40h12"/><path stroke="#000" stroke-linecap="round" stroke-linejoin="round" stroke-width="12" d="M96 76h28c6.627 0 12 5.373 12 12v68m0-80v12"/></svg>