<svg xmlns="http://www.w3.org/2000/svg" width="192" height="192" fill="none"><path stroke="#000" stroke-linecap="round" stroke-linejoin="round" stroke-width="12" d="M95 84h49a6 6 0 0 1 6 6v39M73 84H48a6 6 0 0 0-5.197 3M60 170H48a6 6 0 0 1-6-6v-55m40 61h62a6 6 0 0 0 6-6v-13m-14-89v22m-40 34v24M56 62v22m0-22c0-10.73 4.214-21.02 11.716-28.608A39.84 39.84 0 0 1 90 22m46 40c0-10.73-4.214-21.02-11.716-28.608A40 40 0 0 0 112 24.92"/><circle cx="96" cy="118" r="6" stroke="#000" stroke-linecap="round" stroke-linejoin="round" stroke-width="12"/></svg>