<svg xmlns="http://www.w3.org/2000/svg" width="192" height="192" fill="none"><path stroke="#000" stroke-linecap="round" stroke-linejoin="round" stroke-width="12" d="M91.492 23.867a6.376 6.376 0 0 1 9.016 0l67.625 67.625a6.377 6.377 0 0 1 0 9.016l-67.625 67.625a6.38 6.38 0 0 1-9.016 0l-67.625-67.625a6.376 6.376 0 0 1 0-9.016z"/><path stroke="#000" stroke-linecap="round" stroke-linejoin="round" stroke-width="10" d="M90.343 129.941 62.06 101.657"/><path stroke="#000" stroke-linecap="round" stroke-linejoin="round" stroke-width="8" d="M72.665 86.565a4 4 0 1 0 0-8 4 4 0 0 0 0 8m36.77 36.77a4 4 0 1 0 0-8 4 4 0 0 0 0 8"/></svg>