<svg xmlns="http://www.w3.org/2000/svg" width="192" height="192" fill="none"><path stroke="#000" stroke-linecap="round" stroke-linejoin="round" stroke-width="10" d="M60.769 65.172 64.18 99.34"/><path stroke="#000" stroke-linecap="round" stroke-linejoin="round" stroke-width="12" d="M32.596 153.48 22.037 53.024a6 6 0 0 1 5.34-6.595l125.432-13.183a6 6 0 0 1 5.901 3.104c.376.692.612 1.452.694 2.236l10.558 100.457a6.003 6.003 0 0 1-5.34 6.594L39.19 158.82a6.003 6.003 0 0 1-6.594-5.34"/><path stroke="#000" stroke-linecap="round" stroke-linejoin="round" stroke-width="10" d="M96 128c17.673 0 32-14.327 32-32s-14.327-32-32-32-32 14.327-32 32 14.327 32 32 32"/><path stroke="#000" stroke-linecap="round" stroke-linejoin="round" stroke-width="6" d="M137.732 65.961a7 7 0 0 0-7.693-6.23m6.23-7.693a7 7 0 0 0 7.693 6.23"/><path stroke="#000" stroke-linecap="round" stroke-linejoin="round" stroke-width="6" d="M130.038 59.732a7 7 0 0 0 5.98-4.974 7 7 0 0 0 .25-2.72m7.694 6.23a7 7 0 0 0-5.98 4.974 7 7 0 0 0-.25 2.72"/><path stroke="#000" stroke-linecap="round" stroke-linejoin="round" stroke-width="8" d="M89.464 94.589a4 4 0 1 0 0-8 4 4 0 0 0 0 8"/></svg>