<svg xmlns="http://www.w3.org/2000/svg" width="192" height="192" fill="none"><path stroke="#000" stroke-linecap="round" stroke-linejoin="round" stroke-width="12" d="M67 76a45.001 45.001 0 0 0-31.82 76.82A45 45 0 0 0 67 166m58 0a45 45 0 1 0 0-90m-58 0h58m-58 90h58m-29-53v53M59.581 25.675A22 22 0 0 1 68 24c31 0 40 41 40 52-22 0-62-3-62-30a22 22 0 0 1 13.581-20.325"/><path stroke="#000" stroke-linecap="round" stroke-linejoin="round" stroke-width="12" d="M59.581 126.325A22 22 0 0 0 68 128c31 0 40-41 40-52-22 0-62 3-62 30a22 22 0 0 0 13.581 20.325M72 129v37m-24-50v44"/><circle cx="124" cy="109" r="3" stroke="#000" stroke-linecap="round" stroke-linejoin="round" stroke-width="6"/><circle cx="144" cy="109" r="3" stroke="#000" stroke-linecap="round" stroke-linejoin="round" stroke-width="6"/><path stroke="#000" stroke-linecap="round" stroke-linejoin="round" stroke-width="10" d="M144 128a10 10 0 0 1-2.929 7.071A10 10 0 0 1 134 138a10 10 0 0 1-7.071-2.929A10 10 0 0 1 124 128"/></svg>