<svg xmlns="http://www.w3.org/2000/svg" width="192" height="192" fill="none"><circle cx="79" cy="113" r="3" stroke="#000" stroke-linecap="round" stroke-linejoin="round" stroke-width="6"/><circle cx="113" cy="113" r="3" stroke="#000" stroke-linecap="round" stroke-linejoin="round" stroke-width="6"/><path stroke="#000" stroke-linecap="round" stroke-linejoin="round" stroke-width="12" d="M146 120a50 50 0 0 1-14.645 35.355A50 50 0 0 1 96 170a49.995 49.995 0 0 1-46.194-30.866A50 50 0 0 1 46 120"/><path stroke="#000" stroke-linecap="round" stroke-linejoin="round" stroke-width="12" d="M111.589 134a18 18 0 0 1-31.177 0M96 22c-36 62.354-50 74-50 98m50-98c36 62.354 50 74 50 98"/></svg>