<svg xmlns="http://www.w3.org/2000/svg" width="192" height="192" fill="none"><path stroke="#000" stroke-linecap="round" stroke-linejoin="round" stroke-width="12" d="M169.955 93.418a74.001 74.001 0 1 0-7.904 35.947"/><path stroke="#000" stroke-linecap="round" stroke-linejoin="round" stroke-width="12" d="M108 60a18 18 0 0 1 18 18 18 18 0 0 1-5.272 12.728A18 18 0 0 1 108 96m0 0a18 18 0 0 1 18 18 18 18 0 0 1-5.272 12.728A18 18 0 0 1 108 132M70 96h38"/><path stroke="#000" stroke-linecap="round" stroke-linejoin="round" stroke-width="12" d="M108 132H76a6 6 0 0 1-6-6V66a6 6 0 0 1 6-6h32"/></svg>