<svg xmlns="http://www.w3.org/2000/svg" width="192" height="192" fill="none"><path stroke="#000" stroke-linecap="round" stroke-linejoin="round" stroke-width="12" d="M107 22H47a6 6 0 0 0-6 6v136a6 6 0 0 0 6 6h65"/><path stroke="#000" stroke-linecap="round" stroke-linejoin="round" stroke-width="12" d="M98 55H87a6 6 0 0 0-6 6v10a6 6 0 0 0 6 6h11m0 39H87a6 6 0 0 0-6 6v10a6 6 0 0 0 6 6h11m9-116a42 42 0 0 1 42 42 42 42 0 0 1-13.844 31.165A41 41 0 0 1 112 170"/><path stroke="#000" stroke-linecap="round" stroke-linejoin="round" stroke-width="12" d="M98 77a11 11 0 0 0 0-22m0 83a11 11 0 0 0 0-22"/></svg>