<svg xmlns="http://www.w3.org/2000/svg" width="192" height="192" fill="none"><circle cx="59" cy="73" r="4" stroke="#000" stroke-linecap="round" stroke-linejoin="round" stroke-width="8"/><path stroke="#000" stroke-linecap="round" stroke-linejoin="round" stroke-width="12" d="M55.492 157.939a74 74 0 0 1-26.083 10.645c-1.448.287-2.64-1.086-2.205-2.497l8.404-27.312C27.038 126.697 22 111.937 22 96c0-25.916 13.322-48.72 33.492-61.939m0 123.878a74 74 0 0 0 29.006-36.523m-29.006 36.523C67.13 165.565 81.047 170 96 170c40.869 0 74-33.131 74-74s-33.131-74-74-74c-14.953 0-28.87 4.435-40.508 12.061m0 0A74 74 0 0 1 83.84 68.853C94.5 71.209 111 75.292 111 78c0 3.149-17.087 14.11-25 19 0 0 21.34 14 20 19-.836 3.12-12.699 4.682-21.502 5.416M75 122s4.194-.141 9.498-.584"/></svg>