<svg xmlns="http://www.w3.org/2000/svg" width="192" height="192" fill="none"><path stroke="#000" stroke-linecap="round" stroke-linejoin="round" stroke-width="12" d="M94.262 22.985a2.026 2.026 0 0 1 3.476 0l38.893 64.489a16.53 16.53 0 0 1 0 17.052l-38.893 64.489a2.026 2.026 0 0 1-3.476 0l-38.893-64.489a16.53 16.53 0 0 1 0-17.052z"/><path stroke="#000" stroke-linecap="round" stroke-linejoin="round" stroke-width="12" d="m96 60 20.412 34.992a2 2 0 0 1 0 2.016L96 132 75.588 97.008a2 2 0 0 1 0-2.016z"/></svg>