<svg xmlns="http://www.w3.org/2000/svg" width="192" height="192" fill="none"><ellipse cx="46" cy="109" stroke="#000" stroke-linecap="round" stroke-linejoin="round" stroke-width="12" rx="24" ry="26"/><path stroke="#000" stroke-linecap="round" stroke-linejoin="round" stroke-width="12" d="M136 114c0 5.57-2.002 10.911-5.565 14.849S122.039 135 117 135s-9.872-2.212-13.435-6.151S98 119.57 98 114m38 0c0 5.57 2.002 10.911 5.565 14.849S149.961 135 155 135s9.872-2.212 13.435-6.151A21 21 0 0 0 170 126.89M98 100c0 4.596-1.345 9.148-3.958 13.394s-6.444 8.105-11.272 11.355c-4.83 3.25-10.561 5.828-16.87 7.587S52.829 135 46 135M22 57v52m76-30v35m38-57v57"/><circle cx="98" cy="57" r="3" stroke="#000" stroke-linecap="round" stroke-linejoin="round" stroke-width="6"/><path stroke="#000" stroke-linecap="round" stroke-linejoin="round" stroke-width="12" d="M121 79h42"/></svg>