<svg xmlns="http://www.w3.org/2000/svg" width="192" height="192" fill="none"><path stroke="#000" stroke-linecap="round" stroke-linejoin="round" stroke-width="12" d="M102 22H46a6 6 0 0 0-6 6v136a6 6 0 0 0 6 6h56"/><path stroke="#000" stroke-linecap="round" stroke-linejoin="round" stroke-width="12" d="M98 112H80a6 6 0 0 0-6 6v16a6 6 0 0 0 6 6h18m-3-88H80a6 6 0 0 0-6 6v14a6 6 0 0 0 6 6h15m7-56c12.73 0 24.939 4.109 33.941 11.423S150 50.657 150 61s-5.057 20.263-14.059 27.577a47 47 0 0 1-5.879 4.064 51.6 51.6 0 0 1 8.708 5.66C148.521 106.178 154 116.862 154 128s-5.479 21.822-15.23 29.698S115.791 170 102 170"/><path stroke="#000" stroke-linecap="round" stroke-linejoin="round" stroke-width="12" d="M95 78a12.999 12.999 0 1 0 0-26m3 88c3.713 0 7.274-1.475 9.899-4.101a13.996 13.996 0 0 0 0-19.798A14 14 0 0 0 98 112"/></svg>