<svg xmlns="http://www.w3.org/2000/svg" width="192" height="192" fill="none"><path stroke="#000" stroke-linecap="round" stroke-linejoin="round" stroke-width="10" d="m55 88 13 8-13 8zm71 16 13-8-13-8z"/><path stroke="#000" stroke-linecap="round" stroke-linejoin="round" stroke-width="12" d="M94.36 72.489A40 40 0 0 0 46 59.339V40L22 22l-.001 74a40.002 40.002 0 0 0 52.361 38.042A40 40 0 0 0 90 124.565M170 96c0-22.091-17.909-40-40-40S90 73.909 90 96v74l24-18v-19.328A39.9 39.9 0 0 0 130 136c22.091 0 40-17.909 40-40"/></svg>