<svg xmlns="http://www.w3.org/2000/svg" width="192" height="192" fill="none"><path stroke="#000" stroke-linecap="round" stroke-linejoin="round" stroke-width="10" d="M126 61c0 3.414-.776 6.795-2.284 9.95s-3.717 6.02-6.503 8.435c-2.786 2.414-6.093 4.33-9.732 5.636A34 34 0 0 1 96 87c-3.94 0-7.84-.672-11.48-1.98-3.64-1.306-6.947-3.22-9.733-5.635s-4.996-5.28-6.503-8.435C66.776 67.795 66 64.414 66 61s.776-6.795 2.284-9.95 3.717-6.02 6.503-8.435c2.786-2.414 6.093-4.33 9.732-5.636A34 34 0 0 1 96 35c3.94 0 7.841.672 11.481 1.98 3.639 1.306 6.946 3.22 9.732 5.635s4.996 5.28 6.503 8.435C125.224 54.205 126 57.586 126 61"/><path stroke="#000" stroke-linecap="round" stroke-linejoin="round" stroke-width="6" d="M74 25a3 3 0 1 0 0-6 3 3 0 0 0 0 6m44-6a3 3 0 1 1 0 6 3 3 0 0 1 0-6m-12.5 43c.828 0 1.5 1.343 1.5 3s-.672 3-1.5 3-1.5-1.343-1.5-3 .672-3 1.5-3m-19 0c.828 0 1.5 1.343 1.5 3s-.672 3-1.5 3-1.5-1.343-1.5-3 .672-3 1.5-3"/><path stroke="#000" stroke-linecap="round" stroke-linejoin="round" stroke-width="10" d="M76 81s-5 2-5 14c0 17 14 36 25 36s25-19 25-36c0-12-5-14-5-14"/><path stroke="#000" stroke-linecap="round" stroke-linejoin="round" stroke-width="8" d="M67 111c0-12 4-15 4-15"/><path stroke="#000" stroke-linecap="round" stroke-linejoin="round" stroke-width="6" d="M77 40s4-8-3-18m41 18s-4-8 3-18"/><path stroke="#000" stroke-linecap="round" stroke-linejoin="round" stroke-width="8" d="M125 111c0-12-4-15-4-15"/><path stroke="#000" stroke-linecap="round" stroke-linejoin="round" stroke-width="12" d="M48 90H28a6 6 0 0 0-6 6v68a6 6 0 0 0 6 6h136a6 6 0 0 0 4.243-1.757A6 6 0 0 0 170 164V96a6 6 0 0 0-6-6h-20"/><path stroke="#000" stroke-linecap="round" stroke-linejoin="round" stroke-width="10" d="M136 150H56"/></svg>