<svg xmlns="http://www.w3.org/2000/svg" width="192" height="192" fill="none"><path stroke="#000" stroke-linecap="round" stroke-linejoin="round" stroke-width="12" d="M25 46.025C25 32.756 35.745 22 49 22h94c13.255 0 24 10.757 24 24.025v83.93a24.04 24.04 0 0 1-7.292 17.248l-21.74 21.103a5.996 5.996 0 0 1-8.128.208l-10.143-8.885a6 6 0 0 0-3.951-1.486H49c-13.255 0-24-10.757-24-24.025z"/><path stroke="#000" stroke-linecap="round" stroke-linejoin="round" stroke-width="12" d="m100 121-.516-16M56 121l6.71-16m36.774 0L98 59H82l-19.29 46m36.774 0H62.71M136 59l-13 62"/></svg>