<svg xmlns="http://www.w3.org/2000/svg" width="192" height="192" fill="none"><path stroke="#000" stroke-linecap="round" stroke-linejoin="round" stroke-width="12" d="M45 44v85.929c0 13.936 9.642 26.028 23.254 29.162l44 10.13c18.799 4.327 36.746-9.916 36.746-29.162v-29.413c0-13.909-9.605-25.984-23.183-29.145l-32.18-7.49A5.99 5.99 0 0 1 89 68.18V44"/><path stroke="#000" stroke-linecap="round" stroke-linejoin="round" stroke-width="12" d="M80 104.426v26.739c0 2.632 2.498 4.547 5.04 3.863l26.071-7.019c3.213-.865 4.027-5.046 1.373-7.053l-26.07-19.72c-2.636-1.993-6.414-.114-6.414 3.19M45 44a22 22 0 0 1 22-22 22 22 0 0 1 22 22"/></svg>