<svg xmlns="http://www.w3.org/2000/svg" width="192" height="192" fill="none"><path stroke="#000" stroke-linecap="round" stroke-linejoin="round" stroke-width="12" d="m87.984 167.135-1.213-15.825a6.08 6.08 0 0 1 1.755-4.76l8.021-8.045a6.04 6.04 0 0 1 8.563 0l7.135 7.157c2.365 2.372 2.365 6.253-.155 8.457-32.188 28.146-66.056 14.187-88.211-5.714-2.492-2.237-2.48-6.097-.116-8.469l7.136-7.157a6.04 6.04 0 0 1 8.563 0l8.02 8.045a6.1 6.1 0 0 1 1.756 4.761l-1.213 15.824M56 58a6 6 0 0 1 6-6h63a6 6 0 0 1 6 6v47a6 6 0 0 1-6 6H96.32a6 6 0 0 0-4.036 1.56L72 131v-14a6 6 0 0 0-6-6h-4a6 6 0 0 1-6-6z"/><path stroke="#000" stroke-linecap="round" stroke-linejoin="round" stroke-width="10" d="m100.636 51-8.379-25.862c-1.019-3.144-4.386-4.865-7.522-3.843L25.126 40.719c-3.135 1.022-4.851 4.399-3.832 7.544l14.449 44.599c1.019 3.144 4.386 4.865 7.522 3.843l11.795-3.843M94 112.036l54.613 18.67c3.152 1.019 6.538-.696 7.563-3.83l14.529-44.45c1.024-3.134-.701-6.5-3.854-7.518L133.176 63"/></svg>