<svg xmlns="http://www.w3.org/2000/svg" width="192" height="192" fill="none"><path stroke="#000" stroke-linecap="round" stroke-linejoin="round" stroke-width="12" d="M61.285 24.131A28 28 0 0 1 72 22h14a6 6 0 0 1 6 6v44a6 6 0 0 1-6 6H72a27.999 27.999 0 0 1-19.799-47.799 28 28 0 0 1 9.084-6.07m106.584 37.154A28 28 0 0 1 170 72v14a6 6 0 0 1-6 6h-44a6 6 0 0 1-6-6V72a28 28 0 0 1 28-28 28 28 0 0 1 25.869 17.285m-37.154 54.846A28 28 0 0 0 120 114h-14a6 6 0 0 0-6 6v44a6 6 0 0 0 6 6h14a28.001 28.001 0 0 0 10.715-53.869m-54.846 14.584A28 28 0 0 0 78 120v-14a6 6 0 0 0-6-6H28a6 6 0 0 0-6 6v14a28 28 0 0 0 28 28 28 28 0 0 0 25.869-17.285"/></svg>