<svg xmlns="http://www.w3.org/2000/svg" width="192" height="192" fill="none"><path stroke="#000" stroke-linecap="round" stroke-linejoin="round" stroke-width="12" d="m152.048 65.499 14.175 12.29a10.92 10.92 0 0 1 3.19 11.787 10.9 10.9 0 0 1-2.161 3.71L118 149M105 29.753l42.683 18.038a10.97 10.97 0 0 1 5.869 6.054 10.92 10.92 0 0 1-.17 8.415L122 135M64 22.005c6.105 0 16.045-.12 22.084.786q4.68.713 8.7 1.983c5.807 1.836 14.49 7.047 18.42 11.667 16.31 19.161 5.493 51.256-27.142 57.19-6.002 1.091-5.995.823 0 1.958 18.072 3.426 29.745 15.202 33.76 28.404 1.766 5.802 1.662 15.963-.421 21.651-.685 1.877-3.591 7.94-7.956 12.155-5.784 5.593-14.172 9.776-25.361 11.424-6.04.893-15.975.771-22.084.771M64 22H35a6 6 0 0 0-6 6v136a6 6 0 0 0 6 6h29"/></svg>