<svg xmlns="http://www.w3.org/2000/svg" width="192" height="192" fill="none"><path stroke="#000" stroke-linecap="round" stroke-linejoin="round" stroke-width="12" d="M148 105V57c0-6.627-5.373-12-12-12H34c-6.627 0-12 5.373-12 12v56c0 6.627 5.373 12 12 12h94M78 73h46M66 97h58"/><path stroke="#000" stroke-linecap="round" stroke-linejoin="round" stroke-width="12" d="M148 67h10c6.627 0 12 5.373 12 12v56c0 6.627-5.373 12-12 12H56c-6.627 0-12-5.373-12-12v-10"/><path stroke="#000" stroke-linecap="round" stroke-linejoin="round" stroke-width="10" d="M45 68h10v10H45z"/></svg>