<svg xmlns="http://www.w3.org/2000/svg" width="192" height="192" fill="none"><path stroke="#000" stroke-linecap="round" stroke-linejoin="round" stroke-width="8" d="M152.422 88.102a4 4 0 1 0 0-8 4 4 0 0 0 0 8m-14.766 20.66a4 4 0 1 0 0-8 4 4 0 0 0 0 8m-14.765 20.66a4 4 0 1 0 0-8 4 4 0 0 0 0 8m-20.66-13.766a4 4 0 1 0 0-8 4 4 0 0 0 0 8M81.572 101.89a4 4 0 1 0 0-8 4 4 0 0 0 0 8m35.424-6.893a4 4 0 1 0 0-8 4 4 0 0 0 0 8"/><path stroke="#000" stroke-linecap="round" stroke-linejoin="round" stroke-width="12" d="m96 40-33 75 58 35 49-70m-90 70H22"/></svg>