<svg xmlns="http://www.w3.org/2000/svg" width="192" height="192" fill="none"><path stroke="#000" stroke-linecap="round" stroke-linejoin="round" stroke-width="12" d="M170 99V67.63c0-1.676-.714-3.306-1.99-4.395C130.462 31.195 86.851 64.304 22 25v34c7.859 4.763 15.405 8.462 22.667 11.343M170 99v34m0-34c-33.475-30.832-71.607-7.343-125.333-28.657M170 133v34c-28.249-26.019-59.814-13.353-101.269-21.573l-2.024-34.417M170 133c-28.707-26.441-60.839-12.932-103.293-21.99m0 0a137 137 0 0 1-19.993-5.873l-2.047-34.794"/></svg>