<svg xmlns="http://www.w3.org/2000/svg" width="192" height="192" fill="none"><circle cx="111" cy="65" r="18" stroke="#000" stroke-linecap="round" stroke-linejoin="round" stroke-width="12"/><circle cx="111" cy="127" r="18" stroke="#000" stroke-linecap="round" stroke-linejoin="round" stroke-width="12"/><path stroke="#000" stroke-linecap="round" stroke-linejoin="round" stroke-width="12" d="M145 25H31a6 6 0 0 0-6 6v130a6 6 0 0 0 6 6h114a6 6 0 0 0 6-6v-4a6 6 0 0 1 6-6h4a6 6 0 0 0 6-6v-23a6 6 0 0 0-6-6h-4a6 6 0 0 1-6-6V82a6 6 0 0 1 6-6h4a6 6 0 0 0 6-6V47a6 6 0 0 0-6-6h-4a6 6 0 0 1-6-6v-4a6 6 0 0 0-6-6"/></svg>