<svg xmlns="http://www.w3.org/2000/svg" width="192" height="192" fill="none"><path stroke="#000" stroke-linecap="round" stroke-linejoin="round" stroke-width="10" d="M35 67c0-15 12-15 12-15m28 15c0-14.5-12-15-12-15"/><path stroke="#000" stroke-linecap="round" stroke-linejoin="round" stroke-width="12" d="m34 73 .74-16.272A6 6 0 0 1 40.733 51H55m21 22-.74-16.272A6 6 0 0 0 69.266 51H55m0-29-4 4 4 5 4-5zm0 29v119m51-107c0-10-10-12-10-12h20s-10 2-10 12m0 0v95m0 0c0 10-10 12-10 12h20s-10-2-10-12m40-95c0-10-10-12-10-12h20s-10 2-10 12m0 0v95m0 0c0 10-10 12-10 12h20s-10-2-10-12"/></svg>