<svg xmlns="http://www.w3.org/2000/svg" width="192" height="192" fill="none"><path stroke="#000" stroke-linecap="round" stroke-linejoin="round" stroke-width="12" d="M78 161.322 92.38 170s19.054-14.087 27.286-22.52c8.905-9.125 17.643-18.821 23.604-30.066 4.81-9.072 8.46-19.107 9.36-29.321 1.027-11.676.049-24.114-4.681-34.854-3.55-8.063-9.923-14.984-16.963-20.331-5.985-4.545-13.183-7.838-20.574-9.294-11.245-2.218-23.512-2.445-34.376 1.197-9.387 3.146-17.89 9.517-24.258 17.054-6.04 7.15-10.41 16.124-12.045 25.315-1.633 9.19-.44 19.046 2.583 27.883 2.3 6.723 6.464 12.926 11.457 18.008 3.928 3.998 8.795 7.273 14.038 9.294 4.781 1.843 10.093 1.968 15.209 2.324 2.387.167 7.178-.089 7.178-.089s-.17 7.322-.93 10.885c-.808 3.79-2.315 7.414-3.826 10.988-2.155 5.097-7.444 14.848-7.444 14.848"/></svg>