<svg xmlns="http://www.w3.org/2000/svg" width="192" height="192" fill="none"><path stroke="#000" stroke-linecap="round" stroke-linejoin="round" stroke-width="12" d="M34.336 33.636c1-1.683 2.83-2.636 4.788-2.636H66a6 6 0 0 1 6 6v34a6 6 0 0 1-6 6h-8c-3.314 0-6.028 2.711-5.772 6.015 2.123 27.364 18.524 39.417 26.893 43.83 2.695 1.421 5.813.055 7.05-2.729l3.418-7.691a6 6 0 0 1 7.861-3.071l32.965 14.234a6 6 0 0 1 3.097 7.963l-9.37 20.901c-.724 1.616-2.125 2.828-3.861 3.176-2.926.587-8.015 1.372-14.281 1.372-70 0-84-58-84-84 0-20.408 8.625-37.12 12.336-43.364M98 37a6 6 0 0 1 6-6h60a6 6 0 0 1 6 6v34a6 6 0 0 1-6 6h-13.183c-1.185 0-2.343.35-3.329 1.008L119 97l-1.46-14.597A6 6 0 0 0 111.57 77H104a6 6 0 0 1-6-6z"/></svg>