<svg xmlns="http://www.w3.org/2000/svg" width="192" height="192" fill="none"><path stroke="#000" stroke-linecap="round" stroke-linejoin="round" stroke-width="12" d="M156 54v18c0 6.627-5.373 12-12 12H48c-6.627 0-12-5.373-12-12V54m36 104a12 12 0 0 1-12 12 12 12 0 0 1-12-12m96 0c0 3.183-1.264 6.235-3.515 8.485a11.996 11.996 0 0 1-16.97 0A12 12 0 0 1 120 158"/><path stroke="#000" stroke-linecap="round" stroke-linejoin="round" stroke-width="12" d="M120 158v-2a6 6 0 0 0-6-6H78a6 6 0 0 0-6 6v2m-24 0v-8c-6.627 0-12-5.373-12-12V54c0-17.673 14.327-32 32-32h56c17.673 0 32 14.327 32 32v84c0 6.627-5.373 12-12 12v8"/><circle cx="64" cy="108" r="4" stroke="#000" stroke-linecap="round" stroke-linejoin="round" stroke-width="8"/><circle cx="128" cy="108" r="4" stroke="#000" stroke-linecap="round" stroke-linejoin="round" stroke-width="8"/><path stroke="#000" stroke-linecap="round" stroke-linejoin="round" stroke-width="12" d="M113 124.445a34 34 0 0 1-34 0"/></svg>