<svg xmlns="http://www.w3.org/2000/svg" width="192" height="192" fill="none"><path stroke="#000" stroke-linecap="round" stroke-linejoin="round" stroke-width="12" d="M65.443 165.5A34 34 0 0 1 65 160c0-18.778 15.222-34 34-34s34 15.222 34 34c0 1.873-.151 3.71-.443 5.5M122 48a26 26 0 0 1-7.615 18.385A26 26 0 0 1 96 74a26 26 0 0 1-26-26"/><path stroke="#000" stroke-linecap="round" stroke-linejoin="round" stroke-width="12" d="M25 51c0-14.36 11.64-26 26-26h90c14.359 0 26 11.64 26 26v90c0 14.359-11.641 26-26 26H51c-14.36 0-26-11.641-26-26zm51 45-13 71"/></svg>