<svg xmlns="http://www.w3.org/2000/svg" width="192" height="192" fill="none"><path stroke="#000" stroke-linecap="round" stroke-linejoin="round" stroke-width="12" d="M77 54c-8.61 0-19 5.73-19 19 0 16.98 23.249 33.262 38 47 14.76-13.738 38-30.02 38-47 0-13.27-9.987-19-19-19s-14.725 5.783-19 12c-4.294-6.247-10.39-12-19-12"/><path stroke="#000" stroke-linecap="round" stroke-linejoin="round" stroke-width="12" d="M32 38c0-8.837 7.163-16 16-16h96c8.837 0 16 7.163 16 16v94c0 8.837-7.163 16-16 16h-31.576a6 6 0 0 0-5.166 2.948L96 170l-11.258-19.052A6 6 0 0 0 79.576 148H48c-8.837 0-16-7.163-16-16z"/></svg>