<svg xmlns="http://www.w3.org/2000/svg" width="192" height="192" fill="none"><path stroke="#000" stroke-linecap="round" stroke-linejoin="round" stroke-width="12" d="M97.575 52.699C105.234 57.087 114 65 119.67 79l6.244 15.006 16.277-39.123a14.4 14.4 0 0 1 3.134-4.668 14.5 14.5 0 0 1 4.689-3.12 14.51 14.51 0 0 1 15.752 3.12 14.34 14.34 0 0 1 3.133 15.682l-29.631 71.22a14.43 14.43 0 0 1-7.822 7.788 14.52 14.52 0 0 1-11.063 0 14.43 14.43 0 0 1-7.822-7.788L94 92.5c-2-5-4.897-9.503-7.266-11.706a21.05 21.05 0 0 0-10.255-5.227 21.14 21.14 0 0 0-11.49.935 21 21 0 0 0-9.26 6.816 20.74 20.74 0 0 0-4.238 10.64 20.7 20.7 0 0 0 2.064 11.256 20.9 20.9 0 0 0 7.742 8.478 21.1 21.1 0 0 0 11.086 3.141 14.75 14.75 0 0 1 10.39 4.272 14.53 14.53 0 0 1 4.305 10.312c0 3.867-1.548 7.577-4.304 10.312A14.75 14.75 0 0 1 72.383 146a50.7 50.7 0 0 1-25.191-6.699A50.2 50.2 0 0 1 28.75 121 49.7 49.7 0 0 1 22 96a49.7 49.7 0 0 1 6.75-25 50.2 50.2 0 0 1 18.441-18.301A50.7 50.7 0 0 1 72.383 46a50.7 50.7 0 0 1 25.192 6.699"/></svg>