<svg xmlns="http://www.w3.org/2000/svg" width="192" height="192" fill="none"><path stroke="#000" stroke-linecap="round" stroke-linejoin="round" stroke-width="12" d="M96 87v56m-23-33 23-25 23 25M63.515 34H39a6 6 0 0 0-6 6v12a6 6 0 0 0 6 6h114a6 6 0 0 0 6-6V40a6 6 0 0 0-6-6h-24.515a6 6 0 0 1-4.242-1.757l-8.486-8.486A6 6 0 0 0 111.515 22h-31.03a6 6 0 0 0-4.242 1.757l-8.486 8.486A6 6 0 0 1 63.515 34"/><path stroke="#000" stroke-linecap="round" stroke-linejoin="round" stroke-width="12" d="M45 59v105a6 6 0 0 0 6 6h90a6 6 0 0 0 6-6V59"/></svg>