<svg xmlns="http://www.w3.org/2000/svg" width="192" height="192" fill="none"><path stroke="#000" stroke-linecap="round" stroke-linejoin="round" stroke-width="12" d="M34.523 52.44c.908-.992 2.208-1.44 3.552-1.44H155.59c1.547 0 3.031.601 3.947 1.848C162.773 57.254 170 70.002 170 96s-7.227 38.746-10.464 43.152c-.916 1.247-2.4 1.848-3.947 1.848H38.075c-1.344 0-2.644-.448-3.552-1.439C30.925 135.631 22 123.146 22 96s8.925-39.63 12.523-43.56"/><path stroke="#000" stroke-linecap="round" stroke-linejoin="round" stroke-width="12" d="M51 66s-4 12-4 30 4 30 4 30m80 0s4-12 4-30-4-30-4-30"/><path stroke="#000" stroke-linecap="round" stroke-linejoin="round" stroke-width="12" d="M150 51s-16 22-60 22c-33 0-49.375-12.375-56.5-18.563M150 141s-16-22-60-22c-33 0-49.375 12.375-56.5 18.562"/></svg>