<svg xmlns="http://www.w3.org/2000/svg" width="192" height="192" fill="none"><path stroke="#000" stroke-linecap="round" stroke-linejoin="round" stroke-width="12" d="M70 62a6 6 0 1 0 0-12 6 6 0 0 0 0 12m52 0a6 6 0 1 1 0 12 6 6 0 0 1 0-12M44 96a6 6 0 1 0 0-12 6 6 0 0 0 0 12m104 1a6 6 0 1 1 0 12 6 6 0 0 1 0-12M96 34a6 6 0 1 0 0-12 6 6 0 0 0 0 12"/><path stroke="#000" stroke-linecap="round" stroke-linejoin="round" stroke-width="12" d="M96 28v142M70 56v32l26 20m26-40v32l-26 20M44 90v23l52 40m52-50v23l-52 40"/></svg>