<svg xmlns="http://www.w3.org/2000/svg" width="192" height="192" fill="none" viewBox="0 0 192 192"><path stroke="#000" stroke-linejoin="round" stroke-width="12" d="M85.867 72.185C76.885 76.373 70.661 85.46 70.661 96s6.224 19.626 15.206 23.814v44.293c0 3.087-2.76 5.464-5.778 4.77C46.81 161.226 22 131.502 22 96.001s24.811-65.227 58.089-72.88c3.018-.693 5.778 1.684 5.778 4.771zm79.226 35.944c3.125 0 5.517 2.798 4.769 5.823-6.732 27.242-28.437 48.608-55.915 54.927-3.018.694-5.777-1.684-5.777-4.771v-44.293a26.43 26.43 0 0 0 12.236-11.686zM108.17 27.892c0-3.087 2.759-5.465 5.777-4.77 27.478 6.318 49.183 27.685 55.915 54.927.748 3.025-1.644 5.823-4.769 5.823h-44.687a26.43 26.43 0 0 0-12.236-11.687z"/></svg>