<svg xmlns="http://www.w3.org/2000/svg" width="192" height="192" fill="none"><path stroke="#000" stroke-linecap="round" stroke-linejoin="round" stroke-width="11.996" d="M130.98 86.018c11.283-1.869 19.568-10.692 22.064-22.783 3.905-19.285-16.073-36.572-36.04-39.87-31.75-5.566-62.998 6.135-78.874 30.677-34.442 52.96 3.156 117.912 63.099 115.913 30.351-2.518 53.912-19.585 64.595-45.565 5.071-12.292-7.378-19.387-15.974-9.374-13.778 15.988-43.23 13.89-55.91-3.467-10.283-14.09-5.95-32.675 4.064-43.068 7.518-7.765 25.359-12.39 32.147-4.067 8.647 12.29-18.469 24.382.871 21.683z"/></svg>