<svg xmlns="http://www.w3.org/2000/svg" width="192" height="192" fill="none"><path stroke="#000" stroke-linecap="round" stroke-linejoin="round" stroke-width="12" d="M131.817 143.985c-47.542-2.791-120.81-48.875-108.43-70.522 14.585-25.502 100.43 36.738 108.43 70.522m0 0c15.563.914 28.369-2.811 34.512-13.551 7.099-12.413 3.282-27.978-6.137-43.308m-28.375 56.859c1.014 4.283.777 8.107-1.014 11.239-15.919 27.835-78.082-2.409-78.082-2.409m107.471-65.69c-23.628-38.452-82.507-75.423-92.787-57.447-13.2 23.08 67.539 70.643 92.787 57.448Zm0 0c2.255-1.178 4.067-2.841 5.331-5.05 15.406-26.938-21.677-53.34-21.677-53.34"/></svg>