<svg xmlns="http://www.w3.org/2000/svg" width="192" height="192" fill="none"><path stroke="#000" stroke-linecap="round" stroke-linejoin="round" stroke-width="12" d="M132 58a36.001 36.001 0 0 0-72 0M44 98a6 6 0 0 1 6-6h92a6 6 0 0 1 6 6v66a6 6 0 0 1-6 6H50a6 6 0 0 1-6-6z"/><path stroke="#000" stroke-linecap="round" stroke-linejoin="round" stroke-width="10" d="m65 150 12.65-22M110 110l-23 40m22 0 17.825-31"/><path stroke="#000" stroke-linecap="round" stroke-linejoin="round" stroke-width="12" d="M60 58v34m72-34v34"/></svg>