<svg xmlns="http://www.w3.org/2000/svg" width="192" height="192" fill="none"><path stroke="#000" stroke-linecap="round" stroke-linejoin="round" stroke-width="10" d="M70 71a5 5 0 1 1 0 10 5 5 0 0 1 0-10"/><path stroke="#000" stroke-linecap="round" stroke-linejoin="round" stroke-width="12" d="M96 170c40.869 0 74-33.131 74-74s-33.131-74-74-74-74 33.13-74 74 33.13 74 74 74"/><path stroke="#000" stroke-linecap="round" stroke-linejoin="round" stroke-width="12" d="M71 123s8 15 24 15 24-15 24-15m14-46a13.998 13.998 0 0 0-23.899-9.9A14 14 0 0 0 105 77c0 10 14 24 14 24s14-13 14-24"/></svg>