<svg xmlns="http://www.w3.org/2000/svg" width="192" height="192" fill="none"><path stroke="#000" stroke-linejoin="round" stroke-width="8" d="M96 42a4 4 0 1 0 0-8 4 4 0 0 0 0 8Zm0 108a4 4 0 1 1 0 8 4 4 0 0 1 0-8ZM72 28a4 4 0 1 0 0-8 4 4 0 0 0 0 8Zm48-8a4 4 0 1 1 0 8 4 4 0 0 1 0-8ZM72 164a4 4 0 1 1 0 8 4 4 0 0 1 0-8Zm48 8a4 4 0 1 0 0-8 4 4 0 0 0 0 8ZM83 63a4 4 0 1 0 0-8 4 4 0 0 0 0 8Zm26-8a4 4 0 1 1 0 8 4 4 0 0 1 0-8Zm-26 74a4 4 0 1 1 0 8 4 4 0 0 1 0-8Zm26 8a4 4 0 1 0 0-8 4 4 0 0 0 0 8Zm-85-37a4 4 0 1 0 0-8 4 4 0 0 0 0 8Zm144-8a4 4 0 1 1 0 8 4 4 0 0 1 0-8Zm-112 8a4 4 0 1 0 0-8 4 4 0 0 0 0 8Zm80-8a4 4 0 1 1 0 8 4 4 0 0 1 0-8ZM62 76a4 4 0 1 0 0-8 4 4 0 0 0 0 8Zm68-8a4 4 0 1 1 0 8 4 4 0 0 1 0-8Zm-68 48a4 4 0 1 1 0 8 4 4 0 0 1 0-8Zm68 8a4 4 0 1 0 0-8 4 4 0 0 0 0 8ZM38 79a4 4 0 1 0 0-8 4 4 0 0 0 0 8Zm116-8a4 4 0 1 1 0 8 4 4 0 0 1 0-8ZM38 113a4 4 0 1 1 0 8 4 4 0 0 1 0-8Zm116 8a4 4 0 1 0 0-8 4 4 0 0 0 0 8ZM33 55a4 4 0 1 0 0-8 4 4 0 0 0 0 8Zm126-8a4 4 0 1 1 0 8 4 4 0 0 1 0-8ZM33 137a4 4 0 1 1 0 8 4 4 0 0 1 0-8Zm126 8a4 4 0 1 0 0-8 4 4 0 0 0 0 8ZM59 51a4 4 0 1 0 0-8 4 4 0 0 0 0 8Zm74-8a4 4 0 1 1 0 8 4 4 0 0 1 0-8Zm-74 98a4 4 0 1 1 0 8 4 4 0 0 1 0-8Zm74 8a4 4 0 1 0 0-8 4 4 0 0 0 0 8Z"/></svg>