<svg xmlns="http://www.w3.org/2000/svg" width="192" height="192" fill="none"><path stroke="#000" stroke-linecap="round" stroke-linejoin="round" stroke-width="12" d="M42.003 54.056C48.003 59.056 61 62 63 71s-8 16-8 16-.255-.07-.73-.188M42.003 54.056C38.66 55.572 31.369 57.883 22 55c0 14.5 10 17 10 17l-5 13c11.709-1.735 24.17 1.044 27.27 1.812M42.003 54.056C42.26 33.856 60.102 24 74 24c43.585 0 37.993 40.044 29.153 58.893-1.513 3.226.949 8.348 4.448 9.027C124.418 95.18 136.03 105 170 105c0 0 0 63-62 63-72.298 0-59.55-51.648-52.698-70.436 1.287-3.53.831-7.511-1.032-10.752"/><path stroke="#000" stroke-linecap="round" stroke-linejoin="round" stroke-width="12" d="M139 130c-4.572 7.664-13.325 15-30.083 15C87.92 145 79.6 138.056 77 130"/></svg>