<svg xmlns="http://www.w3.org/2000/svg" width="192" height="192" fill="none"><path stroke="#000" stroke-linecap="round" stroke-linejoin="round" stroke-width="12" d="M100 22c0 50.625-33.256 66.886-50.25 71.89-1.158.342-1.158 3.878 0 4.22C66.744 103.113 100 119.374 100 170m0-148a74.001 74.001 0 0 0 0 148m0-148c0 51 40 59 49 59a15.998 15.998 0 0 0 13.856-24M100 22c42 0 62.86 35 62.86 35M100 170c0-51 40-59 49-59a15.998 15.998 0 0 1 13.856 24M100 170c42 0 62.86-35 62.86-35"/><path stroke="#000" stroke-linecap="round" stroke-linejoin="round" stroke-width="10" d="M91 96c8.1-2.7 9-9 9-9s.9 6.3 9 9c-8.1 2.7-9 9-9 9s-.9-6.3-9-9"/></svg>