<svg xmlns="http://www.w3.org/2000/svg" width="192" height="192" fill="none"><path stroke="#000" stroke-linecap="round" stroke-linejoin="round" stroke-width="12" d="M82 103h28M22 88s23 0 23 11M25 37c27 33 71 6 71 66m0-55s-10-7-24-7c-26 0-50 36-50 68s23 44 36 44 24-10 38 2m-15.866-42.388c-4.466 7.743-15.535 9.716-24.721 4.408-9.187-5.309-13.013-15.889-8.547-23.632 4.467-7.743 15.535-9.716 24.721-4.408 9.187 5.309 13.013 15.889 8.547 23.632"/><path stroke="#000" stroke-linecap="round" stroke-linejoin="round" stroke-width="12" d="M170 88s-23 0-23 11m20-62c-27 33-71 6-71 66m0-55s10-7 24-7c26 0 50 36 50 68s-23 44-36 44-24-10-38 2m15.866-42.388c4.466 7.743 15.535 9.716 24.721 4.408 9.187-5.309 13.013-15.889 8.547-23.632s-15.535-9.716-24.721-4.408c-9.187 5.309-13.013 15.889-8.547 23.632"/><path stroke="#000" stroke-linecap="round" stroke-linejoin="round" stroke-width="10" d="m94 126 2-2 2 2-2 6z"/></svg>