<svg xmlns="http://www.w3.org/2000/svg" width="192" height="192" fill="none"><path stroke="#000" stroke-linecap="round" stroke-linejoin="round" stroke-width="12" d="m54.188 137.716-13.434-10.893a26.37 26.37 0 0 1-3.89-37.056 26.29 26.29 0 0 1 37.008-3.895L96 103.814m-41.812 33.902 38.264 31.026a5.634 5.634 0 0 0 7.097 0l51.697-41.919a26.373 26.373 0 0 0 3.89-37.056 26.287 26.287 0 0 0-37.008-3.895L96 103.814m-41.812 33.902L96 103.814"/><circle cx="56" cy="45" r="13" stroke="#000" stroke-linecap="round" stroke-linejoin="round" stroke-width="12"/><circle cx="136" cy="40" r="18" stroke="#000" stroke-linecap="round" stroke-linejoin="round" stroke-width="12"/></svg>