<svg xmlns="http://www.w3.org/2000/svg" width="192" height="192" fill="none"><path stroke="#000" stroke-linecap="round" stroke-linejoin="round" stroke-width="12" d="M128.578 119.14c6.745-8.038 18.729-9.087 26.767-2.342 8.039 6.746 9.087 18.73 2.342 26.768v.003C144.113 159.729 123.756 170 101 170c-40.87 0-74-33.131-74-74s33.13-74 74-74c22.756 0 43.113 10.272 56.687 26.431 6.745 8.038 5.697 20.026-2.342 26.77-8.038 6.746-20.022 5.697-26.767-2.341M137 96c0 19.882-16.118 36-36 36s-36-16.118-36-36 16.118-36 36-36 36 16.118 36 36"/></svg>