<svg xmlns="http://www.w3.org/2000/svg" width="192" height="192" fill="none"><path stroke="#000" stroke-linecap="round" stroke-linejoin="round" stroke-width="12" d="M136.055 30.052 64.638 56.046a6 6 0 0 0-3.586 7.69L78.837 112.6a6 6 0 0 0 7.69 3.586l71.417-25.994a6 6 0 0 0 3.586-7.69l-17.785-48.864a6 6 0 0 0-7.69-3.586"/><circle cx="166" cy="134" r="5" stroke="#000" stroke-linejoin="round" stroke-width="10"/><circle cx="102" cy="158" r="5" stroke="#000" stroke-linejoin="round" stroke-width="10"/><circle cx="95" cy="79" r="4" stroke="#000" stroke-linejoin="round" stroke-width="8"/><path stroke="#000" stroke-linecap="round" stroke-linejoin="round" stroke-width="12" d="m22 74 10.441-3.915a5.99 5.99 0 0 1 7.7 3.435c5.557 14.313 20.138 51.764 21.976 55.435a20 20 0 0 0 25.698 9.455L170 108"/></svg>