<svg xmlns="http://www.w3.org/2000/svg" width="192" height="192" fill="none"><ellipse cx="145" cy="124" stroke="#000" stroke-linecap="round" stroke-linejoin="round" stroke-width="12" rx="16" ry="18"/><path stroke="#000" stroke-linecap="round" stroke-linejoin="round" stroke-width="12" d="M146.134 105.449c-2.33-12.75-9.247-24.299-19.533-32.612S103.318 59.977 89.901 60s-26.398 4.612-36.654 12.96-17.131 19.92-19.415 32.678c-2.284 12.759.17 25.885 6.93 37.07s17.391 19.708 30.024 24.073a58.95 58.95 0 0 0 39.036-.214c12.58-4.502 23.112-13.143 29.739-24.4"/><path stroke="#000" stroke-linecap="round" stroke-linejoin="round" stroke-width="12" d="M90 82a34.85 34.85 0 0 0-15.038 3.403 33.8 33.8 0 0 0-11.936 9.508 32.55 32.55 0 0 0-6.373 13.651 32.06 32.06 0 0 0 .505 14.979"/><circle cx="136" cy="36" r="14" stroke="#000" stroke-linecap="round" stroke-linejoin="round" stroke-width="12"/><path stroke="#000" stroke-linecap="round" stroke-linejoin="round" stroke-width="12" d="M72 63s14-41 64-41"/></svg>