<svg xmlns="http://www.w3.org/2000/svg" width="192" height="192" fill="none"><path stroke="#000" stroke-linecap="round" stroke-linejoin="round" stroke-width="12" d="M49 74v44m27-44v44m20-96v30m0 88v30M49 74c0-6.829 1.216-13.59 3.578-19.9s5.824-12.04 10.188-16.87c4.364-4.828 9.546-8.658 15.248-11.272C83.716 23.345 89.828 22 96 22s12.284 1.345 17.986 3.958 10.884 6.444 15.248 11.272c4.364 4.83 7.826 10.562 10.188 16.87a56 56 0 0 1 1.645 5.139c.942 3.522-1.884 6.761-5.53 6.761h-20.906l-.153-.419c-1.006-2.67-2.479-5.095-4.336-7.137-1.857-2.043-4.062-3.664-6.488-4.77A18.4 18.4 0 0 0 96 52c-2.626 0-5.227.569-7.654 1.675-2.426 1.105-4.631 2.726-6.488 4.769-1.857 2.042-3.33 4.468-4.336 7.137A23.9 23.9 0 0 0 76 74m-27 44c0 6.829 1.216 13.591 3.578 19.9s5.824 12.041 10.188 16.87c4.364 4.828 9.546 8.658 15.248 11.272C83.716 168.655 89.828 170 96 170s12.284-1.345 17.986-3.958 10.884-6.444 15.248-11.272 7.826-10.562 10.188-16.87a56 56 0 0 0 1.645-5.139c.942-3.522-1.884-6.761-5.53-6.761h-20.906q-.075.21-.153.419c-1.006 2.669-2.479 5.094-4.336 7.137s-4.062 3.664-6.488 4.769A18.4 18.4 0 0 1 96 140c-2.626 0-5.227-.569-7.654-1.675-2.426-1.105-4.631-2.726-6.488-4.769a22.3 22.3 0 0 1-4.336-7.137A23.9 23.9 0 0 1 76 118"/></svg>