<svg xmlns="http://www.w3.org/2000/svg" width="192" height="192" fill="none"><path stroke="#000" stroke-linecap="round" stroke-linejoin="round" stroke-width="12" d="M70 106V62H28a6 6 0 0 0-6 6v28m109-34H70l19-40h61z"/><path stroke="#000" stroke-linecap="round" stroke-linejoin="round" stroke-width="12" d="M22 96a73.7 73.7 0 0 0 5.659 28.319 74 74 0 0 0 16.115 24.007 74.4 74.4 0 0 0 24.118 16.041A74.6 74.6 0 0 0 96.34 170c9.763 0 19.43-1.914 28.449-5.633a74.4 74.4 0 0 0 24.118-16.041 74 74 0 0 0 16.115-24.007A73.7 73.7 0 0 0 170 106h-48"/><path stroke="#000" stroke-linecap="round" stroke-linejoin="round" stroke-width="12" d="M122 106c0 3.414-.673 6.795-1.979 9.95a26 26 0 0 1-5.636 8.435 26.015 26.015 0 0 1-28.335 5.636 26 26 0 0 1-14.07-14.071A26 26 0 0 1 70 106"/></svg>