<svg xmlns="http://www.w3.org/2000/svg" width="192" height="192" fill="none"><path stroke="#000" stroke-linecap="round" stroke-linejoin="round" stroke-width="10" d="M111.561 138.065a5.027 5.027 0 1 0 0-10.055 5.027 5.027 0 0 0 0 10.055m44.236 0a5.027 5.027 0 1 0 0-10.055 5.027 5.027 0 0 0 0 10.055m-83.99-5.538a5.027 5.027 0 1 0 0-10.054 5.027 5.027 0 0 0 0 10.054m22.118 38.308a5.027 5.027 0 1 0 0-10.054 5.027 5.027 0 0 0 0 10.054M56.727 95.328a5.027 5.027 0 1 0 0-10.054 5.027 5.027 0 0 0 0 10.054m-22.119 38.309a5.027 5.027 0 1 0 0-10.054 5.027 5.027 0 0 0 0 10.054m2.557-69.968a5.027 5.027 0 1 0 0-10.054 5.027 5.027 0 0 0 0 10.054m44.235 0a5.027 5.027 0 1 0 0-10.054 5.027 5.027 0 0 0 0 10.054M99.037 30.9a5.027 5.027 0 1 0 0-10.054 5.027 5.027 0 0 0 0 10.054m22.118 38.308a5.027 5.027 0 1 0 0-10.054 5.027 5.027 0 0 0 0 10.054"/><path stroke="#000" stroke-linecap="round" stroke-linejoin="round" stroke-width="6" d="M111.561 126c10.054 0 5.529 7.037 22.118 7.037m0 0c16.588 0 12.064-7.037 22.117-7.037m-22.117 7.037c-16.589 0-12.064 7.038-22.118 7.038m22.118-7.038c16.588 0 12.064 7.038 22.117 7.038m-77.895-16.094c5.026 8.707-3.33 8.308 4.964 22.673-8.294-14.365-12.127-6.929-17.154-15.635m34.307 31.269c-5.026-8.707-8.86-1.27-17.153-15.636 8.294 14.366-.063 13.967 4.964 22.673M62.819 93.82c-5.026 8.706-8.86 1.27-17.152 15.635m0 0c-8.294 14.366.062 13.967-4.965 22.673m4.965-22.673c8.294-14.366-.063-13.966 4.964-22.673m-4.964 22.673c-8.294 14.366-12.127 6.929-17.154 15.636m8.652-73.486c10.053 0 5.53 7.038 22.117 7.038m0 0c16.589 0 12.064-7.038 22.118-7.038m-22.118 7.038c-16.588 0-12.064 7.037-22.117 7.037m22.117-7.037c16.589 0 12.064 7.037 22.118 7.037m23.731-43.328c5.027 8.707-3.329 8.308 4.965 22.674-8.294-14.366-12.127-6.93-17.154-15.636m34.307 31.273c-5.027-8.707-8.86-1.27-17.154-15.636 8.294 14.366-.062 13.967 4.964 22.673m49.389-1.113c-5.027 8.707-8.86 1.27-17.154 15.636m0 0c-8.294 14.366.062 13.966-4.965 22.673m4.965-22.673c8.294-14.366-.062-13.967 4.964-22.673m-4.964 22.673C139 96.589 135.167 89.152 130.14 97.858"/><path stroke="#000" stroke-linecap="round" stroke-linejoin="round" stroke-width="10" d="M158.354 68.096a5.027 5.027 0 1 0 0-10.054 5.027 5.027 0 0 0 0 10.054m-22.119 38.308a5.027 5.027 0 1 0 0-10.055 5.027 5.027 0 0 0 0 10.055"/><path stroke="#000" stroke-linecap="round" stroke-linejoin="round" stroke-width="8" d="M62 38a4 4 0 1 0 0-8 4 4 0 0 0 0 8m-35 62a4 4 0 1 0 0-8 4 4 0 0 0 0 8m136 0a4 4 0 1 0 0-8 4 4 0 0 0 0 8m-33-70a4 4 0 1 1 0 8 4 4 0 0 1 0-8m0 132a4 4 0 1 0 0-8 4 4 0 0 0 0 8m-68-8a4 4 0 1 1 0 8 4 4 0 0 1 0-8"/></svg>