<svg xmlns="http://www.w3.org/2000/svg" width="192" height="192" fill="none"><path stroke="#000" stroke-linecap="round" stroke-linejoin="round" stroke-width="12" d="M34 45h124l-15.33 119.762a6 6 0 0 1-5.951 5.238H55.281a6 6 0 0 1-5.951-5.238z"/><circle cx="80" cy="149" r="3" stroke="#000" stroke-linejoin="round" stroke-width="6"/><circle cx="112" cy="149" r="3" stroke="#000" stroke-linejoin="round" stroke-width="6"/><path stroke="#000" stroke-linecap="round" stroke-linejoin="round" stroke-width="10" d="M142 163.491c0-5.3-1.19-10.548-3.502-15.444s-5.7-9.346-9.971-13.093c-4.272-3.748-9.343-6.72-14.924-8.749-5.581-2.028-11.562-3.072-17.603-3.072-6.04 0-12.022 1.044-17.603 3.072s-10.652 5.001-14.924 8.749c-4.271 3.747-7.66 8.196-9.971 13.093C51.19 152.943 50 158.191 50 163.491m23.622-36.558L64.919 113m62.162 0-8.703 13.933"/><path stroke="#000" stroke-linecap="round" stroke-linejoin="round" stroke-width="12" d="m34 22 124 23"/></svg>