<svg xmlns="http://www.w3.org/2000/svg" width="192" height="192" fill="none"><path stroke="#000" stroke-linecap="round" stroke-linejoin="round" stroke-width="12" d="m22 93 69.757 69.757a6 6 0 0 0 8.486 0L170 93V53l-24-24h-30l-15.757 15.757a6 6 0 0 1-8.486 0L76 29H46L22 53z"/><path stroke="#000" stroke-linecap="round" stroke-linejoin="round" stroke-width="12" d="M82 89V79l6-6h16l6 6v10m-41 13h27m0 0L45 61m51 41h27m-27 0 51-41"/><path stroke="#000" stroke-linecap="round" stroke-linejoin="round" stroke-width="10" d="m88 123 8 8 8-8z"/></svg>