<svg xmlns="http://www.w3.org/2000/svg" width="192" height="192" fill="none"><path stroke="#000" stroke-width="12" d="M119.421 47.688c7.357-5.094 9.774-14.233 5.399-20.412s-13.885-7.058-21.241-1.964c-7.357 5.094-9.774 14.233-5.4 20.412 4.376 6.178 13.886 7.058 21.242 1.964Z"/><path stroke="#000" stroke-linejoin="round" stroke-width="12" d="M65 98.146S93.844 79.983 98.464 77.92c4.619-2.064 7.698-4.438 12.933-3.819 4.106.516 6.57 5.057 6.057 7.844-.514 2.786-14.063 56.555-14.063 56.555s-2.874 10.01.924 13.829c3.079 3.096 7.596 3.612 11.702 1.032 3.695-2.374 10.983-7.121 10.983-7.121s-25.56 16.616-32.334 20.228c-6.673 3.509-12.01 4.334-15.706 2.786-2.155-.825-5.03-4.541-3.49-10.32 1.13-4.231 12.523-53.356 13.55-57.484 1.54-6.296-1.745-14.448-11.086-11.043-2.566.929-12.934 7.74-12.934 7.74Z"/></svg>