<svg xmlns="http://www.w3.org/2000/svg" width="192" height="192" fill="none"><path stroke="#000" stroke-linecap="round" stroke-linejoin="round" stroke-width="8" d="M77.095 96.179a4 4 0 1 0 0-8 4 4 0 0 0 0 8"/><path stroke="#000" stroke-linecap="round" stroke-linejoin="round" stroke-width="10" d="M79.417 151.242a5 5 0 1 0 0-10 5 5 0 0 0 0 10"/><path stroke="#000" stroke-linecap="round" stroke-linejoin="round" stroke-width="8" d="M126.905 91.821a4 4 0 1 0 0-8 4 4 0 0 0 0 8"/><path stroke="#000" stroke-linecap="round" stroke-linejoin="round" stroke-width="12" d="M40.835 97.307c4.238-10.363 11.585-19.603 21.32-26.638 12.72-9.191 28.65-13.991 44.82-13.505s31.48 6.224 43.075 16.147 18.685 23.35 19.95 37.785l-12.911 1.127c-6.582.575-11.451 6.369-10.875 12.94l.695 7.933M22.058 113.028c.72 8.214 7.973 14.291 16.2 13.572s14.314-7.96 13.594-16.175-7.973-14.29-16.2-13.572-14.314 7.96-13.594 16.175m0 0c2.65 30.243 56.932 32.995 56.932 32.995m19.256-88.61 6.951 79.327m19.118-21.654 1.738 19.832M56.049 44.114l13.83 20.773M137.488 37l-10.007 22.856m-78.645 61.823 54.623-4.771"/></svg>