<svg xmlns="http://www.w3.org/2000/svg" width="192" height="192" fill="none"><path stroke="#000" stroke-linecap="round" stroke-linejoin="round" stroke-width="12" d="M52 28a6 6 0 0 1 6-6h76a6 6 0 0 1 6 6v136a6 6 0 0 1-6 6H58a6 6 0 0 1-6-6z"/><path stroke="#000" stroke-linecap="round" stroke-linejoin="round" stroke-width="8" d="M114 53h8v8h-8zm0 78h8v8h-8zm0-39h8v8h-8z"/><path stroke="#000" stroke-linecap="round" stroke-linejoin="round" stroke-width="10" d="M96 57h22m0 78h22m-22 0V57"/><path stroke="#000" stroke-linecap="round" stroke-linejoin="round" stroke-width="12" d="M96 22v148"/></svg>