<svg xmlns="http://www.w3.org/2000/svg" width="192" height="192" fill="none"><path stroke="#000" stroke-linecap="round" stroke-linejoin="round" stroke-width="12" d="m118.168 99.528-7.611 64.089m7.611-64.09 50.013 11.175m-50.013-11.174 21.687-61.625m-21.687 61.625L76 29 45 142zm-80.48 28.1 5.922 18.112a5.9 5.9 0 0 0 4.143 3.886l59.549 15.192a5.86 5.86 0 0 0 5.352-1.308l55.366-49.384a5.94 5.94 0 0 0 1.554-6.635l-27.633-69.01a5.89 5.89 0 0 0-4.43-3.616l-59.793-7.774a5.86 5.86 0 0 0-4.923 1.391L23.989 74.27a5.94 5.94 0 0 0-1.694 6.282z"/></svg>