<svg xmlns="http://www.w3.org/2000/svg" width="192" height="192" fill="none"><path stroke="#000" stroke-linecap="round" stroke-linejoin="round" stroke-width="12" d="M111 155a59 59 0 0 0 41.719-17.281 58.997 58.997 0 0 0 0-83.438A59 59 0 0 0 111 37"/><path stroke="#000" stroke-linecap="round" stroke-linejoin="round" stroke-width="12" d="M117 112c4.243 0 8.313-1.686 11.314-4.686a16.004 16.004 0 0 0 0-22.628A16 16 0 0 0 117 80m-63 5a16 16 0 1 0-32 0"/><circle cx="38" cy="53" r="16" stroke="#000" stroke-linecap="round" stroke-linejoin="round" stroke-width="12"/><path stroke="#000" stroke-linecap="round" stroke-linejoin="round" stroke-width="12" d="M22 85v64a6 6 0 0 0 6 6h20a6 6 0 0 0 6-6V85m57-48H82a6 6 0 0 0-6 6v106a6 6 0 0 0 6 6h29"/><path stroke="#000" stroke-linecap="round" stroke-linejoin="round" stroke-width="12" d="M117 80h-2a6 6 0 0 0-6 6v20a6 6 0 0 0 6 6h2"/></svg>