<svg xmlns="http://www.w3.org/2000/svg" width="192" height="192" fill="none"><path stroke="#000" stroke-linecap="round" stroke-linejoin="round" stroke-width="12" d="M82 71v50m31-50L92 94l23 27m20-26h22m-3-24h-13a6 6 0 0 0-6 6v38a6 6 0 0 0 6 6h16M36 71h-8a6 6 0 0 0-6 6v38a6 6 0 0 0 6 6h8m0 0a25.001 25.001 0 0 0 17.678-42.678A25 25 0 0 0 36 71m121 50a13 13 0 0 0 0-26"/><path stroke="#000" stroke-linecap="round" stroke-linejoin="round" stroke-width="12" d="M154 95a12 12 0 0 0 12-12 12 12 0 0 0-12-12"/></svg>