<svg xmlns="http://www.w3.org/2000/svg" width="192" height="192" fill="none"><path stroke="#000" stroke-linecap="round" stroke-linejoin="round" stroke-width="12" d="m99 78 44-44M67 46l24-24m-8 40 32-32"/><path stroke="#000" stroke-linecap="round" stroke-linejoin="round" stroke-width="8" d="M51 31a4 4 0 1 0 0-8 4 4 0 0 0 0 8"/><path stroke="#000" stroke-linecap="round" stroke-linejoin="round" stroke-width="12" d="m113 100 44 44m-12-76 24 24m-40-8 32 32"/><path stroke="#000" stroke-linecap="round" stroke-linejoin="round" stroke-width="8" d="M164 56a4 4 0 1 0 0-8 4 4 0 0 0 0 8"/><path stroke="#000" stroke-linecap="round" stroke-linejoin="round" stroke-width="12" d="m91 114-44 44m76-12-24 24m8-40-32 32"/><path stroke="#000" stroke-linecap="round" stroke-linejoin="round" stroke-width="8" d="M139 169a4 4 0 1 0 0-8 4 4 0 0 0 0 8"/><path stroke="#000" stroke-linecap="round" stroke-linejoin="round" stroke-width="12" d="M77 92 33 48m12 76-24-24m40 8L29 76"/><path stroke="#000" stroke-linecap="round" stroke-linejoin="round" stroke-width="8" d="M26 144a4 4 0 1 0 0-8 4 4 0 0 0 0 8"/></svg>