<svg xmlns="http://www.w3.org/2000/svg" width="192" height="192" fill="none"><path stroke="#000" stroke-linecap="round" stroke-linejoin="round" stroke-width="8" d="M120.5 75.5a4 4 0 1 0 0-8 4 4 0 0 0 0 8m-62.5 50a4 4 0 1 0 0-8 4 4 0 0 0 0 8m27 0a4 4 0 1 0 0-8 4 4 0 0 0 0 8"/><path stroke="#000" stroke-linejoin="round" stroke-width="12" d="m70.476 70.471 51.053 51.054m-97.706-4.401 93.296-93.296a6.23 6.23 0 0 1 6.799-1.353 6.2 6.2 0 0 1 2.024 1.353l42.23 42.231a6.235 6.235 0 0 1 0 8.823l-93.295 93.295a6.225 6.225 0 0 1-8.801 0l-42.253-42.252a6.223 6.223 0 0 1 0-8.801Z"/></svg>