<svg xmlns="http://www.w3.org/2000/svg" width="192" height="192" fill="none"><path stroke="#000" stroke-linecap="round" stroke-linejoin="round" stroke-width="12" d="m170 170-20-3s20-16.001 20-28c0-8.499-10-14-19-6"/><path stroke="#000" stroke-linejoin="round" stroke-width="6" d="M76.275 66.898c.8-.215 1.102-1.686.673-3.286s-1.425-2.724-2.226-2.51-1.1 1.686-.672 3.286 1.425 2.724 2.225 2.51Zm16.726-4.713c.8-.215 1.102-1.686.673-3.286s-1.425-2.724-2.226-2.51-1.1 1.686-.672 3.286 1.425 2.724 2.225 2.51Z"/><path stroke="#000" stroke-linecap="round" stroke-width="10" d="m29 113 92-20m-88 39 92-20"/><path stroke="#000" stroke-linecap="round" stroke-linejoin="round" stroke-width="12" d="m131 132-92 20S22 95.5 22 72s6-50 42-50c48 0 35.044 35.685 63.5 34 14.24-.843 37.5-12 37.5-12s5 9 5 19-2 16-2 16-13.2-6-28-4c-18.5 2.5-18 15-18 20.5s9 36.5 9 36.5"/><path stroke="#000" stroke-linecap="round" stroke-linejoin="round" stroke-width="10" d="M48 150v21h10m13-21.412 4.918 18.352 9.659-2.588M125 135.588l4.918 18.352 9.659-2.588m-39.487-9.649 2.48 18.838 9.914-1.306"/></svg>