<svg xmlns="http://www.w3.org/2000/svg" width="192" height="192" fill="none"><path stroke="#000" stroke-linecap="round" stroke-linejoin="round" stroke-width="8" d="M24 28a4 4 0 1 0 0-8 4 4 0 0 0 0 8m120 0a3.998 3.998 0 0 0 2.828-6.828A3.998 3.998 0 0 0 140 24a3.997 3.997 0 0 0 4 4M24 76a4 4 0 1 0 0-8 4 4 0 0 0 0 8m120 0a3.998 3.998 0 0 0 2.828-6.828A3.998 3.998 0 0 0 140 72a3.997 3.997 0 0 0 4 4M24 100a4 4 0 1 0 0-8 4 4 0 0 0 0 8m120 0a3.998 3.998 0 0 0 2.828-6.828A3.998 3.998 0 0 0 140 96a3.997 3.997 0 0 0 4 4M24 52a4 4 0 1 0 0-8 4 4 0 0 0 0 8m120 0a3.998 3.998 0 0 0 2.828-6.828A3.998 3.998 0 0 0 140 48a3.997 3.997 0 0 0 4 4M24 124a3.997 3.997 0 0 0 4-4 3.998 3.998 0 0 0-6.828-2.828A3.998 3.998 0 0 0 24 124m120 0a4 4 0 0 0 2.828-1.172 3.995 3.995 0 0 0 0-5.656 3.995 3.995 0 0 0-5.656 0 3.995 3.995 0 0 0 0 5.656A4 4 0 0 0 144 124M24 148a3.997 3.997 0 0 0 4-4 3.998 3.998 0 0 0-6.828-2.828A3.998 3.998 0 0 0 24 148m120 0a4 4 0 0 0 2.828-1.172 3.995 3.995 0 0 0 0-5.656 3.995 3.995 0 0 0-5.656 0 3.995 3.995 0 0 0 0 5.656A4 4 0 0 0 144 148M24 172a3.997 3.997 0 0 0 4-4 3.998 3.998 0 0 0-6.828-2.828A3.998 3.998 0 0 0 24 172m120 0a4 4 0 0 0 2.828-1.172 3.995 3.995 0 0 0 0-5.656 3.995 3.995 0 0 0-5.656 0 3.995 3.995 0 0 0 0 5.656A4 4 0 0 0 144 172m24-144a3.998 3.998 0 0 0 2.828-6.828A3.998 3.998 0 0 0 164 24a3.997 3.997 0 0 0 4 4m0 48a3.998 3.998 0 0 0 2.828-6.828A3.998 3.998 0 0 0 164 72a3.997 3.997 0 0 0 4 4m0 24a3.998 3.998 0 0 0 2.828-6.828A3.998 3.998 0 0 0 164 96a3.997 3.997 0 0 0 4 4m0-48a3.998 3.998 0 0 0 2.828-6.828A3.998 3.998 0 0 0 164 48a3.997 3.997 0 0 0 4 4m-96 0a4 4 0 1 0 0-8 4 4 0 0 0 0 8m0 24a4 4 0 1 0 0-8 4 4 0 0 0 0 8m24 0a4 4 0 1 0 0-8 4 4 0 0 0 0 8m0 24a4 4 0 1 0 0-8 4 4 0 0 0 0 8m24 0a3.998 3.998 0 0 0 2.828-6.828A3.998 3.998 0 0 0 116 96a3.997 3.997 0 0 0 4 4m0 24a4 4 0 0 0 2.828-1.172 3.995 3.995 0 0 0 0-5.656 3.995 3.995 0 0 0-5.656 0 3.995 3.995 0 0 0 0 5.656A4 4 0 0 0 120 124m48 0a4 4 0 0 0 2.828-1.172 3.995 3.995 0 0 0 0-5.656 3.995 3.995 0 0 0-5.656 0 3.995 3.995 0 0 0 0 5.656A4 4 0 0 0 168 124m0 24a4 4 0 0 0 2.828-1.172 3.995 3.995 0 0 0 0-5.656 3.995 3.995 0 0 0-5.656 0 3.995 3.995 0 0 0 0 5.656A4 4 0 0 0 168 148m0 24a4 4 0 0 0 2.828-1.172 3.995 3.995 0 0 0 0-5.656 3.995 3.995 0 0 0-5.656 0 3.995 3.995 0 0 0 0 5.656A4 4 0 0 0 168 172"/><path stroke="#000" stroke-linecap="round" stroke-linejoin="round" stroke-width="12" d="M48 22v148"/></svg>