<svg xmlns="http://www.w3.org/2000/svg" width="192" height="192" fill="none"><path stroke="#000" stroke-linecap="round" stroke-linejoin="round" stroke-width="12" d="M83 69a6 6 0 0 1 6-6h14a6 6 0 0 1 6 6v29h24.002l-32.759 32.759a6 6 0 0 1-8.486 0L58.998 98H83zm13-47v6m0 136v6m74-74h-6M28 96h-6"/><path stroke="#000" stroke-linecap="round" stroke-linejoin="round" stroke-width="12" d="M33.155 122.018C29.833 114.003 28 105.216 28 96c0-37.555 30.445-68 68-68s68 30.445 68 68c0 9.216-1.833 18.003-5.155 26.018m-10.518-78.347-4.242 4.242m4.249 100.409-4.247-4.242C131.781 156.387 114.779 164 96 164s-35.78-7.613-48.087-19.92l-4.237 4.242m4.25-100.409-4.243-4.242"/></svg>