<svg xmlns="http://www.w3.org/2000/svg" width="192" height="192" fill="none"><path stroke="#000" stroke-linecap="round" stroke-linejoin="round" stroke-width="12" d="M108 84h23a6 6 0 0 0 6-6V56c0-20 26-34 26-34v148s-26-12-26-30v-26a6 6 0 0 0-6-6H84m24-24H61a6 6 0 0 1-6-6V56c0-15.768-16.16-27.806-23-32.195M108 84l-24 24m0 0H61a6 6 0 0 0-6 6v26c0 18-26 30-26 30V30"/><path stroke="#000" stroke-linecap="round" stroke-linejoin="round" stroke-width="12" d="M37 22h-2a6 6 0 0 0-6 6v2"/><path stroke="#000" stroke-linecap="round" stroke-linejoin="round" stroke-width="12" d="M35 22h93c-12.036 12.93-29.09 21-48 21-18.393 0-35.029-7.633-47-19.949"/></svg>