<svg xmlns="http://www.w3.org/2000/svg" width="192" height="192" fill="none"><path stroke="#000" stroke-linecap="round" stroke-linejoin="round" stroke-width="10" d="M23 98h91a6 6 0 0 1 6 6v9m0 53v-12M72 98v67"/><path stroke="#000" stroke-linecap="round" stroke-linejoin="round" stroke-width="10" d="M72 94c30 36 52 42 52 42m-9-80c0 32-43 42-43 42 0-16 3-55 29-55 13 0 14 13 14 13M72 94c-17.155 20.586-31.695 31.363-41 36.817m14-87.75C69.31 44.715 72 82.419 72 98c0 0-32.992-9.13-41.302-32"/><circle cx="96" cy="96" r="74" stroke="#000" stroke-linecap="round" stroke-linejoin="round" stroke-width="12"/></svg>