<svg xmlns="http://www.w3.org/2000/svg" width="192" height="192" fill="none"><path stroke="#000" stroke-linecap="round" stroke-linejoin="round" stroke-width="10" d="M72.942 104.647a12.23 12.23 0 0 1-17.294 0l-24.5-24.5a34.648 34.648 0 1 1 49-48.999l24.499 24.5a12.23 12.23 0 0 1 0 17.294m-31.706 31.705a12.23 12.23 0 0 0 0-17.294m0 17.294-24.5 24.5c-7.925 7.926-9.907 17.113-9.907 24.319m34.408-66.113-24.5-24.5c-7.926-7.926-9.908-17.113-9.908-24.319m34.408 48.82a12.23 12.23 0 0 0-17.294 0l-24.5 24.499a34.645 34.645 0 0 0 0 48.999 34.646 34.646 0 0 0 49 0l24.499-24.5a12.23 12.23 0 0 0 0-17.294M87.353 72.941a12.23 12.23 0 0 0 17.294 0m-17.294 0-24.5-24.5c-7.926-7.925-17.113-9.907-24.319-9.907m48.82 34.408a12.23 12.23 0 0 1 0-17.294l24.499-24.5a34.645 34.645 0 0 1 48.999 0 34.646 34.646 0 0 1 0 49l-24.5 24.499a12.23 12.23 0 0 1-17.294 0m-14.411-31.706 24.5-24.5c7.926-7.925 17.113-9.907 24.319-9.907m-114.932 0c-7.206 0-12.43 1.982-12.43 1.982m92.954 46.837a12.23 12.23 0 0 0 0 17.294m0-17.294 24.5-24.5c7.926-7.926 9.908-17.113 9.908-24.319m-34.408 48.82a12.23 12.23 0 0 1 17.294 0l24.5 24.499a34.644 34.644 0 0 1 0 48.999 34.65 34.65 0 0 1-48.999 0l-24.5-24.5a12.227 12.227 0 0 1 0-17.294m31.705-14.411 24.5 24.5c7.926 7.926 9.908 17.113 9.908 24.319m0-114.932c0-7.206-1.982-12.43-1.982-12.43m-64.13 92.954a12.23 12.23 0 0 1 17.293 0m-17.294 0-24.5 24.5c-7.926 7.926-17.113 9.908-24.319 9.908m66.113-34.408 24.5 24.5c7.926 7.926 17.113 9.908 24.319 9.908m0 0c7.206 0 12.43-1.982 12.43-1.982m-127.362 1.982c0 7.206 1.982 12.43 1.982 12.43"/></svg>