<svg xmlns="http://www.w3.org/2000/svg" width="192" height="192" fill="none"><path stroke="#000" stroke-linecap="round" stroke-linejoin="round" stroke-width="12" d="M50 167c-1.747-33.772-1.46-58.051 8.167-72.442m0 0C65.073 84.235 76.785 79 96 79s30.927 5.235 37.833 15.558m-75.666 0a38 38 0 0 1 21.026-37.64 38.002 38.002 0 0 1 54.64 37.64M142 167c1.747-33.772 1.459-58.051-8.167-72.442"/><circle cx="96" cy="130" r="4" stroke="#000" stroke-linecap="round" stroke-linejoin="round" stroke-width="8"/><path stroke="#000" stroke-linecap="round" stroke-linejoin="round" stroke-miterlimit="6" stroke-width="10" d="M87 109s-3 2-7 2-7-2-7-2m46 0s-3 2-7 2-7-2-7-2"/><path stroke="#000" stroke-linecap="round" stroke-linejoin="round" stroke-width="10" d="M27.021 22s-8.994 10-4.997 24C26.022 60 62 71 62 71s-15.99-7-1.999-32m-12.66 26s-17.99-9-3.998-34"/><path stroke="#000" stroke-linecap="round" stroke-linejoin="round" stroke-width="12" d="M50 119s-24-10-26-40m118 40s1-21 28-35"/><path stroke="#000" stroke-linecap="round" stroke-linejoin="round" stroke-width="10" d="M164.979 22s8.994 10 4.997 24C165.978 60 130 71 130 71s15.99-7 1.999-32m12.661 26s17.989-9 3.998-34"/></svg>