<svg xmlns="http://www.w3.org/2000/svg" width="192" height="192" fill="none"><path stroke="#000" stroke-linecap="round" stroke-linejoin="round" stroke-width="12" d="M40 118c0-16 56-60 56-60m0 90v-30"/><path stroke="#000" stroke-linecap="round" stroke-linejoin="round" stroke-width="10" d="m63 75 33-47 31 44"/><path stroke="#000" stroke-linecap="round" stroke-linejoin="round" stroke-width="12" d="M152 118c0-16-56-60-56-60"/><path stroke="#000" stroke-linecap="round" stroke-linejoin="round" stroke-width="10" d="M39.62 124 26 51l42 29m85 38c0-48 13-69 13-69-22 0-40 29-40 29"/><path stroke="#000" stroke-linecap="round" stroke-linejoin="round" stroke-width="12" d="M40 118a28 28 0 0 0 56 0 28 28 0 0 0 56 0"/><path stroke="#000" stroke-linecap="round" stroke-linejoin="round" stroke-width="8" d="M24 52a4 4 0 1 0 0-8 4 4 0 0 0 0 8m144-8a4 4 0 1 1 0 8 4 4 0 0 1 0-8M96 30a4 4 0 1 0 0-8 4 4 0 0 0 0 8"/><path stroke="#000" stroke-linecap="round" stroke-linejoin="round" stroke-width="12" d="M76 168a20 20 0 0 0 20-20 20 20 0 0 0 20 20"/></svg>