<svg xmlns="http://www.w3.org/2000/svg" width="192" height="192" fill="none"><path stroke="#000" stroke-linecap="round" stroke-linejoin="round" stroke-width="10" d="M80.552 89.975 80.123 83m24.266 54.708C122.85 125.722 132 105 140 100l29.257-20m-64.868 57.708-35.4 26.755m-6.853-61.381c-6.788 11.141-5.594 23.59.857 31.919 7.766 10.027 23.149 14.084 41.396 2.707M169.257 80a74.5 74.5 0 0 1 .199 31.107c-5.318 25.738-24.035 47.916-50.877 56.392-27.297 8.62-55.85.816-75-17.868a74.5 74.5 0 0 1-13.784-18.405 75.4 75.4 0 0 1-5.294-12.647 75.2 75.2 0 0 1-3.257-16.585 74 74 0 0 1-.242-5.451c-.242-32.055 20.255-61.885 52.42-72.042 16.649-5.258 33.767-4.405 48.933 1.3A75.4 75.4 0 0 1 141.636 36.5c11.805 9.038 21.046 21.667 25.863 36.921A76 76 0 0 1 169.257 80M62.993 135.001l-19.414 14.63m18.557-46.549c2.018-3.311 4.466-6.88 8.336-9.22C95.323 78.845 107.127 111.027 93 119.5c-8 3-14.5-.5-15-6.5m-15.864-9.918-6.636-2.514m68.869-14.572L145 70M21.244 101.994l30.032-22.63m90.36-42.864-22.974 19m3.693-29.698L69.01 66M169 108l-31 25.303M102 69.28l-5.102 4.22M36.5 123.451 31 128"/></svg>