<svg xmlns="http://www.w3.org/2000/svg" width="192" height="192" fill="none"><path stroke="#000" stroke-linecap="round" stroke-linejoin="round" stroke-width="12" d="m59 137-34.067-20.256A6 6 0 0 1 22 111.587V80.413a6 6 0 0 1 2.933-5.157L59 55m0 82 33.934 20.177a6 6 0 0 0 6.132 0L133 137m-74 0v-34.587a6 6 0 0 1 2.934-5.157L96 77M59 55l33.934-20.177a6 6 0 0 1 6.132 0L133 55m-74 0 37 22m37-22 34.066 20.256A6 6 0 0 1 170 80.413v31.174a6 6 0 0 1-2.934 5.157L133 137m0-82L96 77m37 60v-34.587a6 6 0 0 0-2.934-5.157L96 77"/></svg>