<svg xmlns="http://www.w3.org/2000/svg" width="192" height="192" fill="none"><path stroke="#000" stroke-linecap="round" stroke-linejoin="round" stroke-width="12" d="M88.146 99.258h67.874c4.107 0 7.493 0 10.065-3.938a27.97 27.97 0 0 0 3.889-15.406c0-7.752-2.26-15.636-6.78-23.746a62 62 0 0 0-15.599-18.535C134.801 27.213 119.248 22 100.982 22c-11.486 0-22.11 2.037-31.919 6.206-13.07 5.484-23.875 13.821-32.326 25.016-9.812 12.915-14.74 27.459-14.74 43.684a73.1 73.1 0 0 0 8.55 34.439 72.6 72.6 0 0 0 16.455 20.98c13.656 11.785 30.607 17.673 50.816 17.673 20.032 0 37.663-5.756 52.989-17.219 8.636-6.478 12.975-13.187 12.975-20.122-.083-3.504-1.361-4.876-3.613-7.559-2.4-3.081-4.887-4.623-7.37-4.623-1.901 0-4.524 1.179-7.778 3.489-3.663 2.585-8.274 4.803-13.924 6.572-5.609 1.765-10.761 2.672-15.372 2.672-7.823 0-15.103-2.808-21.883-8.337-6.784-5.53-10.174-11.464-10.174-17.715 0-2.585 1.492-7.9 4.478-7.9Z"/><path stroke="#000" stroke-linecap="round" stroke-linejoin="round" stroke-width="12" d="M92.334 74h14.495c6.104 0 9.154-2.832 9.154-8.454a18 18 0 0 0-4.442-12.639 15 15 0 0 0-11.622-4.898 14.71 14.71 0 0 0-12.608 6.338A20.02 20.02 0 0 0 83 66.267c0 2.876.675 4.901 2.063 6.023 1.388 1.12 3.817 1.71 7.27 1.71Z"/></svg>