<svg xmlns="http://www.w3.org/2000/svg" width="192" height="192" fill="none"><path stroke="#000" stroke-linecap="round" stroke-linejoin="round" stroke-width="12" d="M34 68c9 30 37 21 37 21l2 6s-3 13-23 13-28-18-28-18zm136 26s-5-20-27-20-29 13-29 13v4c28-4 36 10 36 10h11zm-14 62s0-28-43-36l-3 2c22 11 14 30 14 30s11 1 18 10zM110 26c-14 8-8 24-8 24l-7 20h-9s-14-6-14-18c0-18 15-23 15-23l5 2zM36 137.866c24.242 11.886 40.404-10.895 40.404-10.895l7.07-2.971s10.102 23.771-10.1 32.685-33.334-2.971-33.334-2.971z"/></svg>