<svg width="192" height="192" fill="none" xmlns="http://www.w3.org/2000/svg"><path d="M22 60c0-6.627 5.373-12 12-12h124c6.627 0 12 5.373 12 12v72c0 6.627-5.373 12-12 12H34c-6.627 0-12-5.373-12-12V60Z" stroke="#000" stroke-width="12" stroke-linecap="round" stroke-linejoin="round"/><path d="M86 120v-8c0-6.627-5.373-12-12-12H58c-6.627 0-12 5.373-12 12v8m62-2h26m-26-22h38m-38-22h38" stroke="#000" stroke-width="12" stroke-linecap="round" stroke-linejoin="round"/><circle cx="66" cy="86" r="14" stroke="#000" stroke-width="12" stroke-linecap="round" stroke-linejoin="round"/></svg>