<svg width="192" height="192" fill="none" xmlns="http://www.w3.org/2000/svg"><path d="m74 96 61-11m30.478 49.317L101 22l-17 4-21.22 126.725m102.698-18.408a9.993 9.993 0 0 0-2.385-2.896c-6.184-5.122-17.507-1.851-25.29 7.305-7.783 9.156-9.08 20.731-2.896 25.853s17.507 1.851 25.29-7.305c6.546-7.701 8.504-17.113 5.281-22.957ZM62.781 152.725c.42-2.102.247-4.169-.613-6.055-3.142-6.888-14.271-8.743-24.858-4.143-10.586 4.601-16.62 13.914-13.478 20.803 3.142 6.888 14.271 8.743 24.858 4.143 7.688-3.342 12.976-9.169 14.09-14.748Z" stroke="#000" stroke-width="12" stroke-linecap="round" stroke-linejoin="round"/></svg>