<svg xmlns="http://www.w3.org/2000/svg" width="192" height="192" fill="none"><path stroke="#000" stroke-linecap="round" stroke-linejoin="round" stroke-width="12" d="M49 77v81c31-6 47 12 47 12s16-18 47-12V77c-31-6-47 12-47 12S80 71 49 77"/><path stroke="#000" stroke-linecap="round" stroke-linejoin="round" stroke-width="10" d="M113 136.68c-14 10.178-34 11.232-34-14.251C79 99.018 96 98 101 98s12 3 12 11.179c0 16.813-31 10.197-31 10.197"/><path stroke="#000" stroke-linecap="round" stroke-linejoin="round" stroke-width="12" d="M128.451 74.889A34.998 34.998 0 0 0 76.81 58.73a35 35 0 0 0-13.028 15.594M96 22v10m46.67 9.327-7.071 7.072m-79.188 0-7.072-7.072m21.404-14.301 3.827 9.239m46.687-9.243-3.826 9.239"/></svg>