<svg xmlns="http://www.w3.org/2000/svg" width="192" height="192" fill="none"><path stroke="#000" stroke-linecap="round" stroke-linejoin="round" stroke-width="12" d="M157 107c0-15.284-5.38-30.047-15.138-41.539-9.757-11.491-23.227-18.927-37.9-20.922S74.415 46.126 62.11 54.617c-12.305 8.493-21.2 21.314-25.032 36.077-3.83 14.764-2.333 30.462 4.213 44.17 6.545 13.708 17.693 24.491 31.365 30.34 13.673 5.849 28.938 6.366 42.952 1.453s25.82-14.92 33.22-28.157M35 107h122M96 22v22m60.106 2.892L140.549 62.45m-89.088 0L35.905 46.892m92.623-18.424-8.419 20.326m-48.208 0-8.42-20.326"/></svg>