<svg xmlns="http://www.w3.org/2000/svg" width="192" height="192" fill="none" viewBox="0 0 192 192"><path stroke="#000" stroke-linecap="round" stroke-width="12" d="M47.343 105.019c5.219-5.013 6.93-5.183 13.435-8.967l3.854-2.44q.503-.319.935-.729l.834-.792a6.13 6.13 0 0 1 3.003-1.558c2.731-.554 4.577-.963 5.984-1.36 1.375-.39 2.458-1.4 3.123-2.665l2.884-5.478a6.08 6.08 0 0 1 6.945-3.044l2.865.762a5.66 5.66 0 0 0 3.044-.037 5.66 5.66 0 0 1 5.574 1.413l5.981 5.927 5.877 5.518m32.977 18.623c-10.78-4.123-16.199-7.392-26.96-18.172-1.618-1.621-4.188-1.83-6.017-.451m-14.228 7.932c3.542-3.752 4.227-6.28 14.228-7.932M170 96c0 40.869-33.131 74-74 74s-74-33.131-74-74 33.13-74 74-74 74 33.13 74 74Z"/></svg>