<svg xmlns="http://www.w3.org/2000/svg" width="192" height="192" fill="none"><circle cx="99" cy="73" r="51" stroke="#000" stroke-linecap="round" stroke-linejoin="round" stroke-width="12"/><circle cx="99" cy="73" r="25" stroke="#000" stroke-linecap="round" stroke-linejoin="round" stroke-width="12"/><path stroke="#000" stroke-linecap="round" stroke-linejoin="round" stroke-width="12" d="M81.322 55.322c5.077-5.077 5.077-13.308 0-18.384-5.076-5.077-13.308-5.077-18.384 0C48.528 51.09 40 70.207 40 92c0 43.078 33.922 78 77 78 14 0 23.398-3.336 24.975-3.99a13 13 0 0 0 4.217-2.818 12.99 12.99 0 0 0 2.818-14.167 13 13 0 0 0-2.818-4.217A13 13 0 0 0 137 141c-3.707 0-12 2-20 2-28.166 0-51-22.833-51-51 0-14.338 5.798-27.412 15.322-36.678"/></svg>