<svg xmlns="http://www.w3.org/2000/svg" width="192" height="192" fill="none"><path stroke="#000" stroke-linecap="round" stroke-linejoin="round" stroke-width="10" d="M78.565 83.008c2.197.163 5.474 1.878 5.435 4.816q-.06 4.408-3.356 4.163c-2.198-.163-7.932-3.163-7.633-4.98.3-1.816 3.356-4.162 5.554-3.999m38.087 23.639c-1.006-1.671-4.061-3.517-7.153-2.198q-4.638 1.977-3.129 4.483c1.007 1.67 6.353 4.901 8.16 3.868 1.806-1.032 3.129-4.483 2.122-6.153"/><circle cx="84" cy="114" r="3" stroke="#000" stroke-linecap="round" stroke-linejoin="round" stroke-width="6"/><path stroke="#000" stroke-linecap="round" stroke-linejoin="round" stroke-width="12" d="M23 88.384s12.414-2.631 18.18-6.01c5.768-3.38 9.57-9.217 14.5-13.137 4.931-3.92 9.612-5.632 12.078-7.592s4.3-10.256 12.87-10.635S94.3 61.05 94.3 61.05s7.983-3.13 21.363 5.536c13.379 8.665 16.811 18 16.811 18s8.569-.378 11.707 7.583c3.139 7.96-3.714 13.007-4.507 16.051s.922 7.711-2.293 16.299c-3.215 8.589-12.197 20.556-12.947 27.185-.749 6.628.967 11.296.967 11.296"/><circle cx="96" cy="96" r="74" stroke="#000" stroke-linecap="round" stroke-linejoin="round" stroke-width="12"/></svg>