<svg xmlns="http://www.w3.org/2000/svg" width="192" height="192" fill="none"><path stroke="#000" stroke-linecap="round" stroke-linejoin="round" stroke-width="12" d="M113 32a41 41 0 0 1 41 41"/><path stroke="#000" stroke-linecap="round" stroke-linejoin="round" stroke-width="10" d="M119 89c0-1.06.737-2.078 2.05-2.828S124.143 85 126 85s3.637.421 4.95 1.172S133 87.939 133 89z"/><path stroke="#000" stroke-linecap="round" stroke-linejoin="round" stroke-width="12" d="M75 117a41 41 0 0 1-41-41m120-3v60M113 32h-3.924a6 6 0 0 1-4.35-1.867l-2.236-2.354a18.567 18.567 0 0 0-26.99.071L36.74 69.085A10.1 10.1 0 0 0 34 76"/><path stroke="#000" stroke-linecap="round" stroke-linejoin="round" stroke-width="12" d="M40 68h33c8.837 0 16-7.163 16-16v-4m-14 69h42m37 16a37.001 37.001 0 0 1-68.84 18.847l22.279-8.289a15 15 0 0 0 12.487 3.154 15 15 0 0 0 7.681-4.105 15 15 0 0 0 4.105-7.681A15 15 0 0 0 117 117"/></svg>