<svg xmlns="http://www.w3.org/2000/svg" width="192" height="192" fill="none"><path stroke="#000" stroke-linecap="round" stroke-linejoin="round" stroke-width="10" d="M58 94c0 18 9 26 9 26m63 6s17-13 3.051-35M98 134s21-20 31.5-7-16.5 32-16.5 32"/><path stroke="#000" stroke-linecap="round" stroke-linejoin="round" stroke-width="12" d="M74 85c-46 8-52 85-52 85m148 0s-6-77-52-85"/><path stroke="#000" stroke-linecap="round" stroke-linejoin="round" stroke-width="12" d="M96 92c19.33 0 35-15.67 35-35s-15.67-35-35-35-35 15.67-35 35 15.67 35 35 35"/><path stroke="#000" stroke-linecap="round" stroke-linejoin="round" stroke-width="10" d="M66 127a5 5 0 1 0 0-10 5 5 0 0 0 0 10m32 1a5 5 0 1 1-.001 10.001A5 5 0 0 1 98 128m16 26a5 5 0 1 1-.001 10.001A5 5 0 0 1 114 154"/></svg>