<svg xmlns="http://www.w3.org/2000/svg" width="192" height="192" fill="none"><path stroke="#000" stroke-linecap="round" stroke-linejoin="round" stroke-width="12" d="M168.687 108.497c3.015 5.943.662 13.214-5.255 16.242s-13.157.665-16.171-5.277c-3.015-5.943-.663-13.214 5.254-16.242s13.157-.665 16.172 5.277m-73.309 23.962-26.783 13.706a12.06 12.06 0 0 0-5.977 7.028 12.12 12.12 0 0 0 .722 9.214 12.04 12.04 0 0 0 6.998 6.002c3.033.99 6.333.729 9.174-.725l26.783-13.706a12.06 12.06 0 0 0 5.977-7.028c.985-3.046.726-6.36-.722-9.214a12.04 12.04 0 0 0-6.998-6.002 11.97 11.97 0 0 0-9.174.725m6.768-53.158L48.58 106.713a12.06 12.06 0 0 0-5.976 7.028 12.12 12.12 0 0 0 .722 9.214 12.04 12.04 0 0 0 6.997 6.002c3.033.99 6.333.729 9.175-.725l53.565-27.412a12.06 12.06 0 0 0 5.977-7.027c.985-3.047.726-6.36-.722-9.214a12.04 12.04 0 0 0-6.998-6.003 11.98 11.98 0 0 0-9.174.725m10.339-54.985-83.92 42.945a12.06 12.06 0 0 0-5.977 7.028 12.12 12.12 0 0 0 .723 9.214 12.04 12.04 0 0 0 6.997 6.002c3.033.99 6.333.729 9.174-.725l83.92-42.945a12.06 12.06 0 0 0 5.977-7.028c.985-3.046.726-6.36-.722-9.214a12.04 12.04 0 0 0-6.998-6.002 11.98 11.98 0 0 0-9.174.725"/></svg>