<svg xmlns="http://www.w3.org/2000/svg" width="192" height="192" fill="none"><path stroke="#000" stroke-linecap="round" stroke-linejoin="round" stroke-width="12" d="M40.52 62.516c-1.211.32-2.036-1.5-1.024-2.128.062-.039.125-.077.182-.123C60.926 43.254 93.796 38 122.642 38c20.041 0 34.097 1.128 42.166 2.036 4.124.464 6.371 4.823 4.558 8.574l-10.589 21.907c-1.823 3.772-6.746 4.73-10.099 2.234C115 47 76 57 40.52 62.516"/><path stroke="#000" stroke-linecap="round" stroke-linejoin="round" stroke-width="12" d="m103.778 97 16.889-37.929C58 46 44.058 141.777 37.745 143.357 31.43 144.938 22 144.411 22 144.411S34.581 156 61.84 156c14.679 0 19.92-3.161 23.066-7.375s12.581-27.393 12.581-27.393 4.363-4.408 20.874 7.589c3.331 2.42 8.133 1.437 9.931-2.277l12.395-23.495c1.587-3.278.049-7.119-3.508-7.834-7.343-1.477-19.393-3.61-33.401 1.785"/></svg>