<svg xmlns="http://www.w3.org/2000/svg" width="192" height="192" fill="none"><path stroke="#000" stroke-linecap="round" stroke-linejoin="round" stroke-width="12" d="M67 123c0 26 29 35 29 47M64 54c0 19.828 5 57 5 57m59-57c0 19.828-5 57-5 57"/><path stroke="#000" stroke-linecap="round" stroke-linejoin="round" stroke-width="10" d="M65.021 70C64.736 65.444 75.081 56.993 96 41.402M126.979 70c.285-4.556-10.06-13.007-30.979-28.598m0 0c4.562-3.4 10.007-8.41 16.5-12.766"/><path stroke="#000" stroke-linecap="round" stroke-linejoin="round" stroke-width="12" d="M125 123c0 26-29 47-29 47m29-47c0-3.808-.75-7.579-2.207-11.098a29 29 0 0 0-15.695-15.695 29.003 29.003 0 0 0-37.89 15.695A29 29 0 0 0 67 123m61-69a32.003 32.003 0 0 0-32-32 32 32 0 0 0-32 32"/><path stroke="#000" stroke-linecap="round" stroke-linejoin="round" stroke-width="12" d="M48 120.799a28.15 28.15 0 0 0 14.397 7.663 28.23 28.23 0 0 0 16.245-1.593 28.1 28.1 0 0 0 12.62-10.313A27.9 27.9 0 0 0 96 101m0 0c0 5.538 1.65 10.951 4.739 15.556a28.1 28.1 0 0 0 12.619 10.313 28.23 28.23 0 0 0 16.245 1.593A28.15 28.15 0 0 0 144 120.799"/><circle cx="86" cy="74" r="3" stroke="#000" stroke-linecap="round" stroke-linejoin="round" stroke-width="6"/><circle cx="106" cy="74" r="3" stroke="#000" stroke-linecap="round" stroke-linejoin="round" stroke-width="6"/></svg>