<svg xmlns="http://www.w3.org/2000/svg" width="192" height="192" fill="none"><path stroke="#000" stroke-linecap="round" stroke-linejoin="round" stroke-width="12" d="M60 22c24 0 28 6 50 6 18 0 50-1 50-1s-16 25-32 25c-24 0-51-10-61 7s23 89 2 111c0 0-29-22-29-126 0-14 6-22 20-22"/><path stroke="#000" stroke-linecap="round" stroke-linejoin="round" stroke-width="12" d="M90.663 73.48c3.024-3.012 39.303 9.034 40.311 12.046 1.007 3.012-27.21 34.133-31.24 30.117-4.032-4.016-12.094-39.152-9.07-42.164Z"/></svg>