<svg xmlns="http://www.w3.org/2000/svg" width="192" height="192" fill="none"><path stroke="#000" stroke-linecap="round" stroke-linejoin="round" stroke-width="12" d="M84.298 30.36c3.683-11.147 19.721-11.147 23.404 0l8.326 25.199c1.647 4.985 6.371 8.36 11.702 8.36h26.942c11.92 0 16.875 14.999 7.232 21.889l-21.797 15.573c-4.312 3.081-6.117 8.542-4.469 13.528l8.325 25.198c3.684 11.147-9.291 20.417-18.934 13.527l-21.797-15.573a12.47 12.47 0 0 0-14.464 0L66.97 153.634c-9.643 6.89-22.618-2.38-18.934-13.527l8.325-25.198c1.648-4.986-.157-10.447-4.47-13.528L30.096 85.808c-9.642-6.89-4.687-21.889 7.233-21.889H64.27c5.33 0 10.055-3.375 11.702-8.36l8.326-25.198ZM96 138v32"/></svg>