<svg width="192" height="192" fill="none" xmlns="http://www.w3.org/2000/svg"><path d="M125 86H60a6 6 0 0 1-6-6V66a6 6 0 0 1 6-6h65" stroke="#000" stroke-width="12" stroke-linecap="round" stroke-linejoin="round"/><path d="M93 28H28a6 6 0 0 0-6 6v124a6 6 0 0 0 6 6h20a6 6 0 0 0 6-6v-34a6 6 0 0 1 6-6h33m0-90h32a45 45 0 0 1 5.983 89.601c-3.285.44-5.983 3.085-5.983 6.399v34a6 6 0 0 1-6 6H99a6 6 0 0 1-6-6v-40m0-90v32m0 58V86" stroke="#000" stroke-width="12" stroke-linecap="round" stroke-linejoin="round"/><path d="M125 86a12.999 12.999 0 0 0 9.192-22.192A12.999 12.999 0 0 0 125 60" stroke="#000" stroke-width="12" stroke-linecap="round" stroke-linejoin="round"/></svg>