<svg xmlns="http://www.w3.org/2000/svg" width="192" height="192" fill="none"><path stroke="#000" stroke-linecap="round" stroke-linejoin="round" stroke-miterlimit="6" stroke-width="10" d="M144 153v12c0 1.591.632 3.117 1.757 4.243A6 6 0 0 0 150 171h12a9 9 0 1 0 0-18zm0 0v-11.999c0-1.591.632-3.117 1.757-4.243a6 6 0 0 1 4.243-1.757h8M158 153a9 9 0 1 0 0-18"/><path stroke="#000" stroke-linecap="round" stroke-linejoin="round" stroke-width="10" d="M109 42H93a6 6 0 0 0-6 6v28m0-16h15"/><path stroke="#000" stroke-linecap="round" stroke-linejoin="round" stroke-width="12" d="M34 82h-5a6 6 0 0 0-6 6v76a6 6 0 0 0 6 6h96m33-88h5a6 6 0 0 1 6 6v30"/><path stroke="#000" stroke-linecap="round" stroke-linejoin="round" stroke-width="10" d="M126 150H66"/><path stroke="#000" stroke-linecap="round" stroke-linejoin="round" stroke-width="12" d="M136 79.674V28a6 6 0 0 0-6-6H62a6 6 0 0 0-6 6v51.674a6 6 0 0 0 2.82 5.088l34 21.251a6 6 0 0 0 6.36 0l34-21.25a6 6 0 0 0 2.82-5.089"/><path stroke="#000" stroke-linecap="round" stroke-linejoin="round" stroke-width="8" d="M48 109a4 4 0 1 0 0-8 4 4 0 0 0 0 8m96 0a4 4 0 1 0 0-8 4 4 0 0 0 0 8m-96 24a4 4 0 1 0 0-8 4 4 0 0 0 0 8m48 0a4 4 0 1 0 0-8 4 4 0 0 0 0 8m24 0a4 4 0 1 0 0-8 4 4 0 0 0 0 8m-48 0a4 4 0 1 0 0-8 4 4 0 0 0 0 8"/></svg>