<svg xmlns="http://www.w3.org/2000/svg" width="192" height="192" fill="none"><path stroke="#000" stroke-linecap="round" stroke-linejoin="round" stroke-width="10" d="M26 26v134a6 6 0 0 0 6 6h28m0-34V32a6 6 0 0 1 6-6h66"/><path stroke="#000" stroke-linecap="round" stroke-linejoin="round" stroke-width="10" d="M94 98V66a6 6 0 0 1 6-6h29m37 72v28a6 6 0 0 1-1.757 4.243A6 6 0 0 1 160 166H94m72-140v67a6 6 0 0 1-6 6h-22a6 6 0 0 0-4.243 1.757A6 6 0 0 0 132 105v21a6 6 0 0 1-1.757 4.243A6 6 0 0 1 126 132H94M26 31a5 5 0 1 0 0-10 5 5 0 0 0 0 10m34 140a5 5 0 1 0 0-10 5 5 0 0 0 0 10m0-34a5 5 0 1 0 0-10 5 5 0 0 0 0 10"/><path stroke="#000" stroke-linecap="round" stroke-linejoin="round" stroke-width="10" d="M94 137a5 5 0 1 0 0-10 5 5 0 0 0 0 10m0-34a5 5 0 1 0 0-10 5 5 0 0 0 0 10m0 68a5 5 0 1 0 0-10 5 5 0 0 0 0 10m72-34a5 5 0 1 0-.001-10.001A5 5 0 0 0 166 137m0-106a5 5 0 1 0 0-10 5 5 0 0 0 0 10m-34 0a5 5 0 1 0 0-10 5 5 0 0 0 0 10m0 34a5 5 0 1 0 0-10 5 5 0 0 0 0 10"/></svg>