<svg xmlns="http://www.w3.org/2000/svg" width="192" height="192" fill="none"><path stroke="#000" stroke-linecap="round" stroke-linejoin="round" stroke-width="12" d="M96 120c13.255 0 24-10.745 24-24s-10.745-24-24-24-24 10.745-24 24 10.745 24 24 24"/><path stroke="#000" stroke-linecap="round" stroke-linejoin="round" stroke-width="8" d="M31 135a4 4 0 1 0 0-8 4 4 0 0 0 0 8"/><path stroke="#000" stroke-linecap="round" stroke-linejoin="round" stroke-width="8" d="M31 135a4 4 0 1 0 0-8 4 4 0 0 0 0 8m130-70a4 4 0 1 0 0-8 4 4 0 0 0 0 8"/><path stroke="#000" stroke-linecap="round" stroke-linejoin="round" stroke-width="12" d="M141.559 37.687a73.996 73.996 0 0 0-112.408 26.57 74 74 0 0 0-6.28 43.064"/><path stroke="#000" stroke-linecap="round" stroke-linejoin="round" stroke-width="12" d="M141.559 37.687a74 74 0 0 0-63.43-13.498 74 74 0 0 0-49.705 41.654 74 74 0 0 0-5.161 43.769m27.178 44.701a73.995 73.995 0 0 0 84.003 4.916 74 74 0 0 0 34.293-76.842"/></svg>