<svg xmlns="http://www.w3.org/2000/svg" width="192" height="192" fill="none"><path stroke="#000" stroke-linecap="round" stroke-linejoin="round" stroke-width="12" d="M54 99a42 42 0 1 0 84 0"/><path stroke="#000" stroke-linecap="round" stroke-linejoin="round" stroke-width="12" d="M78 99a18 18 0 0 0 18 18 18 18 0 0 0 12.728-5.272A18 18 0 0 0 114 99m-7 43v28M96 22c-28 0-42 58-42 77"/><path stroke="#000" stroke-linecap="round" stroke-linejoin="round" stroke-width="12" d="M78 99c0-11 10-21 18-21s18 10 18 21M96 22c28 0 42 58 42 77m-53 43v28"/></svg>