<svg xmlns="http://www.w3.org/2000/svg" width="192" height="192" fill="none"><path stroke="#000" stroke-linecap="round" stroke-linejoin="round" stroke-width="12" d="M22 53v86m148-86v86"/><ellipse cx="96" cy="53" stroke="#000" stroke-linecap="round" stroke-linejoin="round" stroke-width="12" rx="74" ry="28"/><ellipse cx="96" cy="53" stroke="#000" stroke-linecap="round" stroke-linejoin="round" stroke-width="6" rx="28" ry="3"/><circle cx="72" cy="105" r="4" stroke="#000" stroke-linecap="round" stroke-linejoin="round" stroke-width="8"/><circle cx="120" cy="105" r="4" stroke="#000" stroke-linecap="round" stroke-linejoin="round" stroke-width="8"/><path stroke="#000" stroke-linecap="round" stroke-linejoin="round" stroke-width="8" d="M109 132c0 1.051-.336 2.091-.99 3.061-.653.971-1.61 1.853-2.818 2.596s-2.64 1.332-4.217 1.734A20.3 20.3 0 0 1 96 140a20.3 20.3 0 0 1-4.975-.609c-1.577-.402-3.01-.991-4.217-1.734-1.208-.743-2.165-1.625-2.818-2.596-.654-.97-.99-2.01-.99-3.061z"/><path stroke="#000" stroke-linecap="round" stroke-linejoin="round" stroke-width="12" d="M170 139c0 7.426-7.796 14.548-21.674 19.799S115.626 167 96 167s-38.448-2.95-52.326-8.201S22 146.426 22 139"/></svg>