<svg xmlns="http://www.w3.org/2000/svg" width="192" height="192" fill="none"><path stroke="#000" stroke-linecap="round" stroke-linejoin="round" stroke-width="12" d="M75 119a21 21 0 0 0 21 21c5.57 0 10.911-2.212 14.849-6.151A21 21 0 0 0 117 119"/><path stroke="#000" stroke-linecap="round" stroke-linejoin="round" stroke-width="12" d="M29 86c0-11.046 8.954-20 20-20h94c11.046 0 20 8.954 20 20v64c0 11.046-8.954 20-20 20H49c-11.046 0-20-8.954-20-20zm23-64c44 0 44 44 44 44s-44 0-44-44m88 0c-44 0-44 44-44 44s44 0 44-44"/></svg>