<svg xmlns="http://www.w3.org/2000/svg" width="192" height="192" fill="none"><path stroke="#000" stroke-linecap="round" stroke-linejoin="round" stroke-width="12" d="M44.996 55.728C40.45 50.722 38 46.242 38 40.796c0-5.182 2.01-9.75 5.335-13.175C46.745 24.108 51.993 22 57.679 22h80.642c5.686 0 10.846 2.108 14.344 5.621A18.86 18.86 0 0 1 158 40.796c0 5.183-2.011 9.926-5.335 13.351-3.411 3.513-8.658 5.885-14.344 5.885H99.837c7.871 8.256 23.703 23.715 29.125 29.688 4.636 5.094 6.998 9.222 6.998 14.844 0 4.83-2.012 9.925-5.336 13.35-3.411 3.514-8.659 5.885-14.344 5.885H81.334a5.98 5.98 0 0 0-4.233 1.757 6 6 0 0 0-1.754 4.243v20.438c0 5.71-2.012 10.892-5.51 14.405-3.411 3.338-7.96 5.358-13.12 5.358s-9.533-2.02-12.945-5.358c-3.499-3.425-5.335-8.695-5.335-14.405v-44.883c0-6.324 1.75-10.628 5.072-13.965 3.412-3.514 8.572-5.622 14.52-5.622h16.093z"/></svg>