<svg xmlns="http://www.w3.org/2000/svg" width="192" height="192" fill="none"><path stroke="#000" stroke-linecap="round" stroke-linejoin="round" stroke-width="12" d="M48 50c0-13.255 10.745-24 24-24h48c13.255 0 24 10.745 24 24v92c0 13.255-10.745 24-24 24H72c-13.255 0-24-10.745-24-24z"/><path stroke="#000" stroke-linecap="round" stroke-linejoin="round" stroke-width="12" d="M81 78.482c0-1.543 1.674-2.505 3.008-1.728l30.03 17.518c1.323.772 1.323 2.684 0 3.456l-30.03 17.517c-1.334.778-3.008-.183-3.008-1.727zM47 44l-14.166 1.077c-6.63.503-11.518 6.567-10.756 13.342l9.106 80.956c.68 6.056 5.678 10.625 11.62 10.625H47m98-106 14.166 1.077c6.63.503 11.518 6.567 10.756 13.342l-9.106 80.956c-.681 6.056-5.678 10.625-11.62 10.625H145"/></svg>