<svg xmlns="http://www.w3.org/2000/svg" width="192" height="192" fill="none"><path stroke="#000" stroke-linecap="round" stroke-linejoin="round" stroke-width="12" d="M52 104V76m34-30H58a6 6 0 0 0-6 6v24m0 0h30m25 28V76m19-30h-13a6 6 0 0 0-6 6v24m0 0h19m17 28-17-28m0 0a15.001 15.001 0 0 0 10.607-25.607A15 15 0 0 0 126 46M39 170h126"/><path stroke="#000" stroke-linecap="round" stroke-linejoin="round" stroke-width="12" d="M27 158V28a6 6 0 0 1 6-6h126a6 6 0 0 1 6 6v112a6 6 0 0 1-6 6H39"/><path stroke="#000" stroke-linecap="round" stroke-linejoin="round" stroke-width="12" d="M39 146a12 12 0 1 0 0 24"/></svg>