<svg xmlns="http://www.w3.org/2000/svg" width="192" height="192" fill="none"><circle cx="96" cy="108" r="5" stroke="#000" stroke-linecap="round" stroke-linejoin="round" stroke-width="10"/><circle cx="96" cy="140" r="5" stroke="#000" stroke-linecap="round" stroke-linejoin="round" stroke-width="10"/><circle cx="128" cy="108" r="5" stroke="#000" stroke-linecap="round" stroke-linejoin="round" stroke-width="10"/><circle cx="128" cy="140" r="5" stroke="#000" stroke-linecap="round" stroke-linejoin="round" stroke-width="10"/><circle cx="160" cy="108" r="5" stroke="#000" stroke-linecap="round" stroke-linejoin="round" stroke-width="10"/><circle cx="160" cy="140" r="5" stroke="#000" stroke-linecap="round" stroke-linejoin="round" stroke-width="10"/><circle cx="64" cy="108" r="5" stroke="#000" stroke-linecap="round" stroke-linejoin="round" stroke-width="10"/><circle cx="64" cy="140" r="5" stroke="#000" stroke-linecap="round" stroke-linejoin="round" stroke-width="10"/><circle cx="32" cy="108" r="5" stroke="#000" stroke-linecap="round" stroke-linejoin="round" stroke-width="10"/><circle cx="32" cy="140" r="5" stroke="#000" stroke-linecap="round" stroke-linejoin="round" stroke-width="10"/><path stroke="#000" stroke-linecap="round" stroke-linejoin="round" stroke-width="12" d="M46 170h100M91.683 23.788a6.105 6.105 0 0 1 8.634 0l21.895 21.894a6.107 6.107 0 0 1 0 8.636l-21.895 21.894a6.105 6.105 0 0 1-8.634 0L69.788 54.317a6.106 6.106 0 0 1 0-8.635z"/></svg>