<svg xmlns="http://www.w3.org/2000/svg" width="192" height="192" fill="none"><circle cx="125" cy="70" r="3" stroke="#000" stroke-linecap="round" stroke-linejoin="round" stroke-width="6"/><circle cx="111" cy="84" r="3" stroke="#000" stroke-linecap="round" stroke-linejoin="round" stroke-width="6"/><circle cx="139" cy="84" r="3" stroke="#000" stroke-linecap="round" stroke-linejoin="round" stroke-width="6"/><circle cx="125" cy="98" r="3" stroke="#000" stroke-linecap="round" stroke-linejoin="round" stroke-width="6"/><path stroke="#000" stroke-linecap="round" stroke-linejoin="round" stroke-width="12" d="M68 71v26M55 84h26m15.002-37H51.447c-9.931 0-18.351 7.319-19.755 17.172l-4.848 34.006M96 121H73.648m0 0c-3.227 0-6.319 1.3-8.576 3.607l-16.437 16.796A11.96 11.96 0 0 1 40.087 145h-6.111c-7.287 0-12.884-6.468-11.853-13.697l4.721-33.125M73.648 121H46.644c-12.168 0-21.517-10.776-19.8-22.822M96 47h44.555c9.931 0 18.351 7.319 19.756 17.172l4.847 34.006M96.002 121h22.352m0 0a12 12 0 0 1 8.577 3.607l16.436 16.796a11.96 11.96 0 0 0 8.548 3.597h6.111c7.287 0 12.884-6.468 11.854-13.697l-4.722-33.125M118.354 121h27.004c12.169 0 21.517-10.776 19.8-22.822"/></svg>