<svg xmlns="http://www.w3.org/2000/svg" width="192" height="192" fill="none"><path stroke="#000" stroke-linecap="round" stroke-linejoin="round" stroke-width="12" d="m96 96 46-46"/><circle cx="96" cy="96" r="4" stroke="#000" stroke-linecap="round" stroke-linejoin="round" stroke-width="8"/><path stroke="#000" stroke-linecap="round" stroke-linejoin="round" stroke-width="12" d="M165.22 69.78A73.8 73.8 0 0 1 170 96c0 40.869-33.131 74-74 74s-74-33.131-74-74 33.13-74 74-74c9.233 0 18.07 1.69 26.22 4.78m20.278 53.722a48.7 48.7 0 0 1 2.177 9.823q.324 2.795.325 5.675c0 27.062-21.938 49-49 49s-49-21.938-49-49 21.938-49 49-49c5.416 0 10.627.879 15.498 2.502M87.421 73.579C78.403 77.032 72 85.768 72 96c0 13.255 10.745 24 24 24 10.232 0 18.969-6.403 22.421-15.421l.078-.077"/><path stroke="#000" stroke-linecap="round" stroke-linejoin="round" stroke-width="12" d="m145.371 30.366 6.58-6.58a6.1 6.1 0 0 1 8.624 0l7.639 7.638a6.1 6.1 0 0 1 0 8.625l-6.579 6.58a6.1 6.1 0 0 1-3.117 1.667L140 52l3.704-18.518a6.1 6.1 0 0 1 1.667-3.116"/></svg>