<svg xmlns="http://www.w3.org/2000/svg" width="192" height="192" fill="none"><circle cx="93" cy="103" r="36" stroke="#000" stroke-linecap="round" stroke-linejoin="round" stroke-width="12"/><path stroke="#000" stroke-linecap="round" stroke-linejoin="round" stroke-width="12" d="M22 61a6 6 0 0 1 6-6h23.346a6 6 0 0 0 4.44-1.964l16.429-18.072A6 6 0 0 1 76.655 33h32.691c1.69 0 3.302.713 4.439 1.964l16.43 18.072A6 6 0 0 0 134.654 55H158a6 6 0 0 1 6 6v92a6 6 0 0 1-6 6H28a6 6 0 0 1-6-6z"/><path stroke="#000" stroke-linecap="round" stroke-linejoin="round" stroke-width="12" d="m170 49-66.699 62.941a6 6 0 0 1-8.422-.183L65 81"/></svg>