<svg xmlns="http://www.w3.org/2000/svg" width="192" height="192" fill="none"><path stroke="#000" stroke-linecap="round" stroke-linejoin="round" stroke-width="8" d="M114 24a4 4 0 1 1 0 8 4 4 0 0 1 0-8m39 35a4 4 0 1 1 0 8 4 4 0 0 1 0-8m3 35a4 4 0 1 1 0 8 4 4 0 0 1 0-8m-46 0a4 4 0 1 1 0 8 4 4 0 0 1 0-8m2-43a4 4 0 1 1 0 8 4 4 0 0 1 0-8m20 29a4 4 0 1 1 0 8 4 4 0 0 1 0-8m3-46a4 4 0 1 1 0 8 4 4 0 0 1 0-8"/><path stroke="#000" stroke-linecap="round" stroke-linejoin="round" stroke-width="8" d="M110 126V94l4-66 21 10m-3 43-22 17m22-17 3-43m-3 43-2 38m5-81 18 25 3 32v26m-24-39 24 16M78 32a4 4 0 1 0 0-8 4 4 0 0 0 0 8M39 67a4 4 0 1 0 0-8 4 4 0 0 0 0 8m-3 35a4 4 0 1 0 0-8 4 4 0 0 0 0 8m46 0a4 4 0 1 0 0-8 4 4 0 0 0 0 8m-2-43a4 4 0 1 0 0-8 4 4 0 0 0 0 8M60 88a4 4 0 1 0 0-8 4 4 0 0 0 0 8m-3-46a4 4 0 1 0 0-8 4 4 0 0 0 0 8"/><path stroke="#000" stroke-linecap="round" stroke-linejoin="round" stroke-width="8" d="M82 126V94l-4-66-21 10m3 43 22 17M60 81l-3-43m3 43 2 38m-5-81L39 63l-3 32v26m24-39L36 98"/><path stroke="#000" stroke-linecap="round" stroke-linejoin="round" stroke-width="12" d="M22 125c10 19 2 39 34 39s28-28 28-38m86-1c-10 19-2 39-34 39s-28-28-28-38"/><path stroke="#000" stroke-linecap="round" stroke-linejoin="round" stroke-width="12" d="M22 125s10-5 34-5c16 0 24 7 40 7s24-7 40-7c24 0 34 5 34 5"/></svg>