<svg xmlns="http://www.w3.org/2000/svg" width="192" height="192" fill="none"><path stroke="#000" stroke-linecap="round" stroke-linejoin="round" stroke-width="12" d="M22 64c0-15.464 12.536-28 28-28h92c15.464 0 28 12.536 28 28v64c0 15.464-12.536 28-28 28H50c-15.464 0-28-12.536-28-28z"/><path stroke="#000" stroke-linecap="round" stroke-linejoin="round" stroke-width="12" d="M170 86H98a6 6 0 0 0-6 6v10a6 6 0 0 0 6 6h34a6 6 0 0 1 6 6v4c0 6.627-5.373 12-12 12H66c-6.627 0-12-5.373-12-12V74c0-6.627 5.373-12 12-12h60c6.627 0 12 5.373 12 12v12"/></svg>