<svg xmlns="http://www.w3.org/2000/svg" width="192" height="192" fill="none"><path stroke="#000" stroke-linecap="round" stroke-linejoin="round" stroke-width="12" d="M96 22c-13.255 0-24 10.745-24 24 0 6.953 2.957 13.216 7.682 17.599l-13.336 7.844a6 6 0 0 0-2.576 7.279l2.77 7.385A6 6 0 0 0 72.158 90H82c0 40-36 30-36 72 0 0 10 8 50 8s50-8 50-8c0-42-36-32-36-72h9.842a6 6 0 0 0 5.618-3.893l2.769-7.385a6 6 0 0 0-2.575-7.279L112.318 63.6C117.043 59.216 120 52.953 120 46c0-13.255-10.745-24-24-24"/></svg>