<svg xmlns="http://www.w3.org/2000/svg" width="192" height="192" fill="none"><path stroke="#000" stroke-linecap="round" stroke-linejoin="round" stroke-width="12" d="M96 170c8.837 0 16-7.163 16-16s-7.163-16-16-16-16 7.163-16 16 7.163 16 16 16"/><path stroke="#000" stroke-linecap="round" stroke-linejoin="round" stroke-width="10" d="M26 31a5 5 0 1 0 0-10 5 5 0 0 0 0 10m0 56a5 5 0 1 0 0-10 5 5 0 0 0 0 10m56-56a5 5 0 1 0 0-10 5 5 0 0 0 0 10m0 56a5 5 0 1 0 0-10 5 5 0 0 0 0 10M68 59a5 5 0 1 0 0-10 5 5 0 0 0 0 10m0 56a5 5 0 1 0 0-10 5 5 0 0 0 0 10m42-84a5 5 0 1 0 0-10 5 5 0 0 0 0 10m0 56a5 5 0 1 0 0-10 5 5 0 0 0 0 10M96 59a5 5 0 1 0 0-10 5 5 0 0 0 0 10m0 56a5 5 0 1 0 0-10 5 5 0 0 0 0 10M54 31a5 5 0 1 0 0-10 5 5 0 0 0 0 10m0 56a5 5 0 1 0 0-10 5 5 0 0 0 0 10M40 59a5 5 0 1 0 0-10 5 5 0 0 0 0 10m98-28a5 5 0 1 0 0-10 5 5 0 0 0 0 10m0 56a5 5 0 1 0 0-10 5 5 0 0 0 0 10m-14-28a5 5 0 1 0 0-10 5 5 0 0 0 0 10m0 56a5 5 0 1 0-.001-10.001A5 5 0 0 0 124 115m42-84a5 5 0 1 0 0-10 5 5 0 0 0 0 10m0 56a5 5 0 1 0 0-10 5 5 0 0 0 0 10m-14-28a5 5 0 1 0 0-10 5 5 0 0 0 0 10"/></svg>