<svg xmlns="http://www.w3.org/2000/svg" width="192" height="192" fill="none"><path stroke="#000" stroke-linecap="round" stroke-linejoin="round" stroke-width="12" d="M32 115c0 32 48 36 64 36s64-4 64-36-24-58-64-58-64 26-64 58"/><path stroke="#000" stroke-linecap="round" stroke-linejoin="round" stroke-width="12" d="M76 59S53 38 45 39s-7.5 31-4 43m110 0c3.5-12 4-42-4-43s-31 20-31 20"/><path stroke="#000" stroke-linecap="round" stroke-linejoin="round" stroke-width="10" d="m21 105 10 1m140-1-10 1M21 125l10-2m140 2-10-2M29 143l11-6m123 6-11-6"/><circle cx="67" cy="100" r="5" stroke="#000" stroke-linecap="round" stroke-linejoin="round" stroke-width="10"/><path stroke="#000" stroke-linecap="round" stroke-linejoin="round" stroke-width="8" d="M96 115a6.9 6.9 0 0 1-.843 3.333c-.55.987-1.33 1.756-2.244 2.21a4.24 4.24 0 0 1-2.888.342c-.97-.232-1.861-.803-2.56-1.642"/><path stroke="#000" stroke-linecap="round" stroke-linejoin="round" stroke-width="8" d="M104.536 119.243c-.7.839-1.591 1.41-2.561 1.642a4.24 4.24 0 0 1-2.888-.342c-.914-.454-1.695-1.223-2.244-2.21A6.9 6.9 0 0 1 96 115"/><circle cx="125" cy="100" r="5" stroke="#000" stroke-linecap="round" stroke-linejoin="round" stroke-width="10"/><path stroke="#000" stroke-linecap="round" stroke-linejoin="round" stroke-width="8" d="M92 113h8l-4 4z"/></svg>