<svg xmlns="http://www.w3.org/2000/svg" width="192" height="192" fill="none"><circle cx="96" cy="96" r="39" stroke="#000" stroke-linecap="round" stroke-linejoin="round" stroke-width="12"/><circle cx="84" cy="85" r="4" stroke="#000" stroke-linecap="round" stroke-linejoin="round" stroke-width="8"/><circle cx="108" cy="85" r="4" stroke="#000" stroke-linecap="round" stroke-linejoin="round" stroke-width="8"/><path stroke="#000" stroke-linecap="round" stroke-linejoin="round" stroke-width="12" d="M85 31s-3-9-11-9-12 7-12 12c0 12 16 16 12 29M56 163s4 7 12 7 13-6 13-12c0-11-9-10-2-25m-42-28c-4-3-15-3-15 11s10 23 21 14 24-7 24-7M23 63s-4.5-13 7-17 19 11 15 24 13 16 13 16m49-55s3-9 11-9 12 7 12 12c0 12-16 16-12 29m18 100s-4 7-12 7-13-6-13-12c0-11 9-10 2-25m42-28c4-3 15-3 15 11s-10 23-21 14-24-7-24-7m44-60s4.5-13-7-17-19 11-15 24-13 16-13 16"/></svg>