<svg xmlns="http://www.w3.org/2000/svg" width="192" height="192" fill="none"><path stroke="#000" stroke-linecap="round" stroke-linejoin="round" stroke-width="12" d="M96 170c36.451 0 66-29.549 66-66s-29.549-66-66-66-66 29.55-66 66 29.55 66 66 66"/><path stroke="#000" stroke-linecap="round" stroke-linejoin="round" stroke-width="10" d="M30 96h132"/><path stroke="#000" stroke-linecap="round" stroke-linejoin="round" stroke-width="12" d="M64.91 44.028 52 22m73.258 21.522L138 22M54.34 99.139v15.533a19.33 19.33 0 0 0 5.648 13.667A19.27 19.27 0 0 0 73.622 134h41.541a19.26 19.26 0 0 0 13.635-5.661 19.37 19.37 0 0 0 5.648-13.667V99.137M71.541 69.256l-2.046 4.225m49.651-4.225 2.047 4.225"/></svg>