<svg xmlns="http://www.w3.org/2000/svg" width="192" height="192" fill="none"><path stroke="#000" stroke-linecap="round" stroke-linejoin="round" stroke-width="12" d="M162.346 131.907A74.05 74.05 0 0 1 133 163.256a12.98 12.98 0 0 1-9.865 1.3 13 13 0 0 1-7.893-6.064 13.03 13.03 0 0 1-1.299-9.877 13 13 0 0 1 6.057-7.903 48.04 48.04 0 0 0 20.346-23.229 48.1 48.1 0 0 0 2.018-30.83 48.06 48.06 0 0 0-17.143-25.69A47.96 47.96 0 0 0 96 51.032a47.96 47.96 0 0 0-29.22 9.931 48.06 48.06 0 0 0-17.144 25.69 48.1 48.1 0 0 0 2.018 30.83A48.04 48.04 0 0 0 72 140.712a13 13 0 0 1 6.057 7.903 13.03 13.03 0 0 1-1.299 9.877 13 13 0 0 1-7.893 6.064c-3.33.894-6.88.426-9.865-1.3a74.05 74.05 0 0 1-29.369-31.395 74.17 74.17 0 0 1-6.998-42.44 74.13 74.13 0 0 1 17.73-39.182 74 74 0 0 1 36.484-22.714 73.9 73.9 0 0 1 42.94 1.407 74 74 0 0 1 34.921 25.055 74.15 74.15 0 0 1 15.134 40.258 74.2 74.2 0 0 1-7.496 37.662m0 0 .023-.046"/><circle cx="96" cy="99" r="24" stroke="#000" stroke-linecap="round" stroke-linejoin="round" stroke-width="12"/></svg>