<svg xmlns="http://www.w3.org/2000/svg" width="192" height="192" fill="none"><path stroke="#000" stroke-linecap="round" stroke-linejoin="round" stroke-width="12" d="M120 162.475C117.845 151.383 107.919 143 96 143s-21.845 8.383-24 19.475C79.42 165.394 87.519 167 96 167s16.581-1.606 24-4.525"/><circle cx="96" cy="99" r="24" stroke="#000" stroke-linecap="round" stroke-linejoin="round" stroke-width="12"/><path stroke="#000" stroke-linecap="round" stroke-linejoin="round" stroke-width="12" d="M162.346 131.907a74 74 0 0 1-2.26 4.23c-.789 1.367-1.715 2.707-2.586 4.017a12.99 12.99 0 0 1-10.929 5.957c-7.179 0-13-5.82-13-13 0-2.69.817-5.189 2.217-7.263 1.753-2.619 3.339-5.419 4.558-8.365a48.1 48.1 0 0 0 2.018-30.83 48.06 48.06 0 0 0-17.143-25.69A47.96 47.96 0 0 0 96 51.032a47.96 47.96 0 0 0-29.22 9.931 48.06 48.06 0 0 0-17.144 25.69 48.1 48.1 0 0 0 2.018 30.83c1.219 2.946 2.805 5.746 4.558 8.365a12.94 12.94 0 0 1 2.217 7.263c0 7.18-5.82 13-13 13a12.99 12.99 0 0 1-10.929-5.957c-1.761-2.649-3.452-5.418-4.869-8.293a74.17 74.17 0 0 1-6.998-42.44 74.13 74.13 0 0 1 17.73-39.182 74 74 0 0 1 36.484-22.714 73.9 73.9 0 0 1 42.94 1.407 74 74 0 0 1 34.921 25.055 74.15 74.15 0 0 1 15.134 40.258 74.2 74.2 0 0 1-7.496 37.662m0 0 .023-.046"/></svg>