<svg xmlns="http://www.w3.org/2000/svg" width="192" height="192" fill="none"><path stroke="#000" stroke-linecap="round" stroke-linejoin="round" stroke-width="12" d="M111.145 139.026 94.499 159l-29.402-35.707m46.048 15.733L153.5 88.201m-42.355 50.825L94.944 119.35M153.5 88.202l16.5-19.8a94 94 0 0 0-10.672-11.38 93.25 93.25 0 0 0-34.263-19.669 92.8 92.8 0 0 0-29.328-4.345M153.5 88.201a68.8 68.8 0 0 0-10.84-12.458 68.5 68.5 0 0 0-6.849-5.431m0 0a68.3 68.3 0 0 0-18.255-8.98 68 68 0 0 0-21.941-3.175m40.196 12.155L94.944 119.35m.67-61.193a68.13 68.13 0 0 0-34.145 9.985 68 68 0 0 0-5.569 3.791l25.843 31.385m13.872-45.161.122-25.149m0 0a93 93 0 0 0-9.944.668 93 93 0 0 0-37.278 12.97A93.7 93.7 0 0 0 22 70.953l43.097 52.34m29.847-3.943-13.2-16.032m0 0-16.647 19.975"/></svg>