<svg xmlns="http://www.w3.org/2000/svg" width="192" height="192" fill="none"><path stroke="#000" stroke-linecap="round" stroke-linejoin="round" stroke-width="12" d="M22 57c0-6.627 5.373-12 12-12h124c6.627 0 12 5.373 12 12v78c0 6.627-5.373 12-12 12H34c-6.627 0-12-5.373-12-12z"/><path stroke="#000" stroke-linecap="round" stroke-linejoin="round" stroke-width="12" d="M158 45V34.617c0-7.566-6.916-13.244-14.337-11.77l-112 22.235A12 12 0 0 0 22 56.852V96m12 51v10.383c0 7.566 6.916 13.244 14.337 11.771l112-22.236a12 12 0 0 0 9.663-11.77V96"/><path stroke="#000" stroke-linecap="round" stroke-linejoin="round" stroke-width="12" d="M48 77a6 6 0 0 1 6-6h84a6 6 0 0 1 6 6v38a6 6 0 0 1-6 6H54a6 6 0 0 1-6-6z"/></svg>