<svg xmlns="http://www.w3.org/2000/svg" width="192" height="192" fill="none"><path stroke="#000" stroke-linecap="round" stroke-linejoin="round" stroke-width="12" d="M119 147v-14h.594C139.868 123.961 154 103.631 154 80c0-32.032-25.967-58-58-58-32.032 0-58 25.968-58 58 0 23.631 14.132 43.961 34.406 53H73v14m46.594-14H72.406"/><path stroke="#000" stroke-linecap="round" stroke-linejoin="round" stroke-width="12" d="M81 121c0-6.627 5.373-12 12-12h6c6.627 0 12 5.373 12 12s-5.373 12-12 12h-6c-6.627 0-12-5.373-12-12m38 26a23 23 0 0 1-23 23 23 23 0 0 1-21.25-14.198A23 23 0 0 1 73 147"/></svg>