<svg xmlns="http://www.w3.org/2000/svg" width="192" height="192" fill="none"><path stroke="#000" stroke-linecap="round" stroke-linejoin="round" stroke-width="12" d="m64 89 17.757 17.757a6 6 0 0 0 8.486 0L134 63"/><path stroke="#000" stroke-linecap="round" stroke-linejoin="round" stroke-width="12" d="M86 22a64 64 0 1 0 0 128"/><path stroke="#000" stroke-linecap="round" stroke-linejoin="round" stroke-width="12" d="M86 170a54 54 0 0 1-53.666-48M106 170a54 54 0 0 0 53.666-48"/><path stroke="#000" stroke-linecap="round" stroke-linejoin="round" stroke-width="12" d="M106 150a64 64 0 1 0 0-128m-20 0h20M86 150h20m-20 20h20"/></svg>