<svg xmlns="http://www.w3.org/2000/svg" width="192" height="192" fill="none"><path stroke="#000" stroke-linecap="round" stroke-linejoin="round" stroke-width="12" d="m70.006 93.112 23.106-23.106m28.882 28.882-23.106 23.106m-1.444-47.656 15.163-15.163a3.064 3.064 0 0 1 4.333 0m0 0 15.885 15.885M116.94 59.175l10.552-10.553a6.127 6.127 0 0 1 8.665 0l7.221 7.22a6.13 6.13 0 0 1 0 8.665L132.825 75.06m0 0a3.064 3.064 0 0 1 0 4.333l-15.163 15.163m-76.538 56.32 21.661-21.661m0 0-21.661-21.662a30.635 30.635 0 0 1 43.323 43.323zm90.979 38.99 14.441-14.441a6.125 6.125 0 0 0 0-8.664L46.9 23.795a6.127 6.127 0 0 0-8.664 0l-14.441 14.44a6.127 6.127 0 0 0 0 8.665L145.1 168.205a6.125 6.125 0 0 0 8.664 0M49 159l-16-16"/></svg>