<svg xmlns="http://www.w3.org/2000/svg" width="192" height="192" fill="none"><path stroke="#000" stroke-linecap="round" stroke-linejoin="round" stroke-width="12" d="M52 28a6 6 0 0 1 6-6h76a6 6 0 0 1 6 6v136a6 6 0 0 1-6 6H58a6 6 0 0 1-6-6z"/><path stroke="#000" stroke-linecap="round" stroke-linejoin="round" stroke-width="6" d="M71 103h6v6h-6zm0 22h6v6h-6zm0 22h6v6h-6zm22-44h6v6h-6zm0 22h6v6h-6zm0 22h6v6h-6zm22-44h6v6h-6zm0 22h6v6h-6zm0 22h6v6h-6z"/><path stroke="#000" stroke-linecap="round" stroke-linejoin="round" stroke-width="12" d="M52 86h88"/><path stroke="#000" stroke-linecap="round" stroke-linejoin="round" stroke-width="10" d="M96 22v64m-45-1c21 0 29-43 45-43s24 43 45 43"/></svg>