<svg xmlns="http://www.w3.org/2000/svg" width="192" height="192" fill="none"><path stroke="#000" stroke-linecap="round" stroke-linejoin="round" stroke-width="10" d="M96 48 56 72v48l40 24m0-96 40 24v48l-40 24"/><path stroke="#000" stroke-linecap="round" stroke-linejoin="round" stroke-width="12" d="M96 56a6 6 0 1 0 0-12 6 6 0 0 0 0 12m0 92a6 6 0 1 0 0-12 6 6 0 0 0 0 12"/><path stroke="#000" stroke-linecap="round" stroke-linejoin="round" stroke-width="10" d="M96 21v28m0 94v28"/><path stroke="#000" stroke-linecap="round" stroke-linejoin="round" stroke-width="12" d="M135.837 79a6 6 0 1 0 0-12 6 6 0 0 0 0 12M56.162 66.999a6 6 0 1 1 0 12 6 6 0 0 1 0-12M56.163 125a6 6 0 1 0 0-12 6 6 0 0 0 0 12m79.674-12a6 6 0 1 1 0 12 6 6 0 0 1 0-12"/><path stroke="#000" stroke-linecap="round" stroke-linejoin="round" stroke-width="10" d="m160.952 58.5-24.249 14m-105.655-14 24.25 14m0 47-24.25 14m105.655-14 24.249 14"/></svg>