<svg xmlns="http://www.w3.org/2000/svg" width="192" height="192" fill="none"><path stroke="#000" stroke-linecap="round" stroke-linejoin="round" stroke-width="12" d="M84 46v46m24-46v46M73 56h46M73 80h46m20.301 23c-4.388 6.993-10.7 12.8-18.301 16.837-7.601 4.038-16.223 6.163-25 6.163s-17.399-2.125-25-6.163C63.399 115.8 57.087 109.993 52.699 103"/><path stroke="#000" stroke-linecap="round" stroke-linejoin="round" stroke-width="12" d="M31 49.942C31 34.51 43.536 22 59 22h74c15.464 0 28 12.51 28 27.942v73.847c0 15.431-12.536 27.942-28 27.942h-18.167a16 16 0 0 0-14.856 10.036l-3.049 7.606c-.335.836-1.521.836-1.856 0l-3.049-7.606a16 16 0 0 0-14.855-10.036H59c-15.464 0-28-12.511-28-27.942z"/></svg>