<svg xmlns="http://www.w3.org/2000/svg" width="192" height="192" fill="none"><path stroke="#000" stroke-linecap="round" stroke-linejoin="round" stroke-width="12" d="M25 31a6 6 0 0 1 6-6h130a6 6 0 0 1 6 6v130a6 6 0 0 1-6 6H31a6 6 0 0 1-6-6z"/><circle cx="96" cy="101" r="4" stroke="#000" stroke-width="8"/><path stroke="#000" stroke-linecap="round" stroke-linejoin="round" stroke-width="12" d="M83 58.6c0-1.786.336-3.555.99-5.205a13.6 13.6 0 0 1 2.818-4.412 13 13 0 0 1 4.217-2.948A12.5 12.5 0 0 1 96 45c1.707 0 3.398.352 4.975 1.035a13 13 0 0 1 4.217 2.948 13.6 13.6 0 0 1 2.818 4.413c.654 1.65.99 3.418.99 5.204 0 9.52-13 11.9-13 20.4M25 69v4c0 15.464 12.536 28 28 28h20m94-32v4c0 15.464-12.536 28-28 28h-20m8 23c0 5.835-3.266 11.431-9.08 15.556C112.107 143.682 104.222 146 96 146s-16.107-2.318-21.92-6.444S65 129.835 65 124z"/></svg>