<svg xmlns="http://www.w3.org/2000/svg" width="192" height="192" fill="none"><path stroke="#000" stroke-linecap="round" stroke-linejoin="round" stroke-width="12" d="M113.554 125.354a22.25 22.25 0 0 1 2.495 16.773 22.15 22.15 0 0 1-10.04 13.633 21.97 21.97 0 0 1-16.694 2.506 22.06 22.06 0 0 1-13.568-10.087L25.15 63.571a22.26 22.26 0 0 1-2.495-16.773c.7-2.824 1.948-5.48 3.67-7.82a22.1 22.1 0 0 1 6.37-5.813 21.95 21.95 0 0 1 16.694-2.507 22 22 0 0 1 7.783 3.688 22.1 22.1 0 0 1 5.785 6.4l41.304 69.067m9.293 15.541-9.293-15.541m9.293 15.541 15.489 25.9a22.06 22.06 0 0 0 13.568 10.088 21.97 21.97 0 0 0 16.694-2.507 22.15 22.15 0 0 0 10.04-13.633 22.25 22.25 0 0 0-2.495-16.773l-24.782-41.44a22.1 22.1 0 0 0-5.786-6.4A22 22 0 0 0 128.5 76.9a21.95 21.95 0 0 0-16.694 2.506 22.1 22.1 0 0 0-6.37 5.814 22.25 22.25 0 0 0-1.175 24.592"/></svg>