<svg xmlns="http://www.w3.org/2000/svg" width="192" height="192" fill="none"><path stroke="#000" stroke-linecap="round" stroke-linejoin="round" stroke-width="10" d="M74 137s6 8 22 8 22-8 22-8m-42-2-4 4m44-4 4 4"/><ellipse cx="78" cy="81.5" stroke="#000" stroke-linecap="round" stroke-linejoin="round" stroke-width="8" rx="4" ry="7.5"/><ellipse cx="114" cy="81.5" stroke="#000" stroke-linecap="round" stroke-linejoin="round" stroke-width="8" rx="4" ry="7.5"/><path stroke="#000" stroke-linecap="round" stroke-linejoin="round" stroke-width="12" d="M96 98c-22 0-32-9-42-9s-15 16-15 28c0 33 29 48 57 48s57-15 57-48c0-12-5-28-15-28s-20 9-42 9M55 88V72c0-30 35-30 41-30s41 0 41 30v16"/><path stroke="#000" stroke-linecap="round" stroke-linejoin="round" stroke-width="12" d="M74 45c-8.356-8-3.714-18-3.714-18M118 45c8.356-8 3.714-18 3.714-18M55.5 64S46 72 34 72a12 12 0 0 1 0-24c12 0 25 6 25 6m77.5 10s9.5 8 21.5 8a12 12 0 0 0 12-12 12 12 0 0 0-12-12c-12 0-25 6-25 6"/><circle cx="75" cy="116" r="3" stroke="#000" stroke-linecap="round" stroke-linejoin="round" stroke-width="6"/><circle cx="117" cy="116" r="3" stroke="#000" stroke-linecap="round" stroke-linejoin="round" stroke-width="6"/></svg>