<svg xmlns="http://www.w3.org/2000/svg" width="192" height="192" fill="none"><circle cx="65" cy="119" r="3" stroke="#000" stroke-linecap="round" stroke-linejoin="round" stroke-width="6"/><path stroke="#000" stroke-linecap="round" stroke-linejoin="round" stroke-width="12" d="M89 73v24m-44 22H28.022c-4.565 0-7.465-4.875-5.28-8.873l5.467-10A6.02 6.02 0 0 1 33.49 97h29.5m0 0-6.938-16.615A12.03 12.03 0 0 0 44.952 73H31m31.991 24H67m44 0h59m-4 0-6.923-16.615A12 12 0 0 0 148 73h-14m-49 46h10c8.837 0 16-7.163 16-16V89"/></svg>