<svg xmlns="http://www.w3.org/2000/svg" width="192" height="192" fill="none"><path stroke="#000" stroke-linecap="round" stroke-linejoin="round" stroke-width="12" d="M25 49c0-13.255 10.745-24 24-24h94c13.255 0 24 10.745 24 24v94c0 13.255-10.745 24-24 24H49c-13.255 0-24-10.745-24-24zm71-24v12m22-12v12m22-12v12M74 25v12M52 25v12M27 59h138"/><path stroke="#000" stroke-linecap="round" stroke-linejoin="round" stroke-width="12" d="M96 145s-40-17.231-40-42.667c0-2.801.549-5.575 1.616-8.164a21.3 21.3 0 0 1 4.6-6.92 21.2 21.2 0 0 1 6.886-4.625 21.13 21.13 0 0 1 16.245 0 21.2 21.2 0 0 1 6.886 4.624A21.3 21.3 0 0 1 96 92.385a21.3 21.3 0 0 1 3.767-5.137 21.2 21.2 0 0 1 6.886-4.624 21.13 21.13 0 0 1 16.245 0 21.2 21.2 0 0 1 6.885 4.624 21.3 21.3 0 0 1 4.601 6.921 21.4 21.4 0 0 1 1.616 8.164C136 127.769 96 145 96 145"/></svg>