<svg xmlns="http://www.w3.org/2000/svg" width="192" height="192" fill="none"><path stroke="#000" stroke-linecap="round" stroke-linejoin="round" stroke-width="12" d="M96 72a33.999 33.999 0 1 0-68 0"/><path stroke="#000" stroke-linecap="round" stroke-linejoin="round" stroke-width="12" d="M164 72a34 34 0 0 0-9.958-24.042A34 34 0 0 0 130 38a34 34 0 0 0-34 34m-68 0c0 41 34 60 68 86m68-86c0 41-34 60-68 86"/><path stroke="#000" stroke-linecap="round" stroke-linejoin="round" stroke-width="12" d="M22 102h41l7-39 9 55 6-16h22.959a6 6 0 0 0 3.659-1.244l7.724-5.942a6 6 0 0 1 7.316 0l7.724 5.942a6 6 0 0 0 3.659 1.244H170"/></svg>