<svg xmlns="http://www.w3.org/2000/svg" width="192" height="192" fill="none"><path stroke="#000" stroke-linecap="round" stroke-linejoin="round" stroke-width="12" d="M62.059 103.941a47.998 47.998 0 0 1 40.206-81.53 48 48 0 0 1 40.813 38.225 48 48 0 0 1-3.356 29.174C136 98 126 104 122.941 110.941S120 127 101.5 127H75.583c-1.012 0-1.383 1.331-.517 1.855L110 150l-30 4 24 16"/><path stroke="#000" stroke-linecap="round" stroke-linejoin="round" stroke-width="12" d="M96 50a20 20 0 0 1 18.478 12.346A20 20 0 0 1 116 70"/></svg>