<svg xmlns="http://www.w3.org/2000/svg" width="192" height="192" fill="none"><circle cx="63.563" cy="90.054" r="13" stroke="#000" stroke-linecap="round" stroke-linejoin="round" stroke-width="10"/><circle cx="132.175" cy="117.775" r="13" stroke="#000" stroke-linecap="round" stroke-linejoin="round" stroke-width="10"/><path stroke="#000" stroke-linecap="round" stroke-linejoin="round" stroke-width="10" d="M100.791 118.038a4 4 0 0 1-5.207 2.21 4 4 0 0 1-2.21-5.207 4 4 0 0 1-7.418-2.997"/><path stroke="#000" stroke-linecap="round" stroke-linejoin="round" stroke-width="12" d="M47.293 129.612c3.67 1.488 22.668 2.501 37.348 8.454s28.712 18.334 32.382 19.822 33.011 18.743 48.58-19.934c10.969-27.249-1.225-47.995-7.957-65.356-5.254-13.55-7.364-21.197-11.033-22.685-3.67-1.488-7.385 18.027-31.239 8.354-23.855-9.674-10.966-25.469-14.636-26.957s-10.48 2.542-23.637 8.625C60.243 47.73 37.113 54.152 26.144 81.401c-15.569 38.677 17.48 46.722 21.15 48.211Z"/></svg>