<svg xmlns="http://www.w3.org/2000/svg" width="192" height="192" fill="none"><path stroke="#000" stroke-linecap="round" stroke-linejoin="round" stroke-width="12" d="M22 96v74m57-88.164c0-5.95 6.46-9.722 11.745-6.86l26.142 14.165c5.484 2.971 5.484 10.747 0 13.718l-26.142 14.164C85.46 119.886 79 116.113 79 110.164z"/><path stroke="#000" stroke-linecap="round" stroke-linejoin="round" stroke-width="12" d="M22 96a74 74 0 1 1 34.354 62.484M79 113a57 57 0 0 1-22.646 45.484M79 113v1m0-1V96m-57 74a57 57 0 0 0 34.354-11.516"/></svg>