<svg xmlns="http://www.w3.org/2000/svg" width="192" height="192" fill="none"><path stroke="#000" stroke-linecap="round" stroke-linejoin="round" stroke-width="12" d="M25 31a6 6 0 0 1 6-6h130a6 6 0 0 1 6 6v130a6 6 0 0 1-6 6H31a6 6 0 0 1-6-6zm86-6v142"/><path stroke="#000" stroke-linecap="round" stroke-linejoin="round" stroke-width="10" d="M65.842 99 56 91.6S58 89 68 80"/><path stroke="#000" stroke-linecap="round" stroke-linejoin="round" stroke-width="12" d="M111 63c-25-17-45 8-45 31s16 46 45 40"/><path stroke="#000" stroke-linecap="round" stroke-linejoin="round" stroke-width="10" d="M111 79c-12.5-1-21 4-21 4l-4 15.5C82 120 94 133 94 133"/></svg>