<svg xmlns="http://www.w3.org/2000/svg" width="192" height="192" fill="none" viewBox="0 0 192 192"><path stroke="#000" stroke-width="12" d="m96 55.217 4.954-4.965c15.633-15.67 40.98-15.67 56.613 0l.708.709c15.633 15.669 15.633 41.073 0 56.742l-33.968 34.045c-15.634 15.669-40.98 15.669-56.614 0l-9.907-9.93M96 55.217l-4.954-4.965c-15.633-15.67-40.98-15.67-56.613 0l-.708.709c-15.633 15.669-15.633 41.073 0 56.742l24.06 24.115M96 55.217 79.632 71.622a3.87 3.87 0 0 1-5.479 0l-1.86-1.865c-5.276-5.288-13.83-5.288-19.107 0s-5.276 13.862 0 19.15l20.743 20.79a4.185 4.185 0 0 0 5.928 0l39.85-39.94c5.276-5.288 13.831-5.288 19.107 0s5.276 13.862 0 19.15L96 131.818c-10.553 10.577-27.662 10.577-38.214 0"/></svg>