<svg xmlns="http://www.w3.org/2000/svg" width="192" height="192" fill="none"><path stroke="#000" stroke-linecap="round" stroke-linejoin="round" stroke-width="12" d="M96 52 65 65 52 96l13 31 31 13 31-13 13-31-13-31zm11-15c0 8.284-4.925 15-11 15s-11-6.716-11-15 4.925-15 11-15 11 6.716 11 15m38.497 25.059c-5.857 5.858-14.089 7.124-18.384 2.828-4.296-4.295-3.03-12.527 2.828-18.385 5.858-5.857 14.089-7.124 18.385-2.828s3.029 12.527-2.829 18.385M52 96c0 6.075-6.716 11-15 11s-15-4.925-15-11 6.716-11 15-11 15 4.925 15 11m12.887-31.113c-4.295 4.296-12.527 3.03-18.385-2.828-5.857-5.858-7.124-14.09-2.828-18.385s12.527-3.03 18.385 2.828 7.124 14.09 2.828 18.385M170 96c0 6.075-6.716 11-15 11s-15-4.925-15-11 6.716-11 15-11 15 4.925 15 11m-21.674 52.326c-4.296 4.296-12.527 3.029-18.385-2.829-5.858-5.857-7.124-14.089-2.828-18.384 4.295-4.296 12.527-3.03 18.384 2.828s7.125 14.089 2.829 18.385M107 155c0 8.284-4.925 15-11 15s-11-6.716-11-15 4.925-15 11-15 11 6.716 11 15m-44.941-9.503c-5.858 5.858-14.09 7.125-18.385 2.829s-3.03-12.527 2.828-18.385 14.09-7.124 18.385-2.828 3.03 12.527-2.828 18.384"/></svg>