<svg xmlns="http://www.w3.org/2000/svg" width="192" height="192" fill="none"><path stroke="#000" stroke-linecap="round" stroke-linejoin="round" stroke-width="10" d="M32 122s24-26 48-26c16 0 16 34 16 34s0-34 16-34c24 0 48 26 48 26"/><path stroke="#000" stroke-linecap="round" stroke-linejoin="round" stroke-width="8" d="m96 150 6 8H90zm-28-16a4 4 0 1 0 0-8 4 4 0 0 0 0 8m56-8a4 4 0 1 1 0 8 4 4 0 0 1 0-8"/><path stroke="#000" stroke-linecap="round" stroke-linejoin="round" stroke-width="12" d="M37 104s-7-34 17-82c0 0 20 20 20 48m81 34s7-34-17-82c0 0-20 20-20 48"/><path stroke="#000" stroke-linecap="round" stroke-linejoin="round" stroke-width="12" d="M38 170c2-34-6-26.5-6-48 0-25.5 40-58 64-58s64 32.5 64 58c0 21.5-8 14-6 48"/></svg>