<svg xmlns="http://www.w3.org/2000/svg" width="192" height="192" fill="none"><circle cx="96" cy="141" r="5" stroke="#000" stroke-linecap="round" stroke-linejoin="round" stroke-width="10"/><path stroke="#000" stroke-linecap="round" stroke-linejoin="round" stroke-width="12" d="M46 28a6 6 0 0 1 6-6h88a6 6 0 0 1 6 6v136a6 6 0 0 1-6 6H52a6 6 0 0 1-6-6zm38 32v10m24-10v10"/><path stroke="#000" stroke-linecap="round" stroke-linejoin="round" stroke-width="12" d="M75 78a6 6 0 0 1 6-6h30a6 6 0 0 1 6 6v28a6 6 0 0 1-6 6H81a6 6 0 0 1-6-6zm33-18a12 12 0 0 0-12-12 12 12 0 0 0-12 12"/></svg>