<svg xmlns="http://www.w3.org/2000/svg" width="192" height="192" fill="none"><path stroke="#000" stroke-linecap="round" stroke-linejoin="round" stroke-width="12" d="M110 121a6 6 0 0 1 6-6h8a6 6 0 0 0 6-6V93a6 6 0 0 1 6-6h8a6 6 0 0 0 6-6V68a6 6 0 0 1 6-6h8a6 6 0 0 0 6-6V28a6 6 0 0 0-6-6h-28a6 6 0 0 0-6 6v8a6 6 0 0 1-6 6h-13a6 6 0 0 0-6 6v8a6 6 0 0 1-6 6H83a6 6 0 0 0-6 6v8a6 6 0 0 1-6 6H36a6 6 0 0 0-6 6v11a6 6 0 0 0 6 6h4a6 6 0 0 1 6 6v16a6 6 0 0 1-6 6H28a6 6 0 0 0-6 6v25a6 6 0 0 0 6 6h25a6 6 0 0 0 6-6v-12a6 6 0 0 1 6-6h16a6 6 0 0 1 6 6v4a6 6 0 0 0 6 6h11a6 6 0 0 0 6-6z"/></svg>