<svg xmlns="http://www.w3.org/2000/svg" width="192" height="192" fill="none"><path stroke="#000" stroke-linecap="round" stroke-linejoin="round" stroke-width="12" d="M90 108c0 12.15-9.85 22-22 22s-22-9.85-22-22m44 0c0-12.15-9.85-22-22-22s-22 9.85-22 22m44 0H46m44 0h68.623C165.568 102.315 170 93.675 170 84c0-5.038-1.202-9.795-3.334-14M46 108h-7.126C28.536 99.016 22 85.771 22 71c0-27.062 21.938-49 49-49a48.8 48.8 0 0 1 20.54 4.5M68 66V46m46.001-17.677-25 43.301m58.676-9.628-43.301 25m43.306 67-43.301-25M103.806 170l-14.797-25.629M68 150v20m-21-25.629-6.25 10.825m-9.12-26.2-5.413 3.125M47.01 71.624 43.184 65"/></svg>