<svg xmlns="http://www.w3.org/2000/svg" width="192" height="192" fill="none"><path stroke="#000" stroke-linecap="round" stroke-linejoin="round" stroke-width="12" d="M81.803 27.88c7.84-7.84 20.553-7.84 28.394 0l53.923 53.923c7.84 7.84 7.84 20.553 0 28.394l-53.923 53.923c-7.841 7.84-20.553 7.84-28.394 0L27.88 110.197c-7.84-7.841-7.84-20.553 0-28.394z"/><path stroke="#000" stroke-linecap="round" stroke-linejoin="round" stroke-width="12" d="M96 68 72.243 91.757a6 6 0 0 0 0 8.486l19.514 19.514a6 6 0 0 0 8.486 0l19.514-19.514a6 6 0 0 0 0-8.486zm0 0 26-26"/></svg>