<svg xmlns="http://www.w3.org/2000/svg" width="192" height="192" fill="none"><path stroke="#000" stroke-linecap="round" stroke-linejoin="round" stroke-width="10" d="M69 116c47 48 81-7 81-7m-55-6c10-2 11 6 20 6s7-12 7-12"/><path stroke="#000" stroke-linecap="round" stroke-linejoin="round" stroke-width="10" d="M65 120s2-7 8-7"/><path stroke="#000" stroke-linecap="round" stroke-linejoin="round" stroke-width="12" d="M61.924 22c25.825 0 47.677 4 61.582 4s24.832-4 32.778 2-3.973 51-4.966 74-27.812 68-59.596 68-54.63-34-54.63-74-2.979-74 24.832-74"/><path stroke="#000" stroke-linecap="round" stroke-linejoin="round" stroke-width="10" d="M78 66.158c7 .984 10 7.874 10 7.874S88 76 82 76s-17-6.89-17-6.89 6-3.936 13-2.952"/><path stroke="#000" stroke-linecap="round" stroke-linejoin="round" stroke-width="8" d="M128.064 67.683c-2.972 1.04-7.926 6.238-6.935 7.277.991 1.04 1.981 1.04 3.963 1.04 5.945 0 9.908-5.198 9.908-7.278s-3.963-2.079-6.936-1.04Z"/></svg>