<svg xmlns="http://www.w3.org/2000/svg" width="192" height="192" fill="none"><path stroke="#000" stroke-linecap="round" stroke-linejoin="round" stroke-width="12" d="m60.723 69.328-.532 8.796a15.72 15.72 0 0 0 5.797 13.163l40.862 33.091a15.71 15.71 0 0 1 5.797 13.162l-.532 8.796M60.723 69.328l19.162-23.664M60.723 69.328 44.73 89.078a15.7 15.7 0 0 0-3.473 8.941l-.228 3.769a15.72 15.72 0 0 0 5.796 13.163l40.863 33.091a15.72 15.72 0 0 1 5.797 13.162L92.953 170l19.162-23.664m0 0 19.162-23.664M79.885 45.664l-.532 8.796a15.72 15.72 0 0 0 5.797 13.162l40.862 33.092a15.71 15.71 0 0 1 5.797 13.162l-.532 8.796M79.885 45.664 99.047 22l-.532 8.796a15.71 15.71 0 0 0 5.797 13.162l40.863 33.091a15.72 15.72 0 0 1 5.796 13.163l-.228 3.769a15.72 15.72 0 0 1-3.473 8.941l-15.993 19.75"/></svg>