<svg xmlns="http://www.w3.org/2000/svg" width="192" height="192" fill="none"><path stroke="#000" stroke-linecap="round" stroke-linejoin="round" stroke-width="10" d="M21 158c0-6 16-1 16-16V53c0-15-16-10-16-16h23c12 0 23-5 34-5s40 4 40 37-29 38-40 38c-8 0-18-3-18 13v22c0 15 20 9 20 16zm108-60 29-10v56c0 11 13 9 13 14h-43c0-5 12-3 12-14v-34c0-10-11-12-11-12"/><circle cx="150" cy="58" r="12" stroke="#000" stroke-linecap="round" stroke-linejoin="round" stroke-width="10"/><path stroke="#000" stroke-linecap="round" stroke-linejoin="round" stroke-width="10" d="M67 70c0-13 3-18 9-18 0 0 12 0 12 18S76 88 76 88c-6 0-9-5-9-18"/></svg>