<svg xmlns="http://www.w3.org/2000/svg" width="192" height="192" fill="none"><path stroke="#000" stroke-linecap="round" stroke-linejoin="round" stroke-width="11.998" d="m65 100.261 26.78 26.55a6 6 0 0 0 8.449-.001L127 100.261m-31.004 24.218V61"/><path stroke="#000" stroke-linecap="round" stroke-linejoin="round" stroke-miterlimit="6" stroke-width="12.001" d="M95.998 22C136.866 22 170 55.13 170 95.998S136.866 170 95.998 170c-10.215 0-19.949-2.07-28.8-5.819m-23.526-15.858a74.2 74.2 0 0 1-15.858-23.521M22 96.002a73.8 73.8 0 0 1 5.814-28.808m15.858-23.522a74.3 74.3 0 0 1 23.522-15.858"/></svg>