<svg xmlns="http://www.w3.org/2000/svg" width="192" height="192" fill="none"><ellipse cx="96" cy="36" stroke="#000" stroke-linecap="round" stroke-linejoin="round" stroke-width="12" rx="17" ry="14"/><path stroke="#000" stroke-linecap="round" stroke-linejoin="round" stroke-width="12" d="M164.367 77.961C168.086 70.681 170 62.879 170 55h-40c0 3.546-.879 7.057-2.588 10.332s-4.213 6.253-7.37 8.76-6.906 4.496-11.031 5.853S100.465 82 96 82s-8.886-.698-13.011-2.055-7.873-3.346-11.03-5.853c-3.158-2.507-5.662-5.484-7.37-8.76C62.878 62.057 62 58.546 62 55H22c0 7.88 1.914 15.681 5.633 22.961s9.17 13.894 16.041 19.465c6.872 5.572 15.03 9.991 24.007 13.007 2.353.79 4.75 1.479 7.18 2.067a86 86 0 0 0-7.18 2.067c-8.978 3.016-17.135 7.435-24.007 13.007-6.871 5.571-12.322 12.185-16.041 19.465S22 162.121 22 170h40c0-3.546.88-7.057 2.588-10.332s4.213-6.253 7.37-8.76 6.906-4.496 11.03-5.853C87.115 143.698 91.536 143 96 143s8.886.698 13.011 2.055 7.873 3.346 11.031 5.853c3.157 2.507 5.661 5.484 7.37 8.76S130 166.454 130 170h40c0-7.879-1.914-15.681-5.633-22.961s-9.17-13.894-16.041-19.465c-6.872-5.572-15.029-9.991-24.007-13.007a86 86 0 0 0-7.181-2.067 86 86 0 0 0 7.181-2.067c8.978-3.016 17.135-7.435 24.007-13.007 6.871-5.571 12.322-12.186 16.041-19.465"/></svg>