<svg xmlns="http://www.w3.org/2000/svg" width="192" height="192" fill="none"><path stroke="#000" stroke-linecap="round" stroke-linejoin="round" stroke-width="12" d="M147 95v24m-34-24v24m34 0a51 51 0 0 1-31.483 47.118 51.003 51.003 0 0 1-66.635-27.601A51 51 0 0 1 45 119"/><path stroke="#000" stroke-linecap="round" stroke-linejoin="round" stroke-width="12" d="M113 119a17 17 0 0 1-4.979 12.021A17 17 0 0 1 96 136a17.01 17.01 0 0 1-15.706-10.494A17 17 0 0 1 79 119"/><circle cx="96" cy="39" r="17" stroke="#000" stroke-linecap="round" stroke-linejoin="round" stroke-width="12"/><circle cx="130" cy="39" r="17" stroke="#000" stroke-linecap="round" stroke-linejoin="round" stroke-width="12"/><path stroke="#000" stroke-linecap="round" stroke-linejoin="round" stroke-width="12" d="M147 95a17.01 17.01 0 0 0-10.494-15.706 17.01 17.01 0 0 0-18.527 3.685A17 17 0 0 0 113 95m-34 24a17 17 0 0 0-4.98-12.021 17.003 17.003 0 0 0-24.04 0A17 17 0 0 0 45 119"/><circle cx="62" cy="40" r="17" stroke="#000" stroke-linecap="round" stroke-linejoin="round" stroke-width="12"/></svg>