<svg xmlns="http://www.w3.org/2000/svg" width="192" height="192" fill="none"><path stroke="#000" stroke-linecap="round" stroke-linejoin="round" stroke-width="12" d="M95.778 101.703 63.19 122.775s11.93 20.622 30.956 33.378m1.632-54.45v-35.82s-23.794 0-44.357 10.024m0 0a44.7 44.7 0 0 1 .61-17.343 44.75 44.75 0 0 1 13.045-22.499 44.9 44.9 0 0 1 23.372-11.474 44.95 44.95 0 0 1 25.821 3.418c24.084 10.919 29.449 32.17 28.551 51.243-.965 20.467-9.14 38.426-9.14 38.426l-37.902-15.975M51.421 75.907C35.775 83.533 22 96.96 22 120.608a44.7 44.7 0 0 0 7.561 24.875 44.85 44.85 0 0 0 20.135 16.49 44.95 44.95 0 0 0 44.45-5.82m48.674-76.9a44.86 44.86 0 0 1 16.046 11.627 44.73 44.73 0 0 1 10.75 23.677 44.7 44.7 0 0 1-4.243 25.647 44.8 44.8 0 0 1-17.805 18.973c-20.483 11.801-38.993 6.651-53.422-3.024"/></svg>