<svg xmlns="http://www.w3.org/2000/svg" width="192" height="192" fill="none"><path stroke="#000" stroke-linecap="round" stroke-linejoin="round" stroke-width="12" d="m132.14 86.676-45.51 45.289a37.9 37.9 0 0 1-12.282 8.167 38.03 38.03 0 0 1-28.977 0 37.9 37.9 0 0 1-12.282-8.167 37.7 37.7 0 0 1-8.207-12.223 37.52 37.52 0 0 1 0-28.836 37.7 37.7 0 0 1 8.207-12.223l13.385-13.32m13.386 39.961 45.51-45.289A37.95 37.95 0 0 1 132.14 49a37.95 37.95 0 0 1 26.771 11.035A37.58 37.58 0 0 1 170 86.675a37.58 37.58 0 0 1-11.089 26.641l-13.385 13.321"/><circle cx="64" cy="48" r="4" stroke="#000" stroke-linecap="round" stroke-linejoin="round" stroke-width="8"/><circle cx="128" cy="144" r="4" stroke="#000" stroke-linecap="round" stroke-linejoin="round" stroke-width="8"/></svg>