<svg xmlns="http://www.w3.org/2000/svg" width="192" height="192" fill="none"><path stroke="#000" stroke-linecap="round" stroke-linejoin="round" stroke-width="12" d="M43.5 43.849C56.789 57.226 65 75.654 65 96s-8.211 38.774-21.5 52.151m0-104.302C30.211 57.226 22 75.654 22 96s8.211 38.774 21.5 52.151m0-104.302.349-.349m0 0C57.226 30.211 75.654 22 96 22s38.774 8.211 52.151 21.5m-104.302 0C57.226 56.789 75.654 65 96 65s38.774-8.211 52.151-21.5m.349.349C135.211 57.226 127 75.654 127 96s8.211 38.774 21.5 52.151m0-104.302C161.789 57.226 170 75.654 170 96s-8.211 38.774-21.5 52.151m0-104.302-.349-.349m0 105C134.774 135.211 116.346 127 96 127s-38.774 8.211-52.151 21.5m104.302 0C134.774 161.789 116.346 170 96 170s-38.774-8.211-52.151-21.5m104.302 0 .349-.349m-104.651.349-.349-.349"/><circle cx="96" cy="96" r="6" stroke="#000" stroke-linecap="round" stroke-linejoin="round" stroke-width="12"/></svg>