<svg xmlns="http://www.w3.org/2000/svg" width="192" height="192" fill="none"><path stroke="#000" stroke-linecap="round" stroke-linejoin="round" stroke-width="10" d="M55 78.293c0-1.987 2.352-3.03 3.818-1.694l19.435 17.708a2.29 2.29 0 0 1 0 3.386L58.818 115.4c-1.466 1.337-3.818.294-3.818-1.692z"/><path stroke="#000" stroke-linecap="round" stroke-linejoin="round" stroke-width="8" d="M130 83a4 4 0 1 0 0-8 4 4 0 0 0 0 8m0 34a4 4 0 1 0 0-8 4 4 0 0 0 0 8m-17-17a4 4 0 1 0 0-8 4 4 0 0 0 0 8m34 0a4 4 0 1 0 0-8 4 4 0 0 0 0 8"/><path stroke="#000" stroke-linecap="round" stroke-linejoin="round" stroke-width="12" d="M62 56h68Zm0 0a40 40 0 1 0 27.959 68.606c3.185-3.113 8.897-3.113 12.083 0A40 40 0 1 0 130 56"/></svg>