<svg xmlns="http://www.w3.org/2000/svg" width="192" height="192" fill="none"><path stroke="#000" stroke-linecap="round" stroke-linejoin="round" stroke-width="12" d="M137 128a41.995 41.995 0 0 1-25.927 38.803 41.995 41.995 0 0 1-45.771-9.105A42 42 0 0 1 53 128"/><path stroke="#000" stroke-linecap="round" stroke-linejoin="round" stroke-width="12" d="M109 128a35 35 0 0 1-35 35m7-35a14 14 0 0 1-19.358 12.934A14 14 0 0 1 53 128m84 0V28a6 6 0 0 0-6-6h-16a6 6 0 0 0-6 6v100m-28 0v-22a6 6 0 0 0-6-6H59a6 6 0 0 0-6 6v22m15.405-84S66.788 50.328 57 52.595C65.784 57.47 65.595 64 65.595 64S67.212 57.672 77 55.405C68.216 50.53 68.405 44 68.405 44"/></svg>