<svg xmlns="http://www.w3.org/2000/svg" width="192" height="192" fill="none"><path stroke="#000" stroke-linecap="round" stroke-linejoin="round" stroke-width="12" d="M102 77.399c3-1.534 6.399-2.399 10-2.399h36c12.15 0 22 9.85 22 22v48c0 12.15-9.85 22-22 22h-36c-12.15 0-22-9.85-22-22v-30.399m12-37.202V47c0-12.15-9.85-22-22-22H44c-12.15 0-22 9.85-22 22v48c0 12.15 9.85 22 22 22h36c3.6 0 7-.865 10-2.399m12-37.202V95c0 8.549-4.877 15.96-12 19.601"/><path stroke="#000" stroke-linecap="round" stroke-linejoin="round" stroke-width="10" d="m62 44 16 35M43 52l38-5m0 19-38 5v10c0 8.837 7.163 16 16 16h22"/><path stroke="#000" stroke-linecap="round" stroke-linejoin="round" stroke-width="12" d="M124 37h20c8.837 0 16 7.163 16 16m-36-16 12 12m-12-12 12-12M68 155H48c-8.837 0-16-7.163-16-16m36 16-12-12m12 12-12 12"/><path stroke="#000" stroke-linecap="round" stroke-linejoin="round" stroke-width="10" d="M118 112v32m28-32v32m-28-20h28m0-12c0-3.713-1.475-7.274-4.101-9.899a13.996 13.996 0 0 0-19.798 0A14 14 0 0 0 118 112"/></svg>