<svg xmlns="http://www.w3.org/2000/svg" width="192" height="192" fill="none"><path stroke="#000" stroke-linecap="round" stroke-linejoin="round" stroke-width="12" d="M138 115a41.999 41.999 0 0 0-71.698-29.698A42 42 0 0 0 54 115"/><circle cx="96" cy="115" r="14" stroke="#000" stroke-linecap="round" stroke-linejoin="round" stroke-width="12"/><path stroke="#000" stroke-linecap="round" stroke-linejoin="round" stroke-width="12" d="M54 115c0 41 42 55 42 55m42-55c0 41-42 55-42 55m27.82-138.389a18 18 0 0 1 2.18 8.57c0 18.183-23.077 15.91-33.462 31.819h-8.076a18.66 18.66 0 0 1-10.257-3.064 18.24 18.24 0 0 1-6.8-8.16 17.93 17.93 0 0 1-1.05-10.505 18.1 18.1 0 0 1 5.052-9.31 18.55 18.55 0 0 1 9.453-4.975 18.74 18.74 0 0 1 8.637.34 18.1 18.1 0 0 1 3.77-7.679 18.44 18.44 0 0 1 7.207-5.263 18.7 18.7 0 0 1 8.874-1.296 18.64 18.64 0 0 1 8.447 2.976 18.3 18.3 0 0 1 6.025 6.547"/></svg>