<svg xmlns="http://www.w3.org/2000/svg" width="192" height="192" fill="none" viewBox="0 0 192 192"><path stroke="#000" stroke-linejoin="round" stroke-width="10" d="M82.865 81c-4.286 0-5.84 7.544-4.768 10 .714-.263 3.054-.79 4.768-.79s3.84.527 4.554.79c1.071-2.456-.268-10-4.554-10Z"/><path stroke="#000" stroke-linejoin="round" stroke-width="12" d="M97.77 40a80 80 0 0 1-5.864.26M97.77 40q-2.966.001-5.864.26M97.77 40c24.068 0 45.081 13.081 56.317 32.522m-62.18-32.261C76.346 40.422 50.15 37.433 35.77 22c-.5 12-.24 23.5 9.26 27.5-5.834 1.167-16.96 8.1-17.76 10.5s11.506 5.667 17.76 7c-7.715 10.687-12.26 23.813-12.26 38 0 35.899 29.101 65 65 65 13.256 0 25.586-3.968 35.865-10.782m20.452-86.696c-4.385-3.824-10.167-6.15-16.317-6.15-13.255 0-24 10.802-24 24.128 0 22.5 23.5 26 23.5 47.5 0 7.725-1.611 16.133-3.635 21.218m20.452-86.696c2.943 2.567 5.257 5.81 6.631 9.478a66.9 66.9 0 0 1 4.052 23c0 24.593-13.25 46.09-33 57.744.637-.819 1.269-2.028 1.865-3.526"/></svg>