<svg xmlns="http://www.w3.org/2000/svg" width="192" height="192" fill="none"><path stroke="#000" stroke-linecap="round" stroke-linejoin="round" stroke-width="12" d="m69.945 54.743 13.975-5.125-3.167-22.517S95.194 37.847 96 38.133c.806-.283 15.247-11.028 15.247-11.028l-3.167 22.517 13.975 5.125 42.258-32.744-16.844 52.435 22.532 6.117-18.135 12.129 15.817 16.57-21.77 2.265 3.758 14.848-23.185-.39L107.856 170l-22.16-.002-20.183-44.021-23.185.386 3.758-14.844-21.771-2.268 15.818-16.57-18.135-12.13 22.532-6.117L27.687 22zm0 0L98 75m49.78-3.397L130 80"/><path stroke="#000" stroke-linecap="round" stroke-linejoin="round" stroke-width="12" d="m98 75 32 5-11 23-24-5z"/></svg>