<svg xmlns="http://www.w3.org/2000/svg" width="192" height="192" fill="none"><circle cx="133" cy="128" r="18" stroke="#000" stroke-linecap="round" stroke-linejoin="round" stroke-width="12"/><path stroke="#000" stroke-linecap="round" stroke-linejoin="round" stroke-width="12" d="M39 148h29m-3-21h29m-30.5 30.526L47 148m42.5-11.474L73 127M60 37a38 38 0 0 0-27.467 64.259M47 148l-14.467-46.741M73 127 61.198 88.871M115 87c-18.765 0-31-11-53.802 1.871M32.533 101.26C38 74 61.198 88.871 61.198 88.871M132 76c28 12 38 34 38 34"/><path stroke="#000" stroke-linecap="round" stroke-linejoin="round" stroke-width="12" d="M115 87c9.941 0 18-8.059 18-18s-8.059-18-18-18c-4.417 0-8.462 1.59-11.594 4.23C98.698 50.34 83.685 37 60 37"/></svg>