<svg xmlns="http://www.w3.org/2000/svg" width="192" height="192" fill="none"><path stroke="#000" stroke-linecap="round" stroke-linejoin="round" stroke-width="12" d="M48.449 22C32.129 37.68 22 59.6 22 83.92 22 131.44 60.748 170 108.501 170c24.037 0 45.823-9.76 61.499-25.6"/><path stroke="#000" stroke-width="12" d="M109 137c2.209 0 4-4.477 4-10s-1.791-10-4-10-4 4.477-4 10 1.791 10 4 10ZM55 83c0 2.21 4.477 4 10 4s10-1.79 10-4-4.477-4-10-4-10 1.79-10 4Zm92.183 38.184c1.562-1.562-.337-5.994-4.243-9.899-3.905-3.906-8.337-5.805-9.899-4.243s.337 5.994 4.243 9.899c3.905 3.906 8.337 5.805 9.899 4.243Zm-62.225-14.142c-1.562-1.562-5.994.337-9.9 4.243-3.905 3.905-5.804 8.337-4.242 9.899s5.994-.337 9.9-4.243c3.905-3.905 5.804-8.337 4.242-9.899Zm0-48.082c1.562-1.563-.337-5.995-4.243-9.9-3.905-3.906-8.337-5.805-9.9-4.243-1.561 1.562.338 5.994 4.243 9.9 3.906 3.905 8.338 5.804 9.9 4.242Z"/></svg>