<svg xmlns="http://www.w3.org/2000/svg" width="192" height="192" fill="none"><path stroke="#000" stroke-linecap="round" stroke-linejoin="round" stroke-width="12" d="M109 154v16m20-16v10m-46-10h58m-58 0c0 8.837-7.163 16-16 16s-16-7.163-16-16 7.163-16 16-16 16 7.163 16 16M68 50v30m56-30v30m-28 30v19m-48.997-7.5a49 49 0 0 1 10.123-30.33A49 49 0 0 1 143.749 132"/><circle cx="96" cy="110" r="6" stroke="#000" stroke-linecap="round" stroke-linejoin="round" stroke-width="12"/><path stroke="#000" stroke-linecap="round" stroke-linejoin="round" stroke-width="12" d="M124 50a28 28 0 0 0-28-28 28 28 0 0 0-28 28"/></svg>