<svg xmlns="http://www.w3.org/2000/svg" width="192" height="192" fill="none"><path stroke="#000" stroke-linecap="round" stroke-linejoin="round" stroke-width="12" d="M96 93v74m0-74L22 49m74 44 74-44M72.335 35.41 36 56v38.367a56 56 0 0 0 28.391 48.721L96 161l31.609-17.912A56 56 0 0 0 156 94.368V56l-36.335-20.59a48 48 0 0 0-47.33 0"/><path stroke="#000" stroke-linecap="round" stroke-linejoin="round" stroke-width="12" d="M155 62.444C142.744 73.957 126.16 90.866 118 105c-9.415 16.307-16.193 39.078-19.57 52"/></svg>