<svg xmlns="http://www.w3.org/2000/svg" width="192" height="192" fill="none"><circle cx="120" cy="57" r="6" stroke="#000" stroke-linecap="round" stroke-linejoin="round" stroke-width="12"/><path stroke="#000" stroke-linecap="round" stroke-linejoin="round" stroke-width="12" d="M25 31a6 6 0 0 1 6-6h130a6 6 0 0 1 6 6v130a6 6 0 0 1-6 6H31a6 6 0 0 1-6-6z"/><path stroke="#000" stroke-linecap="round" stroke-linejoin="round" stroke-width="12" d="m163 160-35.089-45.246a4 4 0 0 0-6.114-.246L104 134 79.118 98.454c-1.547-2.21-4.793-2.286-6.442-.152L25 160"/></svg>