<svg xmlns="http://www.w3.org/2000/svg" width="192" height="192" fill="none"><circle cx="120" cy="57" r="6" stroke="#000" stroke-linecap="round" stroke-linejoin="round" stroke-width="12"/><path stroke="#000" stroke-linecap="round" stroke-linejoin="round" stroke-width="12" d="M167 129V31a6 6 0 0 0-6-6H31a6 6 0 0 0-6 6v130a6 6 0 0 0 6 6h27.5"/><path stroke="#000" stroke-linecap="round" stroke-linejoin="round" stroke-width="12" d="m25 160 47.676-61.698c1.649-2.134 4.895-2.058 6.442.152l10.168 14.526M138.959 129l-11.048-14.246a4 4 0 0 0-6.114-.246L116 120.857M135 151v16m20-16v10m-46-10h58m-58 0c0 8.837-7.163 16-16 16s-16-7.163-16-16 7.163-16 16-16 16 7.163 16 16"/></svg>