<svg xmlns="http://www.w3.org/2000/svg" width="192" height="192" fill="none"><path stroke="#000" stroke-linecap="round" stroke-linejoin="round" stroke-width="12" d="M72.112 97.062C58.147 131.995 118 120.018 118 120.018M76.103 71.114c25.936-2.995 38.904.998 38.904.998"/><path stroke="#000" stroke-linecap="round" stroke-linejoin="round" stroke-width="12" d="M125 164.102c-8.905 3.797-18.707 5.898-29 5.898-40.87 0-74-33.131-74-74s33.13-74 74-74 74 33.13 74 74a74 74 0 0 1-3.08 21.195"/><path stroke="#000" stroke-linecap="round" stroke-linejoin="round" stroke-miterlimit="6" stroke-width="10" d="M162 170.999h-12a6 6 0 0 1-6-6v-12m0 0h18m-18 0V141a6 6 0 0 1 6-6h8m0 18a9 9 0 1 0 0-18m4 36a9 9 0 1 0 0-18"/></svg>