<svg xmlns="http://www.w3.org/2000/svg" width="192" height="192" fill="none"><path stroke="#000" stroke-linecap="round" stroke-linejoin="round" stroke-width="12" d="m170 75.986-34.505 34.386m0 0-4.095-4.082a4.98 4.98 0 0 0-7.022 0l-20.479 20.409a10.695 10.695 0 0 0 0 15.161c4.201 4.187 11.012 4.187 15.213 0l20.479-20.409a4.935 4.935 0 0 0 0-6.997zm-19.016-18.963 43.884 43.733m-43.884-43.733c-4.201 4.186-11.012 4.186-15.213 0L96 86.16m20.479 5.248a10.694 10.694 0 0 0 0-15.161L111.213 71"/><path stroke="#000" stroke-linecap="round" stroke-linejoin="round" stroke-width="12" d="M100 162.885A388 388 0 0 0 96 166c-38-30-74-46-74-95 0-23.196 18.804-42 42-42 12.819 0 24.296 5.743 32 14.796C103.704 34.743 115.181 29 128 29c17.911 0 33.204 11.212 39.242 27"/></svg>