<svg xmlns="http://www.w3.org/2000/svg" width="192" height="192" fill="none"><path stroke="#000" stroke-linecap="round" stroke-linejoin="round" stroke-width="12" d="M103 22H89a6 6 0 0 0-6 6v45.483L43.61 50.742a6 6 0 0 0-8.196 2.196l-7 12.124a6 6 0 0 0 2.196 8.196L70 96l-39.39 22.742a6 6 0 0 0-2.196 8.196l7 12.124a6 6 0 0 0 8.196 2.196L83 118.517V164a6 6 0 0 0 6 6h14a6 6 0 0 0 6-6v-45.483l39.39 22.741a6 6 0 0 0 8.196-2.196l7-12.124a6 6 0 0 0-2.196-8.196L122 96l39.39-22.742a6 6 0 0 0 2.196-8.196l-7-12.124a6 6 0 0 0-8.196-2.196L109 73.483V28a6 6 0 0 0-6-6"/></svg>