<svg xmlns="http://www.w3.org/2000/svg" width="192" height="192" fill="none"><path stroke="#000" stroke-linecap="round" stroke-linejoin="round" stroke-width="12" d="M135 38v16m20-16v10m-46-10h58m-58 0c0 8.837-7.163 16-16 16s-16-7.163-16-16 7.163-16 16-16 16 7.163 16 16M58 22H31a6 6 0 0 0-6 6v55a6 6 0 0 0 6 6h44a6 6 0 0 0 6-6v-8.5M111 86a6 6 0 0 1 6-6h44a6 6 0 0 1 6 6v78a6 6 0 0 1-6 6h-44a6 6 0 0 1-6-6z"/><circle cx="53" cy="141" r="29" stroke="#000" stroke-linecap="round" stroke-linejoin="round" stroke-width="12"/></svg>