<svg xmlns="http://www.w3.org/2000/svg" width="192" height="192" fill="none"><path stroke="#000" stroke-linecap="round" stroke-linejoin="round" stroke-width="12" d="M25 28a6 6 0 0 1 6-6h44a6 6 0 0 1 6 6v55a6 6 0 0 1-6 6H31a6 6 0 0 1-6-6zm86 0a6 6 0 0 1 6-6h44a6 6 0 0 1 6 6v22a6 6 0 0 1-6 6h-44a6 6 0 0 1-6-6zm0 58a6 6 0 0 1 6-6h44a6 6 0 0 1 6 6v78a6 6 0 0 1-6 6h-44a6 6 0 0 1-6-6z"/><circle cx="53" cy="141" r="29" stroke="#000" stroke-linecap="round" stroke-linejoin="round" stroke-width="12"/></svg>