<svg xmlns="http://www.w3.org/2000/svg" width="192" height="192" fill="none"><path stroke="#000" stroke-linecap="round" stroke-linejoin="round" stroke-width="10" d="M96 124c-4 0-8 5-8 5s3 5 8 5 8-5 8-5-4-5-8-5"/><circle cx="71" cy="109" r="4" stroke="#000" stroke-linecap="round" stroke-linejoin="round" stroke-width="8"/><circle cx="121" cy="109" r="4" stroke="#000" stroke-linecap="round" stroke-linejoin="round" stroke-width="8"/><path stroke="#000" stroke-linecap="round" stroke-linejoin="round" stroke-width="12" d="M22 105a12 12 0 0 1 24 0m-24 0v20m24-20v20m0 0a12 12 0 0 1-24 0m124-20a12 12 0 1 1 24 0m-24 0v20m24-20v20m0 0a12 12 0 1 1-24 0M83 43l-14-4s-1 8 6.315 22.48A50 50 0 0 0 46 107m35-74c37 4 42.888 32.5 42.888 32.5A50 50 0 0 1 146 107"/><path stroke="#000" stroke-linecap="round" stroke-linejoin="round" stroke-width="12" d="M170 109a74 74 0 0 0-27-57.158M22 109a74 74 0 0 1 25.626-56M146 109a49.997 49.997 0 0 1-50 50 50 50 0 0 1-50-50"/></svg>