<svg xmlns="http://www.w3.org/2000/svg" width="192" height="192" fill="none"><path stroke="#000" stroke-linecap="round" stroke-linejoin="round" stroke-width="12" d="m70 147-.456 10.479C69.248 164.304 74.701 170 81.534 170h28.933c6.832 0 12.285-5.696 11.989-12.521L122 147m-61-39v33a6 6 0 0 0 6 6h58a6 6 0 0 0 6-6v-33c0-56-23-86-35-86s-35 30-35 86"/><path stroke="#000" stroke-linecap="round" stroke-linejoin="round" stroke-width="12" d="M62 86s-31 10-31 41v4a6 6 0 0 0 6 6h23m70-51s31 10 31 41v4a6 6 0 0 1-6 6h-23"/></svg>