<svg xmlns="http://www.w3.org/2000/svg" width="192" height="192" fill="none"><path stroke="#000" stroke-linecap="round" stroke-linejoin="round" stroke-width="10" d="M100.71 142.682c.631-2.659.966-5.435.966-8.291 0-6.813-1.904-13.176-5.203-18.575m4.237 26.866c17.103-2.326 30.29-17.142 30.29-35.073a35.8 35.8 0 0 0-.994-8.41A35 35 0 0 0 126.27 99a34.54 34.54 0 0 0-15.77 3.788m-9.79 39.894c-1.54.21-3.113.318-4.71.318-19.33 0-35-15.845-35-35.391 0-2.856.334-5.632.966-8.291q2.311-.316 4.71-.318a34.54 34.54 0 0 1 15.194 3.5m14.603 13.316c-3.5-5.728-8.57-10.372-14.603-13.316m14.603 13.316a35.3 35.3 0 0 1 14.027-13.028m-11 4.712c1.527-5.712 1.527-7.469 1.527-9.935a30.1 30.1 0 0 0-4.608-16.042m0 0a31 31 0 0 0-12.16-11.12m12.16 11.12a31 31 0 0 1 11.843-10.955M99 75c1-4 1.216-6.184 1.216-8.26 0-4.956-1.414-9.583-3.865-13.51m0 0a26 26 0 0 1 7.628-7.854A26.06 26.06 0 0 1 118.486 41q1.408.001 2.776.145a25.6 25.6 0 0 1 .738 6.116c0 9.93-5.419 19.015-13.738 23.307M96.352 53.23a26.03 26.03 0 0 0-14.633-11.142 26.5 26.5 0 0 0-11.002-.857 25.6 25.6 0 0 0-.717 6.03c0 10.063 5.757 18.91 14.258 23.143m0 0A31.2 31.2 0 0 0 70.027 67a32 32 0 0 0-4.172.274 30.2 30.2 0 0 0-.855 7.16c0 12.014 6.646 23.07 16.87 28.066m26.392-31.932A31.2 31.2 0 0 1 122.811 67q1.677 0 3.309.172c.575 2.328.88 4.76.88 7.263 0 11.913-6.413 23.31-16.5 28.353M85 41.806c.111-6.238 2.54-12.42 7.296-17.157A25 25 0 0 1 96.948 21q1.344 1.022 2.573 2.245c5.144 5.124 7.637 11.881 7.471 18.56M123.5 171s-18.5-4-20.79-28.318"/></svg>