<svg xmlns="http://www.w3.org/2000/svg" width="192" height="192" fill="none"><path stroke="#000" stroke-linecap="round" stroke-linejoin="round" stroke-width="12" d="M157.991 45.055A41.24 41.24 0 0 1 170 74.16a41.24 41.24 0 0 1-12.009 29.104l-57.748 57.973a5.984 5.984 0 0 1-8.486 0L71.251 140.65a6.04 6.04 0 0 1 0-8.518L134 69.14m3.177-35.313A41 41 0 0 0 129 33a40.92 40.92 0 0 0-28.991 12.055l-57.983 58.208a5.66 5.66 0 0 1-8.017 0A41.24 41.24 0 0 1 22 74.159a41.24 41.24 0 0 1 12.009-29.104A40.92 40.92 0 0 1 63 33c4.963 0 9.832.903 14.391 2.619"/></svg>