<svg xmlns="http://www.w3.org/2000/svg" width="192" height="192" fill="none"><path stroke="#000" stroke-linecap="round" stroke-linejoin="round" stroke-width="12" d="M96 102a6 6 0 1 0 0-12 6 6 0 0 0 0 12"/><path stroke="#000" stroke-linecap="round" stroke-linejoin="round" stroke-width="10" d="M57 101a5 5 0 1 0 0-10 5 5 0 0 0 0 10"/><path stroke="#000" stroke-linecap="round" stroke-linejoin="round" stroke-width="8" d="M24 100a4 4 0 1 0 0-8 4 4 0 0 0 0 8m72-72a4 4 0 1 0 0-8 4 4 0 0 0 0 8m0 144a4 4 0 1 0 0-8 4 4 0 0 0 0 8m72-72a4 4 0 1 0 0-8 4 4 0 0 0 0 8"/><path stroke="#000" stroke-linecap="round" stroke-linejoin="round" stroke-width="10" d="M57 62a5 5 0 1 0 0-10 5 5 0 0 0 0 10m0 78a5 5 0 1 0 0-10 5 5 0 0 0 0 10m78-39a5 5 0 1 0 0-10 5 5 0 0 0 0 10m0-39a5 5 0 1 0 0-10 5 5 0 0 0 0 10m0 78a5 5 0 1 0-.001-10.001A5 5 0 0 0 135 140M96 62a5 5 0 1 0 0-10 5 5 0 0 0 0 10m0 78a5 5 0 1 0 0-10 5 5 0 0 0 0 10"/></svg>