<svg xmlns="http://www.w3.org/2000/svg" width="192" height="192" fill="none"><path stroke="#000" stroke-linecap="round" stroke-linejoin="round" stroke-width="12" d="M148.913 79.582c6.948 9.379 12.46 20.513 16.221 32.767 2.334 7.605 3.964 15.548 4.866 23.651h-26.442a107 107 0 0 0-2.714-13.701c-2.44-9.1-6.015-17.368-10.522-24.332s-9.858-12.489-15.747-16.258C108.686 77.939 102.374 76 96 76s-12.686 1.94-18.575 5.709c-5.889 3.77-11.24 9.294-15.747 16.258s-8.082 15.232-10.521 24.332A107 107 0 0 0 48.442 136H22c.902-8.103 2.532-16.046 4.866-23.651 3.76-12.254 9.273-23.388 16.221-32.767 6.949-9.378 15.198-16.818 24.277-21.894S86.174 50 96 50s19.557 2.612 28.636 7.688 17.328 12.516 24.277 21.894"/></svg>