<svg xmlns="http://www.w3.org/2000/svg" width="192" height="192" fill="none"><path stroke="#000" stroke-linecap="round" stroke-linejoin="round" stroke-width="12" d="M141 125c16.016 0 29-12.984 29-29s-12.984-29-29-29-29 12.984-29 29 12.984 29 29 29m-90 0c16.016 0 29-12.984 29-29S67.016 67 51 67 22 79.984 22 96s12.984 29 29 29m0 0h90"/><path stroke="#000" stroke-linecap="round" stroke-linejoin="round" stroke-width="10" d="M36.501 121.115 51 96m0 0L36.501 70.884M51 96h29m35.884-14.499L140.999 96m0 0 25.116-14.499M140.999 96v29"/></svg>