<svg xmlns="http://www.w3.org/2000/svg" width="192" height="192" fill="none"><path stroke="#000" stroke-linecap="round" stroke-linejoin="round" stroke-width="8" d="M96 57a4 4 0 1 0 0-8 4 4 0 0 0 0 8"/><path stroke="#000" stroke-linecap="round" stroke-linejoin="round" stroke-width="6" d="M96 81a3 3 0 1 0 0-6 3 3 0 0 0 0 6m0 36a3 3 0 1 0 0-6 3 3 0 0 0 0 6M78 99a3 3 0 1 0 0-6 3 3 0 0 0 0 6m36 0a3 3 0 1 0 0-6 3 3 0 0 0 0 6"/><path stroke="#000" stroke-linecap="round" stroke-linejoin="round" stroke-width="8" d="M53 87a4 4 0 1 0 0-8 4 4 0 0 0 0 8m86 0a4 4 0 1 0 0-8 4 4 0 0 0 0 8m-86 26a4 4 0 1 0 0-8 4 4 0 0 0 0 8m86 0a4 4 0 1 0 0-8 4 4 0 0 0 0 8m-43 30a4 4 0 1 0 0-8 4 4 0 0 0 0 8m26.177-77.114a4 4 0 1 0 0-8 4 4 0 0 0 0 8m-52.354 68.228a4 4 0 1 0 0-8 4 4 0 0 0 0 8m.002-76.229a4 4 0 1 1 0 8 4 4 0 0 1 0-8m52.351 68.23a4 4 0 1 1 0 8 4 4 0 0 1 0-8M28 83a4 4 0 1 1-8 0 4 4 0 0 1 8 0m22.742 65.39a4 4 0 0 1 1.99 3.993 4 4 0 1 1-1.99-3.993m68 13a4 4 0 0 1 1.481-.512 3.994 3.994 0 0 1 4.402 5.011 4 4 0 0 1-1.883 2.429 4 4 0 0 1-4-6.928M92 24a4 4 0 1 0 8 0 4 4 0 0 0-8 0m64.354 32.536a4 4 0 0 0-1.883 2.43 4 4 0 0 0 .396 3.047 4 4 0 0 0 5.487 1.451 4 4 0 0 0-4-6.928m4 72a3.998 3.998 0 0 0-6.024 2.925 4 4 0 0 0 .824 2.979 4 4 0 1 0 5.2-5.904M92 168a3.998 3.998 0 0 0 6.828 2.828A3.998 3.998 0 0 0 96 164a3.997 3.997 0 0 0-4 4m-60.354-39.464a4.002 4.002 0 0 0-.453 6.655 4 4 0 0 0 2.972.785 4 4 0 1 0-2.519-7.44m4-72a4 4 0 1 0-4.046 6.902 4 4 0 0 0 4.046-6.902M172 83a3.997 3.997 0 0 1-4 4 3.998 3.998 0 0 1-2.828-6.828A3.998 3.998 0 0 1 172 83m-49.258-59.318a4 4 0 1 1-4.002 6.929 4.003 4.003 0 0 1-1.464-5.466 4.003 4.003 0 0 1 5.466-1.463m-76 13a4 4 0 1 1 4.046 6.902 4 4 0 0 1-4.046-6.902M28 109a3.998 3.998 0 0 1-6.828 2.828A3.998 3.998 0 0 1 24 105a3.997 3.997 0 0 1 4 4m45.258 52.39a4 4 0 0 1 1.99 3.993 4 4 0 1 1-1.99-3.993m68-13a3.998 3.998 0 0 1 6.024 2.925 4 4 0 0 1-.824 2.979 4 4 0 1 1-5.2-5.904M172 109a4 4 0 0 1-1.172 2.828 3.995 3.995 0 0 1-5.656 0 3.995 3.995 0 0 1 0-5.656 3.995 3.995 0 0 1 5.656 0A4 4 0 0 1 172 109m-26.742-72.318a4 4 0 0 1 1.883 2.43 4 4 0 0 1-.396 3.047 4 4 0 0 1-5.487 1.451 4 4 0 0 1 4-6.928m-76-13a4 4 0 1 1 4.046 6.902 4 4 0 0 1-4.046-6.902"/></svg>