<svg xmlns="http://www.w3.org/2000/svg" width="192" height="192" fill="none"><path stroke="#000" stroke-linecap="round" stroke-linejoin="round" stroke-width="12" d="M156 37.687v116.968c0 4.07-1.632 7.972-4.537 10.85A15.57 15.57 0 0 1 140.508 170H51.412c-2.024 0-4.028-.395-5.898-1.163a15.4 15.4 0 0 1-5-3.309 15.3 15.3 0 0 1-3.34-4.952A15.2 15.2 0 0 1 36 154.735V37.265c0-2.004.398-3.989 1.173-5.841a15.3 15.3 0 0 1 3.34-4.953 15.4 15.4 0 0 1 5.001-3.308A15.5 15.5 0 0 1 51.412 22h65.577c8.511 0 15.563 6.833 15.721 15.262.437 23.21 1.113 66.337.439 81.993-.141 3.264-3.458 5.707-6.806 5.663-14.857-.194-53.284-.014-74.932.111C42.9 125.078 36 131.959 36 140.39v9.831m20.388-2.358h71.851"/><path stroke="#000" stroke-linecap="round" stroke-linejoin="round" stroke-width="10" d="M62.61 105.422c5.764-4.758 3.367-6.882 8.335-11.674 9.773-9.428 27.278-7.343 29.892-14.077 2.49-6.414 6.251-16.438 8.592-38.3-31.77 17.8-33.904 53.938-46.82 64.051Z"/></svg>