<svg xmlns="http://www.w3.org/2000/svg" width="192" height="192" fill="none"><path stroke="#000" stroke-linecap="round" stroke-linejoin="round" stroke-width="12" d="M79 74s-25-34 30-52m-43.269 88.214 15.25 23.483m-19.367-4.117 23.483-15.25m-59.111 2.617a6 6 0 0 1 .087-6.666 6 6 0 0 1 1.677-1.634l97.286-63.178a6 6 0 0 1 6.666.087 6 6 0 0 1 1.634 1.677l32.678 50.32a6 6 0 0 1 .837 4.515 6 6 0 0 1-2.601 3.785l-97.286 63.178a6 6 0 0 1-4.515.837 6 6 0 0 1-3.785-2.601z"/><path stroke="#000" stroke-linecap="round" stroke-linejoin="round" stroke-width="10" d="M115.704 111.378a5 5 0 1 0-.001-10.001 5 5 0 0 0 .001 10.001m5.881-27.666a5 5 0 1 0 0-10 5 5 0 0 0 0 10"/></svg>