<svg xmlns="http://www.w3.org/2000/svg" width="192" height="192" fill="none"><path stroke="#000" stroke-linecap="round" stroke-linejoin="round" stroke-width="12" d="M96 22 32 59v74l64 37 64-37V59z"/><path stroke="#000" stroke-linecap="round" stroke-linejoin="round" stroke-width="10" d="M96 22v148M54 95a6 6 0 0 1 6-6h8a6 6 0 0 1 6 6v18a6 6 0 0 1-6 6h-8a6 6 0 0 1-6-6zm44-32c-4.596 0-9.147.62-13.394 1.827s-8.105 2.974-11.355 5.202c-3.25 2.229-5.828 4.875-7.587 7.787S63 83.848 63 87"/><path stroke="#000" stroke-linecap="round" stroke-linejoin="round" stroke-width="10" d="M96 63c14 0 22 17 22 17m-22 52c13-4 14 8 29-2"/><path stroke="#000" stroke-linecap="round" stroke-linejoin="round" stroke-width="10" d="M108 67c9 0 12-8 12-8m-24 73c12 0 18-16 18-16M96 91c8 0 12 7 12 7h9c15 0 22 18 22 18"/><path stroke="#000" stroke-linecap="round" stroke-linejoin="round" stroke-width="10" d="M139 72c-7 11 0 21 0 21-10 0-7 5-22 5"/></svg>