<svg xmlns="http://www.w3.org/2000/svg" width="192" height="192" fill="none"><path stroke="#000" stroke-linecap="round" stroke-linejoin="round" stroke-width="12" d="M22 32h136M22 82h136M22 132h136M22 60h136M22 110h136M22 160h136m0-128c1.576 0 3.136.362 4.592 1.066 1.456.703 2.779 1.734 3.893 3.034a14.3 14.3 0 0 1 2.602 4.542c.603 1.699.913 3.52.913 5.358 0 1.839-.31 3.659-.913 5.358a14.3 14.3 0 0 1-2.602 4.542c-1.114 1.3-2.437 2.33-3.893 3.034A10.5 10.5 0 0 1 158 60m0 22c1.576 0 3.136.362 4.592 1.066 1.456.703 2.779 1.734 3.893 3.034a14.3 14.3 0 0 1 2.602 4.542c.603 1.699.913 3.52.913 5.358s-.31 3.659-.913 5.358a14.4 14.4 0 0 1-2.602 4.542c-1.114 1.3-2.437 2.331-3.893 3.034A10.5 10.5 0 0 1 158 110m0 22c1.576 0 3.136.362 4.592 1.066 1.456.703 2.779 1.734 3.893 3.035a14.3 14.3 0 0 1 2.602 4.541A16 16 0 0 1 170 146c0 1.839-.31 3.659-.913 5.358a14.4 14.4 0 0 1-2.602 4.542c-1.114 1.3-2.437 2.331-3.893 3.034A10.5 10.5 0 0 1 158 160M112 32c1.576 0 3.136.362 4.592 1.066 1.456.703 2.779 1.734 3.893 3.034a14.3 14.3 0 0 1 2.602 4.542c.603 1.699.913 3.52.913 5.358 0 1.839-.31 3.659-.913 5.358a14.3 14.3 0 0 1-2.602 4.542c-1.114 1.3-2.437 2.33-3.893 3.034A10.5 10.5 0 0 1 112 60M82 82c1.576 0 3.136.362 4.592 1.066 1.456.703 2.779 1.734 3.893 3.034a14.4 14.4 0 0 1 2.602 4.542A16 16 0 0 1 94 96c0 1.838-.31 3.659-.913 5.358a14.4 14.4 0 0 1-2.602 4.542c-1.114 1.3-2.437 2.331-3.893 3.034A10.5 10.5 0 0 1 82 110m-34 22c1.576 0 3.136.362 4.592 1.066 1.456.703 2.779 1.734 3.893 3.035a14.4 14.4 0 0 1 2.602 4.541A16 16 0 0 1 60 146c0 1.839-.31 3.659-.913 5.358a14.4 14.4 0 0 1-2.602 4.542c-1.114 1.3-2.437 2.331-3.893 3.034A10.5 10.5 0 0 1 48 160M22 32c1.576 0 3.136.362 4.592 1.066 1.456.703 2.779 1.734 3.893 3.034a14.4 14.4 0 0 1 2.602 4.542A16 16 0 0 1 34 46c0 1.839-.31 3.659-.913 5.358a14.4 14.4 0 0 1-2.602 4.542c-1.114 1.3-2.437 2.33-3.893 3.034A10.5 10.5 0 0 1 22 60m0 22c1.576 0 3.136.362 4.592 1.066 1.456.703 2.779 1.734 3.893 3.034a14.4 14.4 0 0 1 2.602 4.542A16 16 0 0 1 34 96c0 1.838-.31 3.659-.913 5.358a14.4 14.4 0 0 1-2.602 4.542c-1.114 1.3-2.437 2.331-3.893 3.034A10.5 10.5 0 0 1 22 110m0 22c1.576 0 3.136.362 4.592 1.066 1.456.703 2.779 1.734 3.893 3.035a14.4 14.4 0 0 1 2.602 4.541A16 16 0 0 1 34 146c0 1.839-.31 3.659-.913 5.358a14.4 14.4 0 0 1-2.602 4.542c-1.114 1.3-2.437 2.331-3.893 3.034A10.5 10.5 0 0 1 22 160"/></svg>