<svg xmlns="http://www.w3.org/2000/svg" width="192" height="192" fill="none"><path stroke="#000" stroke-width="12" d="M113 168c31.48 0 57-19.699 57-44s-25.52-44-57-44-57 19.7-57 44 25.52 44 57 44ZM53 71.027c8.696-5.021 10.598-18.059 4.247-29.12-6.35-11.06-18.55-15.956-27.246-10.934-8.697 5.021-10.599 18.059-4.248 29.12 6.35 11.06 18.55 15.956 27.246 10.934Zm58.481-22.239c11.436-3.023 19.148-10.751 17.225-17.262-1.922-6.51-12.751-9.337-24.187-6.314S85.371 35.963 87.294 42.474c1.922 6.51 12.751 9.337 24.187 6.314Z"/></svg>