<svg xmlns="http://www.w3.org/2000/svg" width="192" height="192" fill="none"><circle cx="96" cy="96" r="74" stroke="#000" stroke-linecap="round" stroke-linejoin="round" stroke-width="12"/><path stroke="#000" stroke-linecap="round" stroke-linejoin="round" stroke-width="10" d="M46.42 108C51.816 85.624 71.967 69 96 69s44.184 16.624 49.58 39m-99.16 0A51 51 0 0 1 45 96c0-28.166 22.834-51 51-51 28.167 0 51 22.834 51 51 0 4.133-.492 8.152-1.42 12m-99.16 0a50.7 50.7 0 0 0 4.569 12m94.591-12a50.6 50.6 0 0 1-4.569 12m0 0c-8.585 16.067-25.521 27-45.011 27s-36.426-10.933-45.011-27m90.022 0C132.426 103.933 115.49 93 96 93s-36.426 10.933-45.011 27"/></svg>