<svg xmlns="http://www.w3.org/2000/svg" width="192" height="192" fill="none"><circle cx="96" cy="39" r="17" stroke="#000" stroke-linecap="round" stroke-linejoin="round" stroke-width="12"/><circle cx="96" cy="96" r="17" stroke="#000" stroke-linecap="round" stroke-linejoin="round" stroke-width="12"/><circle cx="96" cy="153" r="17" stroke="#000" stroke-linecap="round" stroke-linejoin="round" stroke-width="12"/><path stroke="#000" stroke-linecap="round" stroke-linejoin="round" stroke-width="12" d="M170 39a17 17 0 1 0-34 0M56 96a17 17 0 0 0-34 0m114 0a17 17 0 1 0 34 0M22 153a17 17 0 1 0 34 0"/><circle cx="153" cy="153" r="17" stroke="#000" stroke-linecap="round" stroke-linejoin="round" stroke-width="12"/><circle cx="39" cy="39" r="17" stroke="#000" stroke-linecap="round" stroke-linejoin="round" stroke-width="12"/><path stroke="#000" stroke-linecap="round" stroke-linejoin="round" stroke-width="12" d="M170 39v57M56 96v57m80-114v57M22 96v57"/></svg>