<svg xmlns="http://www.w3.org/2000/svg" width="192" height="192" fill="none"><path stroke="#000" stroke-linecap="round" stroke-linejoin="round" stroke-width="12" d="M108 22H88a6 6 0 0 0-6 6v34c0 26.51 21.49 48 48 48h34a6 6 0 0 0 6-6V84a6 6 0 0 0-6-6h-20c-16.569 0-30-13.431-30-30V28a6 6 0 0 0-6-6"/><path stroke="#000" stroke-linecap="round" stroke-linejoin="round" stroke-width="12" d="M78 164a6 6 0 0 0 6 6h20a6 6 0 0 0 6-6v-34c0-26.51-21.49-48-48-48H28a6 6 0 0 0-6 6v20a6 6 0 0 0 6 6h20c16.569 0 30 13.431 30 30z"/><path stroke="#000" stroke-linecap="round" stroke-linejoin="round" stroke-width="12" d="M78 150c0-30 0-46-34-68m104 28c-34-22-34-38-34-68"/></svg>