<svg xmlns="http://www.w3.org/2000/svg" width="192" height="192" fill="none"><path stroke="#000" stroke-linecap="round" stroke-linejoin="round" stroke-miterlimit="32" stroke-width="12" d="m43.069 90.463 99.597-27.042a12.05 12.05 0 0 1 9.012 1.097 12.03 12.03 0 0 1 5.683 7.072l12.156 40.759a11.6 11.6 0 0 1-3.887 12.382 11.6 11.6 0 0 1-4.058 2.09L82.507 149.38a16.13 16.13 0 0 1-9.98-.366 16.1 16.1 0 0 1-7.845-6.172l-26.428-39.538a8.45 8.45 0 0 1-.882-7.653 8.45 8.45 0 0 1 5.7-5.188m-2.48 17.559-10.005 3.404a12.7 12.7 0 0 0-7.064 5.973 12.66 12.66 0 0 0-1.124 9.175l2.52 9.77a11.08 11.08 0 0 0 9.661 8.254c1.503.146 3.02-.016 4.457-.477l17.065-5.469m-1.641-12.909 108.651-30.405M107 71.143V41.857a3.8 3.8 0 0 0-1.158-2.727 4 4 0 0 0-2.797-1.13H99.02a11.78 11.78 0 0 0-7.083 2.36l-5.833 4.405a7.9 7.9 0 0 0-2.294 2.756 7.7 7.7 0 0 0-.81 3.461l.103 27.161"/></svg>