<svg xmlns="http://www.w3.org/2000/svg" width="192" height="192" fill="none"><path stroke="#000" stroke-linecap="round" stroke-linejoin="round" stroke-width="12" d="M111 35c0-5.523 4.477-10 10-10h36c5.523 0 10 4.477 10 10v36c0 5.523-4.477 10-10 10h-36c-5.523 0-10-4.477-10-10zm-86 0c0-5.523 4.477-10 10-10h36c5.523 0 10 4.477 10 10v36c0 5.523-4.477 10-10 10H35c-5.523 0-10-4.477-10-10zm0 86c0-5.523 4.477-10 10-10h122c5.523 0 10 4.477 10 10v36c0 5.523-4.477 10-10 10H35c-5.523 0-10-4.477-10-10z"/></svg>