<svg xmlns="http://www.w3.org/2000/svg" width="192" height="192" fill="none"><circle cx="133" cy="114" r="37" stroke="#000" stroke-linecap="round" stroke-linejoin="round" stroke-width="12"/><circle cx="133" cy="114" r="15" stroke="#000" stroke-linecap="round" stroke-linejoin="round" stroke-width="12"/><path stroke="#000" stroke-linecap="round" stroke-linejoin="round" stroke-width="12" d="M105.373 86.5 92.259 69.6A6.02 6.02 0 0 1 91 66.128L90.071 41l-23.12 8.343a6 6 0 0 1-3.797.09l-21.5-6.632a2 2 0 0 0-2.59 1.916v22.384c0 1.28-.406 2.525-1.161 3.557l-14.35 19.615c-3.208 4.386-1.225 10.632 3.922 12.352l18.036 6.026a6 6 0 0 1 2.63 1.759l17.264 19.901a1.997 1.997 0 0 0 3.137-.151l12.71-17.837a6 6 0 0 1 2.06-1.811L97 103.194"/></svg>