<svg xmlns="http://www.w3.org/2000/svg" width="192" height="192" fill="none"><path stroke="#000" stroke-linecap="round" stroke-linejoin="round" stroke-width="12" d="M71.573 68.45C69.685 79.41 62.077 87.2 54.58 85.847c-7.495-1.353-12.04-11.335-10.153-22.297 1.889-10.96 9.496-18.75 16.993-17.397S73.462 57.488 71.574 68.45Zm69.612 7.726c2.497 9.487-.935 18.666-7.664 20.502-6.73 1.836-14.209-4.367-16.706-13.854s.935-18.666 7.664-20.502c6.73-1.836 14.209 4.367 16.706 13.854"/><path stroke="#000" stroke-linecap="round" stroke-linejoin="round" stroke-width="12" d="M22 146s11-56 36-59 48 55 48 55 11-43 31-46 33 33 33 33"/></svg>