<svg xmlns="http://www.w3.org/2000/svg" width="192" height="192" fill="none"><path stroke="#000" stroke-linecap="round" stroke-linejoin="round" stroke-width="12" d="M96 170c40.869 0 74-33.131 74-74s-33.131-74-74-74-74 33.13-74 74c0 13.453 3.59 26.067 9.863 36.937L25 170l36.004-8.782C71.424 166.821 83.341 170 96 170"/><path stroke="#000" stroke-linecap="round" stroke-linejoin="round" stroke-width="12" d="M92 117V75l-20 28-20-28v42m78.5-21a10.502 10.502 0 0 0 7.425-17.925A10.5 10.5 0 0 0 130.5 75m3 42a10.5 10.5 0 0 0 10.5-10.5A10.5 10.5 0 0 0 133.5 96m-3-21H120a6 6 0 0 0-6 6v15m0 0v15a6 6 0 0 0 6 6h13.5M114 96h19.5"/></svg>