<svg xmlns="http://www.w3.org/2000/svg" width="192" height="192" fill="none"><path stroke="#000" stroke-linecap="round" stroke-linejoin="round" stroke-width="12" d="M76.915 75.534 66.691 64.57a13.991 13.991 0 1 0-20.466 19.085m30.69-8.121L96 96M76.915 75.534l31.43-29.31M96 96l19.085 20.466M96 96l20.466-19.085M96 96l-20.466 19.085m39.551 1.381 10.224 10.964a13.994 13.994 0 0 0 19.775.691 13.99 13.99 0 0 0 .691-19.776m-30.69 8.121-31.43 29.309m-37.43-62.12 29.309 31.43m-29.31-31.43A13.992 13.992 0 1 0 25.76 102.74l34.762 37.277m15.013-24.932L64.57 125.309a13.992 13.992 0 1 0 19.085 20.466m32.811-68.86 29.309 31.43m-29.309-31.43 10.964-10.224a13.99 13.99 0 0 0-14.442-23.339 14 14 0 0 0-4.643 2.873m37.43 62.12a13.99 13.99 0 0 0 24.216-9.054 14 14 0 0 0-3.75-10.03l-34.762-37.278m-23.134-5.758a13.99 13.99 0 0 0-9.054-24.216 14 14 0 0 0-10.03 3.75L51.982 60.52m31.672 85.254a13.992 13.992 0 1 0 19.085 20.466l37.277-34.762"/></svg>