<svg xmlns="http://www.w3.org/2000/svg" width="192" height="192" fill="none"><path stroke="#000" stroke-linecap="round" stroke-linejoin="round" stroke-width="12" d="M25 45c0-11.046 8.954-20 20-20h102c11.046 0 20 8.954 20 20v102c0 11.046-8.954 20-20 20H45c-11.046 0-20-8.954-20-20z"/><path stroke="#000" stroke-linecap="round" stroke-linejoin="round" stroke-width="12" d="M103 47H89a6 6 0 0 0-6 6v24a6 6 0 0 1-6 6H53a6 6 0 0 0-6 6v14a6 6 0 0 0 6 6h24a6 6 0 0 1 6 6v24a6 6 0 0 0 6 6h14a6 6 0 0 0 6-6v-24a6 6 0 0 1 6-6h24a6 6 0 0 0 6-6V89a6 6 0 0 0-6-6h-24a6 6 0 0 1-6-6V53a6 6 0 0 0-6-6"/></svg>