<svg xmlns="http://www.w3.org/2000/svg" width="192" height="192" fill="none"><path stroke="#000" stroke-linecap="round" stroke-linejoin="round" stroke-width="12" d="m139.128 139.128 24.192-24.192a22.8 22.8 0 0 0 4.944-24.856A22.8 22.8 0 0 0 147.192 76a22.82 22.82 0 0 0-16.128 6.68l-24.192 24.192m32.256 32.256-24.192 24.192a22.8 22.8 0 0 1-24.856 4.944A22.8 22.8 0 0 1 76 147.192a22.8 22.8 0 0 1 6.68-16.128l24.192-24.192m32.256 32.256-32.256-32.256"/><circle cx="62" cy="62" r="40" stroke="#000" stroke-linecap="round" stroke-linejoin="round" stroke-width="12"/><path stroke="#000" stroke-linecap="round" stroke-linejoin="round" stroke-width="12" d="M62 48v14l-9 12"/></svg>