<svg xmlns="http://www.w3.org/2000/svg" width="192" height="192" fill="none"><path stroke="#000" stroke-linecap="round" stroke-linejoin="round" stroke-width="12" d="M22 63.12a6 6 0 0 1 3.846-5.6l14-5.384c3.93-1.511 8.154 1.39 8.154 5.6V131a6 6 0 0 1-6 6H28a6 6 0 0 1-6-6zM74 87v44a6 6 0 0 0 6 6h14a6 6 0 0 0 6-6V77m52 0v39m-26-29v36M48 87a13 13 0 1 1 26 0m26 0a13 13 0 0 1 26 0"/><path stroke="#000" stroke-linecap="round" stroke-linejoin="round" stroke-width="12" d="M100 77a26 26 0 0 0-52 0m104 0a26 26 0 1 0-52 0m26 46c0 3.414.673 6.795 1.979 9.95a26 26 0 0 0 5.636 8.435 26 26 0 0 0 8.435 5.636 26.02 26.02 0 0 0 19.9 0c2.988-1.238 5.718-3.534 8.05-5.771-3.154-1.306-7.97-4.451-10.385-6.865a26 26 0 0 1-5.636-8.435A26 26 0 0 1 152 116"/></svg>