<svg xmlns="http://www.w3.org/2000/svg" width="192" height="192" fill="none"><path stroke="#000" stroke-linecap="round" stroke-linejoin="round" stroke-width="12" d="M92.69 138c42.697 0 77.31-34.355 77.31-76.733a77 77 0 0 0-.342-7.267C87.669 65.252 22 92.384 22 92.384 34.026 119.258 61.153 138 92.69 138"/><path stroke="#000" stroke-linecap="round" stroke-linejoin="round" stroke-width="6" d="M60.866 103.696c.478-.276.194-1.663-.634-3.098s-1.888-2.374-2.366-2.098-.194 1.663.634 3.098 1.888 2.374 2.366 2.098m20-5c.478-.276.195-1.663-.634-3.098-.828-1.435-1.888-2.374-2.366-2.098s-.194 1.663.634 3.098 1.888 2.374 2.366 2.098m15.276-3.7c.534-.143.619-1.556.19-3.157s-1.209-2.782-1.742-2.639c-.534.143-.619 1.556-.19 3.157s1.209 2.782 1.742 2.639m15.376-5.942c.534-.143.619-1.556.19-3.157s-1.209-2.782-1.742-2.639c-.534.143-.619 1.556-.19 3.157s1.209 2.782 1.742 2.639m16-3.999c.534-.143.619-1.556.19-3.157s-1.209-2.782-1.742-2.639c-.534.143-.619 1.556-.19 3.157s1.209 2.782 1.742 2.639m-11 26c.534-.143.619-1.556.19-3.157s-1.209-2.782-1.742-2.639c-.534.143-.619 1.556-.19 3.157s1.209 2.782 1.742 2.639m15.448-9c.533.143 1.313-1.039 1.742-2.64.429-1.6.344-3.013-.19-3.156-.533-.143-1.313 1.039-1.742 2.64-.429 1.6-.344 3.013.19 3.156m11-19c.533.143 1.313-1.039 1.742-2.64.429-1.6.344-3.013-.19-3.156-.533-.143-1.313 1.039-1.742 2.64-.429 1.6-.344 3.013.19 3.156m-44.1 33.641c.478-.276.195-1.663-.634-3.098-.828-1.435-1.888-2.374-2.366-2.098s-.194 1.663.634 3.098 1.888 2.374 2.366 2.098m-21 1c.478-.276.195-1.663-.634-3.098-.828-1.435-1.888-2.374-2.366-2.098s-.194 1.663.634 3.098 1.888 2.374 2.366 2.098"/></svg>