<svg xmlns="http://www.w3.org/2000/svg" width="192" height="192" fill="none"><path stroke="#000" stroke-linecap="round" stroke-linejoin="round" stroke-width="12" d="m63 87 24-24m-32 74 82-82"/><path stroke="#000" stroke-linejoin="round" stroke-width="8" d="m94 136 4-4 4 4-4 4zm38-38 4-4 4 4-4 4z"/><path stroke="#000" stroke-linecap="round" stroke-linejoin="round" stroke-width="12" d="M167.217 107.217a23.995 23.995 0 0 0-4.246-28.188l-50-50a24 24 0 0 0-33.942 0l-50 50a24 24 0 0 0 0 33.942l50 50a24 24 0 0 0 28.188 4.246"/><path stroke="#000" stroke-linecap="round" stroke-linejoin="round" stroke-miterlimit="6" stroke-width="10" d="M125 157.999V122l28 35.999V122"/></svg>