<svg width="192" height="192" fill="none" xmlns="http://www.w3.org/2000/svg"><path d="m83.832 25.307-44 25.828A23.94 23.94 0 0 0 28 71.778v48.444a23.94 23.94 0 0 0 11.831 20.643l44 25.828a24.042 24.042 0 0 0 24.337 0l44-25.828A23.94 23.94 0 0 0 164 120.222V71.778a23.94 23.94 0 0 0-11.832-20.643l-44-25.828a24.043 24.043 0 0 0-24.337 0Z" stroke="#000" stroke-width="12" stroke-linecap="round" stroke-linejoin="round"/><path d="M94 74v44M50 74v44m64-22h19m-2-22h-11a6 6 0 0 0-6 6v32a6 6 0 0 0 6 6h13M50 74l22 44 22-44" stroke="#000" stroke-width="10" stroke-linecap="round" stroke-linejoin="round"/><path d="M131 96a11 11 0 0 0 0-22m2 44a11 11 0 0 0 0-22" stroke="#000" stroke-width="10" stroke-linecap="round" stroke-linejoin="round"/></svg>