<svg xmlns="http://www.w3.org/2000/svg" width="192" height="192" fill="none"><path stroke="#000" stroke-linecap="round" stroke-linejoin="round" stroke-width="12" d="M64.75 102.859C67.904 98.122 73.29 95 79.408 95 89.124 95 97 102.876 97 112.593c0 6.116-3.122 11.504-7.859 14.656m-24.39-24.39L31.892 70A65.412 65.412 0 0 0 122 160.108l-32.859-32.859m-24.39-24.39 24.39 24.39m69.747-88.879a18 18 0 0 0-10.435-1.017 20.01 20.01 0 0 0-16.842-15.182 20 20 0 0 0-21.605 13.566 15 15 0 0 0-21.486 9.346A14 14 0 0 0 74.876 52 14 14 0 0 0 87 73h65a18 18 0 0 0 17.654-14.488 18 18 0 0 0-4.121-15.38 18 18 0 0 0-6.645-4.762"/></svg>