<svg width="192" height="192" fill="none" xmlns="http://www.w3.org/2000/svg"><circle cx="129" cy="125" r="4" stroke="#000" stroke-width="8" stroke-linecap="round" stroke-linejoin="round"/><path d="M31.448 81.066a52.142 52.142 0 0 0 6.573 19.304l25.194 43.507a52.385 52.385 0 0 0 31.819 24.343 52.543 52.543 0 0 0 39.764-5.22 52.267 52.267 0 0 0 24.416-31.724 52.111 52.111 0 0 0-5.235-39.646l-25.194-43.507a52.276 52.276 0 0 0-13.481-15.326 52.47 52.47 0 0 0-18.338-9.017A52.554 52.554 0 0 0 57.202 29a52.356 52.356 0 0 0-15.373 13.44 52.184 52.184 0 0 0-9.043 18.284 52.096 52.096 0 0 0-1.338 20.342ZM74 80h32" stroke="#000" stroke-width="12" stroke-linecap="round" stroke-linejoin="round"/><path d="M84 59v50c0 17 11 18 15 18s7-1 7-1" stroke="#000" stroke-width="12" stroke-linecap="round" stroke-linejoin="round"/></svg>