<svg xmlns="http://www.w3.org/2000/svg" width="192" height="192" fill="none"><path stroke="#000" stroke-linecap="round" stroke-linejoin="round" stroke-miterlimit="6" stroke-width="10" d="M159 171h-12a6 6 0 0 1-6-6v-12m0 0h18m-18 0v-11.999a6 6 0 0 1 6-6h8M155 153a9 9 0 1 0 0-18m4 36a9 9 0 1 0 0-18"/><path stroke="#000" stroke-linecap="round" stroke-linejoin="round" stroke-miterlimit="6" stroke-width="10" d="M153 170.999h-6a6 6 0 0 1-6-6V141a6 6 0 0 1 6-6h6"/><path stroke="#000" stroke-linecap="round" stroke-linejoin="round" stroke-width="12" d="M96 170c-12 0-21.403-7.962-27.5-15.092C45.134 127.578 64.278 76 96 76"/><path stroke="#000" stroke-linecap="round" stroke-linejoin="round" stroke-width="12" d="M22 95.999c0-12 7.392-23.53 14.483-30C63.388 41.455 116 64.343 116 95.999"/><path stroke="#000" stroke-linecap="round" stroke-linejoin="round" stroke-width="12" d="M170 96c0 17.114-43.398 30.665-58.5 12.639A20.002 20.002 0 0 0 96 76a20 20 0 0 0-20 20"/><path stroke="#000" stroke-linecap="round" stroke-linejoin="round" stroke-width="12" d="M170 96c0-40.87-33.131-74-74-74S22 55.13 22 96s33.13 74 74 74c9.149 0 17.911-1.66 26-4.697M170 96a74 74 0 0 1-3.325 22M170 96c0 8.732-1.309 16.016-3.618 22M76 96c0 21.688 22.838 39.974 46 44.082"/></svg>