<svg xmlns="http://www.w3.org/2000/svg" width="192" height="192" fill="none"><path stroke="#000" stroke-linecap="round" stroke-linejoin="round" stroke-width="12" d="M148.326 43.674A74 74 0 0 0 96 22a74 74 0 0 0-52.326 21.674m86.267 18.385a48 48 0 0 0-52.31-10.405A48 48 0 0 0 62.06 62.059M64 116a31.998 31.998 0 0 0 54.627 22.627A32 32 0 0 0 128 116"/><path stroke="#000" stroke-linecap="round" stroke-linejoin="round" stroke-width="12" d="M84 116a12 12 0 0 0 12 12c3.183 0 6.235-1.264 8.485-3.515A12 12 0 0 0 108 116m0-30a12 12 0 0 0-12-12 12 12 0 0 0-12 12m12 62v22M84 86v30m24-30v30"/></svg>