<svg xmlns="http://www.w3.org/2000/svg" width="192" height="192" fill="none"><path stroke="#000" stroke-linecap="round" stroke-linejoin="round" stroke-width="12" d="M41.929 72C30.344 42.737 46.69 30.363 61.03 24.907c15.248-5.801 37.167-4.609 58.97 19.428M25.613 90c-10.111 13.232 3.54 34.103 9.972 41.075C55.867 153.062 88.71 155.128 104 149.037m28.655-84.959c13.903-.464 26.896.716 35.487 15.735 6.074 10.62-4.264 30.127-9.242 42.095-4.529 10.89-3.599 31.501-14.29 42.309-7.091 7.167-19.895 7.449-26.61 2.082"/><path stroke="#000" stroke-linecap="round" stroke-linejoin="round" stroke-width="12" d="M74 129c8.74-5.649 37.09-7.404 50-.532M108.516 79c12.246 4.63 4.986 18.27.475 24.542m26.756-19.269c4.363 5.148 2.152 15.336-4.587 21.872m-43.681-26.29c-12.247 4.63-4.987 18.27-.476 24.542m-26.75-19.269C55.89 90.276 58.1 100.464 64.84 107"/><circle cx="98" cy="61" r="3" stroke="#000" stroke-linecap="round" stroke-linejoin="round" stroke-width="6"/></svg>