<svg xmlns="http://www.w3.org/2000/svg" width="192" height="192" fill="none"><circle cx="96" cy="96" r="74" stroke="#000" stroke-linecap="round" stroke-linejoin="round" stroke-width="12"/><path stroke="#000" stroke-linecap="round" stroke-linejoin="round" stroke-width="12" d="m127.378 132 9.139-39.636a18.87 18.87 0 0 0-2.378-14.23 18.83 18.83 0 0 0-11.731-8.379 18.8 18.8 0 0 0-14.212 2.381 18.85 18.85 0 0 0-8.368 11.746l-4.235 18.369m4.235-18.369a18.87 18.87 0 0 0-2.378-14.23 18.83 18.83 0 0 0-11.731-8.378 18.8 18.8 0 0 0-14.212 2.381 18.85 18.85 0 0 0-8.368 11.746m32.454 26.85-4.904 21.268m4.904-21.268-13.517-3.125m13.517 3.125 13.517 3.124M67.151 58 63.14 75.401m0 0L54 115.038"/></svg>