<svg xmlns="http://www.w3.org/2000/svg" width="192" height="192" fill="none" viewBox="0 0 192 192"><path stroke="#000" stroke-linecap="round" stroke-linejoin="round" stroke-width="12" d="M151.106 96c0 30.434-24.672 55.106-55.106 55.106M151.106 96c0-30.434-24.672-55.106-55.106-55.106M151.106 96H170m-74 55.106c-30.434 0-55.106-24.672-55.106-55.106M96 151.106V170M40.894 96c0-30.434 24.672-55.106 55.106-55.106M40.894 96H22m74-55.106V22m38.966 35.034c21.52 21.52 21.52 56.412 0 77.932m0-77.932c-21.52-21.52-56.412-21.52-77.932 0m77.932 0 10.02-10.02m-10.02 87.952c-21.52 21.52-56.412 21.52-77.932 0m77.932 0 10.02 10.02m-87.952-10.02c-21.52-21.52-21.52-56.412 0-77.932m0 77.932-10.02 10.02m10.02-87.952-10.02-10.02"/><circle cx="83" cy="72" r="5" stroke="#000" stroke-linejoin="round" stroke-width="10"/><circle cx="64" cy="92" r="3" stroke="#000" stroke-linejoin="round" stroke-width="6"/></svg>