<svg xmlns="http://www.w3.org/2000/svg" width="192" height="192" fill="none"><path stroke="#000" stroke-linecap="round" stroke-linejoin="round" stroke-width="12" d="M157.516 64.933c11.307 6.344 14.87 20.92 7.958 32.554s-21.683 15.924-32.99 9.58-14.87-20.92-7.958-32.554 21.683-15.924 32.99-9.58"/><path stroke="#000" stroke-linecap="round" stroke-linejoin="round" stroke-width="10" d="M120.484 83.067c11.307 6.344 26.078 2.055 32.99-9.58A25 25 0 0 0 156.637 65M145 129c-16 8-27-4-27-4"/><path stroke="#000" stroke-linecap="round" stroke-linejoin="round" stroke-width="8" d="M146.086 83.489c1.885 1.057 2.478 3.486 1.326 5.426s-3.613 2.654-5.498 1.596-2.478-3.486-1.326-5.426 3.613-2.654 5.498-1.596"/><path stroke="#000" stroke-linecap="round" stroke-linejoin="round" stroke-width="12" d="M29.78 47s2.005 7 1.003 23m0 0c-31.08 56 28.071 95 57.145 95C106.977 165 116 152 116 152c-9.02-10-15.936-1-41-18S52.84 80 30.783 70"/><path stroke="#000" stroke-linecap="round" stroke-linejoin="round" stroke-width="12" d="M87 140 74 85c-3-11-4-58 43-58 31 0 41 26 43 36l.6 3M114 152s42 12 56-25l-3.376-30"/><path stroke="#000" stroke-linecap="round" stroke-linejoin="round" stroke-width="12" d="M77 92s14 7 44-1"/></svg>