<svg xmlns="http://www.w3.org/2000/svg" width="192" height="192" fill="none"><path stroke="#000" stroke-linecap="round" stroke-linejoin="round" stroke-width="12" d="M164 95s8 75-64 75c-58 0-64-46-64-46"/><path stroke="#000" stroke-linecap="round" stroke-linejoin="round" stroke-width="12" d="M96.196 22c-73.804 0-70.812 60.268-70.812 60.268-6.981 14.062-.997 38.17-.997 38.17s11.968 5.022 20.944 1.004 6.982-26.116 14.96-30.134c7.98-4.018 13.963 8.036 103.725 4.018L170 82.268l-8.976-13.058S160.027 22 96.196 22"/><path stroke="#000" stroke-linecap="round" stroke-linejoin="round" stroke-width="10" d="M84 147c38 0 38-3 38-3l-38-1z"/><path stroke="#000" stroke-linecap="round" stroke-linejoin="round" stroke-width="8" d="m79 116 1-3 20 4zm62 2-1-3-20 4z"/><ellipse cx="90.5" cy="123" stroke="#000" stroke-linecap="round" stroke-linejoin="round" stroke-width="6" rx="6.5" ry="3"/><ellipse cx="129.5" cy="125" stroke="#000" stroke-linecap="round" stroke-linejoin="round" stroke-width="6" rx="6.5" ry="3"/></svg>