<svg xmlns="http://www.w3.org/2000/svg" width="192" height="192" fill="none"><path stroke="#000" stroke-linecap="round" stroke-linejoin="round" stroke-width="12" d="M164 95s8 75-64 75c-58 0-64-46-64-46"/><path stroke="#000" stroke-linecap="round" stroke-linejoin="round" stroke-width="12" d="M112.5 23.16c-4.919-.747-10.337-1.16-16.304-1.16-73.804 0-70.812 60.268-70.812 60.268-6.981 14.062-.997 38.17-.997 38.17s11.968 5.022 20.944 1.004 6.982-26.116 14.96-30.134c7.98-4.018 13.963 8.036 103.725 4.018l5.601-12.223"/><path stroke="#000" stroke-linecap="round" stroke-linejoin="round" stroke-miterlimit="6" stroke-width="12" d="M170 33a21.98 21.98 0 0 0-10.62-9.325 21.95 21.95 0 0 0-14.095-.925 21.97 21.97 0 0 0-11.745 7.857 22.02 22.02 0 0 0 0 26.786 21.97 21.97 0 0 0 11.745 7.857 21.95 21.95 0 0 0 14.095-.925A21.98 21.98 0 0 0 170 55"/><path stroke="#000" stroke-linecap="round" stroke-linejoin="round" stroke-width="10" d="M84 147c38 0 38-3 38-3l-38-1z"/><path stroke="#000" stroke-linecap="round" stroke-linejoin="round" stroke-width="8" d="m79 116 1-3 20 4zm62 2-1-3-20 4z"/><ellipse cx="90.5" cy="123" stroke="#000" stroke-linecap="round" stroke-linejoin="round" stroke-width="6" rx="6.5" ry="3"/><ellipse cx="129.5" cy="125" stroke="#000" stroke-linecap="round" stroke-linejoin="round" stroke-width="6" rx="6.5" ry="3"/></svg>