<svg xmlns="http://www.w3.org/2000/svg" width="192" height="192" fill="none"><path stroke="#000" stroke-linecap="round" stroke-linejoin="round" stroke-width="12" d="M99 22c11 4 11 20 17 20s14-8 14-8 25 14 27 64l7.651 6.121a6 6 0 0 1 2.249 4.885l-.754 22.626a6 6 0 0 1-4.349 5.569L152 140s-12 30-56 30-57-30-57-30l-9.648-2.757A6 6 0 0 1 25 131.474v-22.59c0-1.823.828-3.547 2.252-4.685L35 98c0-43.5 45-46 64-76"/><path stroke="#000" stroke-linecap="round" stroke-linejoin="round" stroke-width="10" d="M64.064 119c3.542 0 16.78 8.457 15.894 10.839s-9.36 3.515-13.787-.456S60.52 119 64.064 119m63.872 0c-3.542 0-16.779 8.457-15.894 10.839.886 2.382 9.359 3.515 13.787-.456S131.478 119 127.936 119"/></svg>