<svg xmlns="http://www.w3.org/2000/svg" width="192" height="192" fill="none"><circle cx="96" cy="96" r="74" stroke="#000" stroke-linecap="round" stroke-linejoin="round" stroke-width="12"/><circle cx="96" cy="96" r="18" stroke="#000" stroke-linecap="round" stroke-linejoin="round" stroke-width="12"/><path stroke="#000" stroke-linecap="round" stroke-linejoin="round" stroke-width="12" d="M105.6 48H86.4l-2.407 7.523c-1.086 3.392-4.958 4.996-8.124 3.365l-7.022-3.617-13.576 13.576 3.617 7.022c1.63 3.166.027 7.038-3.365 8.124L48 86.4v19.2l7.523 2.407c3.392 1.086 4.996 4.958 3.365 8.124l-3.617 7.022 13.576 13.576 7.022-3.617c3.166-1.631 7.038-.027 8.124 3.365L86.4 144h19.2l2.407-7.523c1.086-3.392 4.958-4.996 8.124-3.365l7.022 3.617 13.576-13.576-3.617-7.022c-1.631-3.166-.027-7.038 3.365-8.124L144 105.6V86.4l-7.523-2.407c-3.392-1.086-4.996-4.958-3.365-8.124l3.617-7.022-13.576-13.576-7.022 3.617c-3.166 1.63-7.038.027-8.124-3.365z"/></svg>