<svg xmlns="http://www.w3.org/2000/svg" width="192" height="192" fill="none"><path stroke="#000" stroke-linecap="round" stroke-linejoin="round" stroke-width="12" d="M75.724 104.613C81.35 102.95 88.762 102 96 102s14.65.95 20.276 2.613m-40.552 0C36.266 116.274 35.494 163 60 163c19.776 0 36.62-40.088 15.724-58.387m0 0A28 28 0 0 0 75 104C53 86 22 84 22 53c0-20 16-24 24-24 27 0 38 44 38 44m32.276 31.613C155.734 116.274 156.506 163 132 163c-19.776 0-36.62-40.088-15.724-58.387m0 0q.355-.311.724-.613c22-18 53-20 53-51 0-20-16-24-24-24-27 0-38 44-38 44"/></svg>