<svg xmlns="http://www.w3.org/2000/svg" width="192" height="192" fill="none"><path stroke="#000" stroke-linecap="round" stroke-linejoin="round" stroke-width="12" d="M70.337 65.697c-24.34 1.56-44.451 5.261-47.821 11.102-3.52 6.1 11.399 21.815 31.886 38.453m15.935-49.555c16.568-1.062 35.097-1.133 51.64-.213m-51.64.213c-5.993 15.556-11.674 33.31-15.935 49.555m15.935-49.555C79.566 41.743 89.534 23 96.198 23c6.645 0 16.574 18.633 25.779 42.484m0 0c25.487 1.419 46.264 5.19 47.904 11.315 1.585 5.92-12.843 20.903-32.271 36.994m-15.633-48.309c5.845 15.144 11.397 32.39 15.633 48.309m-83.208 1.459c-6.824 26.013-10.008 48.157-5.002 51.211 4.944 3.017 24.316-7.029 46.131-21.486m-41.13-29.725c12.602 10.234 27.31 20.817 41.13 29.725m42.079-31.184c7.087 26.64 10.485 49.559 5.387 52.67-4.945 3.017-25.035-7.029-47.466-21.486m42.079-31.184c-12.897 10.682-27.997 21.852-42.079 31.184"/></svg>