<svg xmlns="http://www.w3.org/2000/svg" width="192" height="192" fill="none"><path stroke="#000" stroke-linecap="round" stroke-linejoin="round" stroke-width="12" d="M47 49c0-13.255 10.745-24 24-24h72c13.255 0 24 10.745 24 24v72c0 13.255-10.745 24-24 24H71c-13.255 0-24-10.745-24-24z"/><path stroke="#000" stroke-linecap="round" stroke-linejoin="round" stroke-width="12" d="M113 25v46l15-13 15 13V25M46.5 47.129C34.42 48.379 25 58.589 25 71v72c0 13.255 10.745 24 24 24h72c12.411 0 22.621-9.42 23.871-21.5"/></svg>