<svg xmlns="http://www.w3.org/2000/svg" width="192" height="192" fill="none"><path stroke="#000" stroke-linecap="round" stroke-linejoin="round" stroke-width="12" d="M128.363 76h-10.726a5.855 5.855 0 0 0-5.617 4.23l-.388 1.335c-2.338 8.05-10.572 12.823-18.683 10.832l-1.346-.33a5.84 5.84 0 0 0-6.456 2.77l-5.363 9.327a5.89 5.89 0 0 0 .84 6.999l.958 1.005c5.772 6.058 5.772 15.606 0 21.664l-.958 1.005a5.89 5.89 0 0 0-.84 6.999l5.363 9.328a5.84 5.84 0 0 0 6.456 2.769l1.346-.33c8.111-1.992 16.345 2.782 18.683 10.832l.388 1.335a5.854 5.854 0 0 0 5.617 4.23h10.726c2.6 0 4.889-1.723 5.617-4.23l.388-1.335c2.338-8.05 10.572-12.824 18.683-10.832l1.346.33a5.84 5.84 0 0 0 6.456-2.769l5.363-9.328a5.89 5.89 0 0 0-.84-6.999l-.958-1.005c-5.772-6.058-5.772-15.606 0-21.664l.958-1.005a5.89 5.89 0 0 0 .84-6.999l-5.363-9.328a5.84 5.84 0 0 0-6.456-2.77l-1.346.331c-8.111 1.991-16.345-2.782-18.683-10.832l-.388-1.335a5.855 5.855 0 0 0-5.617-4.23M57.535 22h-7.07a3.86 3.86 0 0 0-3.702 2.79l-.255.88c-1.541 5.31-6.969 8.459-12.314 7.145l-.887-.218a3.85 3.85 0 0 0-4.256 1.827l-3.534 6.152a3.89 3.89 0 0 0 .553 4.617l.631.663c3.805 3.995 3.805 10.293 0 14.288l-.63.663a3.89 3.89 0 0 0-.554 4.617l3.535 6.152a3.85 3.85 0 0 0 4.255 1.827l.887-.218c5.345-1.314 10.773 1.835 12.314 7.144l.255.881A3.86 3.86 0 0 0 50.465 84h7.07a3.86 3.86 0 0 0 3.702-2.79l.255-.88c1.541-5.31 6.968-8.459 12.314-7.145l.887.218a3.85 3.85 0 0 0 4.255-1.827l3.535-6.152a3.89 3.89 0 0 0-.553-4.617l-.632-.663c-3.804-3.995-3.804-10.293 0-14.288l.632-.663a3.89 3.89 0 0 0 .553-4.617l-3.535-6.152a3.85 3.85 0 0 0-4.255-1.827l-.887.218c-5.346 1.314-10.773-1.835-12.314-7.144l-.255-.881A3.86 3.86 0 0 0 57.535 22"/><circle cx="124" cy="123" r="15" stroke="#000" stroke-linecap="round" stroke-linejoin="round" stroke-width="12"/><circle cx="54" cy="53" r="5" stroke="#000" stroke-linecap="round" stroke-linejoin="round" stroke-width="10"/></svg>