<svg xmlns="http://www.w3.org/2000/svg" width="192" height="192" fill="none"><path stroke="#000" stroke-linecap="round" stroke-linejoin="round" stroke-width="12" d="M118.412 57.888a52.45 52.45 0 0 1-48.581-1.966l-8.616-4.962a22.2 22.2 0 0 0-16.803-2.207 22.14 22.14 0 0 0-13.445 10.292 22.04 22.04 0 0 0-2.212 16.763 22.1 22.1 0 0 0 10.317 13.413l8.615 4.963q1.5.864 2.927 1.816m67.798-38.112a52 52 0 0 0 3.757-1.966l8.616-4.962a22.2 22.2 0 0 1 16.803-2.207 22.14 22.14 0 0 1 13.445 10.292 22.04 22.04 0 0 1 2.212 16.763 22.1 22.1 0 0 1-10.317 13.413l-8.615 4.963q-1.5.864-2.927 1.816m-22.974-38.112a52 52 0 0 1-.269-5.29V44.09a22.06 22.06 0 0 0-6.485-15.62A22.17 22.17 0 0 0 96 22a22.17 22.17 0 0 0-15.657 6.47 22.06 22.06 0 0 0-6.486 15.62v8.507c0 17.503-8.782 33.759-23.243 43.403m90.772 0q1.427.952 2.927 1.816l8.615 4.962a22.1 22.1 0 0 1 10.317 13.414 22.04 22.04 0 0 1-2.212 16.763 22.13 22.13 0 0 1-13.445 10.292 22.18 22.18 0 0 1-16.803-2.207l-8.616-4.962a52.45 52.45 0 0 0-48.58-1.967M141.385 96a52.2 52.2 0 0 1-16.058-17m-51.74 55.111a53 53 0 0 0-3.757 1.967l-8.616 4.962a22.18 22.18 0 0 1-16.803 2.207 22.13 22.13 0 0 1-13.445-10.292 22.05 22.05 0 0 1 .215-22.455m42.406 23.611A52.2 52.2 0 0 0 50.614 96m75.011 16.5a52.1 52.1 0 0 0-7.482 26.902v8.507a22.06 22.06 0 0 1-6.485 15.621A22.17 22.17 0 0 1 96 170a22.17 22.17 0 0 1-15.657-6.47 22.1 22.1 0 0 1-4.041-5.53"/></svg>