<svg xmlns="http://www.w3.org/2000/svg" width="192" height="192" fill="none"><path stroke="#000" stroke-linecap="round" stroke-linejoin="round" stroke-width="12" d="M135 87a39 39 0 0 0-78 0m0 70a13 13 0 0 1-26 0m130 0a13 13 0 0 1-3.808 9.192 12.99 12.99 0 0 1-14.167 2.818 13 13 0 0 1-4.217-2.818A13 13 0 0 1 135 157"/><circle cx="48" cy="113" r="5" stroke="#000" stroke-linecap="round" stroke-linejoin="round" stroke-width="10"/><circle cx="144" cy="113" r="5" stroke="#000" stroke-linecap="round" stroke-linejoin="round" stroke-width="10"/><path stroke="#000" stroke-linecap="round" stroke-linejoin="round" stroke-width="12" d="M31 139v18m130-18v18M31.03 139H28a6 6 0 0 1-6-6V95a6 6 0 0 1 6-6h3.03q-.03-.996-.03-2c0-35.898 29.102-65 65-65 35.899 0 65 29.102 65 65q0 1.004-.03 2H164a6 6 0 0 1 6 6v38a6 6 0 0 1-6 6h-3.03M135 157v-12a6 6 0 0 0-6-6H63a6 6 0 0 0-6 6v12m0-70h78"/></svg>