<svg xmlns="http://www.w3.org/2000/svg" width="192" height="192" fill="none"><path stroke="#000" stroke-linecap="round" stroke-linejoin="round" stroke-width="12" d="M65.5 25.052C50.658 16.445 32 27.067 32 44.124v103.751c0 17.058 18.657 27.68 33.5 19.073l23.308-13.514M65.501 25.052 74 29.98l40 23.192m-48.5-28.12C74 29.98 74 38 74 45.124V96H54l34.808 57.434M114 53.173l40.969 23.754c14.708 8.528 14.708 29.618 0 38.146l-50.152 29.079M114 53.172V96h20l-29.183 48.152m-16.008 9.282L94 162l10.817-17.848"/></svg>