<svg xmlns="http://www.w3.org/2000/svg" width="192" height="192" fill="none"><path stroke="#000" stroke-linecap="round" stroke-linejoin="round" stroke-width="12" d="M109 76h-6a6 6 0 0 0-6 6v28"/><path stroke="#000" stroke-linejoin="round" stroke-width="8" d="m88 52 8-10 8 10zm52 36 10 8-10 8zm-52 52 8 10 8-10zM52 88l-10 8 10 8z"/><path stroke="#000" stroke-linejoin="round" stroke-width="12" d="M91 104a6 6 0 1 1 0 12 6 6 0 0 1 0-12Z"/><path stroke="#000" stroke-linejoin="round" stroke-width="12" d="M96 170c40.869 0 74-33.131 74-74s-33.131-74-74-74-74 33.13-74 74 33.13 74 74 74Z"/></svg>