<svg xmlns="http://www.w3.org/2000/svg" width="192" height="192" fill="none"><path stroke="#000" stroke-linecap="round" stroke-linejoin="round" stroke-width="12" d="M89 22H39a6 6 0 0 0-6 6v47a6 6 0 0 0 6 6h20a6 6 0 0 0 6-6V55a6 6 0 0 1 6-6h18a6 6 0 0 1 6 6v20a6 6 0 0 0 6 6h16a6 6 0 0 1 6 6v18a6 6 0 0 1-6 6h-16a6 6 0 0 0-6 6v20a6 6 0 0 1-6 6H71a6 6 0 0 1-6-6v-20a6 6 0 0 0-6-6H39a6 6 0 0 0-6 6v47a6 6 0 0 0 6 6h50"/><path stroke="#000" stroke-linecap="round" stroke-linejoin="round" stroke-width="12" d="M89 170a74 74 0 1 0 0-148"/></svg>