<svg xmlns="http://www.w3.org/2000/svg" width="192" height="192" fill="none"><circle cx="84" cy="84" r="30" stroke="#000" stroke-linecap="round" stroke-linejoin="round" stroke-width="12"/><path stroke="#000" stroke-linecap="round" stroke-linejoin="round" stroke-width="12" d="M28 28a6 6 0 0 1 6-6h124a6 6 0 0 1 6 6v112a6 6 0 0 1-6 6H80.22a6 6 0 0 0-3.905 1.444L50 170v-18a6 6 0 0 0-6-6H34a6 6 0 0 1-6-6zm109 25v37"/><circle cx="137" cy="112" r="4" stroke="#000" stroke-linecap="round" stroke-linejoin="round" stroke-width="8"/></svg>