<svg xmlns="http://www.w3.org/2000/svg" width="192" height="192" fill="none"><path stroke="#000" stroke-linecap="round" stroke-linejoin="round" stroke-width="12" d="M33.461 79c10.225-18.484 29.92-31 52.54-31C119.136 48 146 74.863 146 108s-26.863 60-60 60c-30.77 0-56.129-23.161-59.596-53"/><path stroke="#000" stroke-linecap="round" stroke-linejoin="round" stroke-width="12" d="m146.465 96 21.6-19.816c1.63-1.495 2.335-3.77 1.708-5.892-9.235-31.23-35.454-42.773-45.016-46.017-2.157-.731-4.467.04-5.932 1.785L100 48.488M24.635 85.255c.472-3.747 4.276-6.133 7.891-4.95l83.32 27.263c3.757 1.229 5.33 5.647 3.186 8.944l-13.492 20.742a6.07 6.07 0 0 1-6.716 2.522l-24.913-7.229a6.05 6.05 0 0 1-3.264-2.261l-9.16-10.581a6.074 6.074 0 0 0-7.023-2.104l-9.33 3.471a6.1 6.1 0 0 1-4.826-.251l-14.966-6.927a5.985 5.985 0 0 1-3.295-6.106z"/></svg>