<svg xmlns="http://www.w3.org/2000/svg" width="192" height="192" fill="none"><circle cx="96" cy="101" r="34" stroke="#000" stroke-linecap="round" stroke-linejoin="round" stroke-width="12"/><path stroke="#000" stroke-width="12" d="M77.52 34.03c8.645-13.373 28.315-13.373 36.959 0l9.399 14.54a21.96 21.96 0 0 0 12.902 9.314l16.82 4.39C169.071 66.31 175.15 84.9 165.021 97.2l-11.012 13.375a21.74 21.74 0 0 0-4.928 15.071l.997 17.253c.918 15.868-14.996 27.357-29.9 21.587l-16.204-6.274a22.1 22.1 0 0 0-15.948 0l-16.204 6.274c-14.904 5.77-30.818-5.719-29.9-21.587l.997-17.253a21.73 21.73 0 0 0-4.928-15.071L26.979 97.201C16.85 84.9 22.929 66.31 38.399 62.273l16.822-4.389a21.96 21.96 0 0 0 12.9-9.314l9.4-14.54Z"/></svg>