<svg xmlns="http://www.w3.org/2000/svg" width="192" height="192" fill="none"><path stroke="#000" stroke-linecap="round" stroke-linejoin="round" stroke-width="12" d="M159.557 58.076C166.189 69.166 170 82.138 170 96c0 40.869-33.131 74-74 74-13.749 0-26.621-3.749-37.652-10.281M159.557 58.076a74.4 74.4 0 0 0-21.574-23.022m21.574 23.022a211 211 0 0 1-9.78 20.424m-11.794-43.446C126.055 26.82 111.59 22 96 22c-40.87 0-74 33.13-74 74 0 15.652 4.86 30.17 13.152 42.126M137.983 35.054C134.3 46.829 129.895 57.279 125 66.552M58.348 159.72c11.366-4.045 34.295-14.208 57.185-36.186L125 133l6-46-48 4 13.648 13.648c-24.555 23.636-50.675 31.226-61.496 33.478m23.196 21.593a74.4 74.4 0 0 1-23.196-21.593"/></svg>