<svg xmlns="http://www.w3.org/2000/svg" width="192" height="192" fill="none"><path stroke="#000" stroke-linecap="round" stroke-linejoin="round" stroke-width="10" d="M80 62a5 5 0 1 0 0-10 5 5 0 0 0 0 10m55 23a5 5 0 1 0 0-10 5 5 0 0 0 0 10m-55 45a5 5 0 1 1 0 10 5 5 0 0 1 0-10M57 75a5 5 0 1 1 0 10 5 5 0 0 1 0-10"/><path stroke="#000" stroke-linecap="round" stroke-linejoin="round" stroke-width="8" d="M96 28a4 4 0 1 0 0-8 4 4 0 0 0 0 8m50.912 21.088a4 4 0 1 0 0-8 4 4 0 0 0 0 8M168 100a4 4 0 1 0 0-8 4 4 0 0 0 0 8m-21.088 50.912a4 4 0 1 0 0-8 4 4 0 0 0 0 8M96 164a4 4 0 1 1 0 8 4 4 0 0 1 0-8m-50.912-21.088a4 4 0 1 1 0 8 4 4 0 0 1 0-8M24 92a4 4 0 1 1 0 8 4 4 0 0 1 0-8m21.088-50.912a4 4 0 1 1 0 8 4 4 0 0 1 0-8"/><path stroke="#000" stroke-linecap="round" stroke-linejoin="round" stroke-width="10" d="M112 62a5 5 0 1 0 0-10 5 5 0 0 0 0 10m23 55a5 5 0 1 0-.001-10.001A5 5 0 0 0 135 117m-23 13a5 5 0 1 1-.001 10.001A5 5 0 0 1 112 130m-55-23a5 5 0 1 1 0 10 5 5 0 0 1 0-10"/><path stroke="#000" stroke-linecap="round" stroke-linejoin="round" stroke-width="12" d="M96 102a6 6 0 1 0 0-12 6 6 0 0 0 0 12"/></svg>