<svg xmlns="http://www.w3.org/2000/svg" width="192" height="192" fill="none" viewBox="0 0 192 192"><path stroke="#000" stroke-linecap="round" stroke-width="12" d="M96 170c40.869 0 74-33.131 74-74s-33.131-74-74-74-74 33.13-74 74c0 24.21 11.626 45.705 29.6 59.205M96 170c-8.174 0-14.8-6.626-14.8-14.8M96 170c-16.659 0-32.032-5.505-44.4-14.795m29.6-.005c0-8.174 6.626-14.8 14.8-14.8 24.521 0 44.4-19.879 44.4-44.4a44.3 44.3 0 0 0-3.147-16.45M81.2 155.2v-32.9c0-8.174 6.626-14.8 14.8-14.8 18.71 0 34.717-11.573 41.253-27.95M51.6 155.205V96c0-24.521 19.879-44.4 44.4-44.4 18.71 0 34.717 11.572 41.253 27.95"/></svg>