<svg xmlns="http://www.w3.org/2000/svg" width="192" height="192" fill="none"><ellipse cx="96" cy="126" stroke="#000" stroke-linecap="round" stroke-linejoin="round" stroke-width="12" rx="61" ry="44"/><path stroke="#000" stroke-linecap="round" stroke-linejoin="round" stroke-width="10" d="M109 141c0 1.182-.336 2.352-.99 3.444s-1.61 2.084-2.818 2.92-2.64 1.499-4.217 1.951A18.2 18.2 0 0 1 96 150c-1.707 0-3.398-.233-4.975-.685s-3.01-1.115-4.217-1.951c-1.208-.836-2.165-1.828-2.818-2.92-.654-1.092-.99-2.262-.99-3.444"/><ellipse cx="96" cy="127" stroke="#000" stroke-linecap="round" stroke-linejoin="round" stroke-width="6" rx="3" ry="2"/><path stroke="#000" stroke-linecap="round" stroke-linejoin="round" stroke-width="12" d="M58.93 88s-21.389-62.901 2.037-65.896c23.426-2.996 17.315 59.905 17.315 59.905m37.022.107s3.959-27.594 1.98-30.55c-1.98-2.957-13.858 1.97-16.827-7.885S109.365 22 125.202 22s27.715 17.74 9.899 68"/><path stroke="#000" stroke-linecap="round" stroke-linejoin="round" stroke-width="10" d="M77 121v-14h-5m46 14v-14h-5"/></svg>