<svg xmlns="http://www.w3.org/2000/svg" width="192" height="192" fill="none"><path stroke="#000" stroke-linecap="round" stroke-linejoin="round" stroke-miterlimit="16" stroke-width="12" d="M38 90c14.51 8.557 18.832 22.607 14.09 34H22m148-35v29.171a5.84 5.84 0 0 1-1.71 4.124 5.83 5.83 0 0 1-4.124 1.705H81.833A5.83 5.83 0 0 1 76 118.172V68m62.558 38.533c0 9.627-10.218 17.431-15.558 17.431s-16.074-7.805-16.074-17.432 8.166-17.495 16.074-17.43c7.791.062 15.558 7.804 15.558 17.431"/><circle cx="123" cy="65" r="3" stroke="#000" stroke-linecap="round" stroke-linejoin="round" stroke-width="6"/><circle cx="170" cy="65" r="3" stroke="#000" stroke-linecap="round" stroke-linejoin="round" stroke-width="6"/><circle cx="38" cy="64" r="3" stroke="#000" stroke-linecap="round" stroke-linejoin="round" stroke-width="6"/></svg>