<svg xmlns="http://www.w3.org/2000/svg" width="192" height="192" fill="none"><path stroke="#000" stroke-linecap="round" stroke-linejoin="round" stroke-width="12" d="m102.856 77.274-13.712 37.452m47.804-66.47-32.225 88.012a16.85 16.85 0 0 0 .569 12.952 17 17 0 0 0 9.615 8.758 17.13 17.13 0 0 0 13.029-.565 16.98 16.98 0 0 0 8.811-9.558l32.225-88.013a16.84 16.84 0 0 0-.569-12.952 17 17 0 0 0-9.615-8.758 17.13 17.13 0 0 0-13.029.565 16.98 16.98 0 0 0-8.811 9.558Zm-81.695-4.11-32.225 88.012a16.85 16.85 0 0 0 .569 12.952 17 17 0 0 0 9.615 8.758 17.13 17.13 0 0 0 13.03-.565 16.98 16.98 0 0 0 8.81-9.558l32.225-88.013a16.85 16.85 0 0 0-.569-12.952 17 17 0 0 0-9.615-8.758 17.13 17.13 0 0 0-13.03.565 16.98 16.98 0 0 0-8.81 9.558Z"/></svg>