<svg xmlns="http://www.w3.org/2000/svg" width="192" height="192" fill="none"><path stroke="#000" stroke-linecap="round" stroke-linejoin="round" stroke-width="10" d="M79 98V56l34 42V56"/><path stroke="#000" stroke-linecap="round" stroke-linejoin="round" stroke-width="12" d="M41.91 92.301c6.126 18.805 37.524 60.116 49.47 75.429a5.84 5.84 0 0 0 9.242 0c11.945-15.313 43.342-56.624 49.468-75.429m.002.004a55.7 55.7 0 0 0 .832-25.35 55.8 55.8 0 0 0-10.496-23.104 56 56 0 0 0-19.66-16.091 56.12 56.12 0 0 0-49.536 0 56 56 0 0 0-19.66 16.09 55.8 55.8 0 0 0-10.496 23.104 55.7 55.7 0 0 0 .832 25.351"/></svg>