<svg xmlns="http://www.w3.org/2000/svg" width="192" height="192" fill="none"><path stroke="#000" stroke-linecap="round" stroke-width="12" d="M22 150h148"/><path stroke="#000" stroke-linecap="round" stroke-linejoin="round" stroke-width="12" d="M79.102 124c3.988-17.497-3.49-28.495 1.994-35.994C90.568 87.506 100.538 117.5 113 124c-2.991-22.496 0-35.994 0-35.994"/><path stroke="#000" stroke-linecap="round" stroke-width="12" d="M166 128a69.993 69.993 0 0 0-76.861-69.663A70 70 0 0 0 26 128"/><path stroke="#000" stroke-linecap="round" stroke-width="12" d="M115.924 58.743a20 20 0 0 0-5.226-15.306 20 20 0 0 0-22.913-4.673A20 20 0 0 0 76.102 59.02"/></svg>