<svg xmlns="http://www.w3.org/2000/svg" width="192" height="192" fill="none"><path stroke="#000" stroke-linecap="round" stroke-linejoin="round" stroke-width="12" d="M38.751 63.81c4.193-18.588 27.195-25.18 40.532-11.616l28.945 29.437c8.587 8.734 7.441 23.085-2.423 30.334L49.1 153.64c-12.697 9.331-30.126-2.15-26.65-17.556z"/><path stroke="#000" stroke-linecap="round" stroke-linejoin="round" stroke-width="12" d="m94.5 121.279 18.217 18.527c13.337 13.564 36.339 6.972 40.532-11.616l16.302-72.274C173.026 40.51 155.597 29.03 142.9 38.36L99.5 70.256"/><circle cx="61" cy="66" r="3" stroke="#000" stroke-linecap="round" stroke-linejoin="round" stroke-width="6"/><circle cx="131" cy="124" r="3" stroke="#000" stroke-linecap="round" stroke-linejoin="round" stroke-width="6"/><circle cx="56" cy="87" r="3" stroke="#000" stroke-linecap="round" stroke-linejoin="round" stroke-width="6"/><circle cx="136" cy="103" r="3" stroke="#000" stroke-linecap="round" stroke-linejoin="round" stroke-width="6"/><circle cx="51" cy="108" r="3" stroke="#000" stroke-linecap="round" stroke-linejoin="round" stroke-width="6"/><circle cx="141" cy="82" r="3" stroke="#000" stroke-linecap="round" stroke-linejoin="round" stroke-width="6"/><circle cx="46" cy="129" r="3" stroke="#000" stroke-linecap="round" stroke-linejoin="round" stroke-width="6"/><circle cx="146" cy="61" r="3" stroke="#000" stroke-linecap="round" stroke-linejoin="round" stroke-width="6"/></svg>