<svg xmlns="http://www.w3.org/2000/svg" width="192" height="192" fill="none"><path stroke="#000" stroke-linejoin="round" stroke-width="12" d="M126.177 51.433c-2.223-2.36-4.78-3.99-7.629-4.69-7.872-1.934-17.273.004-26.371 4.69m34 0c9.098-4.686 18.499-6.624 26.371-4.69 23.14 5.685 27.058 72.683-11.72 94.764-13.136 6.665-24.628 5.388-33.346-.378m18.695-89.696c-15.461 7.964-30.045 23.869-34.75 42.211-4.604 17.95 2.245 38.35 16.055 47.485M92.177 51.433c-2.223-2.36-4.78-3.99-7.63-4.69-21.247-5.22-53.646 17.766-61.12 46.901-7.51 29.281 15.457 65.084 49.401 47.863q.33-.187.654-.378m18.695-89.696c-15.461 7.964-30.045 23.869-34.75 42.211-4.604 17.95 2.245 38.35 16.055 47.485m34 0a70 70 0 0 1-.654.378c-13.136 6.665-24.628 5.388-33.346-.378"/></svg>