<svg xmlns="http://www.w3.org/2000/svg" width="192" height="192" fill="none"><path stroke="#000" stroke-linecap="round" stroke-linejoin="round" stroke-width="12" d="M45.4 170q-.399-4.449-.4-9c0-55.228 44.772-100 100-100 8.632 0 17.01 1.094 25 3.15m-44 79.635A24 24 0 0 1 93.215 135"/><path stroke="#000" stroke-linecap="round" stroke-linejoin="round" stroke-width="12" d="M111 114.928A7.996 7.996 0 0 1 100.072 112M142 124.928A7.996 7.996 0 0 1 131.072 122M22 43.681C22 57.112 32.996 68 46.56 68 59.297 68 69.77 58.4 71 46.11a24.66 24.66 0 0 1-11.136 2.638c-13.564 0-24.56-10.888-24.56-24.32q0-1.23.12-2.428C27.458 26.02 22 34.22 22 43.681"/></svg>