<svg xmlns="http://www.w3.org/2000/svg" width="192" height="192" fill="none" viewBox="0 0 192 192"><path stroke="#000" stroke-linejoin="round" stroke-width="12" d="m22 68 74 45m74-45-74 45m0 0v54m74-43V68L96 23 22 68v56l74 45z"/><path stroke="#000" stroke-linecap="round" stroke-width="10" d="M104 51.5c-1.496 1.782-4.517 2.5-8 2.5s-6.504-.718-8-2.5m44 16c-1.496 1.188-4.517 2.5-8 2.5s-6.504-1.312-8-2.5m-40 0c-1.496 1.782-4.517 2.5-8 2.5s-6.504-.718-8-2.5m44 17c-1.496 1.188-4.517 2.5-8 2.5s-6.504-1.312-8-2.5"/></svg>