<svg xmlns="http://www.w3.org/2000/svg" width="192" height="192" fill="none" viewBox="0 0 192 192"><path stroke="#000" stroke-linejoin="round" stroke-width="12" d="m26.757 29.243 2.486-2.486A6 6 0 0 1 33.485 25h125.03a6 6 0 0 1 4.242 1.757l2.486 2.486A6 6 0 0 1 167 33.485v125.03a6 6 0 0 1-1.757 4.242l-2.486 2.486a6 6 0 0 1-4.242 1.757H33.485a6 6 0 0 1-4.242-1.757l-2.486-2.486A6 6 0 0 1 25 158.515V33.485a6 6 0 0 1 1.757-4.242Z"/><circle cx="45" cy="45" r="3" stroke="#000" stroke-width="6"/><circle cx="45" cy="147" r="3" stroke="#000" stroke-width="6"/><circle cx="147" cy="45" r="3" stroke="#000" stroke-width="6"/><circle cx="147" cy="147" r="3" stroke="#000" stroke-width="6"/><path stroke="#000" stroke-width="12" d="M78 53h-9.515a6 6 0 0 0-4.242 1.757l-4.486 4.486A6 6 0 0 0 58 63.485V73a6 6 0 0 0 6 6h8a6 6 0 0 0 6-6zm0 0h36m0 0h9.515a6 6 0 0 1 4.242 1.757l4.486 4.486A6 6 0 0 1 134 63.485v20.03a6 6 0 0 1-1.757 4.242l-4.486 4.486A6 6 0 0 1 123.515 94H114m0-41v41m0 0H96.485a6 6 0 0 0-4.242 1.757l-4.486 4.486A6 6 0 0 0 86 104.485V113a6 6 0 0 0 6 6h8a6 6 0 0 0 6-6V94"/><path stroke="#000" stroke-linecap="round" stroke-width="12" d="M86 139h20"/></svg>