<svg xmlns="http://www.w3.org/2000/svg" width="192" height="192" fill="none"><path stroke="#000" stroke-linecap="round" stroke-linejoin="round" stroke-width="12" d="m88 22-.259.456m0 0L70.372 53.058C77.867 48.576 86.632 46 96 46a50 50 0 0 1 8.016.64l12.37-21.796A74 74 0 0 0 96 22c-2.792 0-5.547.155-8.259.456M170 96c0 40.869-33.131 74-74 74-39.24 0-71.346-30.542-73.844-69.15l24.517-13.076A50.4 50.4 0 0 0 46 96c0 27.614 22.386 50 50 50s50-22.386 50-50c0-13.9-5.673-26.477-14.829-35.539l12.13-21.372C159.615 52.663 170 73.119 170 96"/></svg>