<svg xmlns="http://www.w3.org/2000/svg" width="192" height="192" fill="none"><path stroke="#000" stroke-linecap="round" stroke-linejoin="round" stroke-width="12" d="M22 65v76a6 6 0 0 0 6 6h56m86-60v54a6 6 0 0 1-6 6h-56M96 58v77"/><circle cx="170" cy="65" r="3" stroke="#000" stroke-linecap="round" stroke-linejoin="round" stroke-width="6"/><path stroke="#000" stroke-linecap="round" stroke-linejoin="round" stroke-width="12" d="M108 147c0-3.183-1.264-6.235-3.515-8.485a11.996 11.996 0 0 0-16.97 0A12 12 0 0 0 84 147"/><path stroke="#000" stroke-linecap="round" stroke-linejoin="round" stroke-width="12" d="M96 57.897C76 36.868 44 47.883 44 47.883v77.104S78 114.973 96 135c18-20.027 52-10.013 52-10.013V47.883s-32-11.015-52 10.014"/></svg>