<svg xmlns="http://www.w3.org/2000/svg" width="192" height="192" fill="none"><path stroke="#000" stroke-linecap="round" stroke-linejoin="round" stroke-width="12" d="M86.158 24.696 39.57 52.262C33.64 55.77 30 62.172 30 69.092v53.816c0 6.919 3.64 13.322 9.57 16.83l46.588 27.566a19.31 19.31 0 0 0 19.684 0l46.588-27.566c5.929-3.508 9.57-9.911 9.57-16.83V69.092c0-6.92-3.641-13.322-9.57-16.83l-46.588-27.566a19.31 19.31 0 0 0-19.684 0"/><path stroke="#000" stroke-linecap="round" stroke-linejoin="round" stroke-width="12" d="M88.161 69.575c1.46-3.104 5.173-4.442 8.292-2.987l21.958 10.241c3.116 1.453 4.459 5.144 3 8.246l-17.572 37.351c-1.46 3.103-5.173 4.441-8.292 2.986L73.59 115.171c-3.116-1.453-4.459-5.144-3-8.246l17.572-37.35Z"/></svg>