<svg xmlns="http://www.w3.org/2000/svg" width="192" height="192" fill="none"><circle cx="96" cy="138" r="6" stroke="#000" stroke-linecap="round" stroke-linejoin="round" stroke-width="12"/><path stroke="#000" stroke-linecap="round" stroke-linejoin="round" stroke-width="12" d="M96 78c2.986 0 5.913-.784 8.449-2.262s4.58-3.593 5.901-6.104a14.2 14.2 0 0 0 1.573-8.104c-.293-2.787-1.411-5.44-3.229-7.661-1.818-2.222-4.263-3.921-7.058-4.908a17 17 0 0 0-8.757-.673c-2.93.546-5.637 1.85-7.817 3.764s-3.744 4.361-4.517 7.066"/><path stroke="#000" stroke-linecap="round" stroke-linejoin="round" stroke-width="12" d="M80.545 96.882c.773 2.705 2.338 5.152 4.517 7.066s4.888 3.218 7.817 3.764a17 17 0 0 0 8.757-.673c2.795-.987 5.24-2.686 7.058-4.908 1.818-2.22 2.936-4.874 3.229-7.66a14.2 14.2 0 0 0-1.573-8.105c-1.321-2.511-3.365-4.626-5.901-6.104A16.8 16.8 0 0 0 96 78"/><path stroke="#000" stroke-linecap="round" stroke-linejoin="round" stroke-width="12" d="M41 28a6 6 0 0 1 6-6h98a6 6 0 0 1 6 6v136a6 6 0 0 1-6 6H47a6 6 0 0 1-6-6z"/></svg>