<svg xmlns="http://www.w3.org/2000/svg" width="192" height="192" fill="none"><path stroke="#000" stroke-linecap="round" stroke-linejoin="round" stroke-width="10" d="M105.659 93A10 10 0 0 1 96 100.412 10 10 0 0 1 86.34 93m47.319-19A10 10 0 0 1 124 81.412 10 10 0 0 1 114.341 74m-36.682 0a10 10 0 0 1-19.318 0m47.318-19A10 10 0 0 1 96 62.412 10 10 0 0 1 86.34 55"/><path stroke="#000" stroke-linecap="round" stroke-linejoin="round" stroke-width="12" d="m170 76-74 54m74-54L96 22 22 76m148 0v40l-74 54m0-40L22 76m74 54v40M22 76v40l74 54"/></svg>