<svg xmlns="http://www.w3.org/2000/svg" width="192" height="192" fill="none" viewBox="0 0 192 192"><path stroke="#000" stroke-linejoin="round" stroke-width="12" d="M153.722 126.594C150.682 118.087 142.552 112 133 112c-8.616 0-16.075 4.953-19.685 12.166A16 16 0 0 0 111 124c-8.837 0-16 7.163-16 16s7.163 16 16 16h7.365m35.357-29.406a22 22 0 0 1 1.265 8.161A11 11 0 0 1 159 134c6.075 0 11 4.925 11 11s-4.925 11-11 11h-40.635m35.357-29.406.123-1.54a15.3 15.3 0 0 1 3.602-8.696l8.902-10.446a15.28 15.28 0 0 0 0-19.824l-8.902-10.446a15.3 15.3 0 0 1-3.602-8.696l-1.092-13.682a15.28 15.28 0 0 0-14.017-14.017l-13.682-1.092a15.3 15.3 0 0 1-8.696-3.602l-10.446-8.902a15.28 15.28 0 0 0-19.824 0l-10.446 8.902a15.3 15.3 0 0 1-8.696 3.602l-13.682 1.092a15.28 15.28 0 0 0-14.017 14.017l-1.092 13.681a15.3 15.3 0 0 1-3.602 8.697L25.65 86.088a15.28 15.28 0 0 0 0 19.824l8.902 10.446a15.3 15.3 0 0 1 3.602 8.696l1.092 13.682a15.28 15.28 0 0 0 14.017 14.017l13.681 1.092a15.3 15.3 0 0 1 8.697 3.602l10.446 8.902a15.28 15.28 0 0 0 19.824 0l10.446-8.902a15.4 15.4 0 0 1 2.007-1.447"/></svg>