<svg xmlns="http://www.w3.org/2000/svg" width="192" height="192" fill="none"><path stroke="#000" stroke-linecap="round" stroke-linejoin="round" stroke-width="12" d="M38 64.286C38 43.143 55.781 22 95.295 22s56.308 24.987 56.308 24.987c6.913 9.65-1.977 21.104-15.806 19.22-13.828-1.882-16.793-19.22-40.502-19.22-15.805 0-25.684 7.688-25.684 16.338 0 13.454 25.684 18.26 25.684 18.26 43.466 12.493 57.295 24.986 57.295 46.129S134.809 170 95.295 170 45.89 145.013 45.89 145.013c-4.941-9.649 2.963-22.104 15.805-19.221s9.89 19.221 33.599 19.221c15.805 0 23.712-7.688 23.712-16.338 0-12.454-23.712-18.259-23.712-18.259C51.83 97.922 38 85.429 38 64.286"/></svg>