<svg xmlns="http://www.w3.org/2000/svg" width="192" height="192" fill="none"><path stroke="#000" stroke-linecap="round" stroke-linejoin="round" stroke-width="12" d="M74.003 136.6C67.25 130.557 63 121.775 63 112c0-18.228 14.774-33.003 33-33.003S129 93.773 129 112s-14.773 33-33 33m-10.999-33L96 101v43.428"/><path stroke="#000" stroke-linecap="round" stroke-linejoin="round" stroke-miterlimit="12" stroke-width="12" d="M139 47v19.998M53 47.001v19.997M25 57h142m-26-32H51c-14.36 0-26 11.64-26 26v90c0 14.359 11.64 26 26 26h90c14.359 0 26-11.641 26-26V51c0-14.36-11.641-26-26-26"/></svg>