<svg xmlns="http://www.w3.org/2000/svg" width="192" height="192" fill="none"><circle cx="96" cy="38" r="16" stroke="#000" stroke-linecap="round" stroke-linejoin="round" stroke-width="12"/><path stroke="#000" stroke-linecap="round" stroke-linejoin="round" stroke-width="12" d="M112 92a16 16 0 0 0-16-16 16 16 0 0 0-16 16M22 28a6 6 0 0 1 6-6h20a6 6 0 0 1 6 6v136a6 6 0 0 1-6 6H28a6 6 0 0 1-6-6zm116 128.934c19.332-13.35 32-35.663 32-60.934s-12.668-47.584-32-60.934zM80 92v72a6 6 0 0 0 6 6h20a6 6 0 0 0 6-6V92"/></svg>