<svg xmlns="http://www.w3.org/2000/svg" width="192" height="192" fill="none"><path stroke="#000" stroke-linecap="round" stroke-linejoin="round" stroke-width="12" d="M108.82 62.684c3.8 2.744 7.563 5.645 9.338 6.932a17.816 17.816 0 0 0 23.36-2.143 17.73 17.73 0 0 0 4.872-11.521 17.68 17.68 0 0 0-3.956-11.85C130.655 30.442 114.242 21.981 96.08 22 60.182 22.039 31.044 55.201 31 96.07a85 85 0 0 0 .76 11.444m77.06-44.83c-3.676-2.654-7.386-5.162-9.367-5.92a17.83 17.83 0 0 0-12.532-.081 17.78 17.78 0 0 0-9.477 8.183 17.7 17.7 0 0 0-1.718 12.386 17.75 17.75 0 0 0 6.894 10.442c1.746 1.266 7.634 4.602 13.521 7.938m12.679-32.948 5.242-13.625m-5.242 13.625L96.141 95.632m-12.77 33.188c-5.415-3.556-11.368-7.576-13.681-8.461a17.82 17.82 0 0 0-12.532-.081 17.78 17.78 0 0 0-9.477 8.183 17.7 17.7 0 0 0-1.718 12.386c.952 4.2 5.087 8.695 6.847 10.563 11.463 11.583 26.56 18.608 43.11 18.59 35.899-.039 65.036-33.201 65.08-74.07a85 85 0 0 0-.659-10.668m-76.97 43.558c4.02 2.64 7.742 5.024 9.459 5.681a17.83 17.83 0 0 0 12.532.081 17.8 17.8 0 0 0 9.477-8.183 17.72 17.72 0 0 0 1.717-12.387 17.74 17.74 0 0 0-6.893-10.441c-1.746-1.266-7.634-4.602-13.522-7.939m-12.77 33.188 12.77-33.188m-12.77 33.188-5.433 14.121"/></svg>