<svg xmlns="http://www.w3.org/2000/svg" width="192" height="192" fill="none"><path stroke="#000" stroke-width="12" d="M96 170c40.869 0 74-33.131 74-74s-33.131-74-74-74-74 33.13-74 74 33.13 74 74 74Z"/><path stroke="#000" stroke-linejoin="round" stroke-width="10" d="M70.882 70.993c-20.78 20.872-29.38 49.213-25.987 76.337 27.138 3.274 55.442-5.45 76.222-26.322 20.782-20.874 29.382-49.214 25.989-76.338-27.139-3.274-55.443 5.45-76.224 26.323Z"/><path stroke="#000" stroke-linejoin="round" stroke-width="10" d="M121.007 70.882c-20.872-20.78-49.213-29.38-76.337-25.987-3.274 27.138 5.45 55.442 26.322 76.222 20.873 20.782 49.214 29.382 76.338 25.989 3.274-27.139-5.45-55.443-26.323-76.224Z"/></svg>