<svg xmlns="http://www.w3.org/2000/svg" width="192" height="192" fill="none"><path stroke="#000" stroke-linecap="round" stroke-linejoin="round" stroke-width="12" d="M121 25h25a21 21 0 0 1 21 21v100c0 5.57-2.212 10.911-6.151 14.849A21 21 0 0 1 146 167H46a20.997 20.997 0 0 1-21-21V46a21 21 0 0 1 21-21h25a6.82 6.82 0 0 1 5.027 2.211L96 49l19.973-21.789A6.83 6.83 0 0 1 121 25"/><path stroke="#000" stroke-linecap="round" stroke-linejoin="round" stroke-width="12" d="M74 67v24H53l41 52 45-52h-21V67L96 91z"/></svg>