<svg xmlns="http://www.w3.org/2000/svg" width="192" height="192" fill="none"><path stroke="#000" stroke-linecap="round" stroke-linejoin="round" stroke-width="12" d="M42.348 137.5C35.185 125.665 31 111.38 31 96c0-11.66 2.405-22.69 6.69-32.5M72.5 164.734a60.2 60.2 0 0 0 13.5 4.243M57.5 36.71C68.513 27.472 82.187 22 97 22c36.451 0 66 33.13 66 74 0 21.039-7.831 40.027-20.402 53.5"/><path stroke="#000" stroke-linecap="round" stroke-linejoin="round" stroke-width="12" d="M63.923 123C59.554 115.307 57 106.012 57 96c0-7.531 1.445-14.657 4.021-21M72.56 58C79.318 51.73 87.796 48 97 48c22.091 0 40 21.49 40 48 0 8.333-1.77 16.17-4.882 23M78.26 156.969c-6.604 11.444-19.686 16.258-29.218 10.752s-11.907-19.246-5.302-30.69c6.604-11.444 19.686-16.258 29.218-10.752s11.907 19.246 5.302 30.69"/><path stroke="#000" stroke-linecap="round" stroke-linejoin="round" stroke-width="12" d="M68.888 47.631c5.586 9.418 3.447 20.8-4.775 25.422s-19.416.734-25.002-8.684-3.447-20.8 4.776-25.422 19.416-.734 25.001 8.684"/><path stroke="#000" stroke-linecap="round" stroke-linejoin="round" stroke-width="12" d="M22 56s3-11 15-10m35 79s35.396-19.26 63-18.346M154 170s29-9 7-51m-7 51c-10-24-26-31-26-31l-3 4-19-10-4 23 21 10.5-2 3.5"/></svg>