<svg xmlns="http://www.w3.org/2000/svg" width="192" height="192" fill="none"><path stroke="#000" stroke-linecap="round" stroke-linejoin="round" stroke-width="12" d="M50 78 22 94l28 16m92 0 28-16-28-16m-30 31c0-6-4-15-19-15s-19 9-19 15m38-18v24a6 6 0 0 0 6 6h4"/><path stroke="#000" stroke-linecap="round" stroke-linejoin="round" stroke-width="12" d="M86 121c26 0 26-24 26-24m0-6c0-3.51-1.017-6.96-2.947-10s-4.709-5.565-8.053-7.32C97.656 71.924 93.862 71 90 71s-7.656.924-11 2.68M74 109a12 12 0 0 0 12 12"/></svg>