<svg xmlns="http://www.w3.org/2000/svg" width="192" height="192" fill="none"><path stroke="#000" stroke-linecap="round" stroke-linejoin="round" stroke-width="10" d="M96 78c9.941 0 18-8.059 18-18s-8.059-18-18-18-18 8.059-18 18 8.059 18 18 18"/><path stroke="#000" stroke-linecap="round" stroke-linejoin="round" stroke-width="12" d="M34 82h-5a6 6 0 0 0-6 6v76a6 6 0 0 0 6 6h134a6 6 0 0 0 4.243-1.757A6 6 0 0 0 169 164V88a6 6 0 0 0-6-6h-5"/><path stroke="#000" stroke-linecap="round" stroke-linejoin="round" stroke-width="10" d="M126 150H66"/><path stroke="#000" stroke-linecap="round" stroke-linejoin="round" stroke-width="12" d="M136 79.674V28a6 6 0 0 0-6-6H62a6 6 0 0 0-6 6v51.674a6 6 0 0 0 2.82 5.088l34 21.251a6 6 0 0 0 6.36 0l34-21.25a6 6 0 0 0 2.82-5.089"/><path stroke="#000" stroke-linecap="round" stroke-linejoin="round" stroke-width="8" d="M48 109a4 4 0 1 0 0-8 4 4 0 0 0 0 8m96 0a4 4 0 1 0 0-8 4 4 0 0 0 0 8m-96 24a4 4 0 1 0 0-8 4 4 0 0 0 0 8m48 0a4 4 0 1 0 0-8 4 4 0 0 0 0 8m48 0a4 4 0 1 0 0-8 4 4 0 0 0 0 8m-24 0a4 4 0 1 0 0-8 4 4 0 0 0 0 8m-48 0a4 4 0 1 0 0-8 4 4 0 0 0 0 8"/></svg>