<svg xmlns="http://www.w3.org/2000/svg" width="192" height="192" fill="none"><circle cx="157" cy="42" r="13" stroke="#000" stroke-linecap="round" stroke-linejoin="round" stroke-width="12"/><path stroke="#000" stroke-linecap="round" stroke-linejoin="round" stroke-width="12" d="m117.069 41.102 49.672 85.592a24.1 24.1 0 0 1 2.43 18.366 24.22 24.22 0 0 1-11.335 14.697 24.44 24.44 0 0 1-18.462 2.418 24.3 24.3 0 0 1-14.772-11.277L96 101.612m21.069-60.51a24.3 24.3 0 0 0-8.905-8.86 24.45 24.45 0 0 0-18.46-2.418 24.4 24.4 0 0 0-8.514 4.178 24.2 24.2 0 0 0-6.26 7.1l-49.67 85.592a24.1 24.1 0 0 0-2.431 18.366 24.22 24.22 0 0 0 11.335 14.697 24.44 24.44 0 0 0 18.462 2.418 24.3 24.3 0 0 0 14.772-11.277L96 101.612m21.069-60.51a24.08 24.08 0 0 1 0 24.204L96 101.612"/></svg>