<svg xmlns="http://www.w3.org/2000/svg" width="192" height="192" fill="none"><path stroke="#000" stroke-linecap="round" stroke-linejoin="round" stroke-miterlimit="32" stroke-width="12" d="M117.543 153.629A65.3 65.3 0 0 1 87.306 161C51.238 161 22 131.899 22 96s29.238-65 65.306-65A65.22 65.22 0 0 1 129 45.972"/><path stroke="#000" stroke-linecap="round" stroke-linejoin="round" stroke-width="12" d="M92.748 94.913a3.825 3.825 0 0 0 2.161-3.902 19 19 0 0 1-.127-2.215c0-10.374 8.361-18.796 18.667-18.796 6.128 0 11.566 2.976 14.973 7.571a3.79 3.79 0 0 0 3.224 1.533 15.13 15.13 0 0 1 10.197 3.315 15.22 15.22 0 0 1 5.317 8.524 3.8 3.8 0 0 0 1.657 2.371c.842.54 1.862.726 2.839.514a15.2 15.2 0 0 1 3.198-.339 15.15 15.15 0 0 1 10.718 4.482A15.27 15.27 0 0 1 170 108.745a15.27 15.27 0 0 1-4.428 10.774A15.15 15.15 0 0 1 154.854 124H99.146a15.15 15.15 0 0 1-10.718-4.481A15.27 15.27 0 0 1 84 108.745a15.28 15.28 0 0 1 8.744-13.828"/></svg>