<svg xmlns="http://www.w3.org/2000/svg" width="192" height="192" fill="none"><ellipse cx="42" cy="96" stroke="#000" stroke-linecap="round" stroke-linejoin="round" stroke-width="12" rx="20" ry="22"/><path stroke="#000" stroke-linecap="round" stroke-linejoin="round" stroke-width="12" d="M83.393 113.778c2.607 1.222 8.77 3.586 11.68 4.011 2.91.424 5.926.206 8.667-.626 2.741-.833 5.084-2.243 6.732-4.052S113 109.176 113 107c0-9-10-10.5-15-11s-15-2-15-11c0-2.176.88-4.302 2.528-6.111s3.99-3.22 6.732-4.052c2.74-.832 5.757-1.05 8.666-.626S110 77 112.607 78.221M170 100a18 18 0 0 1-5.272 12.728 18.01 18.01 0 0 1-19.616 3.902 18 18 0 0 1-5.84-3.902A18 18 0 0 1 134 100m0-25v25m36-25v25m-13.768-47C142.809 34.232 120.833 22 96 22S49.19 34.232 35.768 53m0 86C49.191 157.768 71.167 170 96 170s46.809-12.232 60.232-31"/></svg>