<svg xmlns="http://www.w3.org/2000/svg" width="192" height="192" fill="none"><path stroke="#000" stroke-linecap="round" stroke-linejoin="round" stroke-width="12" d="M36 28v136a6 6 0 0 0 6 6h26a6 6 0 0 0 6-6v-26a6 6 0 0 1 6-6h25a55.003 55.003 0 0 0 55-55 55 55 0 0 0-55-55H42a6 6 0 0 0-6 6"/><path stroke="#000" stroke-linecap="round" stroke-linejoin="round" stroke-width="10" d="M73.5 152.835c-1.377-.314-2.684-.825-3.709-2.118-1.942-2.447-.794-5.07-2.736-7.517-2.747-3.461-7.507-1.321-10.254-4.782-1.942-2.447-.794-5.07-2.736-7.517-2.746-3.461-7.507-1.321-10.254-4.781-1.942-2.448-.794-5.071-2.736-7.518-1.116-1.406-2.564-1.888-4.075-2.196m60.791 14.311c-1.942-2.447-.794-5.07-2.736-7.517-2.747-3.461-7.507-1.321-10.254-4.782-1.942-2.447-.794-5.07-2.736-7.517-2.746-3.461-7.507-1.321-10.254-4.781-1.942-2.448-.794-5.071-2.736-7.518-2.746-3.46-7.507-1.32-10.254-4.781-1.942-2.448-.794-5.07-2.736-7.518-2.746-3.46-7.507-1.32-10.254-4.781-1.942-2.448-.794-5.07-2.736-7.518-1.365-1.72-3.229-2.057-5.095-2.385m7.116-42.213c1.942 2.448.794 5.07 2.736 7.518 2.746 3.46 7.507 1.32 10.254 4.781 1.942 2.448.794 5.07 2.736 7.518 2.746 3.46 7.507 1.32 10.253 4.781 1.942 2.447.794 5.07 2.737 7.518 2.746 3.46 7.507 1.32 10.253 4.781 1.942 2.447.794 5.07 2.737 7.518 2.746 3.46 7.507 1.32 10.253 4.781 1.942 2.447.794 5.07 2.736 7.518 2.747 3.46 7.508 1.32 10.254 4.781 1.942 2.447.794 5.07 2.736 7.517 2.747 3.461 7.507 1.321 10.254 4.782 1.942 2.447.794 5.07 2.736 7.517 2.747 3.461 7.507 1.321 10.254 4.782M86.106 21.705c1.942 2.448.794 5.07 2.736 7.518 2.746 3.46 7.507 1.32 10.253 4.781 1.942 2.448.794 5.07 2.736 7.518 2.747 3.46 7.508 1.32 10.254 4.781 1.942 2.447.794 5.07 2.736 7.518 2.747 3.46 7.508 1.32 10.254 4.781 1.942 2.447.794 5.07 2.736 7.518 2.747 3.46 7.507 1.32 10.254 4.781 1.942 2.447.794 5.07 2.736 7.517 2.747 3.461 7.507 1.321 10.254 4.782 1.942 2.447.794 5.07 2.736 7.517 1.025 1.293 2.332 1.804 3.709 2.118"/></svg>