<svg xmlns="http://www.w3.org/2000/svg" width="192" height="192" fill="none"><path stroke="#000" stroke-linecap="round" stroke-linejoin="round" stroke-width="12" d="M144 109v55a6 6 0 0 1-6 6H83m82.303-147.166C121.346 16.276 112 49.957 112 68.96c25.005 9.44 55.545-2.855 57.988-40.36.186-2.843-1.86-5.345-4.685-5.766M108 109v19a6 6 0 0 1-6 6H83"/><path stroke="#000" stroke-linecap="round" stroke-linejoin="round" stroke-width="12" d="M144 109a61 61 0 0 0-12.125-36.5M83 170a61.01 61.01 0 0 1-56.357-37.656A61.002 61.002 0 0 1 71.1 49.172 61 61 0 0 1 111.373 55"/><path stroke="#000" stroke-linecap="round" stroke-linejoin="round" stroke-width="12" d="M108 109a25 25 0 1 0-25 25"/></svg>