<svg xmlns="http://www.w3.org/2000/svg" width="192" height="192" fill="none"><path stroke="#000" stroke-linecap="round" stroke-linejoin="round" stroke-width="12.001" d="M126.864 26.97c6.788 3.491 17.65 15.128 21.619 23.274 9.295 18.62 10.026 41.365 1.88 55.435-5.849 10.156-17.86 19.36-29.139 22.428-10.862 2.962-17.233 1.269-25.902-6.771-3.342-3.174-6.266-5.607-6.37-5.395l-4.387 8.886c-11.906 24.438-28.617 40.836-45.118 44.433L36 170l3.655-8.569c7.416-17.773 10.027-29.622 12.533-58.291 2.82-32.584 9.713-53.319 22.246-66.86 5.953-6.454 12.01-9.945 21.41-12.483 10.574-3.41 21.265-1.753 31.02 3.173"/></svg>