<svg xmlns="http://www.w3.org/2000/svg" width="192" height="192" fill="none"><path stroke="#000" stroke-linecap="round" stroke-linejoin="round" stroke-width="12" d="M112 142V84a6 6 0 0 1 6-6h8c6.627 0 12 5.373 12 12v12c0 6.627-5.373 12-12 12h-14"/><circle cx="96" cy="96" r="74" stroke="#000" stroke-linecap="round" stroke-linejoin="round" stroke-width="12"/><path stroke="#000" stroke-linecap="round" stroke-linejoin="round" stroke-width="10" d="m86.5 47.742-1.964 9.238 8.18 4.723-9.393.987-1.964 9.239-3.842-8.629-9.393.988 7.019-6.32-3.842-8.629 8.18 4.723zM54 79l2.245 6.91h7.266l-5.878 4.27 2.245 6.91L54 92.82l-5.878 4.27 2.245-6.91-5.878-4.27h7.266zm4 37 1.347 4.146h4.36l-3.527 2.562 1.347 4.146L58 124.292l-3.527 2.562 1.347-4.146-3.526-2.562h4.359z"/></svg>