<svg xmlns="http://www.w3.org/2000/svg" width="192" height="192" fill="none"><path stroke="#000" stroke-linecap="round" stroke-linejoin="round" stroke-width="12" d="M105.911 135.911c10.005-10.004 7.41-28.82-5.796-42.026s-32.022-15.8-42.026-5.796m47.822 47.822c-10.004 10.005-28.82 7.41-42.026-5.796s-15.8-32.022-5.796-42.026m47.822 47.822C90 152 26 170 26 170s16-66 32.089-81.911"/><path stroke="#000" stroke-linecap="round" stroke-linejoin="round" stroke-width="10" d="M89 21s-22 4-22 20 13 23 21 23 14-5 14-11-5-10-11-10c-17 0-17 17-17 21 0 8 12 22-2 39m86-71s14 28 1 34-28-14-37-7 6 18 1 27-24-3-28 17m-7 18c14 4 16-5 27-5 14 0 15 20 29 16s2-30 24-34"/></svg>