<svg xmlns="http://www.w3.org/2000/svg" width="192" height="192" fill="none"><ellipse cx="86" cy="115" stroke="#000" stroke-linecap="round" stroke-linejoin="round" stroke-width="6" rx="1" ry="3"/><ellipse cx="106" cy="115" stroke="#000" stroke-linecap="round" stroke-linejoin="round" stroke-width="6" rx="1" ry="3"/><path stroke="#000" stroke-linecap="round" stroke-linejoin="round" stroke-width="12" d="M96 95h62l-31-36.5M96 95H34l31-36.5M96 95l31-36.5M96 95 65 58.5m0 0L96 22l31 36.5m-62 0h62m7 43.5a38.001 38.001 0 0 1-64.87 26.87A38 38 0 0 1 58 102m0-7v7m76-7v7"/><path stroke="#000" stroke-linecap="round" stroke-linejoin="round" stroke-width="12" d="M96 140c-16 0-10 30-23 30m0-37c-29 7.771-8 25-31 31m77-31c29 7.771 8 25 31 31m-54-24c16 0 10 30 23 30"/></svg>