<svg xmlns="http://www.w3.org/2000/svg" width="192" height="192" fill="none"><path stroke="#000" stroke-linecap="round" stroke-linejoin="round" stroke-width="12" d="M96 126c-20 0-13-23-13-23m8-81c0 36-53 44-53 90m53-90c16 0 16 26 16 34s1 26 19 26c13 0 15-13 15-13s13 15 13 43"/><path stroke="#000" stroke-linecap="round" stroke-linejoin="round" stroke-width="12" d="M83 103c-25 11-31 67 13 67"/><path stroke="#000" stroke-linecap="round" stroke-linejoin="round" stroke-width="12" d="M154 112a57.997 57.997 0 0 1-58 58 57.995 57.995 0 0 1-53.585-35.804A58 58 0 0 1 38 112"/><path stroke="#000" stroke-linecap="round" stroke-linejoin="round" stroke-width="12" d="M96 170c6.896 0 13.509-2.318 18.385-6.444S122 153.835 122 148s-2.739-11.431-7.615-15.556C109.509 128.318 102.896 126 96 126"/></svg>