<svg xmlns="http://www.w3.org/2000/svg" width="192" height="192" fill="none" viewBox="0 0 192 192"><path stroke="#000" stroke-linecap="round" stroke-linejoin="round" stroke-width="12" d="M61.851 96c0-9.666-1.62-19.216-3.387-26.76C56.339 60.171 54 54 54 54s6.172 2.34 15.24 4.464C76.783 60.232 86.333 61.85 96 61.85m-37.536 60.91C56.339 131.828 54 138 54 138s6.172-2.339 15.24-4.464c7.544-1.768 17.094-3.387 26.76-3.387l10.819-23.33L130.149 96c0-9.666 1.619-19.216 3.387-26.76C135.661 60.171 138 54 138 54s-6.172 2.34-15.239 4.464C115.216 60.232 105.666 61.85 96 61.85m0 0 10.819 23.33L130.149 96M96 61.851l-10.819 23.33L61.851 96M96 130.149l-10.819-23.33L61.851 96m0 0c0 9.666-1.62 19.216-3.387 26.761m0-53.522C41.912 84.133 22 96 22 96s19.912 11.867 36.464 26.761m10.775-64.297C84.133 41.912 96 22 96 22s11.867 19.912 26.761 36.464m10.775 10.775C150.088 84.133 170 96 170 96s-3.647 2.173-9.116 5.827c-3.863 2.58-8.635 5.9-13.674 9.713q-1.098.831-2.21 1.692m-75.76 20.304C84.132 150.088 96 170 96 170s2.173-3.647 5.827-9.116c2.581-3.863 5.9-8.635 9.713-13.674q.831-1.098 1.692-2.21"/><path stroke="#000" stroke-linecap="round" stroke-width="12" d="M132.421 133h7.737m0 0h22.105m-22.105 0-4.421 37M128 170h7.737m0 0h22.105m4.421-37H170m-7.737 0-4.421 37m0 0h7.737"/></svg>