<svg xmlns="http://www.w3.org/2000/svg" width="192" height="192" fill="none" viewBox="0 0 192 192"><path stroke="#000" stroke-linejoin="round" stroke-width="12" d="M61.851 96c0-9.666-1.62-19.216-3.387-26.76C56.339 60.171 54 54 54 54s6.172 2.34 15.24 4.464C76.783 60.232 86.333 61.85 96 61.85M130.149 96c0-9.666 1.619-19.216 3.387-26.76C135.661 60.171 138 54 138 54s-6.172 2.34-15.239 4.464C115.216 60.232 105.666 61.85 96 61.85m0 0 10.819 23.33L130.149 96M96 61.851l-10.819 23.33L61.851 96M96 130.149c9.666 0 19.216 1.619 26.761 3.387C131.828 135.661 138 138 138 138s-2.339-6.172-4.464-15.239c-1.768-7.545-3.387-17.095-3.387-26.761m0 0-23.33 10.819L96 130.149m-37.536-7.388C56.339 131.828 54 138 54 138s6.172-2.339 15.24-4.464c7.544-1.768 17.094-3.387 26.76-3.387m0 0-10.819-23.33L61.851 96m0 0c0 9.666-1.62 19.216-3.387 26.761m0-53.522C41.912 84.133 22 96 22 96s19.912 11.867 36.464 26.761m10.775-64.297C84.133 41.912 96 22 96 22s11.867 19.912 26.761 36.464m10.775 10.775C150.088 84.133 170 96 170 96s-19.912 11.867-36.464 26.761m-10.775 10.775C107.867 150.088 96 170 96 170s-11.867-19.912-26.76-36.464"/></svg>