<svg xmlns="http://www.w3.org/2000/svg" width="192" height="192" fill="none"><path stroke="#000" stroke-linecap="round" stroke-linejoin="round" stroke-width="10" d="M32 21a11 11 0 0 1-11 11"/><path stroke="#000" stroke-linecap="round" stroke-linejoin="round" stroke-width="12" d="m133 170-2-9c-2.5-9.5-13-11-24.467-12.148C86.065 147.095 69 125.923 69 105c0-3.256.389-6.42 1.123-9.45-16.2-4.384-32.974-21.573-41.804-31.792m0 0c7.183-5.221 12.468-12.898 14.618-21.798M28.319 63.758A38 38 0 0 1 22 67.478M170 170s-18-18-20-30-1-32.413-1-35c0-2.95-.534-5.195-.952-6.5M76.916 22C70.346 33.358 58.065 41 44 41q-.422 0-.842-.009-.105.487-.22.97c17.844 13.698 40.178 22.377 50.84 26.037A39.9 39.9 0 0 1 109 65c2.74 0 5.077.42 6.5.752"/><path stroke="#000" stroke-linecap="round" stroke-linejoin="round" stroke-width="10" d="M147.617 72.896c3.836 6.71 4.324 14.285 1.898 20.177-1.351 3.285-3.609 6.048-6.695 7.846-8.625 5.028-20.461.632-26.437-9.816-5.682-9.938-4.018-21.772 3.578-27.231q.586-.424 1.22-.791c8.625-5.028 20.461-.633 26.436 9.815"/><path stroke="#000" stroke-linecap="round" stroke-linejoin="round" stroke-width="8" d="M150 94c10 1 22-11 22-11-6 14-21 20-21 20"/><path stroke="#000" stroke-linecap="round" stroke-linejoin="round" stroke-width="10" d="m127 156-19 15m63-25h-17"/><path stroke="#000" stroke-linecap="round" stroke-linejoin="round" stroke-width="6" d="M133.866 84.696c.478-.276.194-1.663-.634-3.098s-1.888-2.374-2.366-2.098-.194 1.663.634 3.098 1.888 2.374 2.366 2.098"/></svg>