<svg xmlns="http://www.w3.org/2000/svg" width="192" height="192" fill="none"><circle cx="123" cy="69" r="17" stroke="#000" stroke-linecap="round" stroke-linejoin="round" stroke-width="12"/><path stroke="#000" stroke-linecap="round" stroke-linejoin="round" stroke-width="12" d="M85 122.5a16.502 16.502 0 0 0-19.719-16.183A16.5 16.5 0 0 0 68.5 139"/><path stroke="#000" stroke-linecap="round" stroke-linejoin="round" stroke-width="12" d="M25 57c0-17.673 14.327-32 32-32h78c17.673 0 32 14.327 32 32v78c0 17.673-14.327 32-32 32H57c-17.673 0-32-14.327-32-32z"/><path stroke="#000" stroke-linecap="round" stroke-linejoin="round" stroke-width="12" d="M53 59a6 6 0 0 1 6-6h20a6 6 0 0 1 6 6v20a6 6 0 0 1-6 6H59a6 6 0 0 1-6-6zm54 60c0-6.627 5.373-12 12-12h8c6.627 0 12 5.373 12 12v8c0 6.627-5.373 12-12 12h-8c-6.627 0-12-5.373-12-12zm-22 3.5V133a6 6 0 0 1-6 6H68.5"/></svg>