<svg xmlns="http://www.w3.org/2000/svg" width="192" height="192" fill="none"><path stroke="#000" stroke-linecap="round" stroke-linejoin="round" stroke-width="12" d="M170 84a62 62 0 0 1-18.159 43.841l-24 24a62.004 62.004 0 0 1-87.682 0 62.003 62.003 0 0 1 0-87.682l24-24A62 62 0 0 1 170 84"/><path stroke="#000" stroke-linecap="round" stroke-linejoin="round" stroke-width="10" d="M65 72h22L72.632 98"/><circle cx="142" cy="66" r="4" stroke="#000" stroke-linecap="round" stroke-linejoin="round" stroke-width="8"/><path stroke="#000" stroke-linecap="round" stroke-linejoin="round" stroke-width="10" d="M125 110h-22s18.742-17 21.295-23.125a10.995 10.995 0 0 0-7.797-14.587 11 11 0 0 0-12.024 5.212m-29.8 20.168a4.38 4.38 0 0 1 4.652 0l4.449 2.788c.455.286.96.485 1.489.588l5.132.998a4.37 4.37 0 0 1 3.436 3.361l1.005 4.658c.12.562.352 1.094.68 1.567l2.705 3.89a4.35 4.35 0 0 1 0 4.964l-2.704 3.89a4.4 4.4 0 0 0-.681 1.567l-1.005 4.658a4.37 4.37 0 0 1-3.436 3.361l-5.132.998a4.4 4.4 0 0 0-1.49.588l-4.448 2.788a4.38 4.38 0 0 1-4.652 0l-4.449-2.788a4.4 4.4 0 0 0-1.489-.588l-5.132-.998a4.37 4.37 0 0 1-3.436-3.361l-1.005-4.658a4.4 4.4 0 0 0-.68-1.567l-2.705-3.89a4.35 4.35 0 0 1 0-4.964l2.704-3.89c.329-.473.56-1.005.681-1.567l1.005-4.658a4.37 4.37 0 0 1 3.436-3.361l5.132-.998a4.4 4.4 0 0 0 1.49-.588z"/></svg>