<svg xmlns="http://www.w3.org/2000/svg" width="192" height="192" fill="none"><path stroke="#000" stroke-linecap="round" stroke-linejoin="round" stroke-width="12" d="M121.614 51.636c18.502-3.942 33.234-1.709 38.472 7.364s-.194 22.948-12.858 37m-25.614-44.364C115.776 33.64 106.476 22 96 22S76.224 33.642 70.386 51.636m51.228 0c2.52 7.769 4.395 16.723 5.44 26.435m-56.668 62.294c-18.502 3.941-33.234 1.708-38.472-7.365s.194-22.948 12.858-37c5.469-6.067 12.285-12.168 20.174-17.93 4.662-3.405 9.7-6.691 15.054-9.783a168 168 0 0 1 16-8.146m0 0a168 168 0 0 1 16 8.146 168 168 0 0 1 15.054 9.784M44.772 96C32.108 81.948 26.676 68.073 31.914 59s19.97-11.306 38.472-7.364C78.375 53.337 87.066 56.19 96 60.14m25.614 80.223C115.776 158.358 106.476 170 96 170s-19.776-11.641-25.614-29.635c-2.52-7.77-4.395-16.724-5.44-26.436A168 168 0 0 1 64 96c0-6.183.328-12.189.946-17.93M96 131.859a168 168 0 0 0 16-8.145 168 168 0 0 0 15.054-9.784M96 131.858a168 168 0 0 1-16-8.145 168 168 0 0 1-15.054-9.784M147.228 96c12.664 14.052 18.096 27.927 12.858 37s-19.97 11.306-38.472 7.364c-7.989-1.701-16.68-4.555-25.614-8.506m31.054-17.929c.618-5.74.946-11.746.946-17.929s-.328-12.189-.946-17.93m0 35.859c7.889-5.761 14.706-11.862 20.174-17.929"/><path stroke="#000" stroke-linecap="round" stroke-linejoin="round" stroke-width="10" d="M34 116a5 5 0 1 0 0-10 5 5 0 0 0 0 10m106 31a5 5 0 1 0-.001-10.001A5 5 0 0 0 140 147M114 40a5 5 0 1 0 0-10 5 5 0 0 0 0 10"/></svg>