<svg xmlns="http://www.w3.org/2000/svg" width="192" height="192" fill="none"><path stroke="#000" stroke-linecap="round" stroke-linejoin="round" stroke-width="12" d="m63 81-24 59m89-68-12 24m12-24c0 17 11 21 11 32m-31 16h15m16-16a16 16 0 0 1-16 16m-39.659-5.554a27 27 0 0 0 5.107-6.393 27 27 0 0 0 2.983-7.619c.581-2.626.719-5.237.405-7.685s-1.073-4.684-2.234-6.58c-1.16-1.898-2.701-3.418-4.533-4.476-1.831-1.058-3.919-1.631-6.142-1.688s-4.54.403-6.816 1.356c-2.277.952-4.47 2.377-6.452 4.193a27 27 0 0 0-5.107 6.393 27 27 0 0 0-2.983 7.619c-.581 2.626-.719 5.237-.405 7.685s1.073 4.684 2.234 6.581c1.16 1.897 2.701 3.418 4.533 4.475 1.831 1.058 3.919 1.631 6.142 1.688s4.54-.403 6.816-1.356c2.277-.952 4.47-2.377 6.452-4.193"/><path stroke="#000" stroke-linecap="round" stroke-linejoin="round" stroke-width="12" d="M166.191 119.5A74 74 0 0 0 170 96c0-40.869-33.131-74-74-74S22 55.13 22 96s33.13 74 74 74c9.037 0 17.695-1.62 25.701-4.585"/><path stroke="#000" stroke-linecap="round" stroke-linejoin="round" stroke-miterlimit="6" stroke-width="10" d="M150.224 137.103a2.88 2.88 0 0 1 2.776-2.102 2.88 2.88 0 0 1 2.776 2.102l2.248 7.215c.391 1.253 1.512 2.102 2.776 2.102h7.276c2.827 0 4.003 3.773 1.715 5.506l-5.886 4.459c-1.023.775-1.451 2.149-1.06 3.403l2.248 7.214c.874 2.804-2.204 5.136-4.492 3.403l-5.885-4.459a2.825 2.825 0 0 0-3.432 0l-5.885 4.459c-2.288 1.733-5.366-.599-4.492-3.403l2.248-7.214c.391-1.254-.037-2.628-1.06-3.403l-5.886-4.459c-2.288-1.733-1.112-5.506 1.715-5.506h7.276c1.264 0 2.385-.849 2.776-2.102z"/></svg>