<svg xmlns="http://www.w3.org/2000/svg" width="192" height="192" fill="none"><path stroke="#000" stroke-linecap="round" stroke-linejoin="round" stroke-width="12" d="M93 32s-19 80-58 134l71-28.719M165 102a49 49 0 0 0-5 3.188"/><circle cx="122" cy="90" r="6" stroke="#000" stroke-linecap="round" stroke-linejoin="round" stroke-width="12"/><circle cx="88" cy="78" r="5" stroke="#000" stroke-linecap="round" stroke-linejoin="round" stroke-width="10"/><circle cx="95" cy="132" r="5" stroke="#000" stroke-linecap="round" stroke-linejoin="round" stroke-width="10"/><path stroke="#000" stroke-linecap="round" stroke-linejoin="round" stroke-width="12" d="M85 26c71 26 85 84 85 84m-148-5 28-56h15l7.054 39.5M33 87h38"/><path stroke="#000" stroke-linecap="round" stroke-linejoin="round" stroke-miterlimit="6" stroke-width="10" d="M143 152h-12a6 6 0 0 1-6-6v-12m0 0h18m-18 0v-11.999a6 6 0 0 1 6-6h8M139 134a9 9 0 1 0 0-18m4 36a9 9 0 1 0 0-18"/></svg>