<svg xmlns="http://www.w3.org/2000/svg" width="192" height="192" fill="none"><path stroke="#000" stroke-linecap="round" stroke-linejoin="round" stroke-width="12" d="M96 52a16 16 0 1 1-32 0m13 66c2.633 0 5.22.554 7.5 1.608 2.28 1.053 4.174 2.568 5.49 4.392 1.317 1.824 2.01 3.894 2.01 6s-.693 4.176-2.01 6-3.21 3.339-5.49 4.392S79.633 142 77 142s-5.22-.554-7.5-1.608c-2.28-1.053-4.174-2.568-5.49-4.392m1-36c1.316-1.824 3.21-3.34 5.49-4.392S75.367 94 78 94s5.22.555 7.5 1.608 4.174 2.568 5.49 4.392c1.317 1.824 2.01 3.894 2.01 6s-.693 4.176-2.01 6-3.21 3.339-5.49 4.392S80.633 118 78 118m50-66a16 16 0 0 1-16 16 16 16 0 0 1-16-16"/><path stroke="#000" stroke-linecap="round" stroke-linejoin="round" stroke-width="12" d="M31.434 61.621C35.44 74.404 38.713 87.461 38.713 96s-3.273 21.596-7.279 34.379C25.446 149.486 38.914 170 58.713 170h74.574c19.799 0 33.266-20.514 27.279-39.621-4.006-12.783-7.279-25.84-7.279-34.379s3.273-21.596 7.279-34.379C166.553 42.514 153.086 22 133.287 22H58.713c-19.8 0-33.267 20.514-27.279 39.621M126 94v48m-13-40 13-8"/></svg>