<svg xmlns="http://www.w3.org/2000/svg" width="192" height="192" fill="none"><path stroke="#000" stroke-linecap="round" stroke-linejoin="round" stroke-width="12" d="M139 65a43 43 0 1 1-86 0"/><path stroke="#000" stroke-linecap="round" stroke-linejoin="round" stroke-width="12" d="M53 43a19 19 0 0 0-2.742-9.833 42 42 0 0 1 19.815 3.03A42 42 0 0 1 96 75a42 42 0 0 1 45.742-41.833A19 19 0 0 0 139 43m-43 65v62m-58-57c0 38 20 46 36 46 0-38-20-46-36-46m116 0c0 38-20 46-36 46 0-38 20-46 36-46M53 43v22m86-22v22"/><path stroke="#000" stroke-linecap="round" stroke-linejoin="round" stroke-width="12" d="m77 39 14.757-15.191a5.88 5.88 0 0 1 8.486 0L115 39"/></svg>