<svg xmlns="http://www.w3.org/2000/svg" width="192" height="192" fill="none"><path stroke="#000" stroke-linecap="round" stroke-linejoin="round" stroke-width="12" d="M92 22C78 50 60 57 60 57m-21 85c1 21-11 28-11 28m42-21c4 3 6 8 6 8m31-8c4 3 6 8 6 8m26-17c22 8 25 25 25 25"/><path stroke="#000" stroke-linecap="round" stroke-linejoin="round" stroke-width="10" d="m82 100 31-5"/><path stroke="#000" stroke-linecap="round" stroke-linejoin="round" stroke-width="12" d="M81 40c21 3 51-4 51-4-20 11-44 39-44 39"/><path stroke="#000" stroke-linecap="round" stroke-linejoin="round" stroke-width="12" d="m52 78 15 1 64-10 14 7c-9 11-21 47-21 47l-6-5-46 6-3 5s-8-37-17-51"/><path stroke="#000" stroke-linecap="round" stroke-linejoin="round" stroke-width="10" d="M98 75c-4 19-2 46-2 46"/></svg>