<svg xmlns="http://www.w3.org/2000/svg" width="192" height="192" fill="none"><path stroke="#000" stroke-linecap="round" stroke-linejoin="round" stroke-width="12" d="M25 53c0-15.464 12.536-28 28-28h86c15.464 0 28 12.536 28 28v86c0 15.464-12.536 28-28 28H53c-15.464 0-28-12.536-28-28z"/><path stroke="#000" stroke-linecap="round" stroke-linejoin="round" stroke-width="12" d="M162 40s-11 41-46 76-76 46-76 46m81.694-95.404a37 37 0 1 0-62.756 39.214"/><path stroke="#000" stroke-linecap="round" stroke-linejoin="round" stroke-width="6" d="M97.84 103.906a2.999 2.999 0 0 0 5.468-.915 3 3 0 0 0-.379-2.265z"/><path stroke="#000" stroke-linecap="round" stroke-linejoin="round" stroke-width="10" d="m102.083 72.954 7.949 12.721M73.25 90.972l7.948 12.72"/><path stroke="#000" stroke-linecap="round" stroke-linejoin="round" stroke-width="12" d="M58.938 105.81 80.928 141m40.766-74.404L136 89.491"/></svg>