<svg xmlns="http://www.w3.org/2000/svg" width="192" height="192" fill="none"><path stroke="#000" stroke-linecap="round" stroke-linejoin="round" stroke-width="12" d="m80.79 39.522-56.396 92.523a16.37 16.37 0 0 0-.27 16.584 16.47 16.47 0 0 0 6.056 6.125A16.6 16.6 0 0 0 38.513 157h114.974c2.929 0 5.805-.775 8.334-2.246a16.5 16.5 0 0 0 6.055-6.125 16.4 16.4 0 0 0 2.122-8.328 16.4 16.4 0 0 0-2.392-8.256l-56.395-92.523a17.76 17.76 0 0 0-6.483-6.245 17.86 17.86 0 0 0-17.456 0 17.75 17.75 0 0 0-6.483 6.245Z"/><path stroke="#000" stroke-linecap="round" stroke-linejoin="round" stroke-width="12" d="m116 49-19 56-62 13m63.833-12.524L160 121m-66-14-37 49"/></svg>