<svg xmlns="http://www.w3.org/2000/svg" width="192" height="192" fill="none"><path stroke="#000" stroke-linecap="round" stroke-linejoin="round" stroke-width="12" d="M122 118a48 48 0 0 0 0-96"/><path stroke="#000" stroke-linecap="round" stroke-linejoin="round" stroke-width="12" d="M122 84a14 14 0 0 0 14-14 14 14 0 0 0-14-14"/><path stroke="#000" stroke-linecap="round" stroke-linejoin="round" stroke-width="12" d="M122 84a52 52 0 0 0 45.775-27.33M22 170 49.907 40.928C52.297 29.883 62.066 22 73.365 22H122"/><path stroke="#000" stroke-linecap="round" stroke-linejoin="round" stroke-width="12" d="M122 56H86.649M122 22h-8.635c-11.3 0-21.07 7.883-23.457 18.928L86.647 56M22 170h20.635c11.3 0 21.07-7.883 23.458-18.928L80.594 84l6.054-28"/><path stroke="#000" stroke-linecap="round" stroke-linejoin="round" stroke-width="12" d="M122 118H73.243l3.676-17c2.145-9.92 10.92-17 21.069-17H122"/></svg>