<svg xmlns="http://www.w3.org/2000/svg" width="192" height="192" fill="none"><path stroke="#000" stroke-linecap="round" stroke-linejoin="round" stroke-width="12" d="M148.572 95.034a58 58 0 0 0-26.944-56.288 57.998 57.998 0 0 0-88.135 41.71m115.079 14.578C124.882 84.034 105.865 72 63.988 72c-14.09 0-23.913 3.104-30.495 8.457m115.079 14.577c5.483 2.546 11.216 5.037 17.541 7.309 2.771.996 4.486 3.775 3.692 6.611C165.878 122.988 150.092 162 95.979 162 39.995 162 22 128 22 110c0-12.31 3.13-22.742 11.493-29.543"/></svg>