<svg xmlns="http://www.w3.org/2000/svg" width="192" height="192" fill="none"><path stroke="#000" stroke-linecap="round" stroke-linejoin="round" stroke-width="12" d="M124 156H34c-6.627 0-12-5.373-12-12V48c0-6.627 5.373-12 12-12h78c6.627 0 12 5.373 12 12v12m0 0h6c6.627 0 12 5.373 12 12v84"/><path stroke="#000" stroke-linecap="round" stroke-linejoin="round" stroke-width="12" d="M124 156h38c4.418 0 8-3.58 8-7.996V44.009c0-6.386-7.121-10.195-12.438-6.653L88 83.706V72c0-6.627-5.373-12-12-12H34c-6.627 0-12 5.373-12 12v6"/></svg>