<svg xmlns="http://www.w3.org/2000/svg" width="192" height="192" fill="none"><circle cx="62" cy="125" r="5" stroke="#000" stroke-linecap="round" stroke-linejoin="round" stroke-width="10"/><circle cx="130" cy="125" r="5" stroke="#000" stroke-linecap="round" stroke-linejoin="round" stroke-width="10"/><path stroke="#000" stroke-linecap="round" stroke-linejoin="round" stroke-width="12" d="M48 170h12a6 6 0 0 0 6-6v-6a6 6 0 0 1 6-6h48a6 6 0 0 1 6 6v6a6 6 0 0 0 6 6h12a6 6 0 0 0 6-6v-16.769c4.226-2.88 7-7.732 7-13.231V70h5a6 6 0 0 0 6-6V54a6 6 0 0 0-6-6h-5.073c-.616-11.622-6.409-26-60.927-26S35.689 36.378 35.073 48H30a6 6 0 0 0-6 6v10a6 6 0 0 0 6 6h5v64c0 5.499 2.775 10.351 7 13.231V164a6 6 0 0 0 6 6"/><path stroke="#000" stroke-linecap="round" stroke-linejoin="round" stroke-width="12" d="M58 62a6 6 0 0 1 6-6h64a6 6 0 0 1 6 6v20a6 6 0 0 1-6 6H64a6 6 0 0 1-6-6z"/></svg>