<svg xmlns="http://www.w3.org/2000/svg" width="192" height="192" fill="none"><path stroke="#000" stroke-linecap="round" stroke-linejoin="round" stroke-width="12" d="M112.5 168.154A74.3 74.3 0 0 1 96 170c-40.87 0-74-33.131-74-74s33.13-74 74-74 74 33.13 74 74a74.2 74.2 0 0 1-1.962 17"/><path stroke="#000" stroke-linecap="round" stroke-linejoin="round" stroke-width="12" d="M136.5 66.672C127.414 54.146 112.658 46 96 46c-27.614 0-50 22.386-50 50 0 16.358 7.855 30.882 20 40.004M127 127l9-38 24 71-71-24z"/></svg>