<svg xmlns="http://www.w3.org/2000/svg" width="192" height="192" fill="none"><path stroke="#000" stroke-linecap="round" stroke-linejoin="round" stroke-width="12" d="M103.56 93.45c37.261-2.698 35.776 16.347 51.4 14.611 8.08-.898 15.04-7.304 15.04-7.304 0 35.179-22.872 64.843-46.912 65.976-15.485.731-39.733.675-53.2 0-13.467-.672-33.672-10.84-33.672-36.333s17.059-24.139 17.059-41.219c0-3.072-1.12-4.946-1.12-4.946-15.04 1.12-28.36-4.123-30.155-24.278 10.176 3.742 21.848 0 21.848 0-.968-20.16 17.659-35.221 37.712-35.221s36.736 17.984 36.736 37.541c0 19.558-14.741 31.174-14.741 31.174h.005Z"/><circle cx="73" cy="58" r="5" stroke="#000" stroke-linecap="round" stroke-linejoin="round" stroke-width="10"/></svg>