<svg xmlns="http://www.w3.org/2000/svg" width="192" height="192" fill="none"><path stroke="#000" stroke-linecap="round" stroke-linejoin="round" stroke-width="12" d="m125.5 92-30.094 34.406a43 43 0 0 1-46.861 9.321A43.005 43.005 0 0 1 22 96a43 43 0 0 1 73.406-30.406l.594.595"/><path stroke="#000" stroke-linecap="round" stroke-linejoin="round" stroke-width="12" d="m66.5 100 30.094-34.406a43.002 43.002 0 0 1 66.158 6.517 43 43 0 0 1-66.158 54.295l-.594-.595"/><path stroke="#000" stroke-linecap="round" stroke-linejoin="round" stroke-width="12" d="M130 90a6 6 0 1 1 0 12 6 6 0 0 1 0-12m-68 0a6 6 0 1 1 0 12 6 6 0 0 1 0-12"/></svg>