<svg xmlns="http://www.w3.org/2000/svg" width="192" height="192" fill="none"><circle cx="96" cy="96" r="74" stroke="#000" stroke-linecap="round" stroke-linejoin="round" stroke-width="12"/><path stroke="#000" stroke-linecap="round" stroke-linejoin="round" stroke-width="12" d="M68 64v64m73-30v13m-40-13s4 31 24 31m-24-31a17 17 0 0 0 12.021-4.98 17.003 17.003 0 0 0 0-24.04A17 17 0 0 0 101 64"/><path stroke="#000" stroke-linecap="round" stroke-linejoin="round" stroke-width="12" d="M124 129a17 17 0 0 0 12.021-4.979A17 17 0 0 0 141 112M68 98h33M58 64h43"/></svg>