<svg xmlns="http://www.w3.org/2000/svg" width="192" height="192" fill="none"><path stroke="#000" stroke-linecap="round" stroke-linejoin="round" stroke-width="12" d="M96 117a37.001 37.001 0 1 0-37 37m37-37v37"/><path stroke="#000" stroke-linecap="round" stroke-linejoin="round" stroke-width="12" d="M46 86c0 25 50 68 50 68m50-68c0 25-50 68-50 68"/><path stroke="#000" stroke-linecap="round" stroke-linejoin="round" stroke-width="12" d="M133 154a37 37 0 0 0 34.184-22.841 36.999 36.999 0 0 0-48.343-48.342A37 37 0 0 0 96 117"/><path stroke="#000" stroke-linecap="round" stroke-linejoin="round" stroke-width="12" d="M146 86a50 50 0 0 0-100 0m13 68h74"/></svg>