<svg xmlns="http://www.w3.org/2000/svg" width="192" height="192" fill="none"><path stroke="#000" stroke-linecap="round" stroke-linejoin="round" stroke-width="12" d="M96 163c40.869 0 74-29.997 74-67s-33.131-67-74-67-74 29.997-74 67c0 19.549 9.247 37.143 23.998 49.391C44.148 156.852 38 163 38 163c10.25-1.708 17.398-5.058 22.226-8.335C70.829 159.976 83.024 163 96 163"/><path stroke="#000" stroke-linecap="round" stroke-linejoin="round" stroke-width="10" d="M66 127h66l-53.708 6.713a6 6 0 0 1-4.185-1.038z"/><path stroke="#000" stroke-linecap="round" stroke-linejoin="round" stroke-width="12" d="m99 85 17 22m-34 0V61a6 6 0 0 1 6-6h9M82 85h15m0 0a15.001 15.001 0 0 0 10.607-25.607A15 15 0 0 0 97 55"/></svg>