<svg xmlns="http://www.w3.org/2000/svg" width="192" height="192" fill="none"><path stroke="#000" stroke-linecap="round" stroke-linejoin="round" stroke-width="12" d="M60 66c0 24.3 24.624 44 55 44 8.317 0 16.203-1.477 23.271-4.121L167 121l-7.331-29.324C166.171 84.451 170 75.583 170 66c0-24.3-24.624-44-55-44S60 41.7 60 66"/><path stroke="#000" stroke-linecap="round" stroke-linejoin="round" stroke-width="12" d="M128.237 131.029C120.227 147.403 100.306 159 77 159c-8.317 0-16.203-1.477-23.27-4.121L25 170l7.33-29.324C25.83 133.45 22 124.583 22 115c0-13.033 7.083-24.742 18.337-32.799"/></svg>