<svg xmlns="http://www.w3.org/2000/svg" width="192" height="192" fill="none"><path stroke="#000" stroke-linecap="round" stroke-linejoin="round" stroke-width="12" d="m53 103 5-31h22.606c4.927 0 8.683 4.41 7.898 9.274L85 103m.606-62H69.813a8 8 0 0 0-7.898 6.726L58 72h25.187a8 8 0 0 0 7.898-6.726l2.42-15c.783-4.864-2.973-9.274-7.9-9.274Zm52.923 68 .269-1.689C140.325 97.708 133.012 89 123.418 89c-7.646 0-14.161 5.627-15.379 13.281l-4.837 30.408c-1.527 9.603 5.786 18.311 15.38 18.311 7.646 0 14.161-5.627 15.379-13.281L135.03 131M115 43.121c25.115-1.26 45.944 7.325 52.742 24.057 4.732 11.645 1.817 25.146-6.78 37.822M34 82.95c-10.846 13.806-14.982 28.977-9.742 41.872 7.377 18.156 31.274 26.719 59.242 23.52"/></svg>