<svg xmlns="http://www.w3.org/2000/svg" width="192" height="192" fill="none"><path stroke="#000" stroke-linecap="round" stroke-linejoin="round" stroke-width="12" d="M61 88V30a6 6 0 0 0-6-6H41a6 6 0 0 0-6 6v58"/><path stroke="#000" stroke-linecap="round" stroke-linejoin="round" stroke-width="12" d="m26 84 22 12 22-12v48l-22-12-22 12z"/><path stroke="#000" stroke-linecap="round" stroke-linejoin="round" stroke-width="10" d="M35 68h26"/><path stroke="#000" stroke-linecap="round" stroke-linejoin="round" stroke-width="12" d="M131 100v60m-61-52h16a6 6 0 0 1 6 6v26a6 6 0 0 0 6 6h33m-83-26v50"/><circle cx="131" cy="61" r="39" stroke="#000" stroke-linecap="round" stroke-linejoin="round" stroke-width="12"/></svg>