<svg xmlns="http://www.w3.org/2000/svg" width="192" height="192" fill="none"><path stroke="#000" stroke-linecap="round" stroke-linejoin="round" stroke-width="12" d="M88 64H70a6 6 0 0 0-6 6v58"/><circle cx="96" cy="96" r="74" stroke="#000" stroke-linecap="round" stroke-linejoin="round" stroke-width="12"/><path stroke="#000" stroke-linecap="round" stroke-linejoin="round" stroke-width="12" d="M168.971 87.03a24 24 0 0 0-24.686-5.756 24.003 24.003 0 0 0-14.146 32.631A24 24 0 0 0 164 124.785M88 104a19.999 19.999 0 1 0 0-40m-24 40h24m20 24c-8-12-12-24-30-24m50 0h41"/></svg>