<svg xmlns="http://www.w3.org/2000/svg" width="192" height="192" fill="none"><path stroke="#000" stroke-linecap="round" stroke-linejoin="round" stroke-width="12" d="M148 50a6 6 0 1 0 0-12 6 6 0 0 0 0 12M44 154a6 6 0 1 0 0-12 6 6 0 0 0 0 12"/><path stroke="#000" stroke-linecap="round" stroke-linejoin="round" stroke-width="10" d="M122 33a5 5 0 1 0 0-10 5 5 0 0 0 0 10m-94 94a5 5 0 1 0 0-10 5 5 0 0 0 0 10m136-52a5 5 0 1 0 0-10 5 5 0 0 0 0 10m-94 94a5 5 0 1 0 0-10 5 5 0 0 0 0 10"/><path stroke="#000" stroke-linecap="round" stroke-linejoin="round" stroke-width="8" d="M96 28a4 4 0 1 0 0-8 4 4 0 0 0 0 8M67 71a4 4 0 1 0 0-8 4 4 0 0 0 0 8m58 58a4 4 0 1 0 0-8 4 4 0 0 0 0 8M24 100a4 4 0 1 0 0-8 4 4 0 0 0 0 8m144 0a4 4 0 1 0 0-8 4 4 0 0 0 0 8m-72 72a4 4 0 1 0 0-8 4 4 0 0 0 0 8"/><path stroke="#000" stroke-linecap="round" stroke-linejoin="round" stroke-width="6" d="M163 127a3 3 0 1 0 0-6 3 3 0 0 0 0 6M68 32a3 3 0 1 0 0-6 3 3 0 0 0 0 6m56 134a3 3 0 1 0 0-6 3 3 0 0 0 0 6M29 71a3 3 0 1 0 0-6 3 3 0 0 0 0 6m119 80a3 3 0 1 0 0-6 3 3 0 0 0 0 6M55 89a3 3 0 1 0 0-6 3 3 0 0 0 0 6m51 51a3 3 0 1 0 0-6 3 3 0 0 0 0 6m-49-30a3 3 0 1 0 0-6 3 3 0 0 0 0 6m28 28a3 3 0 1 0 0-6 3 3 0 0 0 0 6m-18-10a3 3 0 1 0 0-6 3 3 0 0 0 0 6m19-70a3 3 0 1 0 0-6 3 3 0 0 0 0 6m51 51a3 3 0 1 0 0-6 3 3 0 0 0 0 6m-30-49a3 3 0 1 0 0-6 3 3 0 0 0 0 6m28 28a3 3 0 1 0 0-6 3 3 0 0 0 0 6m-10-18a3 3 0 1 0 0-6 3 3 0 0 0 0 6M44 47a3 3 0 1 0 0-6 3 3 0 0 0 0 6"/></svg>