<svg xmlns="http://www.w3.org/2000/svg" width="192" height="192" fill="none"><path stroke="#000" stroke-linecap="round" stroke-linejoin="round" stroke-width="12" d="M109 82a15.001 15.001 0 0 0 10.607-25.607A15 15 0 0 0 109 52"/><path stroke="#000" stroke-linecap="round" stroke-linejoin="round" stroke-width="12" d="M109 22a45 45 0 0 1 6.396 89.543L158 170h-33.948a6 6 0 0 1-4.849-2.466L98.407 139M72 52v46m-30 0V28a6 6 0 0 1 6-6h61M42 52h67M72 82h37m-67 62h28m-4-26H48a6 6 0 0 0-6 6v40a6 6 0 0 0 6 6h22m0 0a13 13 0 0 0 0-26"/><path stroke="#000" stroke-linecap="round" stroke-linejoin="round" stroke-width="12" d="M66 144a13 13 0 0 0 0-26"/></svg>