<svg xmlns="http://www.w3.org/2000/svg" width="192" height="192" fill="none"><path stroke="#000" stroke-linecap="round" stroke-linejoin="round" stroke-width="12" d="M22 109c0-7.732 6.268-14 14-14h4c7.732 0 14 6.268 14 14v34c0 7.732-6.268 14-14 14h-4c-7.732 0-14-6.268-14-14zm116 0c0-7.732 6.268-14 14-14h4c7.732 0 14 6.268 14 14v34c0 7.732-6.268 14-14 14h-4c-7.732 0-14-6.268-14-14zm7-13c0-8.273-1.267-16.466-3.73-24.11s-6.072-14.588-10.622-20.438-9.952-10.49-15.897-13.656C108.807 34.63 102.435 33 96 33s-12.806 1.63-18.751 4.796-11.347 7.806-15.897 13.656-8.16 12.795-10.622 20.439C48.267 79.534 47 87.727 47 96m32 6 38 24-38 24z"/></svg>