<svg xmlns="http://www.w3.org/2000/svg" width="192" height="192" fill="none"><path stroke="#000" stroke-linecap="round" stroke-linejoin="round" stroke-width="12" d="M96 56H28a6 6 0 0 0-6 6v68a6 6 0 0 0 6 6h68m0-80h68a6 6 0 0 1 6 6v68a6 6 0 0 1-6 6H96m0-80v80"/><path stroke="#000" stroke-linecap="round" stroke-linejoin="round" stroke-width="12" d="M47 115V83a6 6 0 0 1 6-6h12a6 6 0 0 1 6 6v32m52 0V83a6 6 0 0 1 6-6h5"/><path stroke="#000" stroke-linecap="round" stroke-linejoin="round" stroke-width="12" d="M134 77c2.176 0 4.302.821 6.111 2.36s3.219 3.724 4.052 6.282c.832 2.559 1.05 5.374.626 8.09-.425 2.715-1.472 5.21-3.011 7.167-1.538 1.958-3.498 3.292-5.632 3.832s-4.346.263-6.356-.797c-2.01-1.059-3.727-2.854-4.936-5.156S123 93.768 123 91"/></svg>