<svg xmlns="http://www.w3.org/2000/svg" width="192" height="192" fill="none"><path stroke="#000" stroke-linecap="round" stroke-linejoin="round" stroke-width="12" d="M51 104V76m19-30H57a6 6 0 0 0-6 6v24m0 0h19m37-29v40m34-40v40m-54 17L70 76m0 0a15 15 0 0 0 0-30m37 41a17 17 0 1 0 34 0M39 170h126"/><path stroke="#000" stroke-linecap="round" stroke-linejoin="round" stroke-width="12" d="M27 158V28a6 6 0 0 1 6-6h126a6 6 0 0 1 6 6v112a6 6 0 0 1-6 6H39"/><path stroke="#000" stroke-linecap="round" stroke-linejoin="round" stroke-width="12" d="M39 146a12 12 0 1 0 0 24"/></svg>