<svg xmlns="http://www.w3.org/2000/svg" width="192" height="192" fill="none"><path stroke="#000" stroke-linecap="round" stroke-linejoin="round" stroke-width="10" d="M78 147H62a6 6 0 0 0-6 6v12a6 6 0 0 0 6 6h16a6 6 0 0 0 6-6v-12a6 6 0 0 0-6-6m52 0h-16a6 6 0 0 0-4.243 1.757A6 6 0 0 0 108 153v12c0 1.591.632 3.117 1.757 4.243A6 6 0 0 0 114 171h16a6 6 0 0 0 4.243-1.757A6 6 0 0 0 136 165v-12a6 6 0 0 0-1.757-4.243A6 6 0 0 0 130 147M78 98H62a6 6 0 0 0-6 6v12a6 6 0 0 0 6 6h16a6 6 0 0 0 6-6v-12a6 6 0 0 0-6-6m52 0h-16a6 6 0 0 0-6 6v12c0 1.591.632 3.117 1.757 4.243A6 6 0 0 0 114 122h16a6 6 0 0 0 4.243-1.757A6 6 0 0 0 136 116v-12a6 6 0 0 0-6-6"/><path stroke="#000" stroke-linecap="round" stroke-linejoin="round" stroke-width="12" d="M98 22a72 72 0 0 0-72 72"/><path stroke="#000" stroke-linecap="round" stroke-linejoin="round" stroke-width="12" d="M166 94a72.01 72.01 0 0 0-44.447-66.52A72 72 0 0 0 94 22"/><path stroke="#000" stroke-linecap="round" stroke-linejoin="round" stroke-width="10" d="M26 101a5 5 0 1 0 0-10 5 5 0 0 0 0 10m140-10a5 5 0 1 1 0 10 5 5 0 0 1 0-10"/><path stroke="#000" stroke-linecap="round" stroke-linejoin="round" stroke-width="10" d="M56 161 26 96l30 15m80 50 30-65-30 15"/></svg>