<svg xmlns="http://www.w3.org/2000/svg" width="192" height="192" fill="none"><path stroke="#000" stroke-linecap="round" stroke-linejoin="round" stroke-width="12" d="M96 66v60M66 96h60m-30 74a74 74 0 1 0 0-148"/><path stroke="#000" stroke-linecap="round" stroke-linejoin="round" stroke-width="6" d="M22 99a3 3 0 1 0 0-6 3 3 0 0 0 0 6m21.674-52.326a3 3 0 1 0 0-6 3 3 0 0 0 0 6m0 104.652a3 3 0 1 0 0-6 3 3 0 0 0 0 6M67.681 30.633a3 3 0 1 0 0-6 3 3 0 0 0 0 6m-40.048 96.686a3 3 0 1 0 0-6 3 3 0 0 0 0 6m0-62.638a3 3 0 1 1 0 6 3 3 0 0 1 0-6m40.048 96.686a3 3 0 1 1 0 6 3 3 0 0 1 0-6"/></svg>