<svg xmlns="http://www.w3.org/2000/svg" width="192" height="192" fill="none"><path stroke="#000" stroke-linecap="round" stroke-linejoin="round" stroke-width="12" d="m68 96 22 22 40-40M22 96l16 12"/><path stroke="#000" stroke-linecap="round" stroke-linejoin="round" stroke-width="12" d="M96 22a73.999 73.999 0 0 1 14.437 146.578 73.99 73.99 0 0 1-75.966-31.466A74 74 0 0 1 22 96"/><path stroke="#000" stroke-linecap="round" stroke-linejoin="round" stroke-width="6" d="M43.674 46.674a3 3 0 1 0 0-6 3 3 0 0 0 0 6m24.007-16.041a3 3 0 1 0 0-6 3 3 0 0 0 0 6M27.633 64.682a3 3 0 1 1 0 6 3 3 0 0 1 0-6"/></svg>