<svg xmlns="http://www.w3.org/2000/svg" width="192" height="192" fill="none"><path stroke="#000" stroke-linecap="round" stroke-linejoin="round" stroke-width="12" d="M130 58V42c0-8.837-7.163-16-16-16H78c-8.837 0-16 7.163-16 16v16M22 74c0-8.837 7.163-16 16-16h116c8.837 0 16 7.163 16 16v76c0 8.837-7.163 16-16 16H38c-8.837 0-16-7.163-16-16z"/><path stroke="#000" stroke-linecap="round" stroke-linejoin="round" stroke-width="12" d="M22 111s22-29 74-15 74-15 74-15M22 146s22-29 74-15 74-15 74-15"/></svg>