<svg xmlns="http://www.w3.org/2000/svg" width="192" height="192" fill="none"><path stroke="#000" stroke-linecap="round" stroke-linejoin="round" stroke-width="10" d="m87 71 38-8-8 38"/><path stroke="#000" stroke-linecap="round" stroke-linejoin="round" stroke-width="12" d="M113.316 167.963c10.659 3.227 19.382 2.727 24.378-2.269 2.824-2.824 4.211-6.839 4.301-11.721m-28.679 13.99c-15.591-4.72-35.325-17.416-53.594-35.685S28.757 94.275 24.037 78.684m89.279 89.279A74.2 74.2 0 0 1 96 170c-40.87 0-74-33.131-74-74 0-5.963.705-11.761 2.037-17.316m0 0c-3.227-10.659-2.727-19.382 2.27-24.378 2.823-2.824 6.838-4.211 11.72-4.301m103.968 103.968C159.059 140.417 170 119.486 170 96c0-40.87-33.131-74-74-74-23.486 0-44.417 10.941-57.973 28.005m103.968 103.968c.302-16.389-14.018-42.552-37.717-66.25-23.7-23.7-49.862-38.02-66.25-37.718"/><circle cx="125" cy="63" r="5" stroke="#000" stroke-linecap="round" stroke-linejoin="round" stroke-width="10"/></svg>