<svg xmlns="http://www.w3.org/2000/svg" width="192" height="192" fill="none"><circle cx="125" cy="149" r="5" stroke="#000" stroke-linecap="round" stroke-linejoin="round" stroke-width="10"/><circle cx="103" cy="139" r="3" stroke="#000" stroke-linecap="round" stroke-linejoin="round" stroke-width="6"/><circle cx="83" cy="139" r="3" stroke="#000" stroke-linecap="round" stroke-linejoin="round" stroke-width="6"/><circle cx="63" cy="139" r="3" stroke="#000" stroke-linecap="round" stroke-linejoin="round" stroke-width="6"/><circle cx="103" cy="159" r="3" stroke="#000" stroke-linecap="round" stroke-linejoin="round" stroke-width="6"/><circle cx="83" cy="159" r="3" stroke="#000" stroke-linecap="round" stroke-linejoin="round" stroke-width="6"/><circle cx="63" cy="159" r="3" stroke="#000" stroke-linecap="round" stroke-linejoin="round" stroke-width="6"/><path stroke="#000" stroke-linecap="round" stroke-linejoin="round" stroke-width="12" d="M151 170V70c0-8.837-7.163-16-16-16H57c-8.837 0-16 7.163-16 16v100m84-148v32M67 42v12"/><path stroke="#000" stroke-linecap="round" stroke-linejoin="round" stroke-width="12" d="M63 82a6 6 0 0 1 6-6h54a6 6 0 0 1 6 6v28a6 6 0 0 1-6 6H69a6 6 0 0 1-6-6z"/></svg>