<svg xmlns="http://www.w3.org/2000/svg" width="192" height="192" fill="none"><path stroke="#000" stroke-linecap="round" stroke-linejoin="round" stroke-width="12" d="M74.134 135.087C64.482 142 54 142 54 142a32.003 32.003 0 0 1-32-32c0-42 57-43 56-80 0 0 6.901 13.803 10.237 39.664m0 0C74.847 79.362 62 90.06 62 110a32.003 32.003 0 0 0 32 32s10.482 0 20.134-6.913m14.103-65.423C114.848 79.362 102 90.06 102 110a32 32 0 0 0 12.134 25.087A32 32 0 0 0 134 142s36 0 36-44-12-68-12-68c.525 19.434-14.95 28.936-29.763 39.664m-40 0C103.05 58.936 118.525 49.434 118 30c0 0 6.902 13.803 10.237 39.664M35 138c-3.63 14-1.21 28-1.21 28"/></svg>