<svg xmlns="http://www.w3.org/2000/svg" width="192" height="192" fill="none"><path stroke="#000" stroke-linecap="round" stroke-linejoin="round" stroke-width="12" d="M22 96c0 32.585 26.415 59 59 59 28.826 0 52.823-20.672 57.976-48h-28.984c-4.438 11.691-15.745 20-28.992 20-17.12 0-31-13.879-31-31 0-17.12 13.88-31 31-31q1.519.001 3 .143V37.075A60 60 0 0 0 81 37c-32.585 0-59 26.415-59 59m124-59 24 25-24 25"/><path stroke="#000" stroke-linecap="round" stroke-linejoin="round" stroke-width="12" d="m108 37 24 25-24 25"/></svg>