<svg xmlns="http://www.w3.org/2000/svg" width="192" height="192" fill="none"><circle cx="96" cy="43" r="19" stroke="#000" stroke-linecap="round" stroke-linejoin="round" stroke-width="12"/><circle cx="41" cy="132" r="19" stroke="#000" stroke-linecap="round" stroke-linejoin="round" stroke-width="12"/><circle cx="151" cy="132" r="19" stroke="#000" stroke-linecap="round" stroke-linejoin="round" stroke-width="12"/><path stroke="#000" stroke-linecap="round" stroke-linejoin="round" stroke-miterlimit="6" stroke-width="10" d="M93.224 89.103a2.884 2.884 0 0 1 5.552 0l2.248 7.215c.391 1.254 1.512 2.103 2.776 2.103h7.276c2.827 0 4.003 3.772 1.715 5.505l-5.886 4.459c-1.023.775-1.451 2.149-1.06 3.403l2.248 7.214c.874 2.804-2.204 5.136-4.492 3.403l-5.885-4.459a2.82 2.82 0 0 0-3.432 0l-5.886 4.459c-2.287 1.733-5.365-.599-4.491-3.403l2.248-7.214c.39-1.254-.037-2.628-1.06-3.403l-5.886-4.459c-2.288-1.733-1.112-5.505 1.715-5.505H88.2c1.264 0 2.385-.85 2.776-2.104z"/><path stroke="#000" stroke-linecap="round" stroke-linejoin="round" stroke-width="12" d="M156.923 92.436C154.078 77.353 145.77 64.2 134.134 55.11M35.077 92.436C37.922 77.353 46.23 64.2 57.867 55.11M69.5 160.067C77.535 163.872 86.519 166 96 166s18.465-2.128 26.5-5.933"/></svg>