<svg xmlns="http://www.w3.org/2000/svg" width="192" height="192" fill="none"><path stroke="#000" stroke-linecap="round" stroke-linejoin="round" stroke-width="12" d="M103 167s10-13 7-35c12-6 13-33 13-33s-24-8-34 4c-8-11-28-13-28-13-3-13-19-23-19-23S27 77.5 25 95"/><path stroke="#000" stroke-linecap="round" stroke-linejoin="round" stroke-width="12" d="M25 95V31a6 6 0 0 1 6-6h130a6 6 0 0 1 6 6v130a6 6 0 0 1-1.757 4.243A6 6 0 0 1 161 167h-58"/><path stroke="#000" stroke-linecap="round" stroke-linejoin="round" stroke-width="6" d="M42.353 118.915c1.6.429 3.188-.305 3.545-1.639.357-1.333-.65-2.762-2.25-3.191s-3.188.305-3.546 1.639c-.357 1.333.65 2.762 2.251 3.191m38 16c1.6.429 3.188-.305 3.545-1.639.357-1.333-.65-2.762-2.25-3.191s-3.188.305-3.546 1.639c-.357 1.333.65 2.762 2.251 3.191"/><path stroke="#000" stroke-linecap="round" stroke-linejoin="round" stroke-width="12" d="m129.968 80-11.854-21H73.886l-3.388 6"/></svg>