<svg xmlns="http://www.w3.org/2000/svg" width="192" height="192" fill="none"><path stroke="#000" stroke-linecap="round" stroke-linejoin="round" stroke-width="12" d="M25 37c0-6.627 5.373-12 12-12h118c6.627 0 12 5.373 12 12v118c0 6.627-5.373 12-12 12H37c-6.627 0-12-5.373-12-12z"/><path stroke="#000" stroke-linecap="round" stroke-linejoin="round" stroke-width="10" d="M76 101h10v10H76zm-15 30h10v10H61zm0-60h10v10H61zm75 30h10v10h-10zm-15 30h10v10h-10zm0-60h10v10h-10zm-75 30h10v10H46zm60 0h10v10h-10zm-15 30h10v10H91zm0-60h10v10H91zM25 81h16m110 0h16"/></svg>