<svg xmlns="http://www.w3.org/2000/svg" width="192" height="192" fill="none"><path stroke="#000" stroke-linecap="round" stroke-linejoin="round" stroke-width="12" d="M59.884 34.73c-9.266 8.15-14.472 19.204-14.472 30.73 0 31.715 23.53 35.907 51.765 43.461 4.705 1.259 15.294 4.698 15.294 16.444 0 8.397-6.883 14.445-18.824 14.445s-44.706-14.096-44.706-14.096L36 154.73S61.882 170 92.47 170c21.177 0 39.791-8.103 49.058-16.253 9.266-8.15 14.472-19.205 14.472-30.731 0-27.016-21.176-38.256-49.412-45.81-4.706-1.259-15.294-3.523-15.294-14.095 0-8.222 6.47-12.92 16.471-12.92 10.588 0 25.882 5.872 25.882 5.872l12.941-25.84S125.412 22 94.824 22c-13.105 0-25.673 4.579-34.94 12.73"/></svg>