<svg xmlns="http://www.w3.org/2000/svg" width="192" height="192" fill="none"><path stroke="#000" stroke-linecap="round" stroke-linejoin="round" stroke-width="10" d="M142.532 69.222c-.835 6.722-4.515 27.524-10.623 42.419-7.102 2.53-14.527 12.576-19.519 23.07m30.142-65.489c-5.01.862-9.97 1.422-14.86 1.565-20.213.592-58.276-5.733-77.267-5.733m92.127 4.168C157.844 66.589 171 60.158 171 60.158m-28.468 9.064q-16.338 2.47-26.763 1.32m-3.379 64.169C107.398 145.206 102.993 149 95.977 149c-7.017 0-11.421-3.794-16.413-14.289m32.826 0c-6.023-5.983-3.959-28.977-16.39-28.977-12.43 0-10.44 22.98-16.436 28.977m0 0c-4.993-10.494-12.417-20.54-19.52-23.07m0 0c-10.456-25.497-9.081-36.433-9.64-46.587m9.64 46.587c-7.78-2.694-16.501-3.946-25.227.411C33.723 101.084 31.084 97.097 21 95.39c6.052-5.738 3.082-18.393 0-22.275m29.405-8.061c-12.558 0-29.405 8.06-29.405 8.06m150-12.957q-19.918-4.267-22.552-16.12M171 60.157c-1.66 2.719-11.109 13.673 0 34.772-6.03 2.189-12.808 13.094-14.864 19.649-10.5-7.74-23.135-5.597-31.648 2.143m23.96-72.684c-12.333-.68-16.149-6.472-18.65-12.09-5.674-.844-13.483-6.31-15.978-10.947-9.386 4.267-22.43 4.267-31.02 0 .215 1.718-11.453 8.41-22.262 9.05q-8.717 11.38-18.625 12.802m106.535 1.185c-14.866 2.638-22.279 5.068-36.949 4.64-11.124-.324-24.467-1.764-37.836-3.154-10.97-1.14-21.956-2.245-31.75-2.671m0 0C43.012 58.422 31.958 65.736 21 73.115M50.623 71.5c8.922 15.985 18.91 23.384 28.047 20.832 9.14-2.551 13.195-17.46 17.33-23.097 4.135 5.636 8.191 20.546 17.33 23.097s19.738-3.218 28.626-19.14"/><path stroke="#000" stroke-linecap="round" stroke-linejoin="round" stroke-width="10" d="M30 171c3.609-9.889 6.792-14.872 15.162-18.803m0 0-2.542-5.334 17.153-7.723 3.597 4.89m-18.208 8.167c4.57 6.879 5.96 12.031 7.448 18.803m10.76-26.97c4.245-3.425 12.47-5.62 18.63-4.89m-18.63 4.89c5.314 7.41 9.405 19.436 10.437 26.97M162 171c-3.609-9.889-6.792-14.872-15.162-18.803m0 0 2.542-5.334-17.153-7.723-3.597 4.89m18.208 8.167c-4.57 6.879-5.961 12.031-7.448 18.803m-10.76-26.97c-4.245-3.425-12.471-5.62-18.63-4.89m18.63 4.89c-5.314 7.41-9.405 19.436-10.437 26.97"/></svg>