<svg xmlns="http://www.w3.org/2000/svg" width="192" height="192" fill="none"><path stroke="#000" stroke-linecap="round" stroke-linejoin="round" stroke-width="12" d="M141.186 57.905c-6.762-8.097-18.007-11.848-31.262-10.429-13.256 1.42-27.435 7.893-39.419 17.996-11.984 10.104-20.791 23.01-24.484 35.879s-1.969 24.648 4.793 32.744c4.55 5.448 11.02 9.187 19.04 11.002 8.022 1.815 17.436 1.671 27.707-.423s21.197-6.098 32.154-11.783S157.87 119.286 164.003 106m-22.817-48.095c6.138 7.349 4.835 18.6-2.91 25.13s-18.999 5.864-25.136-1.485-4.835-18.6 2.91-25.13c7.744-6.53 18.998-5.865 25.136 1.485m0 0c-22.352-25.175-67.977 2.09-66.624 50.167S155 130 164.003 106m0 0c9.315-22.493 8.043-46.116-5.677-62.545-22.024-26.371-67.781-24.223-102.203 4.797s-44.472 73.922-22.449 100.293c22.024 26.371 67.781 24.223 102.203-4.796 12.976-10.941 22.489-24.138 28.126-37.749"/></svg>