<svg xmlns="http://www.w3.org/2000/svg" width="192" height="192" fill="none"><path stroke="#000" stroke-linecap="round" stroke-linejoin="round" stroke-width="12" d="M134 59c0-4.859-.983-9.67-2.893-14.16a36.9 36.9 0 0 0-8.237-12.003 38.1 38.1 0 0 0-12.328-8.02A38.9 38.9 0 0 0 96 22c-4.99 0-9.932.957-14.542 2.817a38.1 38.1 0 0 0-12.328 8.02 37 37 0 0 0-8.237 12.004A36.2 36.2 0 0 0 58 59c0 27 30 33.856 38 37s38 10 38 37c0 4.859-.983 9.67-2.893 14.159a36.9 36.9 0 0 1-8.237 12.004 38.1 38.1 0 0 1-12.328 8.021A38.9 38.9 0 0 1 96 170a38.9 38.9 0 0 1-14.542-2.816 38.1 38.1 0 0 1-12.328-8.021 37 37 0 0 1-8.237-12.004A36.2 36.2 0 0 1 58 133"/><path stroke="#000" stroke-linecap="round" stroke-linejoin="round" stroke-width="12" d="m49 137 10-10 10 10m54-82 10 10 10-10"/></svg>