<svg xmlns="http://www.w3.org/2000/svg" width="192" height="192" fill="none"><circle cx="52" cy="52" r="30" stroke="#000" stroke-linecap="round" stroke-linejoin="round" stroke-width="12"/><circle cx="52" cy="140" r="30" stroke="#000" stroke-linecap="round" stroke-linejoin="round" stroke-width="12"/><path stroke="#000" stroke-linecap="round" stroke-linejoin="round" stroke-width="10" d="M61 140c0-1.755-.462-3.48-1.34-5M23 140a18.999 18.999 0 0 0 36.554 7.271A19 19 0 0 0 61 140"/><path stroke="#000" stroke-linecap="round" stroke-linejoin="round" stroke-width="12" d="M111 29a6 6 0 0 1 6-6h46a6 6 0 0 1 6 6v46a6 6 0 0 1-6 6h-46a6 6 0 0 1-6-6zm-2.803 105.769a6.07 6.07 0 0 1 2.29-6.441l25.028-18.193a5.92 5.92 0 0 1 6.97 0l25.028 18.193a6.07 6.07 0 0 1 2.29 6.441l-7.736 29.729c-.69 2.653-3.062 4.502-5.775 4.502h-34.584c-2.713 0-5.085-1.849-5.775-4.502z"/></svg>