<svg xmlns="http://www.w3.org/2000/svg" width="192" height="192" fill="none"><circle cx="122" cy="122" r="48" stroke="#000" stroke-linecap="round" stroke-linejoin="round" stroke-width="12"/><path stroke="#000" stroke-linecap="round" stroke-linejoin="round" stroke-width="10" d="M129 102a20 20 0 0 1 14.142 5.858A20 20 0 0 1 149 122m-24-20h4m20 20c0 8.487-3.898 16.626-10.837 22.627C131.224 150.629 121.813 154 112 154s-19.224-3.371-26.163-9.373S75 130.487 75 122"/><path stroke="#000" stroke-linecap="round" stroke-linejoin="round" stroke-width="12" d="M74 110H38c-8.837 0-16-7.163-16-16V38c0-8.837 7.163-16 16-16h56c8.837 0 16 7.163 16 16v36"/></svg>