<svg xmlns="http://www.w3.org/2000/svg" width="192" height="192" fill="none"><path stroke="#000" stroke-linecap="round" stroke-linejoin="round" stroke-width="12" d="M31.001 167a6 6 0 0 1-6-6V43a6 6 0 0 1 6-6H48v-6a6 6 0 0 1 6-6h14a6 6 0 0 1 6 6v6h42v-6a6 6 0 0 1 6-6h14a6 6 0 0 1 6 6v6h19a6 6 0 0 1 6 6l-.001 118a6 6 0 0 1-1.757 4.243 6 6 0 0 1-4.243 1.757z"/><path stroke="#000" stroke-linecap="round" stroke-linejoin="round" stroke-width="10" d="M25 61h142M60 91h-6a5 5 0 0 0 0 10h6a5 5 0 0 0 0-10m0 36h-6a5 5 0 0 0 0 10h6a5 5 0 0 0 0-10m39-36h-6a5 5 0 0 0 0 10h6a5 5 0 0 0 0-10m0 36h-6a5 5 0 0 0 0 10h6a5 5 0 0 0 0-10m39-36h-6a5 5 0 0 0 0 10h6a5 5 0 0 0 0-10m0 36h-6a5 5 0 0 0 0 10h6a5 5 0 0 0 0-10"/></svg>