<svg xmlns="http://www.w3.org/2000/svg" width="192" height="192" fill="none"><path stroke="#000" stroke-linecap="round" stroke-linejoin="round" stroke-width="12" d="M136 78a22 22 0 0 0-20.075 13m-48.36 21.246a32 32 0 0 1-6.937 10.381A32 32 0 0 1 38 132c-2.51 0-4.999-.43-7.36-1.267C25.127 120.376 22 108.553 22 96c0-40.535 32.592-73.458 73-73.993M136 56a44 44 0 0 0-43.07 35M136 34a66 66 0 0 0-65.383 57m-21.9 61.926A53.99 53.99 0 0 0 90.412 113m67.856-57C165.693 67.534 170 81.264 170 96c0 40.869-33.131 74-74 74a74 74 0 0 1-21.696-3.231 76.02 76.02 0 0 0 33.911-37.685A76 76 0 0 0 112.88 113"/></svg>