<svg xmlns="http://www.w3.org/2000/svg" width="192" height="192" fill="none"><path stroke="#000" stroke-width="12" d="M96 69.904c13.228 0 23.952-10.724 23.952-23.952S109.228 22 96 22 72.048 32.724 72.048 45.952 82.772 69.904 96 69.904ZM96 170c13.228 0 23.952-10.724 23.952-23.952S109.228 122.096 96 122.096s-23.952 10.724-23.952 23.952S82.772 170 96 170Zm50.048-50.048C159.276 119.952 170 109.228 170 96s-10.724-23.952-23.952-23.952S122.096 82.772 122.096 96s10.724 23.952 23.952 23.952Zm-100.096 0c13.228 0 23.952-10.724 23.952-23.952S59.18 72.048 45.952 72.048 22 82.772 22 96s10.724 23.952 23.952 23.952Z"/><path stroke="#000" stroke-width="12" d="M105.764 66.998A23.95 23.95 0 0 1 94.18 45.214a23.95 23.95 0 0 1 13.797-20.455M125.93 78.75a85.2 85.2 0 0 1 30.206 43.14m-92.64-10.052a77.34 77.34 0 0 1-25.06-34.492m46.924 47.366a23.955 23.955 0 0 1 10.6 32.865 23.95 23.95 0 0 1-8.763 9.194"/></svg>