<svg xmlns="http://www.w3.org/2000/svg" width="192" height="192" fill="none"><path stroke="#000" stroke-linecap="round" stroke-linejoin="round" stroke-width="12" d="M64 124v46m102-46v46M60 126s60-18 110-2"/><path stroke="#000" stroke-linecap="round" stroke-linejoin="round" stroke-width="12" d="M64 124c0-6.435.75-12.807 2.207-18.751 1.458-5.945 3.594-11.347 6.287-15.897s5.89-8.16 9.408-10.622C85.421 76.267 89.192 75 93 75c3.436 0 6.84 1.031 10.058 3.041M90 118c0-6.435.802-12.807 2.36-18.751s3.841-11.347 6.72-15.897a40.5 40.5 0 0 1 3.978-5.31M166 124c0-5.778-.647-11.5-1.903-16.838s-3.098-10.189-5.419-14.275c-2.322-4.085-5.078-7.326-8.111-9.538C147.534 81.14 144.283 80 141 80q-.212 0-.424.006m-37.518-1.965c1.889-2.12 3.928-3.903 6.079-5.311C112.898 70.267 116.929 69 121 69s8.102 1.267 11.863 3.73c2.786 1.824 5.384 4.277 7.713 7.276m0 0c-3.138.094-6.24 1.227-9.143 3.343-3.033 2.212-5.789 5.453-8.111 9.538-2.321 4.086-4.163 8.937-5.419 14.275a72 72 0 0 0-1.585 9.838"/><path stroke="#000" stroke-linecap="round" stroke-linejoin="round" stroke-width="10" d="M132 24 31.1 72.87l-4.7-7.95z"/><path stroke="#000" stroke-linecap="round" stroke-linejoin="round" stroke-width="10" d="M35.759 66.238c1.038 2.302-1.37 5.404-5.38 6.93s-8.1.895-9.138-1.406 1.37-5.404 5.38-6.93 8.1-.895 9.138 1.406"/></svg>