<svg xmlns="http://www.w3.org/2000/svg" width="192" height="192" fill="none"><path stroke="#000" stroke-linecap="round" stroke-linejoin="round" stroke-width="12" d="M86 70a16 16 0 0 1-16 16H38a16 16 0 1 1 0-32h32m16 16a16 16 0 0 0-16-16m16 16V38a16 16 0 1 0-16 16m52 32a16 16 0 0 1-16-16V38a16 16 0 0 1 16-16 16 16 0 0 1 16 16v32m-16 16a16 16 0 0 0 16-16m-16 16h32a16 16 0 1 0-16-16m-32 52a16 16 0 0 1 16-16h32c4.243 0 8.313 1.686 11.314 4.686a16.004 16.004 0 0 1 0 22.628A16 16 0 0 1 154 138h-32m-16-16a16 16 0 0 0 16 16m-16-16v32a15.998 15.998 0 0 0 19.121 15.693 16 16 0 0 0 8.193-4.379A16.003 16.003 0 0 0 122 138m-52-32a16 16 0 0 1 16 16v32a16 16 0 0 1-16 16 16 16 0 0 1-16-16v-32m16-16a16 16 0 0 0-16 16m16-16H38a16 16 0 1 0 16 16"/></svg>