<svg xmlns="http://www.w3.org/2000/svg" width="192" height="192" fill="none"><path stroke="#000" stroke-linecap="round" stroke-linejoin="round" stroke-width="12" d="M82 85s16-12 44-2 44-2 44-2m-88 30s16-12 44-2 44-2 44-2"/><path stroke="#000" stroke-linecap="round" stroke-linejoin="round" stroke-width="12" d="M142.548 66C131.794 45.773 110.506 32 86 32c-35.346 0-64 28.654-64 64s28.654 64 64 64c21.42 0 40.383-10.523 52-26.682"/><path stroke="#000" stroke-linecap="round" stroke-linejoin="round" stroke-width="12" d="M96 59.33A38 38 0 0 0 86 58c-20.987 0-38 17.013-38 38s17.013 38 38 38a37.84 37.84 0 0 0 23.955-8.5"/></svg>