<svg xmlns="http://www.w3.org/2000/svg" width="192" height="192" fill="none"><ellipse cx="96" cy="96" stroke="#000" stroke-linecap="round" stroke-linejoin="round" stroke-width="12" rx="74" ry="50"/><path stroke="#000" stroke-linecap="round" stroke-linejoin="round" stroke-width="12" d="M102.426 95.238c8.361 0 18.574 3.767 18.574 13.407 0 8.979-9.431 15.355-23.532 15.355-5.006 0-11.676-.917-15.617-2.503m20.575-26.26c8.361 0 15.17-4.94 15.17-11.882 0-8.98-8.056-15.355-20.277-15.355-5.135 0-10.862 1.285-15.468 3.442m20.575 23.796H81.851m0-23.796v23.796m0-23.796c-3.416 1.56-6.626 3.344-8.851 4.653m8.851 45.402v-26.26m0 26.26A59 59 0 0 1 73 117.024"/></svg>