<svg xmlns="http://www.w3.org/2000/svg" width="192" height="192" fill="none"><circle cx="96" cy="139" r="6" stroke="#000" stroke-linecap="round" stroke-linejoin="round" stroke-width="12"/><path stroke="#000" stroke-linecap="round" stroke-linejoin="round" stroke-width="12" d="M22 29a6 6 0 0 1 6-6h136a6 6 0 0 1 6 6v46a6 6 0 0 1-6 6H28a6 6 0 0 1-6-6z"/><path stroke="#000" stroke-linecap="round" stroke-linejoin="round" stroke-width="12" d="M117 81 96 47 75 81m-23 40a6 6 0 0 1 6-6h13.416a6 6 0 0 0 5.283-3.155l3.602-6.69A6 6 0 0 1 85.584 102h20.832a6 6 0 0 1 5.283 3.155l3.602 6.69a6 6 0 0 0 5.283 3.155H134a6 6 0 0 1 6 6v42a6 6 0 0 1-6 6H58a6 6 0 0 1-6-6z"/></svg>