<svg xmlns="http://www.w3.org/2000/svg" width="192" height="192" fill="none"><path stroke="#000" stroke-linecap="round" stroke-linejoin="round" stroke-width="12" d="M43 86a6 6 0 0 1 6-6h94a6 6 0 0 1 6 6v20a6 6 0 0 1-6 6H49a6 6 0 0 1-6-6zm25.756-19.266a5.997 5.997 0 0 1 0-8.481l34.497-34.497a5.997 5.997 0 0 1 8.481 0l9.51 9.51a6 6 0 0 1 0 8.481L86.747 76.244a5.997 5.997 0 0 1-8.48 0zm2 92a5.997 5.997 0 0 1 0-8.481l34.497-34.497a6 6 0 0 1 8.481 0l9.51 9.51a6 6 0 0 1 0 8.481l-34.497 34.497a6 6 0 0 1-8.48 0z"/></svg>