<svg xmlns="http://www.w3.org/2000/svg" width="192" height="192" fill="none"><path stroke="#000" stroke-linecap="round" stroke-linejoin="round" stroke-width="12" d="M113.584 96.449a6 6 0 0 0 5.983 5.551h16.866c3.14 0 5.749-2.42 5.983-5.551l5.1-68a6 6 0 0 0-1.585-4.53A6 6 0 0 0 141.533 22h-27.066a6 6 0 0 0-4.398 1.92 6 6 0 0 0-1.585 4.53zM128 126c8.837 0 16 7.163 16 16s-7.163 16-16 16-16-7.163-16-16 7.163-16 16-16M49.584 95.551A6 6 0 0 1 55.567 90h16.866a6 6 0 0 1 5.983 5.551l5.1 68A6 6 0 0 1 77.533 170H50.467a6 6 0 0 1-5.663-4.019 6 6 0 0 1-.32-2.43zM64 66c8.837 0 16-7.163 16-16s-7.163-16-16-16-16 7.163-16 16 7.163 16 16 16"/></svg>