<svg xmlns="http://www.w3.org/2000/svg" width="192" height="192" fill="none"><path stroke="#000" stroke-linecap="round" stroke-linejoin="round" stroke-width="12" d="M139 58.448C139 50.172 131.084 45 122.515 45S107 51.207 107 59.483C107 69.793 116 72 123 75s16 5.207 16 15.517c0 8.276-6.946 14.483-15.515 14.483S107 99.828 107 91.552M86 46H60a6 6 0 0 0-6 6v23m0 0h28m-28 0v23a6 6 0 0 0 6 6h26m-47 66h126"/><path stroke="#000" stroke-linecap="round" stroke-linejoin="round" stroke-width="12" d="M27 158V28a6 6 0 0 1 6-6h126a6 6 0 0 1 6 6v112a6 6 0 0 1-6 6H39"/><path stroke="#000" stroke-linecap="round" stroke-linejoin="round" stroke-width="12" d="M39 146a12 12 0 1 0 0 24"/></svg>