<svg xmlns="http://www.w3.org/2000/svg" width="192" height="192" fill="none"><path stroke="#000" stroke-linecap="round" stroke-linejoin="round" stroke-width="12" d="M49.813 73.963A18.2 18.2 0 0 1 58.28 62.9l66.457-38.46a18.14 18.14 0 0 1 13.791-1.82 18.18 18.18 0 0 1 11.036 8.488 18.26 18.26 0 0 1 1.816 13.824 18.22 18.22 0 0 1-8.468 11.062l-66.457 38.46a18.14 18.14 0 0 1-13.792 1.82 18.18 18.18 0 0 1-11.035-8.488 18.26 18.26 0 0 1-1.816-13.824Zm-9.193 73.104a18.2 18.2 0 0 1 8.467-11.062l66.457-38.46a18.14 18.14 0 0 1 13.792-1.82 18.18 18.18 0 0 1 11.035 8.488 18.25 18.25 0 0 1 1.816 13.824 18.2 18.2 0 0 1-8.468 11.062l-66.457 38.46a18.13 18.13 0 0 1-13.791 1.82 18.18 18.18 0 0 1-11.036-8.488 18.26 18.26 0 0 1-1.816-13.824Z"/></svg>