<svg xmlns="http://www.w3.org/2000/svg" width="192" height="192" fill="none"><path stroke="#000" stroke-linecap="round" stroke-linejoin="round" stroke-width="12" d="M57 60c0 35.5-32 60-32 95M155 22H87a6 6 0 0 0-6 6v136a6 6 0 0 0 6 6h68a6 6 0 0 0 6-6V28a6 6 0 0 0-6-6M57 154V45l6-12h18M57 60h24"/><path stroke="#000" stroke-linecap="round" stroke-linejoin="round" stroke-width="12" d="M103 50a6 6 0 0 1 6-6h24a6 6 0 0 1 6 6v20a6 6 0 0 1-6 6h-24a6 6 0 0 1-6-6zM57 154a16.001 16.001 0 0 1-27.314 11.314A16 16 0 0 1 25 154"/></svg>