<svg xmlns="http://www.w3.org/2000/svg" width="192" height="192" fill="none"><path stroke="#000" stroke-linecap="round" stroke-linejoin="round" stroke-width="12" d="M83 46s4-24 25-24 10 33 10 33m15 28s37-3 37-25-43-10-52-3m15 28s42 12 35 32-40-3-40-3m0 0s29 21 7 42-32-22-32-22m-33-2s-14 40 15 40c26 0 18-38 18-38"/><path stroke="#000" stroke-linecap="round" stroke-linejoin="round" stroke-width="12" d="M70 130c-4 21-30 27-39 10s20-27 20-27m-6.495-23.99s-21.481-5.897-22.48 10.81C21.024 116.53 51 112.598 51 112.598M83 46S73 20 57 26s-1 33-1 33"/><path stroke="#000" stroke-linecap="round" stroke-linejoin="round" stroke-width="12" d="M44.198 89s-27.21-7.972-21.379-23.914 28.181 0 28.181 0"/><circle cx="96" cy="71" r="3" stroke="#000" stroke-linecap="round" stroke-linejoin="round" stroke-width="6"/><circle cx="71" cy="77" r="3" stroke="#000" stroke-linecap="round" stroke-linejoin="round" stroke-width="6"/><circle cx="89" cy="90" r="44" stroke="#000" stroke-linecap="round" stroke-linejoin="round" stroke-width="12"/><path stroke="#000" stroke-linecap="round" stroke-linejoin="round" stroke-width="12" d="M73 99s5 9 17 9 16-14 16-14"/></svg>