<svg xmlns="http://www.w3.org/2000/svg" width="192" height="192" fill="none"><path stroke="#000" stroke-width="12" d="M161.478 86.244a20.1 20.1 0 0 1 1.877 14.799 19.97 19.97 0 0 1-8.829 11.985l-88.981 54.217a19.46 19.46 0 0 1-19.688.161 19.63 19.63 0 0 1-7.228-7.236A19.8 19.8 0 0 1 36 150.256V41.671a20.1 20.1 0 0 1 2.715-9.869 19.9 19.9 0 0 1 7.216-7.22A19.76 19.76 0 0 1 55.744 22c3.438.009 6.815.916 9.8 2.631l.1.1L154.427 78.9c2.9 1.792 5.343 4.304 7.001 7.295l.05.05Z"/><path stroke="#000" stroke-linecap="round" stroke-linejoin="round" stroke-width="12" d="M97.607 70.752s-11.974-5.958-25.073-2.858a14.2 14.2 0 0 0-5.158 2.194 14.1 14.1 0 0 0-3.894 4.008 14 14 0 0 0-2.02 5.19 13.9 13.9 0 0 0 .173 5.561c2.395 9.833 17.449 10.124 17.449 10.124s18.963.436 21.602 11.383c2.102 8.815-6.745 15.887-14.565 17.728C73.023 127.23 61 121.272 61 121.272"/></svg>