<svg xmlns="http://www.w3.org/2000/svg" width="192" height="192" fill="none"><path stroke="#000" stroke-linecap="round" stroke-linejoin="round" stroke-width="12" d="M162 145c0 3.283-1.707 6.534-5.024 9.567s-8.178 5.789-14.307 8.111c-6.129 2.321-13.404 4.163-21.412 5.419S104.667 170 96 170s-17.25-.647-25.257-1.903-15.283-3.098-21.412-5.419c-6.129-2.322-10.99-5.078-14.307-8.111S30 148.283 30 145"/><ellipse cx="96" cy="47" stroke="#000" stroke-linecap="round" stroke-linejoin="round" stroke-width="12" rx="66" ry="25"/><path stroke="#000" stroke-linecap="round" stroke-linejoin="round" stroke-width="12" d="M162 80c0 3.283-1.707 6.534-5.024 9.567s-8.178 5.79-14.307 8.11c-6.129 2.322-13.404 4.164-21.412 5.42S104.667 105 96 105s-17.25-.647-25.257-1.903-15.283-3.098-21.412-5.42c-6.129-2.32-10.99-5.077-14.307-8.11S30 83.283 30 80m132 32c0 3.283-1.707 6.534-5.024 9.567s-8.178 5.789-14.307 8.111c-6.129 2.321-13.404 4.163-21.412 5.419S104.667 137 96 137s-17.25-.647-25.257-1.903-15.283-3.098-21.412-5.419c-6.129-2.322-10.99-5.078-14.307-8.111S30 115.283 30 112m0-65v98m132-98v98"/></svg>