<svg xmlns="http://www.w3.org/2000/svg" width="192" height="192" fill="none"><path stroke="#000" stroke-linecap="round" stroke-linejoin="round" stroke-width="12" d="M95 133.862c7.536 1.919 14 5.417 14 11.138 0 9-14 9-22 14s-11 11-16 11-10-13-15-17c-3.928-3.142-14.64-8-10-20m19-42s-20-4-20-30c0-32 27-33 27-33s-4 13-1 13 15-19 38-19 54 25 44 57c0 0-6-6-9-2s17 49-23 43c0 0 7-28-9-29-11.673-.73-14.297 16.105-14.863 25.264M101 135s-1.623-8.925-3.863-18.736m0 0C94.402 104.291 88.748 82 86 82c-5 0-5 9-8 9s-4-7-8-6c-1.044.261-4.088 7.2-5.061 12"/><ellipse cx="65.5" cy="123" stroke="#000" stroke-linecap="round" stroke-linejoin="round" stroke-width="10" rx="1.5" ry="6"/><ellipse cx="76.5" cy="121" stroke="#000" stroke-linecap="round" stroke-linejoin="round" stroke-width="10" rx="1.5" ry="6"/></svg>