<svg xmlns="http://www.w3.org/2000/svg" width="192" height="192" fill="none"><path stroke="#000" stroke-linecap="round" stroke-linejoin="round" stroke-width="12" d="M164 54 79 22 22 94m21-25 18 64m65-2-13.098-46.57a6 6 0 0 0-7.281-4.184l-19.14 4.962a6 6 0 0 0-4.27 7.433l8.68 30.859M134 44l23.344 83M22 170s10-12 22-12 16 12 27 12 15-12 25-12 14 12 25 12 15-12 27-12 22 12 22 12"/><path stroke="#000" stroke-linecap="round" stroke-linejoin="round" stroke-width="12" d="M22 139s10-12 22-12 16 12 27 12 15-12 25-12 14 12 25 12 15-12 27-12 22 12 22 12"/></svg>