<svg xmlns="http://www.w3.org/2000/svg" width="192" height="192" fill="none"><path stroke="#000" stroke-linecap="round" stroke-linejoin="round" stroke-width="12" d="M53 58c0 54 67 38 67 69m28 0c0-54-69-36-69-69m-35 69v-4a6 6 0 0 1 6-6h16a6 6 0 0 1 6 6v4M53 58c0-9.548 4.214-18.705 11.716-25.456S82.39 22 93 22s20.783 3.793 28.284 10.544c5.921 5.329 9.794 12.155 11.163 19.49C133.055 55.29 130.314 58 127 58h-14c-3.314 0-5.893-2.836-7.45-5.76a13 13 0 0 0-2.651-3.432C100.274 46.37 96.713 45 93 45s-7.274 1.37-9.9 3.808C80.475 51.246 79 54.552 79 58m69 69c0 5.647-1.345 11.238-3.958 16.455s-6.444 9.958-11.272 13.951-10.562 7.16-16.87 9.321S102.829 170 96 170s-13.59-1.112-19.9-3.273c-6.308-2.161-12.04-5.328-16.87-9.321-4.828-3.993-8.658-8.734-11.272-13.951C45.345 138.238 44 132.647 44 127"/><path stroke="#000" stroke-linecap="round" stroke-linejoin="round" stroke-width="12" d="M120 127c0 2.626-.621 5.227-1.827 7.654s-2.974 4.631-5.202 6.488c-2.229 1.857-4.875 3.33-7.787 4.336A28.2 28.2 0 0 1 96 147c-3.152 0-6.273-.517-9.184-1.522-2.912-1.006-5.558-2.479-7.787-4.336s-3.996-4.062-5.202-6.488C72.62 132.227 72 129.626 72 127"/></svg>