<svg xmlns="http://www.w3.org/2000/svg" width="192" height="192" fill="none"><path stroke="#000" stroke-linecap="round" stroke-linejoin="round" stroke-width="12" d="M81.753 83.851c8.188-8.201 8.188-21.498 0-29.7-8.188-8.2-21.463-8.2-29.65 0-8.188 8.202-8.188 21.499 0 29.7 8.187 8.202 21.462 8.202 29.65 0m0 0s11.65 8.147 21.247 16.273m-4.303-62.943A44.9 44.9 0 0 0 66.927 24 44.9 44.9 0 0 0 35.16 37.18 45.04 45.04 0 0 0 22 69.003a45.04 45.04 0 0 0 13.16 31.82c24.002 24.043 45.887 33.236 78.362 65.764l-9.884-29.7C131.171 143.25 170 168 170 168s-12.708-39.599-36.711-63.642c14.12-2.828 29.651 4.243 29.651 4.243-11.295-11.314-26.121-33.235-64.243-71.42"/></svg>