<svg xmlns="http://www.w3.org/2000/svg" width="192" height="192" fill="none"><path stroke="#000" stroke-linecap="round" stroke-linejoin="round" stroke-width="10" d="m26 110 59-44 41-18 40 11"/><path stroke="#000" stroke-linecap="round" stroke-linejoin="round" stroke-width="10" d="m26 110 27 32 44-30-12-46"/><path stroke="#000" stroke-linecap="round" stroke-linejoin="round" stroke-width="10" d="M26 115a5 5 0 1 0 0-10 5 5 0 0 0 0 10m27 32a5 5 0 1 0 0-10 5 5 0 0 0 0 10"/><path stroke="#000" stroke-linecap="round" stroke-linejoin="round" stroke-width="8" d="M97 116a4 4 0 1 0 0-8 4 4 0 0 0 0 8m29-64a4 4 0 1 0 0-8 4 4 0 0 0 0 8"/><path stroke="#000" stroke-linecap="round" stroke-linejoin="round" stroke-width="10" d="M166 64a5 5 0 1 0 0-10 5 5 0 0 0 0 10"/><path stroke="#000" stroke-linecap="round" stroke-linejoin="round" stroke-width="12" d="M85 72a6 6 0 1 0 0-12 6 6 0 0 0 0 12"/></svg>