<svg xmlns="http://www.w3.org/2000/svg" width="192" height="192" fill="none"><path stroke="#000" stroke-linecap="round" stroke-linejoin="round" stroke-width="10" d="m26 110 59-44 41-18 40 11"/><path stroke="#000" stroke-linecap="round" stroke-linejoin="round" stroke-width="10" d="m26 110 27 32 44-30-12-46"/><path stroke="#000" stroke-linecap="round" stroke-linejoin="round" stroke-width="10" d="M26 115a5 5 0 1 0 0-10 5 5 0 0 0 0 10m27 32a5 5 0 1 0 0-10 5 5 0 0 0 0 10"/><path stroke="#000" stroke-linecap="round" stroke-linejoin="round" stroke-width="8" d="M97 116a4 4 0 1 0 0-8 4 4 0 0 0 0 8m29-64a4 4 0 1 0 0-8 4 4 0 0 0 0 8"/><path stroke="#000" stroke-linecap="round" stroke-linejoin="round" stroke-width="10" d="M166 64a5 5 0 1 0 0-10 5 5 0 0 0 0 10"/><path stroke="#000" stroke-linecap="round" stroke-linejoin="round" stroke-width="12" d="M85 72a6 6 0 1 0 0-12 6 6 0 0 0 0 12"/><path stroke="#000" stroke-linecap="round" stroke-linejoin="round" stroke-miterlimit="6" stroke-width="10" d="M150.224 96.103a2.883 2.883 0 0 1 5.552 0l2.248 7.215c.391 1.253 1.512 2.102 2.776 2.102h7.276c2.827 0 4.003 3.773 1.715 5.506l-5.886 4.459c-1.023.775-1.451 2.149-1.06 3.403l2.248 7.214c.874 2.804-2.204 5.136-4.492 3.403l-5.885-4.459a2.825 2.825 0 0 0-3.432 0l-5.885 4.459c-2.288 1.733-5.366-.599-4.492-3.403l2.248-7.214c.391-1.254-.037-2.628-1.06-3.403l-5.886-4.459c-2.288-1.733-1.112-5.506 1.715-5.506h7.276c1.264 0 2.385-.849 2.776-2.102z"/></svg>