<svg width="192" height="192" fill="none" xmlns="http://www.w3.org/2000/svg"><path d="M51.395 24h-3.278c-9.376 0-16.772 7.915-16.071 17.197l3.626 48C36.302 97.546 43.31 104 51.742 104h28.515c8.433 0 15.44-6.454 16.07-14.803l3.627-48C100.655 31.915 93.259 24 83.884 24h-3.28" stroke="#000" stroke-width="12" stroke-linecap="round" stroke-linejoin="round"/><circle cx="142" cy="90" r="20" stroke="#000" stroke-width="12" stroke-linecap="round" stroke-linejoin="round"/><circle cx="52" cy="24" r="4" stroke="#000" stroke-width="8" stroke-linecap="round" stroke-linejoin="round"/><circle cx="80" cy="24" r="4" stroke="#000" stroke-width="8" stroke-linecap="round" stroke-linejoin="round"/><path d="M142 132a37.994 37.994 0 0 1-11.13 26.87A37.99 37.99 0 0 1 104 170a37.995 37.995 0 0 1-26.87-11.13A38.008 38.008 0 0 1 66 132m76-22v22m-76-28v28" stroke="#000" stroke-width="12" stroke-linecap="round" stroke-linejoin="round"/></svg>