<svg xmlns="http://www.w3.org/2000/svg" width="192" height="192" fill="none"><path stroke="#000" stroke-linecap="round" stroke-linejoin="round" stroke-width="12" d="M103 96a37 37 0 0 1 0-74"/><path stroke="#000" stroke-linecap="round" stroke-linejoin="round" stroke-width="12" d="M67 96a37 37 0 0 1 0-74m58 74a37 37 0 0 1 34.184 22.841 37.01 37.01 0 0 1-8.021 40.322A37 37 0 0 1 125 170"/><path stroke="#000" stroke-linecap="round" stroke-linejoin="round" stroke-width="12" d="M89 96a37 37 0 0 1 34.184 22.841 37.01 37.01 0 0 1-8.021 40.322A37 37 0 0 1 89 170M67 96h58M67 22h87a6 6 0 0 1 6 6v56l-60-62"/><path stroke="#000" stroke-linecap="round" stroke-linejoin="round" stroke-width="12" d="M125 170H92m0 0H38a6 6 0 0 1-6-6v-56z"/></svg>