<svg xmlns="http://www.w3.org/2000/svg" width="192" height="192" fill="none"><path stroke="#000" stroke-linecap="round" stroke-width="10" d="m92 60 20-36m20 84 20 36M40 48l20 36m40 48-20 36m44-96h38M30 120h38"/><path stroke="#000" stroke-linecap="round" stroke-width="12" d="M96 170c40.869 0 74-33.131 74-74s-33.131-74-74-74-74 33.13-74 74 33.13 74 74 74Z"/><path stroke="#000" stroke-linecap="round" stroke-width="10" d="M96 132c19.882 0 36-16.118 36-36s-16.118-36-36-36-36 16.118-36 36 16.118 36 36 36Z"/><path stroke="#000" stroke-linecap="round" stroke-width="8" d="M87.464 85.464c1.913-1.105 3.016-2.775 2.464-3.732s-2.55-.837-4.464.268c-1.913 1.105-3.016 2.775-2.464 3.732s2.55.837 4.464-.268Z"/></svg>