<svg xmlns="http://www.w3.org/2000/svg" width="192" height="192" fill="none"><ellipse cx="77" cy="105.5" stroke="#000" stroke-linecap="round" stroke-linejoin="round" stroke-width="8" rx="4" ry="3.5"/><ellipse cx="115" cy="105.5" stroke="#000" stroke-linecap="round" stroke-linejoin="round" stroke-width="8" rx="4" ry="3.5"/><path stroke="#000" stroke-linecap="round" stroke-linejoin="round" stroke-width="8" d="M100 123.5c0 .928-.421 1.818-1.172 2.475-.75.656-1.767 1.025-2.828 1.025s-2.078-.369-2.828-1.025c-.75-.657-1.172-1.547-1.172-2.475z"/><path stroke="#000" stroke-linecap="round" stroke-linejoin="round" stroke-width="12" d="M96 34c-34.242 0-62 27.758-62 62 0 11.461 2.579 21.79 8 31l-20 14 33.903 2.291C66.713 152.466 80.71 158 96 158s29.286-5.534 40.097-14.709L170 141l-20-14c5.421-9.21 8-19.539 8-31 0-34.242-27.758-62-62-62"/><path stroke="#000" stroke-linecap="round" stroke-linejoin="round" stroke-width="12" d="M150 127c0-14.587-5.689-28.576-15.816-38.89C124.057 77.794 110.322 72 96 72s-28.057 5.795-38.184 16.11C47.69 98.423 42 112.412 42 127"/></svg>