<svg xmlns="http://www.w3.org/2000/svg" width="192" height="192" fill="none"><path stroke="#000" stroke-linecap="round" stroke-linejoin="round" stroke-width="12" d="m74.972 98.728-47.161 47.053a5.95 5.95 0 0 0 0 8.428l14.078 14.046a5.983 5.983 0 0 0 8.447 0l47.162-47.054m3.519-42.84 22.525-22.472V41.843l29.564-15.45L170 43.248l-15.486 29.496h-14.078l-22.525 22.473M57.375 48.866l-8.447 8.427a5.983 5.983 0 0 1-8.447 0L24.521 41.37c-4.914 11.57-2.644 25.454 6.81 34.885 8.337 8.318 20.146 11.062 30.773 8.23l82.555 82.365a5.983 5.983 0 0 0 8.447 0l14.078-14.046a5.95 5.95 0 0 0 0-8.427L84.629 62.012c2.838-10.603.089-22.385-8.249-30.703-9.453-9.432-23.37-11.696-34.966-6.794l15.96 15.923a5.95 5.95 0 0 1 0 8.428Z"/></svg>