<svg xmlns="http://www.w3.org/2000/svg" width="192" height="192" fill="none" viewBox="0 0 192 192"><path stroke="#000" stroke-linecap="round" stroke-linejoin="round" stroke-width="12" d="M116.484 147.935c28.715-16.572 47.209-38.288 41.308-48.504-5.9-10.216-33.962-5.064-62.677 11.507-28.715 16.572-47.21 38.288-41.31 48.504 5.902 10.216 33.964 5.064 62.679-11.507m0 0c37.475-21.628 60.566-51.78 51.574-67.347-3.216-5.569-10.102-8.517-19.335-9.017-19.088-31.488-51.952-48.08-80.357-42.685-6.39-5.27-15.108-6.542-22.095-2.51S36.028 38.591 37.4 46.758c-18.876 21.89-20.934 58.636-3.197 90.903m82.282 10.274c-37.476 21.627-75.145 26.539-84.137 10.972-3.216-5.569-2.328-13.003 1.855-21.246m0 0c7.512-14.802 25.649-32.21 49.72-46.101"/><path stroke="#000" stroke-width="10" d="M103.206 109.967c5.127 7.384 2.359 18.173-6.183 24.098s-19.621 4.743-24.748-2.641"/></svg>