<svg xmlns="http://www.w3.org/2000/svg" width="192" height="192" fill="none"><path stroke="#000" stroke-linecap="round" stroke-linejoin="round" stroke-width="12" d="M59.569 127.135c0 4.874-1.98 9.548-5.502 12.995-3.523 3.447-8.3 5.383-13.282 5.383a19.1 19.1 0 0 1-7.189-1.399 18.8 18.8 0 0 1-6.094-3.984C23.979 136.683 22 132.009 22 127.135c0-4.875 1.98-9.549 5.502-12.996 3.523-3.446 8.3-5.382 13.283-5.382 4.981 0 9.76 1.936 13.282 5.382 3.523 3.447 5.502 8.121 5.502 12.996m9.628-82.193a1.9 1.9 0 0 0-1.213-.89 1.94 1.94 0 0 0-1.49.256 23.62 23.62 0 0 0-9.326 11.33q-.139.363-.264.722a22.4 22.4 0 0 0-1.04 9.515 22.45 22.45 0 0 0 3.034 9.09l40.316 68.913a1.9 1.9 0 0 0 1.166.88 1.94 1.94 0 0 0 1.454-.195 21.6 21.6 0 0 0 7.413-6.916c2.906-4.47 3.508-9.248 3.246-13.253a26.9 26.9 0 0 0-3.702-11.801zm57.45 1.179a1.9 1.9 0 0 0-1.213-.891 1.94 1.94 0 0 0-1.49.256 23.62 23.62 0 0 0-9.327 11.331q-.14.363-.263.721a22.4 22.4 0 0 0-1.04 9.516 22.4 22.4 0 0 0 3.034 9.089l40.317 68.915a1.9 1.9 0 0 0 1.166.879 1.94 1.94 0 0 0 1.454-.195 21.6 21.6 0 0 0 7.414-6.915c2.906-4.47 3.508-9.249 3.246-13.254a26.9 26.9 0 0 0-3.703-11.801z"/></svg>