<svg xmlns="http://www.w3.org/2000/svg" width="192" height="192" fill="none"><path stroke="#000" stroke-linecap="round" stroke-linejoin="round" stroke-width="14" d="M137.955 35a30.8 30.8 0 0 0-12.99 2.888 31.1 31.1 0 0 0-10.6 8.112l-.063-.064-35.308 35.643-.037-.038s-2.249-2.268-3.263-3.286c-5.552-5.57-13.21-9.032-21.65-9.032C36.899 69.223 23 83.14 23 100.31a31 31 0 0 0 8.187 21.035l-.234.17 27.469 27.859q.197.206.398.405l.089.09c5.488 5.227 12.655 8.127 20.091 8.13a28.8 28.8 0 0 0 11.548-2.438 29.8 29.8 0 0 0 9.737-6.91l57.814-58.496a31.3 31.3 0 0 0 8.038-10.702A31.6 31.6 0 0 0 169 66.34c0-8.311-3.271-16.282-9.092-22.159a30.9 30.9 0 0 0-21.951-9.179l-.002-.001Z"/></svg>