<svg xmlns="http://www.w3.org/2000/svg" width="192" height="192" fill="none"><path stroke="#000" stroke-linejoin="bevel" stroke-width="12" d="M96.803 69.565c1.256-.424 2.26-1.175 2.828-2.112a47.5 47.5 0 0 1 4.119-13.466c2.786-5.673 7.178-11.92 13.369-16.11a66.6 66.6 0 0 1 20.315-8.72 49.2 49.2 0 0 1 14.816-.977c8.912.803 13.84 3.342 16.323 6.623a7.2 7.2 0 0 1 1.422 3.768c.075 1.637-.632 3.769-3.001 5.847-2.355 2.097-7.174 4.571-13.826 6.797-6.901 2.285-16.335 4.714-25.75 6.872a148 148 0 0 0-16.112 4.62c-6.225 2.113-8.104 8.291-4.234 10.185a58.6 58.6 0 0 1 12.118 7.913 107.2 107.2 0 0 1 16.142 15.842c5.862 7.144 15.451 20.768 18.879 33.995 3.825 14.522 1.436 28.282-6.792 32.129-8.073 3.783-18.83-1.671-26.381-9.505-7.174-7.393-12.197-16.144-16.936-29.579-4.094-11.617-5.734-28.376-5.734-37.175 0-2.931 0-3.546.076-6.194.272-2.3-5.953-4.224-12.635.076-7.616 4.888-15.058 13.733-19.465 18.89-1.913 2.255-4.517 5.548-7.268 9.003-3.629 4.537-7.627 9.267-11.279 11.919-5.465 3.892-14.298 5.582-20.504 1.195-3.447-2.444-5.291-7.079-5.291-11.79a17.9 17.9 0 0 1 2.43-9.272c2.117-3.624 5.466-7.52 10.885-11.983A95.3 95.3 0 0 1 58.762 75.02c13.633-5.47 28.309-7.19 38.041-5.454Z"/></svg>