<svg xmlns="http://www.w3.org/2000/svg" width="192" height="192" fill="none"><ellipse cx="123" cy="92" stroke="#000" stroke-linecap="round" stroke-linejoin="round" stroke-width="12" rx="20" ry="31"/><path stroke="#000" stroke-linecap="round" stroke-linejoin="round" stroke-width="12" d="M83 123H49c14-17 34-32 34-47 0-7-5-15-16-15-12 0-16 11-16 11"/><path stroke="#000" stroke-linecap="round" stroke-linejoin="round" stroke-width="12" d="M22 41c0-8.837 7.163-16 16-16h116c8.837 0 16 7.163 16 16v87.373a16 16 0 0 1-4.686 11.313l-22.628 22.628A16 16 0 0 1 131.373 167H38c-8.837 0-16-7.163-16-16z"/></svg>