<svg xmlns="http://www.w3.org/2000/svg" width="192" height="192" fill="none"><path stroke="#000" stroke-linecap="round" stroke-linejoin="round" stroke-width="12" d="M117 91h6m0 0c3.173 0 6.283-.784 8.977-2.262s4.866-3.593 6.27-6.104c1.403-2.51 1.982-5.318 1.671-8.104-.311-2.787-1.499-5.44-3.431-7.661-1.932-2.222-4.529-3.921-7.499-4.908a19.14 19.14 0 0 0-9.305-.673c-3.112.546-5.988 1.85-8.304 3.764s-3.979 4.361-4.8 7.066M123 91c3.36 0 6.652.836 9.505 2.413s5.153 3.832 6.639 6.51 2.099 5.673 1.769 8.645c-.329 2.972-1.587 5.803-3.633 8.172-2.045 2.369-4.795 4.183-7.94 5.234a20.1 20.1 0 0 1-9.852.719c-3.295-.583-6.341-1.974-8.793-4.015-2.452-2.042-4.212-4.652-5.082-7.537M85 123H51c14-17 34-32 34-47 0-7-5-15-16-15-12 0-16 11-16 11"/><path stroke="#000" stroke-linecap="round" stroke-linejoin="round" stroke-width="12" d="M22 41c0-8.837 7.163-16 16-16h116c8.837 0 16 7.163 16 16v87.373a16 16 0 0 1-4.686 11.313l-22.628 22.628A16 16 0 0 1 131.373 167H38c-8.837 0-16-7.163-16-16z"/></svg>