<svg xmlns="http://www.w3.org/2000/svg" width="192" height="192" fill="none"><path stroke="#000" stroke-linecap="round" stroke-linejoin="round" stroke-width="12" d="M22 65.176v61.648m23.04-72.711v83.755M68.079 43.05v105.86m29.547 20.577a10.65 10.65 0 0 0 7.977-.589l59.152-27.069a8.84 8.84 0 0 0 3.816-3.39 9.56 9.56 0 0 0 1.429-5.045v-74.85a9.57 9.57 0 0 0-1.428-5.045 8.85 8.85 0 0 0-3.817-3.39L105.603 23.04a11.37 11.37 0 0 0-8.534-.393c-1.794.7-3.334 1.979-4.402 3.655a10 10 0 0 0-1.548 5.683v127.968c0 2.109.629 4.165 1.796 5.876s2.816 2.991 4.711 3.658"/><path stroke="#000" stroke-linecap="round" stroke-linejoin="round" stroke-width="10" d="M114 63v66m34-58.568v51.136m-34-42.216 34 3.466m-34 30.195 34-3.831"/></svg>