<svg xmlns="http://www.w3.org/2000/svg" width="192" height="192" fill="none"><circle cx="96" cy="96" r="74" stroke="#000" stroke-linecap="round" stroke-linejoin="round" stroke-width="12"/><path stroke="#000" stroke-linecap="round" stroke-linejoin="round" stroke-width="8" d="M108.761 126.188a7 7 0 1 1-13.522 3.624"/><path stroke="#000" stroke-linecap="round" stroke-linejoin="round" stroke-width="10" d="M101.919 102c.118.447.107.924-.033 1.404s-.405.954-.782 1.395c-.377.44-.857.839-1.414 1.173a7.3 7.3 0 0 1-1.829.773 7.2 7.2 0 0 1-1.966.254 5.7 5.7 0 0 1-1.805-.301c-.544-.191-1.009-.467-1.367-.813a2.6 2.6 0 0 1-.723-1.199zm43.47-15.18c2.082 8.095-1.329 16.08-7.619 17.836s-13.077-3.383-15.159-11.477 1.329-16.08 7.619-17.835 13.077 3.383 15.159 11.477ZM111 58c1.528-1.769 3.533-3.065 5.902-3.656 2.377-.593 4.818-.4 7.098.428M50 81a12.6 12.6 0 0 1 5.3-5.382c2.377-1.275 5.037-1.771 7.7-1.578"/><path stroke="#000" stroke-linecap="round" stroke-linejoin="round" stroke-width="8" d="M53 106.041S61 104 71 105c0 0-6 5-15 8"/><path stroke="#000" stroke-linecap="round" stroke-linejoin="round" stroke-width="10" d="M87 129s15-1 29-8"/></svg>