<svg xmlns="http://www.w3.org/2000/svg" width="192" height="192" fill="none"><path stroke="#000" stroke-linecap="round" stroke-linejoin="round" stroke-width="12" d="M25 49c0-13.255 10.745-24 24-24h94c13.255 0 24 10.745 24 24v94c0 13.255-10.745 24-24 24H49c-13.255 0-24-10.745-24-24z"/><circle cx="78" cy="117" r="4" stroke="#000" stroke-linecap="round" stroke-linejoin="round" stroke-width="8"/><path stroke="#000" stroke-linecap="round" stroke-linejoin="round" stroke-width="12" d="M49 101a6 6 0 0 1 6-6h46a6 6 0 0 1 6 6v32a6 6 0 0 1-6 6H55a6 6 0 0 1-6-6zm80-5h14m-14 21h14m-14 21h14m-20-71H49"/></svg>