<svg xmlns="http://www.w3.org/2000/svg" width="192" height="192" fill="none"><path stroke="#000" stroke-linecap="round" stroke-linejoin="round" stroke-width="12" d="M71 28a6 6 0 0 1 6-6h82a6 6 0 0 1 6 6v76a6 6 0 0 1-6 6 6 6 0 0 0-6 6v14H89a6 6 0 0 1-6-6v-8a6 6 0 0 0-6-6h-6zm32 68h30M71 80H45a6 6 0 0 1-6-6V38a6 6 0 0 1 6-6h26M39 56h32m32 16V56m38 16V56"/><path stroke="#000" stroke-linecap="round" stroke-linejoin="round" stroke-width="12" d="M71 110H33a6 6 0 0 0-6 6v32a6 6 0 0 0 6 6 6 6 0 0 1 6 6v4a6 6 0 0 0 6 6h54a6 6 0 0 0 6-6v-4a6 6 0 0 1 6-6h12a6 6 0 0 1 6 6v4a6 6 0 0 0 6 6h12a6 6 0 0 0 6-6v-34"/></svg>