<svg xmlns="http://www.w3.org/2000/svg" width="192" height="192" fill="none"><path stroke="#000" stroke-linecap="round" stroke-linejoin="round" stroke-width="12" d="M112 155a15.001 15.001 0 1 1-30 0m0-45a14.999 14.999 0 0 1 30 0"/><path stroke="#000" stroke-linecap="round" stroke-linejoin="round" stroke-width="12" d="M167 92.927a15.1 15.1 0 0 0-4.393-10.658l-55.293-55.56c-6.249-6.279-16.38-6.279-22.628 0l-55.293 55.56A15.1 15.1 0 0 0 25 92.927c0 3.998 1.58 7.832 4.393 10.658A14.96 14.96 0 0 0 40 108c3.978 0 7.794-1.588 10.607-4.415l34.08-34.244c6.248-6.279 16.378-6.279 22.627 0l34.079 34.244A14.96 14.96 0 0 0 152 108c3.978 0 7.794-1.588 10.607-4.415A15.1 15.1 0 0 0 167 92.927M82 110v45m30-45v45"/></svg>