<svg xmlns="http://www.w3.org/2000/svg" width="192" height="192" fill="none"><path stroke="#000" stroke-linecap="round" stroke-linejoin="round" stroke-width="12" d="M139 120a50 50 0 0 1-30.866 46.194 50 50 0 0 1-54.49-10.839 49.995 49.995 0 0 1-10.838-54.489A50 50 0 0 1 89 70"/><path stroke="#000" stroke-linecap="round" stroke-linejoin="round" stroke-width="12" d="M139 120c0-14.218-9.476-28.436-11.587-47.567-.419-3.804-3.945-6.686-7.708-5.993C111.693 67.918 98.68 70 89 70"/><path stroke="#000" stroke-linecap="round" stroke-linejoin="round" stroke-width="10" d="M134 21c-5 9-8 17-6 27 6-6 6-19 6-27m23 27c-13 7-14 12-14 12s5 0 14-12m-55.059 23.704-10.093 37.668m-15.79 58.924 10.094-37.668M132.301 95l-33.773 19.499M45.698 145l33.774-19.499m-38.768-18.442 37.668 10.093m58.924 15.789-37.668-10.093M64 76.698l19.499 33.774M114 163.301l-19.5-33.773m-16.128-12.376A11 11 0 0 0 78 120c0 2.004.536 3.883 1.472 5.501m-1.1-8.349a11.03 11.03 0 0 1 5.127-6.68m0 0a10.95 10.95 0 0 1 5.5-1.472c.986 0 1.94.129 2.849.372m0 0a11.03 11.03 0 0 1 6.68 5.127m0 0A10.95 10.95 0 0 1 100 120c0 .985-.13 1.939-.372 2.848m0 0a11.03 11.03 0 0 1-5.127 6.68m0 0A10.95 10.95 0 0 1 89 131c-.985 0-1.94-.129-2.848-.372m0 0a11.03 11.03 0 0 1-6.68-5.127"/></svg>