<svg xmlns="http://www.w3.org/2000/svg" width="192" height="192" fill="none"><path stroke="#000" stroke-linecap="round" stroke-linejoin="round" stroke-width="12" d="M167 155c0-7.879-1.836-15.681-5.405-22.961s-8.797-13.894-15.39-19.465c-6.593-5.572-14.42-9.991-23.034-13.007C114.556 96.552 105.324 95 96 95s-18.556 1.552-27.17 4.567-16.442 7.435-23.035 13.007c-6.593 5.571-11.822 12.185-15.39 19.465S25 147.121 25 155"/><circle cx="51" cy="145" r="4" stroke="#000" stroke-linecap="round" stroke-linejoin="round" stroke-width="8"/><circle cx="68" cy="125" r="4" stroke="#000" stroke-linecap="round" stroke-linejoin="round" stroke-width="8"/><circle cx="82" cy="145" r="4" stroke="#000" stroke-linecap="round" stroke-linejoin="round" stroke-width="8"/><circle cx="96" cy="120" r="4" stroke="#000" stroke-linecap="round" stroke-linejoin="round" stroke-width="8"/><circle cx="110" cy="145" r="4" stroke="#000" stroke-linecap="round" stroke-linejoin="round" stroke-width="8"/><circle cx="124" cy="125" r="4" stroke="#000" stroke-linecap="round" stroke-linejoin="round" stroke-width="8"/><circle cx="141" cy="145" r="4" stroke="#000" stroke-linecap="round" stroke-linejoin="round" stroke-width="8"/><path stroke="#000" stroke-linecap="round" stroke-linejoin="round" stroke-width="12" d="M131.59 76.46c11.283 4.925 21.535 12.143 30.171 21.244a96 96 0 0 1 5.239 6M60.41 66.46c-11.283 4.925-21.535 12.143-30.17 21.244a96 96 0 0 0-5.24 6"/><path stroke="#000" stroke-linecap="round" stroke-linejoin="round" stroke-width="12" d="M25 31a6 6 0 0 1 6-6h130a6 6 0 0 1 6 6v130a6 6 0 0 1-6 6H31a6 6 0 0 1-6-6z"/></svg>