<svg xmlns="http://www.w3.org/2000/svg" width="192" height="192" fill="none"><path stroke="#000" stroke-linecap="round" stroke-linejoin="round" stroke-width="12" d="M78 105s-4 39-29 39a27 27 0 0 1-27-27c0-42 34.402-77.598 34.402-77.598a56 56 0 0 1 91.09 17.584 6.8 6.8 0 0 0 2.217 2.798 50.004 50.004 0 0 1 4.471 76.709A50 50 0 0 1 95 143.301l-22.5-12.99"/><path stroke="#000" stroke-linecap="round" stroke-linejoin="round" stroke-width="12" d="M40 170c2-13 16-27 16-27m92 27c-1-10-8-23-8-23"/><path stroke="#000" stroke-linecap="round" stroke-linejoin="round" stroke-width="10" d="M113 121c12 19 26 0 26 0M79 74c4-6 9-3 9-3"/><path stroke="#000" stroke-linecap="round" stroke-linejoin="round" stroke-width="6" d="m86 51.75-6 3L85 49zm25-5 6 3-5-5.75zM118 64a3 3 0 1 1 0 6 3 3 0 0 1 0-6"/><path stroke="#000" stroke-linecap="round" stroke-linejoin="round" stroke-width="10" d="M135.609 88.038c6.578.808 11.638 3.684 11.301 6.425s-5.942 4.308-12.52 3.5-11.637-3.684-11.301-6.425 5.942-4.307 12.52-3.5"/></svg>