<svg xmlns="http://www.w3.org/2000/svg" width="192" height="192" fill="none"><path stroke="#000" stroke-linecap="round" stroke-linejoin="round" stroke-width="12" d="M25 31a6 6 0 0 1 6-6h46a6 6 0 0 1 6 6v62a6 6 0 0 1-6 6H31a6 6 0 0 1-6-6zm84 0a6 6 0 0 1 6-6h46a6 6 0 0 1 6 6v32a6 6 0 0 1-6 6h-46a6 6 0 0 1-6-6zm6 124v12m46-12v12m-52-60c0-6.627 5.373-12 12-12h34c6.627 0 12 5.373 12 12v42a6 6 0 0 1-6 6h-46a6 6 0 0 1-6-6zm0 14h58M25 131a6 6 0 0 1 6-6h46a6 6 0 0 1 6 6v30a6 6 0 0 1-6 6H31a6 6 0 0 1-6-6z"/></svg>