<svg xmlns="http://www.w3.org/2000/svg" width="192" height="192" fill="none"><path stroke="#000" stroke-linecap="round" stroke-linejoin="round" stroke-width="10" d="M54 91a5 5 0 1 1 0 10 5 5 0 0 1 0-10m84 0a5 5 0 1 1 0 10 5 5 0 0 1 0-10"/><path stroke="#000" stroke-linecap="round" stroke-linejoin="round" stroke-width="8" d="M66 118a4 4 0 1 1 0 8 4 4 0 0 1 0-8m60 0a4 4 0 1 1 0 8 4 4 0 0 1 0-8"/><path stroke="#000" stroke-linecap="round" stroke-linejoin="round" stroke-width="12" d="M144 170H48m72-122H72m-43.665-6.795c.4-6.725 4.976-12.444 11.577-13.79C51.378 25.079 71.188 22 96 22s44.622 3.078 56.088 5.416c6.601 1.345 11.178 7.064 11.577 13.789l5.958 100.44a6 6 0 0 1-1.623 4.47 6 6 0 0 1-4.366 1.885H28.367a6 6 0 0 1-5.64-3.952 6 6 0 0 1-.35-2.403z"/></svg>