<svg xmlns="http://www.w3.org/2000/svg" width="192" height="192" fill="none"><path stroke="#000" stroke-linecap="round" stroke-linejoin="round" stroke-width="12" d="M24 28a6 6 0 0 1 6-6h132a6 6 0 0 1 6 6v110a6 6 0 0 1-6 6H30a6 6 0 0 1-6-6zm94 142H74m22-26v26"/><path stroke="#000" stroke-linecap="round" stroke-linejoin="round" stroke-width="12" d="M24 66a78 78 0 0 1 78 78"/><path stroke="#000" stroke-linecap="round" stroke-linejoin="round" stroke-width="12" d="M24 90a54 54 0 0 1 54 54m-54-30a30 30 0 0 1 21.213 8.787A30 30 0 0 1 54 144"/></svg>