<svg xmlns="http://www.w3.org/2000/svg" width="192" height="192" fill="none"><circle cx="154" cy="38" r="16" stroke="#000" stroke-linecap="round" stroke-linejoin="round" stroke-width="12"/><path stroke="#000" stroke-linecap="round" stroke-linejoin="round" stroke-width="12" d="M138 96a42 42 0 1 1-42-42"/><path stroke="#000" stroke-linecap="round" stroke-linejoin="round" stroke-width="12" d="M170 96a74 74 0 1 1-74-74"/><path stroke="#000" stroke-linecap="round" stroke-linejoin="round" stroke-width="12" d="M96 22h12a6 6 0 0 1 6 6v20a6 6 0 0 1-6 6H96m74 42V84a6 6 0 0 0-6-6h-20a6 6 0 0 0-6 6v12"/></svg>