<svg xmlns="http://www.w3.org/2000/svg" width="192" height="192" fill="none"><ellipse cx="121" cy="137" stroke="#000" stroke-linecap="round" stroke-linejoin="round" stroke-width="12" rx="49" ry="22"/><path stroke="#000" stroke-linecap="round" stroke-linejoin="round" stroke-width="12" d="M89.997 74c5.453 15.643 3.523 30.578-6.143 37.397-13.135 9.268-35.583.038-50.138-20.616s-15.706-44.91-2.57-54.178c7.367-5.198 17.663-4.578 27.854.614"/><path stroke="#000" stroke-linecap="round" stroke-linejoin="round" stroke-width="10" d="M72.84 64.56c-1.664 1.13-4.51.005-6.355-2.514s-1.99-5.476-.326-6.607c1.665-1.13 4.51-.004 6.356 2.514 1.845 2.52 1.99 5.477.326 6.608ZM44 54l26 6"/><path stroke="#000" stroke-linecap="round" stroke-linejoin="round" stroke-width="10" d="M88 101 62 74l16-22m28 65v40m30-40v40m-30-22 30 6"/></svg>