<svg xmlns="http://www.w3.org/2000/svg" width="192" height="192" fill="none"><path stroke="#000" stroke-linecap="round" stroke-linejoin="round" stroke-width="12" d="M168 98a72 72 0 0 1-5.481 27.553 72 72 0 0 1-38.966 38.966 72 72 0 0 1-55.106 0 72 72 0 0 1-38.966-38.966A72 72 0 0 1 24 98"/><path stroke="#000" stroke-linecap="round" stroke-linejoin="round" stroke-width="12" d="M120 98a24 24 0 0 1-14.816 22.173 23.997 23.997 0 0 1-31.357-12.989A24 24 0 0 1 72 98"/><path stroke="#000" stroke-linecap="round" stroke-linejoin="round" stroke-width="12" d="M96 122a24 24 0 0 1 22.173 14.816 23.996 23.996 0 0 1-12.989 31.357A24 24 0 0 1 96 170"/><circle cx="144" cy="46" r="24" stroke="#000" stroke-linecap="round" stroke-linejoin="round" stroke-width="12"/><circle cx="48" cy="46" r="24" stroke="#000" stroke-linecap="round" stroke-linejoin="round" stroke-width="12"/><path stroke="#000" stroke-linecap="round" stroke-linejoin="round" stroke-width="12" d="M24 94a24 24 0 0 1 48 0m48 0a24.003 24.003 0 0 1 24-24 24 24 0 0 1 24 24m-48 0v4m-96-4v4m144-4v4m-96-4v4"/></svg>