<svg xmlns="http://www.w3.org/2000/svg" width="192" height="192" fill="none"><path stroke="#000" stroke-linecap="round" stroke-linejoin="round" stroke-width="12" d="M26.358 98.319A75 75 0 0 1 63.583 26m0 0H22m41.583 0v36.583"/><path stroke="#000" stroke-linecap="round" stroke-linejoin="round" stroke-width="10" d="M96 31a5 5 0 1 0 0-10 5 5 0 0 0 0 10m60.622 25a5 5 0 1 1 0 10 5 5 0 0 1 0-10M166 101a5 5 0 1 0 0-10 5 5 0 0 0 0 10m-35-60.622a5 5 0 1 0 0-10 5 5 0 0 0 0 10M96 171a5 5 0 1 0 0-10 5 5 0 0 0 0 10m60.622-35a5 5 0 1 0-.001-10.001 5 5 0 0 0 .001 10.001M35.378 126a5 5 0 1 1 0 10 5 5 0 0 1 0-10M61 161.622a5 5 0 1 0 0-10 5 5 0 0 0 0 10m70-10a5 5 0 1 1-.001 10.001 5 5 0 0 1 .001-10.001"/></svg>