<svg xmlns="http://www.w3.org/2000/svg" width="192" height="192" fill="none"><path stroke="#000" stroke-linecap="round" stroke-linejoin="round" stroke-width="12" d="M72 118V82a6 6 0 0 0-6-6H50a6 6 0 0 0-6 6v36m104 0V82a6 6 0 0 0-6-6h-16a6 6 0 0 0-6 6v36m-76 0a52 52 0 0 0 52 52 52 52 0 0 0 36.77-15.23A52 52 0 0 0 148 118"/><circle cx="58" cy="36" r="14" stroke="#000" stroke-linecap="round" stroke-linejoin="round" stroke-width="12"/><circle cx="134" cy="36" r="14" stroke="#000" stroke-linecap="round" stroke-linejoin="round" stroke-width="12"/><path stroke="#000" stroke-linecap="round" stroke-linejoin="round" stroke-width="12" d="M72 118a24 24 0 0 0 7.03 16.971 24.01 24.01 0 0 0 26.154 5.202 24 24 0 0 0 7.787-5.202A24 24 0 0 0 120 118"/></svg>