<svg xmlns="http://www.w3.org/2000/svg" width="192" height="192" fill="none"><path stroke="#000" stroke-linecap="round" stroke-linejoin="round" stroke-width="10" d="M147.297 74.297c0 33.779-27.383 61.162-61.162 61.162-10.636 0-20.639-2.715-29.352-7.49m90.514-53.672c0-10.648-2.721-20.66-7.505-29.38m7.505 29.38c0-6.905-1.479-10.958-4.161-14.017a16.77 16.77 0 0 0-28.3 5.139m14.576-34.34a61.4 61.4 0 0 1 10.38 13.838M56.784 127.97c-17.804-9.757-30.224-28.114-31.67-49.482m31.67 49.482a36.1 36.1 0 0 0 15.647 3.545c20.1 0 36.393-16.377 36.393-36.579m-52.04 33.034a36 36 0 0 1-4.11-2.309m20.797-16.093c-22.971 0-41.593-18.716-41.593-41.804 0-2.759.266-5.455.774-8.065m53.296 28.967c-18.376 0-33.273-14.973-33.273-33.443a33.43 33.43 0 0 1 10.64-24.513m22.82-7.048-4.113 3.183a23 23 0 0 0-8.551 17.927c0 12.03 9.192 21.901 20.901 22.908m45.42-22.762c-4.63-6.686-12.355-11.066-21.103-11.066-8.684 0-16.36 4.316-21 10.92"/><path stroke="#000" stroke-linecap="round" stroke-linejoin="round" stroke-width="12" d="M114 167.795A74.2 74.2 0 0 1 96 170c-40.87 0-74-33.131-74-74s33.13-74 74-74 74 33.13 74 74c0 8.4-1.4 16.474-3.979 24"/><path stroke="#000" stroke-linecap="round" stroke-linejoin="round" stroke-width="12" d="M170 170v-30l-18 22-18-22v30"/></svg>