<svg xmlns="http://www.w3.org/2000/svg" width="192" height="192" fill="none"><path stroke="#000" stroke-linecap="round" stroke-linejoin="round" stroke-width="10" d="M42.58 112.001c.984 3.825.179 7.374-1.798 7.926s-4.378-2.102-5.362-5.928-.179-7.374 1.798-7.926 4.378 2.102 5.362 5.928m69 27c.984 3.825.179 7.374-1.798 7.926s-4.378-2.102-5.362-5.928-.179-7.374 1.798-7.926 4.378 2.102 5.362 5.928"/><path stroke="#000" stroke-linecap="round" stroke-linejoin="round" stroke-width="10" d="M21 102V60l42-15 101.534 37.713a6 6 0 0 1 3.874 4.962L171 111v16l-42 16m37-58-41 15m44 5-41 15"/><path stroke="#000" stroke-linecap="round" stroke-linejoin="round" stroke-width="10" d="M129 143v-16l-3-27L21 60m107 83L21 102m49 18 7.715-16.394m10.61-18.451L130 70M21 80l105 40"/></svg>