<svg xmlns="http://www.w3.org/2000/svg" width="192" height="192" fill="none"><circle cx="96" cy="96" r="14" stroke="#000" stroke-linecap="round" stroke-linejoin="round" stroke-width="12"/><path stroke="#000" stroke-linecap="round" stroke-linejoin="round" stroke-width="12" d="m130 150 27.757-27.757a6 6 0 0 0 0-8.486l-23.514-23.514a6 6 0 0 1 0-8.486l23.514-23.514a6 6 0 0 0 0-8.486L130 22M62 42 34.243 69.757a6 6 0 0 0 0 8.486l23.514 23.514a6 6 0 0 1 0 8.486l-23.514 23.514a6 6 0 0 0 0 8.486L62 170"/></svg>