<svg xmlns="http://www.w3.org/2000/svg" width="192" height="192" fill="none"><path stroke="#000" stroke-linejoin="round" stroke-width="12" d="m88.554 95.6 14.008-5.683 9.437 16.166-11.981 9.155a32.9 32.9 0 0 1 0 11.523L112 135.916l-9.438 16.167-14.008-5.685a33.7 33.7 0 0 1-10.09 5.762L76.438 167H57.56l-2.026-14.84a33.7 33.7 0 0 1-10.09-5.762l-14.007 5.685L22 135.916l11.982-9.155a32.9 32.9 0 0 1 0-11.523L22 106.083l9.438-16.166L45.445 95.6a33.7 33.7 0 0 1 10.09-5.762L57.561 75h18.877l2.025 14.84a33.7 33.7 0 0 1 10.09 5.76Z"/><circle cx="67" cy="121" r="5" stroke="#000" stroke-linecap="round" stroke-linejoin="round" stroke-width="10"/><path stroke="#000" stroke-linecap="round" stroke-linejoin="round" stroke-width="12" d="M134 131h30a6 6 0 0 0 6-6V33a6 6 0 0 0-6-6H42a6 6 0 0 0-6 6v35m91-41 16 22M95 27l16 22M63 27l16 22"/></svg>