<svg xmlns="http://www.w3.org/2000/svg" width="192" height="192" fill="none"><path stroke="#000" stroke-linejoin="round" stroke-width="12" d="M53 112a6 6 0 1 0 0-12 6 6 0 0 0 0 12Z"/><path stroke="#000" stroke-linecap="round" stroke-linejoin="round" stroke-width="10" d="M60 106V68l16-6"/><path stroke="#000" stroke-linecap="round" stroke-linejoin="round" stroke-width="12" d="M117.188 139.5c.295 3.419-2.402 6.5-5.981 6.5H31a6 6 0 0 1-6-6V31a6 6 0 0 1 6-6h51.381a6 6 0 0 1 5.8 4.466L102.603 84"/><path stroke="#000" stroke-linecap="round" stroke-linejoin="round" stroke-width="12" d="M94 46h67a6 6 0 0 1 6 6v109a6 6 0 0 1-1.757 4.243A6 6 0 0 1 161 167h-60.675a6 6 0 0 1-5.693-4.103L89 146"/><path stroke="#000" stroke-linejoin="round" stroke-width="6" d="M132 87a3 3 0 1 1 0 6 3 3 0 0 1 0-6Zm15 15a3 3 0 1 1 0 6 3 3 0 0 1 0-6Zm-15 15a3 3 0 1 1 0 6 3 3 0 0 1 0-6Zm-15-15a3 3 0 1 1 0 6 3 3 0 0 1 0-6Z"/><path stroke="#000" stroke-linecap="round" stroke-linejoin="round" stroke-width="12" d="M167 105a35 35 0 1 0-35 35m0 0h35"/></svg>