<svg xmlns="http://www.w3.org/2000/svg" width="192" height="192" fill="none"><path stroke="#000" stroke-linecap="round" stroke-linejoin="round" stroke-width="12" d="M22 103v46a6 6 0 0 0 6 6h102a6 6 0 0 0 4.243-1.757A6 6 0 0 0 136 149v-44m0 18 34-26v58l-34-26M46 86c13.255 0 24-10.745 24-24S59.255 38 46 38 22 48.745 22 62s10.745 24 24 24m70 0c13.255 0 24-10.745 24-24s-10.745-24-24-24-24 10.745-24 24 10.745 24 24 24"/><path stroke="#000" stroke-linecap="round" stroke-linejoin="round" stroke-width="10" d="M166 26a5 5 0 1 1 0 10 5 5 0 0 1 0-10"/></svg>