<svg xmlns="http://www.w3.org/2000/svg" width="192" height="192" fill="none" viewBox="0 0 192 192"><path stroke="#000" stroke-linejoin="round" stroke-width="12" d="m80.676 123.845-9.99 25.43a5.68 5.68 0 0 1-10.666 0L22.434 53.611c-1.549-3.942 1.239-8.26 5.333-8.26h22.07m30.84 78.494 9.99 25.43a5.68 5.68 0 0 0 10.666 0l9.991-25.43m-30.648 0L96 84.844m-15.324 39.001-30.84-78.494m61.488 78.494 9.991 25.43a5.68 5.68 0 0 0 10.665 0l37.586-95.664c1.549-3.942-1.239-8.26-5.333-8.26h-22.069m-30.84 78.494L96 84.844m15.324 39.001 30.84-78.494M96 84.844 79.236 42.176M96 84.844l16.764-42.668m-33.528 0h-27.35c-1.574 0-2.645 1.66-2.05 3.175m29.4-3.175C78.64 40.66 79.712 39 81.286 39h29.428c1.574 0 2.646 1.66 2.05 3.176m0 0h27.35c1.574 0 2.645 1.66 2.05 3.175"/></svg>