<svg xmlns="http://www.w3.org/2000/svg" width="192" height="192" fill="none"><path stroke="#000" stroke-linecap="round" stroke-linejoin="round" stroke-width="12" d="M92.278 47a35.997 35.997 0 0 0-41.301-24.308A36 36 0 0 0 58 94h2m39.722-47a36 36 0 0 1 20.501-22.26 36.002 36.002 0 0 1 47.037 47.037A36 36 0 0 1 134 94h-2"/><path stroke="#000" stroke-linecap="round" stroke-linejoin="round" stroke-width="12" d="M22 132a38 38 0 1 0 38-38m72 0q-2.15 0-4.27.24M170 132a38 38 0 0 1-23.458 35.107 37.99 37.99 0 0 1-41.412-8.237A38 38 0 0 1 96 144.166m0-24.332a38 38 0 0 1 31.73-25.593m0 0A33.9 33.9 0 0 0 130 82c0-18.778-15.222-34-34-34S62 63.222 62 82c0 4.315.804 8.443 2.27 12.24M22 58v74m148-74v74"/></svg>