<svg xmlns="http://www.w3.org/2000/svg" width="192" height="192" fill="none"><path stroke="#000" stroke-linecap="round" stroke-linejoin="round" stroke-width="12" d="M150.848 144.567a74.016 74.016 0 0 0-36.82-120.078 74 74 0 0 0-48.89 3.805A74 74 0 0 0 29.36 61.837a74.02 74.02 0 0 0 17.974 90.787A74 74 0 0 0 93.192 170m-19.294-52.064 57.252 51.558m-15.801-96.086c12.481 11.24 13.489 30.472 2.251 42.955s-30.467 13.491-42.949 2.251-13.49-30.472-2.25-42.955c11.238-12.483 30.466-13.491 42.948-2.251"/></svg>