<svg xmlns="http://www.w3.org/2000/svg" width="192" height="192" fill="none"><path stroke="#000" stroke-linecap="round" stroke-linejoin="round" stroke-width="12" d="M121.751 141.374A36.5 36.5 0 0 1 96 152a36.5 36.5 0 0 1-25.751-10.626l-37.583-37.441A36.2 36.2 0 0 1 22 78.28a36.2 36.2 0 0 1 10.666-25.654A36.5 36.5 0 0 1 58.417 42a36.5 36.5 0 0 1 25.751 10.626L96 64.413m25.751 76.961a36.2 36.2 0 0 0 10.666-25.654c0-9.622-3.836-18.85-10.666-25.653L96 64.413m25.751 76.961 37.583-37.441A36.2 36.2 0 0 0 170 78.28c0-9.622-3.837-18.85-10.666-25.654A36.5 36.5 0 0 0 133.583 42a36.5 36.5 0 0 0-25.751 10.626L96 64.413M61.201 99.08 49.37 87.293a12.72 12.72 0 0 1-3.748-9.013c0-3.38 1.348-6.623 3.748-9.014a12.82 12.82 0 0 1 9.047-3.733 12.82 12.82 0 0 1 9.048 3.733l11.832 11.787M61.2 99.08l25.751 25.654A12.82 12.82 0 0 0 96 128.467c3.394 0 6.648-1.343 9.048-3.733a12.73 12.73 0 0 0 3.747-9.014c0-3.38-1.348-6.623-3.747-9.013L79.297 81.053M61.2 99.08l18.096-18.027"/></svg>