<svg xmlns="http://www.w3.org/2000/svg" width="192" height="192" fill="none"><path stroke="#000" stroke-linecap="round" stroke-linejoin="round" stroke-width="12" d="M96 70.401 63.806 32.7c-1.198-1.403-3.487-.553-3.487 1.295v34.14a31.9 31.9 0 0 0 8.141 21.298L96 120.147m0-49.746L128.194 32.7c1.198-1.403 3.487-.553 3.487 1.295v34.14a31.9 31.9 0 0 1-8.141 21.298L96 120.147m0-49.746v49.746m0 0L70.558 91.851a31.66 31.66 0 0 0-23.545-10.505H23.986c-1.693 0-2.607 1.992-1.506 3.283l58.248 68.341c7.99 9.373 22.555 9.373 30.544 0l58.248-68.341c1.101-1.291.187-3.284-1.506-3.284h-23.027a31.66 31.66 0 0 0-23.545 10.506zm0 0v39.829"/></svg>