<svg xmlns="http://www.w3.org/2000/svg" width="192" height="192" fill="none"><path stroke="#000" stroke-linecap="round" stroke-linejoin="round" stroke-width="12" d="M162.966 55.145 35.449 39.635C28.299 38.767 22 44.346 22 51.549v78.982c0 4.597 3.866 8.249 8.456 7.987l93.681-5.353a6 6 0 0 1 4.789 1.961l18.369 20.27c3.072 3.389 8.705 1.216 8.705-3.358V137a6 6 0 0 1 6-6h2a6 6 0 0 0 6-6V63.086a8 8 0 0 0-7.034-7.941"/><path stroke="#000" stroke-linecap="round" stroke-linejoin="round" stroke-width="10" d="m42 67 13.025 44.657c.281.964 1.649.958 1.922-.008L69 69m81.181 15.211s-.842-9.016-10.841-9.208-12.155 8.79-12.19 10.789l-.297 16.997c-.052 3 1.808 11.016 11.807 11.208 9.998.192 11.155-8.789 11.155-8.789M98 93a11 11 0 0 0 10.163-6.79 11.02 11.02 0 0 0 0-8.42A11 11 0 0 0 98 71l-5.502-.459A6 6 0 0 0 86 76.522V112m12-19-12-1m12 1 11 19"/></svg>