<svg xmlns="http://www.w3.org/2000/svg" width="192" height="192" fill="none"><path stroke="#000" stroke-linecap="round" stroke-linejoin="round" stroke-width="12" d="M112.982 59.535 50.798 23.353C44.24 19.538 36 24.245 36 31.805v128.39c0 7.56 8.241 12.267 14.798 8.452l62.184-36.182m0-72.93 48.146 28.013c6.496 3.78 6.496 13.125 0 16.904l-48.146 28.013m0-72.93L88.427 71.166m24.555 61.299-24.555-11.631m0-49.668L68.023 59.264c-4-2.334-9.023.551-9.023 5.182v20.66L36 96l23 10.895v20.659c0 4.631 5.023 7.516 9.023 5.182l20.404-11.902m0-49.668 33.688 19.651c3.969 2.316 3.969 8.05 0 10.366l-33.688 19.651"/></svg>