<svg xmlns="http://www.w3.org/2000/svg" width="192" height="192" fill="none"><path stroke="#000" stroke-linecap="round" stroke-linejoin="round" stroke-width="12" d="M87 22c0 26-39 50-39 80s30 53 48 68"/><path stroke="#000" stroke-linecap="round" stroke-linejoin="round" stroke-width="12" d="M87 22s23 22 31 54c0 0 13-12 9-36 0 0 17 30 17 62s-30 53-48 68"/><path stroke="#000" stroke-linecap="round" stroke-linejoin="round" stroke-width="12" d="M116 111.906c0 11.485-10.769 18.906-20 28.094-9.23-9.188-20-16.609-20-28.094a19.86 19.86 0 0 1 5.858-14.076A20.05 20.05 0 0 1 96 92a20.05 20.05 0 0 1 14.142 5.83A19.86 19.86 0 0 1 116 111.906"/></svg>