<svg xmlns="http://www.w3.org/2000/svg" width="192" height="192" fill="none"><circle cx="130" cy="40" r="5" stroke="#000" stroke-linecap="round" stroke-linejoin="round" stroke-width="10"/><path stroke="#000" stroke-linecap="round" stroke-linejoin="round" stroke-width="12" d="m130.794 117.307 12.53-28.075a14 14 0 0 1 3.125-4.465 13.92 13.92 0 0 1 9.953-3.862c1.83.044 3.635.45 5.309 1.193a14 14 0 0 1 7.354 7.765 14.05 14.05 0 0 1-.258 10.705l-13.954 31.656m0 0a8.9 8.9 0 0 1-2.986 3.416 8.82 8.82 0 0 1-8.734.649 8.84 8.84 0 0 1-3.456-2.936l-26.662-41.745m41.838 40.616-9.749 19.262c-1.096 2.534-4.085 6.062-7.376 7.183a13.9 13.9 0 0 1-10 .389 13.93 13.93 0 0 1-7.677-6.436l-24.63-41.187M61.2 117.948 48.676 89.221a14 14 0 0 0-3.126-4.465 13.9 13.9 0 0 0-15.26-2.666 14 14 0 0 0-7.354 7.766 14.05 14.05 0 0 0 .258 10.705l14.049 31.844m0 0 9.78 19.266a13.9 13.9 0 0 0 4.094 5.317 13.9 13.9 0 0 0 6.1 2.78v-.012a13.9 13.9 0 0 0 8.508-1.077 13.96 13.96 0 0 0 6.27-5.867s11.193-22.115 16.52-31.962v-.004c18.86-34.853 36.045-33.383 32.085-39.9-6.907-11.35-34.318-5.967-47.456 16.603-4.251 7.293-13.837 24.07-19.97 34.807q-.023-.018-.042.019a8.9 8.9 0 0 1-3.265 3.608 8.85 8.85 0 0 1-9.346.018 8.9 8.9 0 0 1-3.278-3.596m28.302-62.696c-2.192-.796-7.52-20.679 6.82-33.44 20.64-18.356 42.416 8.317 13.056 19.782-19.536 7.622-17.696 14.457-19.876 13.658"/></svg>