<svg xmlns="http://www.w3.org/2000/svg" width="192" height="192" fill="none"><ellipse cx="84" cy="110" stroke="#000" stroke-linecap="round" stroke-linejoin="round" stroke-width="8" rx="4" ry="3"/><path stroke="#000" stroke-linecap="round" stroke-linejoin="round" stroke-width="12" d="M70.81 170c34.641-2.003 68.509-7.257 89.19-28.422l-12.747-35.062c-1.666-7.948-2.306-26.146.846-32.027l-23.682 10.507 2.979-13.001c2.18-11.27 1.129-19.945-1.989-28.996L114.489 56c-4.442-18.618-16.77-25.33-27.794-34l4.187 28.191c4.191 15.416-7.248 21.8-22.946 43.154-7.065 9.615-13.999 12-35.936 17.499 10.344 5.155 11.132 5.155 20.65 11.705C78.858 140.584 68.27 169.951 70.81 170"/><path stroke="#000" stroke-linecap="round" stroke-linejoin="round" stroke-width="12" d="m107 109 19-3-9 29-22 8"/></svg>