<svg xmlns="http://www.w3.org/2000/svg" width="192" height="192" fill="none"><circle cx="137" cy="137" r="30" stroke="#000" stroke-linecap="round" stroke-linejoin="round" stroke-width="12"/><path stroke="#000" stroke-linecap="round" stroke-linejoin="round" stroke-width="12" d="M25 126c0-9.941 8.059-18 18-18h22c9.941 0 18 8.059 18 18v22c0 9.941-8.059 18-18 18H43c-9.941 0-18-8.059-18-18zm0-83c0-9.941 8.059-18 18-18h106c9.941 0 18 8.059 18 18v22c0 9.941-8.059 18-18 18H43c-9.941 0-18-8.059-18-18z"/></svg>