<svg xmlns="http://www.w3.org/2000/svg" width="192" height="192" fill="none"><path stroke="#000" stroke-linecap="round" stroke-linejoin="round" stroke-width="12" d="M22 41c0 123 48 123 58 123M70 41c0 123 30 123 40 123"/><path stroke="#000" stroke-linecap="round" stroke-linejoin="round" stroke-width="12" d="M48 41c2 109 22 123 32 123M96 41c-8 123 2 123 14 123m60-95c-34 95-50 95-60 95"/><path stroke="#000" stroke-linecap="round" stroke-linejoin="round" stroke-width="12" d="M144 69c-28 95-54 95-64 95M48 41a13 13 0 0 0-26 0m74 0a13 13 0 0 0-26 0"/></svg>