<svg xmlns="http://www.w3.org/2000/svg" width="192" height="192" fill="none"><path stroke="#000" stroke-linecap="round" stroke-linejoin="round" stroke-width="12" d="M160 63c0 17-10 32-18.5 52.5M136 63c0 17 14 27 5.5 52.5M32 61h27m22 0h34"/><circle cx="96" cy="96" r="74" stroke="#000" stroke-linecap="round" stroke-linejoin="round" stroke-width="12"/><path stroke="#000" stroke-linecap="round" stroke-linejoin="round" stroke-width="12" d="M78.5 136.122 53 61m25.5 75.122L95 87.513m-16.5 48.609-9.743 28.702m65.743-28.702L109 61m25.5 75.122-9.497 27.978m9.497-27.978 7-20.622M86 61l9 26.513m0 0 26.472 77.986m-56.833-2.453L30.306 61.903M160 63a12 12 0 1 0-24 0"/></svg>