<svg xmlns="http://www.w3.org/2000/svg" width="192" height="192" fill="none"><path stroke="#000" stroke-linecap="round" stroke-linejoin="round" stroke-width="10" d="M21 113a78 78 0 0 1 78-78m1 60c11.046 0 20 6.716 20 15s-8.954 15-20 15-20-6.716-20-15 8.954-15 20-15m20 17 10-90c7 7 19.5 14 19.5 14"/><path stroke="#000" stroke-linecap="round" stroke-linejoin="round" stroke-width="10" d="M146.43 83.25a56.495 56.495 0 0 1-11.677 70.729 56.496 56.496 0 0 1-76.72-2.045 56.5 56.5 0 0 1 46.255-96.525m19.021 81.9a36.5 36.5 0 0 1-16.362 9.447 36.49 36.49 0 0 1-38.406-13.035 36.502 36.502 0 0 1 33.537-58.433"/><path stroke="#000" stroke-linecap="round" stroke-width="10" d="M129 36c5-11 41 3 32.5 27.5"/></svg>