<svg xmlns="http://www.w3.org/2000/svg" width="192" height="192" fill="none"><path stroke="#000" stroke-linecap="round" stroke-linejoin="round" stroke-width="12" d="M30.225 55.445A5.98 5.98 0 0 0 27 60.748v70.504a5.98 5.98 0 0 0 3.225 5.303l63 32.767a6.02 6.02 0 0 0 5.55 0l63-32.767a5.98 5.98 0 0 0 3.225-5.303V60.748a5.98 5.98 0 0 0-3.225-5.303l-63-32.767a6.02 6.02 0 0 0-5.55 0zM129 78v36M85 99v15"/><path stroke="#000" stroke-linecap="round" stroke-linejoin="round" stroke-width="12" d="M63 114V84a6 6 0 0 1 6-6h26c6.627 0 12 5.373 12 12v24"/></svg>