<svg xmlns="http://www.w3.org/2000/svg" width="192" height="192" fill="none"><path stroke="#000" stroke-linecap="round" stroke-linejoin="round" stroke-width="12" d="M54 46H38a6 6 0 0 0-6 6v112a6 6 0 0 0 6 6h116a6 6 0 0 0 6-6V52a6 6 0 0 0-6-6h-16m-62 0h40"/><path stroke="#000" stroke-linecap="round" stroke-linejoin="round" stroke-width="12" d="M54 28a6 6 0 0 1 6-6h10a6 6 0 0 1 6 6v30a6 6 0 0 1-6 6H60a6 6 0 0 1-6-6zm62 0a6 6 0 0 1 6-6h10a6 6 0 0 1 6 6v30a6 6 0 0 1-6 6h-10a6 6 0 0 1-6-6zM89 147c2-28 27-58 27-58H78"/></svg>