<svg xmlns="http://www.w3.org/2000/svg" width="192" height="192" fill="none"><path stroke="#000" stroke-width="12.002" d="M169.931 106.387v-3.551c-.079-6.06-3.937-37.239-6.142-42.454-2.52-5.991-5.984-10.572-10.315-13.462-7.087-4.722-13.072-5.779-20.473-5.92h-.158c-3.15 0-23.702 2.255-40.947 4.37-17.323 2.114-38.978 4.933-44.096 6.625-7.087 2.326-12.756 5.427-17.245 9.373-8.268 7.33-9.291 14.871-8.19 24.738.788 7.683 5.434 41.847 8.033 48.754 3.543 9.304 10.473 14.942 19.45 15.788 2.204.211 4.33.352 6.456.352 7.875 0 14.174-1.48 21.419-3.242 11.417-2.749 25.591-6.132 54.884-6.132h.866c7.166 0 24.725-1.409 32.757-14.589 4.095-7.048 3.859-15.576 3.701-20.65Z"/><path stroke="#000" stroke-width="12.002" d="M92.853 114.903c-3.692 2.476-6.153 3.095-7.768 3.095a4.53 4.53 0 0 1-2.307-.55c-2.615-1.238-3.23-4.195-3.845-8.253l-.077-.688c-.308-2.132-2-14.443-2.922-21.733l-.693-5.02c-.307-1.926-.769-5.159 1.846-6.878 2.461-1.582 5.768-.62 7.383-.207 4.076 1.17 27.685 8.46 35.299 11.899 1.615.619 5.153 1.925 5.23 5.708.076 3.439-2.923 5.09-4.076 5.64z"/></svg>