<svg xmlns="http://www.w3.org/2000/svg" width="192" height="192" fill="none"><path stroke="#000" stroke-width="12" d="M170 96c0-45-4.962-49.999-50-50H72c-45.038.001-50 5-50 50s4.962 49.999 50 50h48c45.038-.001 50-5 50-50Z"/><path stroke="#000" stroke-linecap="round" stroke-linejoin="round" stroke-width="8" d="M75 96a4 4 0 1 0 0-8 4 4 0 0 0 0 8m42-8a4 4 0 1 1 0 8 4 4 0 0 1 0-8"/><path stroke="#000" stroke-linecap="round" stroke-linejoin="round" stroke-width="12" d="M51 74v44a6 6 0 0 0 6 6h19.49c2.169 0 4.163-1.169 5.34-2.99C84.82 116.38 90.933 110 96 110c5.066 0 11.179 6.38 14.171 11.01 1.176 1.821 3.17 2.99 5.338 2.99H135a6 6 0 0 0 4.243-1.757A6 6 0 0 0 141 118V74a6 6 0 0 0-6-6H57a6 6 0 0 0-6 6"/></svg>