<svg xmlns="http://www.w3.org/2000/svg" width="192" height="192" fill="none"><circle cx="138" cy="54" r="32" stroke="#000" stroke-linecap="round" stroke-linejoin="round" stroke-width="12"/><circle cx="139" cy="139" r="6" stroke="#000" stroke-linecap="round" stroke-linejoin="round" stroke-width="12"/><path stroke="#000" stroke-linecap="round" stroke-linejoin="round" stroke-width="12" d="m82 109-30 30m0 0-30 30m30-30-30-30m30 30 30 30m0-147L52 52m0 0L22 82m30-30L22 22m86 92a6 6 0 0 1 6-6h50a6 6 0 0 1 6 6v50a6 6 0 0 1-6 6h-50a6 6 0 0 1-6-6z"/></svg>