<svg xmlns="http://www.w3.org/2000/svg" width="192" height="192" fill="none"><path stroke="#000" stroke-linecap="round" stroke-linejoin="round" stroke-width="12" d="M66.095 89.32a87.2 87.2 0 0 1 11.813 35.088 89 89 0 0 1 .544 9.83c0 11.965-2.395 23.37-6.732 33.762m81.806-23.972a49 49 0 0 1-.983-9.79c0-15.01 6.786-28.435 17.457-37.376l-12.165-38.858C138.31 56.234 122.109 42.952 116.076 25H75.924C69.89 42.952 53.69 56.234 34.164 58.004L22 96.862c10.671 8.941 17.457 22.366 17.457 37.376 0 3.353-.339 6.627-.983 9.79L71.72 168c7.149-4.114 15.44-6.467 24.28-6.467s17.131 2.353 24.28 6.467zM96 66.938A88 88 0 0 1 66.095 89.32c-11.085 5.058-23.407 7.876-36.387 7.876q-3.897 0-7.708-.334M75.924 25C78.759 40.867 85.86 55.256 96 66.939m18.092 57.469a87.2 87.2 0 0 1 11.813-35.088 88.2 88.2 0 0 1 31.93-31.316m-4.309 86.024c-11.061-9.613-24.554-16.501-39.434-19.62M96 66.938a88 88 0 0 0 29.905 22.382m-47.997 35.088A88 88 0 0 1 96 122.541c6.202 0 12.254.643 18.092 1.867"/></svg>