<svg xmlns="http://www.w3.org/2000/svg" width="192" height="192" fill="none"><circle cx="96" cy="96" r="14" stroke="#000" stroke-linecap="round" stroke-linejoin="round" stroke-width="12"/><path stroke="#000" stroke-linecap="round" stroke-linejoin="round" stroke-width="12" d="M60 96a36 36 0 0 1 50-33.166M132 96a35.998 35.998 0 0 1-50 33.166"/><path stroke="#000" stroke-linecap="round" stroke-linejoin="round" stroke-width="12" d="m154 71.795 10.198 10.198c7.736 7.736 7.736 20.278 0 28.014l-16.596 16.595M132 142.205l-21.993 21.993c-7.736 7.736-20.278 7.736-28.014 0l-16.135-16.135A20 20 0 0 1 60 133.921V96m-.102-46.102 22.095-22.096c7.736-7.736 20.278-7.736 28.014 0l16.138 16.138a20 20 0 0 1 5.858 14.144L132 96m-94 24.205-10.198-10.198c-7.736-7.736-7.736-20.278 0-28.014l16.596-16.596"/></svg>