<svg xmlns="http://www.w3.org/2000/svg" width="192" height="192" fill="none"><path stroke="#000" stroke-linecap="round" stroke-linejoin="round" stroke-width="12" d="M119.835 77.134c-12.661-14.413-35.01-14.413-47.67 0L55.593 96m16.572 18.866c12.66 14.413 35.009 14.413 47.67 0L136.407 96m0 0 32.098-36.54a6.03 6.03 0 0 0 .493-7.302l-7.611-11.486A5.96 5.96 0 0 0 156.424 38H35.576a5.96 5.96 0 0 0-4.963 2.672l-7.611 11.486a6.03 6.03 0 0 0 .493 7.302L55.593 96m80.814 0 32.098 36.54a6.03 6.03 0 0 1 .493 7.302l-7.611 11.486a5.96 5.96 0 0 1-4.963 2.672H35.576a5.96 5.96 0 0 1-4.963-2.672l-7.611-11.486a6.03 6.03 0 0 1 .493-7.302L55.593 96"/></svg>